<?xml version="1.0" encoding="utf-8"?>
<!-- Generator: Adobe Illustrator 23.0.1, SVG Export Plug-In . SVG Version: 6.00 Build 0)  -->
<svg version="1.1" id="Layer_1" xmlns="http://www.w3.org/2000/svg" xmlns:xlink="http://www.w3.org/1999/xlink" x="0px" y="0px"
	 viewBox="0 0 292.76 258.16" style="enable-background:new 0 0 292.76 258.16;" xml:space="preserve">
<style type="text/css">
	.st0{fill:#C44106;}
	.st1{fill:#0A2B6D;}
	.st2{fill:none;stroke:#FFFFFF;stroke-width:6;stroke-miterlimit:10;}
	.st3{fill:#F26721;}
	.st4{fill:#FFFFFF;}
</style>
<polygon class="st0" points="262.76,234.01 216.9,117.09 216.9,65.75 292.76,174.86 "/>
<polygon class="st0" points="30,234.01 75.86,117.09 75.86,65.75 0,174.86 "/>
<path class="st1" d="M148.97,1.77c-70.8,0-128.2,57.4-128.2,128.2s57.4,128.2,128.2,128.2s128.2-57.4,128.2-128.2
	S219.78,1.77,148.97,1.77z"/>
<circle class="st2" cx="148.97" cy="129.96" r="117.07"/>
<polygon class="st3" points="262.76,234.01 30,234.01 0,174.86 292.76,174.86 "/>
<g>
	<path class="st4" d="M81.3,83.85h-3.99V67.49h-4.04v-2.81l8.03-0.71V83.85z"/>
	<path class="st4" d="M101.91,83.85H88.33v-2.61l6.43-6.9c0.93-1.06,1.59-1.96,1.98-2.7c0.39-0.73,0.59-1.41,0.59-2.04
		c0-0.84-0.23-1.52-0.68-2.06c-0.45-0.53-1.09-0.8-1.92-0.8c-0.92,0-1.62,0.31-2.1,0.94c-0.48,0.62-0.72,1.45-0.72,2.49h-3.88
		l-0.03-0.08c-0.05-1.79,0.54-3.31,1.77-4.55s2.88-1.86,4.95-1.86c2.05,0,3.66,0.53,4.83,1.6c1.17,1.06,1.75,2.49,1.75,4.26
		c0,1.2-0.33,2.31-0.99,3.33c-0.66,1.02-1.75,2.35-3.27,4l-3.54,3.85l0.03,0.07h8.36V83.85z"/>
	<path class="st4" d="M117.05,63.96l5.07,14.65h0.08l5.11-14.65h5.22v19.89h-3.99v-5.93l0.38-8.78l-0.08-0.01l-5.33,14.72h-2.68
		l-5.3-14.67l-0.08,0.01l0.38,8.73v5.93h-3.99V63.96H117.05z"/>
	<path class="st4" d="M152.25,75.7c0,2.44-0.77,4.46-2.32,6.05c-1.54,1.59-3.55,2.39-6.02,2.39c-2.45,0-4.44-0.8-5.97-2.39
		c-1.53-1.59-2.29-3.61-2.29-6.05v-3.58c0-2.43,0.76-4.45,2.29-6.04s3.51-2.4,5.96-2.4c2.47,0,4.47,0.8,6.02,2.4
		s2.32,3.61,2.32,6.04V75.7z M148.26,72.1c0-1.55-0.39-2.82-1.16-3.82c-0.77-0.99-1.84-1.49-3.2-1.49c-1.36,0-2.41,0.5-3.16,1.48
		c-0.75,0.99-1.12,2.26-1.12,3.82v3.61c0,1.58,0.38,2.86,1.13,3.86c0.76,0.99,1.81,1.49,3.16,1.49c1.37,0,2.43-0.5,3.2-1.49
		c0.77-0.99,1.15-2.28,1.15-3.86V72.1z"/>
	<path class="st4" d="M171.44,83.85h-3.97l-8.03-13.59l-0.08,0.01v13.58h-3.99V63.96h3.99l8.03,13.58l0.08-0.01V63.96h3.97V83.85z"
		/>
	<path class="st4" d="M188.91,67.04h-5.63v16.81h-3.99V67.04h-5.6v-3.07h15.21V67.04z"/>
	<path class="st4" d="M207.21,83.85h-3.97v-8.26h-8.11v8.26h-3.99V63.96h3.99v8.55h8.11v-8.55h3.97V83.85z"/>
	<path class="st4" d="M221.67,78.66c0-0.76-0.27-1.38-0.81-1.84c-0.54-0.46-1.49-0.9-2.85-1.31c-2.37-0.68-4.16-1.49-5.37-2.43
		c-1.21-0.94-1.82-2.22-1.82-3.85c0-1.63,0.69-2.96,2.08-3.99s3.16-1.55,5.32-1.55c2.19,0,3.97,0.58,5.34,1.74
		c1.37,1.16,2.04,2.59,1.99,4.3l-0.03,0.08h-3.86c0-0.92-0.31-1.66-0.92-2.23c-0.62-0.57-1.48-0.85-2.59-0.85
		c-1.07,0-1.89,0.24-2.47,0.71c-0.58,0.47-0.87,1.08-0.87,1.82c0,0.67,0.31,1.23,0.94,1.66c0.62,0.43,1.7,0.89,3.23,1.37
		c2.19,0.61,3.86,1.42,4.99,2.42s1.69,2.32,1.69,3.95c0,1.7-0.67,3.05-2.01,4.03c-1.34,0.98-3.12,1.47-5.32,1.47
		c-2.17,0-4.06-0.56-5.67-1.67s-2.39-2.68-2.35-4.69l0.03-0.08h3.88c0,1.18,0.36,2.05,1.08,2.6c0.72,0.55,1.73,0.83,3.03,0.83
		c1.08,0,1.91-0.22,2.49-0.67C221.39,80,221.67,79.41,221.67,78.66z"/>
	<path class="st4" d="M63.92,97.53v13.19c0,2.23-0.74,3.95-2.21,5.16c-1.48,1.21-3.41,1.82-5.79,1.82c-2.38,0-4.3-0.61-5.76-1.82
		c-1.46-1.21-2.19-2.93-2.19-5.16V97.53h4v13.18c0,1.31,0.35,2.29,1.05,2.94s1.67,0.98,2.9,0.98c1.25,0,2.23-0.32,2.94-0.97
		c0.71-0.65,1.06-1.63,1.06-2.95V97.53H63.92z"/>
	<path class="st4" d="M83.48,117.42H79.5l-8.03-13.59l-0.08,0.01v13.58H67.4V97.53h3.99l8.03,13.58l0.08-0.01V97.53h3.97V117.42z"/>
	<path class="st4" d="M91.19,110.2v7.21H87.2V97.53h7.92c2.29,0,4.08,0.58,5.39,1.75c1.31,1.17,1.97,2.7,1.97,4.6
		s-0.66,3.43-1.97,4.59c-1.31,1.16-3.11,1.73-5.39,1.73H91.19z M91.19,107.13h3.93c1.11,0,1.95-0.3,2.53-0.91
		c0.57-0.61,0.86-1.38,0.86-2.31c0-0.96-0.29-1.75-0.85-2.37c-0.57-0.62-1.41-0.94-2.53-0.94h-3.93V107.13z"/>
	<path class="st4" d="M113.8,113.13h-6.98l-1.35,4.29h-4.03l6.84-19.89h4.08l6.82,19.89h-4.03L113.8,113.13z M107.8,110h5.01
		l-2.46-7.81h-0.08L107.8,110z"/>
	<path class="st4" d="M125.02,109.47v7.95h-3.99V97.53h7.5c2.27,0,4.04,0.52,5.32,1.55c1.28,1.03,1.92,2.47,1.92,4.32
		c0,1.03-0.27,1.91-0.81,2.65c-0.54,0.74-1.32,1.33-2.36,1.79c1.17,0.35,2.02,0.92,2.53,1.73s0.77,1.81,0.77,3v1.46
		c0,0.55,0.08,1.14,0.23,1.74s0.41,1.05,0.77,1.34v0.29h-4.11c-0.36-0.29-0.6-0.78-0.71-1.46c-0.11-0.68-0.16-1.33-0.16-1.94v-1.41
		c0-0.99-0.27-1.76-0.81-2.31c-0.54-0.55-1.3-0.83-2.29-0.83H125.02z M125.02,106.39h3.44c1.12,0,1.96-0.24,2.51-0.71
		c0.55-0.47,0.83-1.17,0.83-2.1c0-0.91-0.28-1.63-0.83-2.17c-0.55-0.54-1.36-0.81-2.44-0.81h-3.51V106.39z"/>
	<path class="st4" d="M150.19,113.13h-6.98l-1.35,4.29h-4.03l6.84-19.89h4.08l6.82,19.89h-4.03L150.19,113.13z M144.2,110h5.01
		l-2.46-7.81h-0.08L144.2,110z"/>
	<path class="st4" d="M161.42,114.34h8.85v3.07h-12.84V97.53h3.99V114.34z"/>
	<path class="st4" d="M176.55,114.34h8.85v3.07h-12.84V97.53h3.99V114.34z"/>
	<path class="st4" d="M199.92,108.67h-8.24v5.67h9.63v3.07H187.7V97.53h13.59v3.07h-9.6v5h8.24V108.67z"/>
	<path class="st4" d="M207.75,114.34h8.85v3.07h-12.84V97.53h3.99V114.34z"/>
	<path class="st4" d="M231.12,108.67h-8.24v5.67h9.63v3.07h-13.62V97.53h13.59v3.07h-9.6v5h8.24V108.67z"/>
	<path class="st4" d="M234.95,117.42V97.53h6.83c2.43,0,4.43,0.78,6.01,2.33c1.58,1.55,2.36,3.54,2.36,5.98v3.29
		c0,2.44-0.79,4.43-2.36,5.97c-1.58,1.54-3.58,2.32-6.01,2.32H234.95z M238.94,100.6v13.74h2.64c1.43,0,2.55-0.48,3.36-1.45
		s1.22-2.22,1.22-3.78v-3.32c0-1.54-0.41-2.79-1.22-3.75c-0.81-0.96-1.93-1.45-3.36-1.45H238.94z"/>
	<path class="st4" d="M101.68,145.79c0-0.77-0.27-1.38-0.81-1.84c-0.54-0.46-1.49-0.9-2.85-1.31c-2.37-0.68-4.16-1.49-5.37-2.43
		c-1.21-0.94-1.82-2.22-1.82-3.85s0.69-2.96,2.08-4s3.16-1.55,5.32-1.55c2.19,0,3.97,0.58,5.34,1.74c1.37,1.16,2.04,2.59,1.99,4.29
		l-0.03,0.08h-3.86c0-0.92-0.31-1.66-0.92-2.23c-0.62-0.57-1.48-0.85-2.59-0.85c-1.07,0-1.89,0.24-2.47,0.71
		c-0.58,0.47-0.87,1.08-0.87,1.82c0,0.67,0.31,1.23,0.94,1.66c0.62,0.43,1.7,0.89,3.23,1.37c2.19,0.61,3.86,1.42,4.99,2.42
		s1.69,2.32,1.69,3.95c0,1.7-0.67,3.04-2.01,4.03c-1.34,0.98-3.12,1.48-5.32,1.48c-2.17,0-4.06-0.56-5.67-1.67
		c-1.61-1.12-2.39-2.68-2.35-4.69l0.03-0.08h3.88c0,1.18,0.36,2.05,1.08,2.6c0.72,0.55,1.73,0.83,3.03,0.83
		c1.08,0,1.91-0.22,2.49-0.67C101.4,147.13,101.68,146.54,101.68,145.79z"/>
	<path class="st4" d="M124.42,131.1v13.19c0,2.23-0.74,3.95-2.21,5.16c-1.48,1.21-3.41,1.82-5.79,1.82c-2.38,0-4.3-0.61-5.76-1.82
		c-1.46-1.21-2.19-2.93-2.19-5.16V131.1h4v13.18c0,1.31,0.35,2.29,1.05,2.94s1.67,0.98,2.9,0.98c1.25,0,2.23-0.32,2.94-0.97
		c0.71-0.65,1.06-1.63,1.06-2.95V131.1H124.42z"/>
	<path class="st4" d="M131.89,143.77v7.21h-3.99V131.1h7.92c2.29,0,4.08,0.58,5.39,1.75c1.31,1.17,1.97,2.7,1.97,4.6
		c0,1.9-0.66,3.43-1.97,4.59c-1.31,1.16-3.11,1.73-5.39,1.73H131.89z M131.89,140.7h3.93c1.11,0,1.95-0.3,2.53-0.91
		c0.57-0.61,0.86-1.38,0.86-2.32c0-0.96-0.29-1.75-0.85-2.37c-0.57-0.62-1.41-0.94-2.53-0.94h-3.93V140.7z"/>
	<path class="st4" d="M150.11,143.77v7.21h-3.99V131.1h7.92c2.29,0,4.08,0.58,5.39,1.75c1.31,1.17,1.97,2.7,1.97,4.6
		c0,1.9-0.66,3.43-1.97,4.59c-1.31,1.16-3.11,1.73-5.39,1.73H150.11z M150.11,140.7h3.93c1.11,0,1.95-0.3,2.53-0.91
		c0.57-0.61,0.86-1.38,0.86-2.32c0-0.96-0.29-1.75-0.85-2.37c-0.57-0.62-1.41-0.94-2.53-0.94h-3.93V140.7z"/>
	<path class="st4" d="M180.34,142.83c0,2.44-0.77,4.46-2.32,6.05c-1.54,1.59-3.55,2.39-6.02,2.39c-2.45,0-4.44-0.8-5.97-2.39
		c-1.53-1.59-2.29-3.61-2.29-6.05v-3.58c0-2.43,0.76-4.45,2.29-6.04s3.51-2.4,5.96-2.4c2.47,0,4.48,0.8,6.02,2.4
		s2.32,3.61,2.32,6.04V142.83z M176.35,139.23c0-1.55-0.39-2.82-1.16-3.82c-0.77-1-1.84-1.49-3.2-1.49c-1.36,0-2.41,0.5-3.16,1.49
		c-0.75,0.99-1.12,2.26-1.12,3.82v3.61c0,1.58,0.38,2.86,1.13,3.86c0.76,0.99,1.81,1.49,3.16,1.49c1.37,0,2.43-0.5,3.2-1.49
		c0.77-1,1.15-2.28,1.15-3.86V139.23z"/>
	<path class="st4" d="M187.44,143.03v7.95h-3.99V131.1h7.5c2.27,0,4.04,0.52,5.32,1.55s1.92,2.47,1.92,4.32
		c0,1.03-0.27,1.91-0.81,2.65s-1.32,1.33-2.36,1.79c1.17,0.35,2.02,0.92,2.53,1.73c0.51,0.81,0.77,1.81,0.77,3v1.46
		c0,0.55,0.08,1.14,0.23,1.74s0.41,1.05,0.77,1.34v0.29h-4.11c-0.36-0.29-0.6-0.78-0.71-1.46c-0.11-0.68-0.16-1.33-0.16-1.94v-1.41
		c0-0.99-0.27-1.76-0.81-2.31s-1.3-0.83-2.29-0.83H187.44z M187.44,139.96h3.44c1.12,0,1.96-0.24,2.51-0.71
		c0.55-0.47,0.83-1.17,0.83-2.1c0-0.91-0.28-1.63-0.83-2.17s-1.36-0.81-2.44-0.81h-3.51V139.96z"/>
	<path class="st4" d="M215.26,134.17h-5.63v16.81h-3.99v-16.81h-5.6v-3.07h15.21V134.17z"/>
</g>
<path class="st4" d="M81.11,199.1c0.11,0,0.11,0,0.23,0c3.95,0,7.78,0,11.73,0c0.34,0,0.68,0,1.02,0c0.23,0,0.34-0.11,0.45-0.34
	c0.9-2.82,1.8-5.64,2.82-8.46c0.45-1.47,0.9-2.82,1.47-4.4c0.11,0.45,0.23,0.79,0.34,1.13c1.35,3.83,2.59,7.67,3.95,11.62
	c0.11,0.23,0.23,0.34,0.45,0.34c4.29,0,8.57,0,12.86,0c0.11,0,0.23,0,0.34,0.11c-0.23,0.11-0.45,0.34-0.68,0.45
	c-3.38,2.48-6.65,4.96-10.04,7.33c-0.23,0.23-0.23,0.34-0.23,0.68c1.35,4.06,2.59,8.12,3.95,12.29v0.11c-0.11,0-0.23-0.11-0.34-0.23
	c-3.38-2.48-6.88-4.85-10.26-7.33c-0.45-0.34-0.45-0.23-0.79,0c-3.5,2.48-6.99,5.08-10.49,7.56c0,0-0.11,0.11-0.23,0.11
	c0.23-0.9,0.56-1.69,0.79-2.59c1.13-3.38,2.14-6.77,3.27-10.15c0.11-0.23,0-0.34-0.11-0.45c-3.5-2.48-6.99-5.08-10.49-7.56
	C81.11,199.33,81.11,199.22,81.11,199.1C80.99,199.1,81.11,199.1,81.11,199.1z"/>
<path class="st4" d="M124.51,197.65c0.16,0,0.16,0,0.31,0c5.43,0,10.7,0,16.12,0c0.47,0,0.93,0,1.4,0s0.62-0.16,0.62-0.47
	c1.24-3.72,2.48-7.44,3.72-11.01c0.78-2.17,1.4-4.19,2.17-6.51c0.31,0.78,0.47,1.24,0.62,1.86c1.71,5.12,3.57,10.39,5.27,15.5
	c0.16,0.31,0.31,0.47,0.62,0.47c5.89,0,11.78,0,17.67,0c0.16,0,0.31,0,0.47,0c-0.16,0.16-0.31,0.31-0.47,0.31
	c-4.81,3.57-9.61,6.98-14.42,10.54c-0.31,0.31-0.31,0.47-0.16,0.78c1.86,5.58,3.57,11.16,5.43,16.9v0.16
	c-0.16,0-0.31-0.16-0.47-0.31c-4.65-3.41-9.46-6.82-14.11-10.08c-0.31-0.31-0.62-0.31-0.93,0c-4.81,3.41-9.61,6.98-14.42,10.39
	c-0.16,0-0.16,0.16-0.31,0.16c0.31-0.93,0.62-2.02,0.93-2.95c1.55-4.81,3.1-9.77,4.65-14.57c0.16-0.31,0-0.47-0.16-0.62
	c-4.81-3.41-9.61-6.98-14.42-10.39C124.67,197.96,124.51,197.8,124.51,197.65L124.51,197.65z"/>
<path class="st4" d="M209.96,219.77c-0.89-0.67-1.68-1.23-2.57-1.9c-2.68-1.9-5.25-3.8-7.82-5.7c-0.22-0.22-0.45-0.22-0.67,0
	c-3.46,2.46-6.93,5.03-10.39,7.49c-0.11,0-0.11,0.11-0.22,0.11c0.34-1.01,0.67-1.9,0.89-2.91c1.01-3.24,2.12-6.48,3.13-9.72
	c0.11-0.22,0-0.34-0.11-0.45c-3.46-2.46-6.93-5.03-10.39-7.49c-0.11,0-0.11-0.11-0.22-0.22c0.11-0.11,0.22,0,0.22,0
	c3.91,0,7.71,0,11.62,0c0.34,0,0.67,0,1.01,0s0.45-0.11,0.56-0.34c1.01-3.13,2.01-6.15,3.02-9.28c0.34-1.01,0.67-2.01,1.01-3.13
	c0-0.11,0.11-0.11,0.11-0.34c0.11,0.45,0.22,0.78,0.34,1.12c1.34,3.8,2.57,7.6,3.91,11.51c0.11,0.22,0.22,0.34,0.45,0.34
	c4.25,0,8.49,0,12.74,0c0.11,0,0.22,0,0.34,0c-0.22,0.22-0.45,0.34-0.67,0.45c-3.35,2.46-6.59,4.92-9.95,7.26
	c-0.22,0.22-0.22,0.34-0.11,0.56c1.34,4.02,2.57,8.05,3.91,12.07C209.96,219.66,209.96,219.66,209.96,219.77z"/>
</svg>
