<?xml version="1.0" encoding="utf-8"?>
<!-- Generator: Adobe Illustrator 23.0.3, SVG Export Plug-In . SVG Version: 6.00 Build 0)  -->
<svg version="1.1" id="Layer_1" xmlns="http://www.w3.org/2000/svg" xmlns:xlink="http://www.w3.org/1999/xlink" x="0px" y="0px"
	 viewBox="0 0 440.8 115.4" style="enable-background:new 0 0 440.8 115.4;" xml:space="preserve">
<style type="text/css">
	.st0{opacity:0.25;}
	.st1{fill:#EAEAEA;}
	.st2{clip-path:url(#SVGID_2_);}
	.st3{fill:#B91E59;}
	.st4{fill:#5F184E;}
	.st5{fill:#B21E53;}
	.st6{fill:#F69898;}
	.st7{fill:#B6DFCD;}
	.st8{clip-path:url(#SVGID_4_);}
	.st9{fill:#EC6824;}
	.st10{fill:#FFFFFF;}
	.st11{fill:none;}
	.st12{fill:#010101;}
	.st13{fill:#606161;}
	.st14{fill-rule:evenodd;clip-rule:evenodd;fill:#606161;}
	.st15{fill:none;stroke:#606161;stroke-width:0.3;stroke-miterlimit:10;}
</style>
<polygon class="st9" points="43.9,3.3 3.6,58.5 43.9,112.7 107.8,90.8 107.8,23.4 "/>
<g>
	<g>
		<path class="st10" d="M59.4,89.2c-7.5-0.2-13.7-2.8-18.6-7.8c-5-5-7.6-11.3-7.8-18.7c0.2-7.5,2.8-13.7,7.8-18.8
			c5-5.1,11.2-7.6,18.7-7.8c2.1,0.1,3.8,0.8,5.3,2.3c1.5,1.5,2.2,3.2,2.2,5.3c0,2.1-0.7,3.9-2.2,5.3c-1.5,1.4-3.2,2.2-5.2,2.2
			c-3.2,0-5.9,1.1-8.1,3.4c-2.2,2.3-3.3,5-3.3,8.1c0,3.1,1.1,5.8,3.3,8.1c2.2,2.3,4.9,3.4,8.1,3.4c3.1,0,5.8-1.1,8-3.4
			c2.2-2.3,3.3-4.9,3.3-8.1V34.2c0-2.1,0.7-3.9,2.2-5.3c1.5-1.4,3.3-2.2,5.3-2.2c2.1,0,3.9,0.7,5.3,2.2c1.4,1.4,2.2,3.2,2.2,5.3v29
			c-0.2,7.1-2.8,13.2-7.8,18.2C73.1,86.4,66.9,89,59.4,89.2z"/>
	</g>
</g>
<g>
	<path class="st10" d="M159.5,35.3c-2-1.7-4.2-2.9-6.6-3.6c-2.4-0.6-5.4-0.9-8.8-0.9h-13.1c-2.2,0-3.7,0.5-4.7,1.5
		c-1,1-1.5,2.5-1.5,4.7v36.4c0,1.6,0.1,2.9,0.4,3.9c0.3,1,0.9,1.8,1.8,2.3c0.9,0.6,2.3,0.8,4.1,0.8h13.1c2.3,0,4.3-0.1,6.2-0.4
		c1.8-0.3,3.5-0.8,5.1-1.5c1.6-0.7,3-1.7,4.4-2.9c1.7-1.6,3.1-3.3,4.2-5.3c1.1-2,1.9-4.2,2.4-6.7c0.5-2.5,0.8-5.2,0.8-8.2
		C167.2,46.5,164.6,39.8,159.5,35.3z M152,70.2c-0.7,0.7-1.6,1.2-2.6,1.5c-1,0.4-2,0.6-2.9,0.7c-0.9,0.1-2.3,0.1-3.9,0.1h-7.6V38.8
		h6.6c3.1,0,5.7,0.3,7.9,1c2.2,0.7,4,2.2,5.5,4.7c1.5,2.4,2.2,6.1,2.2,11C157,62.4,155.3,67.3,152,70.2z"/>
	<path class="st10" d="M206.9,63.8c1.3-0.7,2-2.2,2-4.5c0-2.5-0.6-5-1.9-7.4c-1.3-2.4-3.2-4.4-5.8-5.9c-2.6-1.5-5.7-2.3-9.3-2.3
		c-2.8,0-5.3,0.4-7.6,1.3c-2.3,0.9-4.2,2.2-5.8,3.8c-1.6,1.7-2.7,3.7-3.6,6c-0.8,2.3-1.2,4.9-1.2,7.6c0,5.8,1.6,10.4,4.9,13.8
		c3.3,3.4,7.9,5.1,13.9,5.1c2.6,0,4.9-0.3,6.9-1c2-0.7,3.7-1.5,5-2.6c1.3-1,2.3-2.1,3-3.2c0.7-1.1,1-2.1,1-2.9
		c0-0.9-0.3-1.7-0.9-2.2c-0.6-0.5-1.4-0.8-2.3-0.8c-0.9,0-1.6,0.2-2,0.6c-1.2,1.1-2.1,1.9-2.8,2.6c-0.7,0.6-1.5,1.2-2.4,1.8
		c-0.9,0.6-1.7,1-2.7,1.2c-0.9,0.3-1.9,0.4-3,0.4c-1.6,0-3.2-0.4-4.5-1.2c-1.4-0.8-2.5-2-3.3-3.6c-0.8-1.6-1.2-3.5-1.3-5.6h18.1
		C203.7,64.8,205.6,64.5,206.9,63.8z M183.2,59.6c0.3-3.1,1.2-5.5,2.7-7.1c1.5-1.6,3.4-2.4,5.7-2.4c2.4,0,4.4,0.8,5.8,2.4
		c1.5,1.6,2.3,3.9,2.6,7.1H183.2z"/>
	<path class="st10" d="M242.1,73.3H224l16.9-18.9c0.6-0.7,1.2-1.3,1.6-1.7c0.4-0.5,0.8-0.9,1-1.2c0.2-0.3,0.5-0.8,0.7-1.3
		c0.2-0.5,0.3-1,0.3-1.5c0-1.5-0.5-2.5-1.6-3.1c-1.1-0.6-2.6-0.9-4.5-0.9h-21.3c-1.4,0-2.4,0.3-3.1,0.9c-0.7,0.6-1.1,1.5-1.1,2.5
		c0,1.4,0.5,2.3,1.5,2.7c1,0.3,2.4,0.5,4.3,0.5h13.8c-0.6,0.8-1.3,1.7-2.3,2.8c-0.9,1.1-2.1,2.5-3.5,4.1c-1.4,1.6-3,3.3-4.6,5.1
		c-1.7,1.8-3.5,3.9-5.5,6.1c-1.9,2.1-3.2,3.6-3.8,4.4c-0.6,0.8-0.9,1.6-0.9,2.4c0,1.3,0.4,2.4,1.3,3.2c0.9,0.8,2.2,1.2,3.9,1.2h25.1
		c1.5,0,2.6-0.3,3.3-1c0.7-0.7,1.1-1.5,1.1-2.5c0-1.1-0.4-2-1.1-2.7C244.7,73.6,243.6,73.3,242.1,73.3z"/>
	<path class="st10" d="M278.7,43.7c-1.2,0-2.2,0.4-2.8,1.1c-0.6,0.7-1.2,2-1.9,3.7L266,70.5l-7.5-21c-0.7-2.1-1.3-3.6-1.9-4.4
		c-0.6-0.9-1.6-1.3-3.2-1.3c-0.8,0-1.5,0.2-2.2,0.6c-0.7,0.4-1.2,0.9-1.6,1.5c-0.4,0.6-0.6,1.2-0.6,1.9c0,0.4,0.1,0.9,0.2,1.5
		c0.1,0.6,0.3,1.1,0.5,1.7c0.2,0.5,0.4,1.1,0.6,1.6l8.8,21.8c0.9,2.1,1.5,3.5,1.9,4.2c0.4,0.7,0.9,1.4,1.7,2
		c0.8,0.6,1.8,0.9,3.1,0.9c1,0,1.9-0.2,2.6-0.6c0.7-0.4,1.3-0.9,1.8-1.6c0.5-0.7,0.9-1.5,1.3-2.5c0.4-1,0.7-1.8,1-2.4l8.9-22
		c0.2-0.6,0.5-1.2,0.7-1.6s0.4-1,0.5-1.5c0.1-0.5,0.2-1,0.2-1.4c0-1-0.4-2-1.2-2.7C280.9,44.1,279.9,43.7,278.7,43.7z"/>
	<path class="st10" d="M318.3,48.9c-1.6-1.7-3.6-3-5.9-3.9c-2.3-0.9-4.8-1.4-7.6-1.4c-2.8,0-5.3,0.4-7.6,1.3
		c-2.3,0.9-4.2,2.2-5.8,3.8c-1.6,1.6-2.8,3.6-3.7,6c-0.9,2.3-1.3,4.9-1.3,7.7c0,2.8,0.4,5.3,1.3,7.6c0.8,2.3,2.1,4.3,3.7,6
		c1.6,1.7,3.6,3,5.8,3.9c2.2,0.9,4.8,1.4,7.6,1.4c2.8,0,5.4-0.4,7.6-1.3c2.3-0.9,4.2-2.2,5.8-3.8c1.6-1.7,2.9-3.7,3.7-6
		c0.9-2.3,1.3-4.9,1.3-7.6c0-2.8-0.4-5.3-1.3-7.6C321.2,52.6,319.9,50.6,318.3,48.9z M311.5,71.3c-1.7,2.1-3.9,3.2-6.7,3.2
		c-1.9,0-3.5-0.5-4.8-1.4c-1.4-1-2.4-2.3-3.2-4.2c-0.7-1.8-1.1-3.9-1.1-6.3c0-2.4,0.4-4.6,1.1-6.4c0.7-1.8,1.8-3.2,3.2-4.2
		c1.4-0.9,3-1.4,4.8-1.4c2.8,0,5,1.1,6.7,3.2c1.7,2.1,2.5,5,2.5,8.8C314,66.3,313.2,69.2,311.5,71.3z"/>
	<path class="st10" d="M335.2,30c-1.4,0-2.5,0.5-3.3,1.4c-0.8,0.9-1.2,2.4-1.2,4.2v40.1c0,1.8,0.4,3.2,1.3,4.2
		c0.8,1,1.9,1.5,3.3,1.5c1.4,0,2.5-0.5,3.4-1.4c0.9-0.9,1.3-2.3,1.3-4.2V35.6c0-1.9-0.4-3.3-1.3-4.2C337.7,30.4,336.6,30,335.2,30z"
		/>
	<path class="st10" d="M367.7,73.6c-0.5,0-1.2,0.1-2.2,0.3c-0.9,0.2-1.7,0.3-2.2,0.3c-1,0-1.7-0.2-2.2-0.7c-0.4-0.5-0.7-1.1-0.8-1.9
		c-0.1-0.8-0.2-1.9-0.2-3.3v-17h1.7c1.8,0,3.2-0.2,4.2-0.7c1-0.5,1.5-1.4,1.5-2.6c0-1-0.3-1.8-1-2.4c-0.7-0.6-1.7-0.9-3-0.9h-3.4
		v-6.3c0-1.6-0.1-2.8-0.3-3.6c-0.2-0.8-0.6-1.6-1.2-2.2c-0.9-0.9-2-1.3-3.2-1.3c-0.8,0-1.6,0.2-2.3,0.6c-0.7,0.4-1.2,0.9-1.6,1.5
		c-0.4,0.6-0.6,1.3-0.7,2.2c-0.1,0.8-0.1,2-0.1,3.5v5.6h-1c-1.4,0-2.5,0.3-3.2,0.9c-0.7,0.6-1.1,1.4-1.1,2.4c0,1,0.4,1.8,1.1,2.4
		c0.7,0.6,1.7,0.9,3.1,0.9h1.2V69c0,2.9,0.2,5.2,0.7,6.9c0.5,1.7,1.4,3.1,2.9,4c1.5,1,3.7,1.5,6.6,1.5c3.1,0,5.4-0.4,7-1.2
		c1.6-0.8,2.4-1.9,2.4-3.4c0-0.9-0.3-1.6-0.9-2.2C369.1,73.9,368.4,73.6,367.7,73.6z"/>
	<path class="st10" d="M406.6,74c-0.6-1.9-0.9-3.7-0.9-5.4c0-1.9,0-3.5,0.1-5.1c0-1.5,0-3.4,0-5.5c0-3.4-0.5-6.2-1.4-8.3
		c-1-2.1-2.6-3.6-4.9-4.6c-2.3-1-5.5-1.4-9.6-1.4c-3.6,0-6.7,0.5-9.1,1.5c-2.4,1-4.2,2.3-5.4,3.8c-1.2,1.5-1.7,3.1-1.7,4.7
		c0,1,0.4,1.9,1.1,2.6c0.8,0.7,1.7,1,2.7,1c1.2,0,1.9-0.2,2.3-0.6c0.3-0.4,0.9-1.3,1.8-2.6c0.8-1.3,1.9-2.3,3.1-2.9
		c1.2-0.7,3-1,5.3-1c2.7,0,4.5,0.6,5.4,1.7c0.9,1.1,1.4,2.9,1.5,5.4c-1.9,0.6-3.7,1-5.4,1.4c-1.7,0.4-3.7,0.8-6,1.3
		c-2.3,0.5-3.8,0.8-4.4,0.9c-2.8,0.6-5,1.8-6.6,3.6c-1.6,1.8-2.4,3.9-2.4,6.5c0,1.9,0.5,3.6,1.5,5.2c1,1.6,2.4,2.9,4.2,3.8
		c1.8,0.9,3.9,1.4,6.3,1.4c2.6,0,4.9-0.4,7-1.3c2.1-0.9,4.3-2.2,6.5-3.9c1,1.7,2,3,2.9,3.9c0.9,0.9,1.9,1.3,2.8,1.3
		c1.1,0,2.1-0.4,3-1.2c0.9-0.8,1.3-1.6,1.3-2.6C407.5,77.1,407.2,75.8,406.6,74z M396.8,64.1c0,3.2-0.4,5.5-1.3,6.9
		c-0.7,1.3-1.9,2.3-3.4,3.1c-1.5,0.8-3.2,1.2-5.1,1.2c-1.7,0-3.1-0.5-4.2-1.5c-1.1-1-1.6-2.2-1.6-3.6c0-1.4,0.5-2.4,1.4-3.2
		c0.9-0.8,1.9-1.3,2.8-1.5c1-0.3,2.8-0.7,5.4-1.2c2.6-0.6,4.6-1.1,5.9-1.6V64.1z"/>
</g>
<g>
	<path class="st10" d="M421.6,3.8c-8.7,0-15.8,7.1-15.8,15.8s7.1,15.8,15.8,15.8s15.8-7.1,15.8-15.8S430.3,3.8,421.6,3.8z
		 M421.6,33.1c-7.4,0-13.5-6-13.5-13.5s6-13.5,13.5-13.5c7.4,0,13.5,6,13.5,13.5S429,33.1,421.6,33.1z"/>
</g>
<g>
	<path class="st10" d="M414.3,28.8c-0.1-0.1-0.2-0.3-0.2-0.5V11c0-0.2,0.1-0.4,0.2-0.5c0.1-0.1,0.3-0.2,0.5-0.2h6.9
		c2.2,0,3.9,0.5,5.1,1.5c1.2,1,1.9,2.5,1.9,4.3c0,1.3-0.3,2.4-0.9,3.3c-0.6,0.9-1.5,1.5-2.6,1.9l3.9,6.8c0.1,0.1,0.1,0.2,0.1,0.3
		c0,0.2-0.1,0.3-0.2,0.4c-0.1,0.1-0.2,0.2-0.4,0.2h-2.5c-0.3,0-0.5-0.1-0.7-0.2c-0.2-0.1-0.3-0.3-0.4-0.5l-3.4-6.3h-3.7v6.4
		c0,0.2-0.1,0.3-0.2,0.5c-0.1,0.1-0.3,0.2-0.5,0.2h-2.5C414.6,29,414.4,28.9,414.3,28.8z M421.6,18.9c1.1,0,1.9-0.2,2.4-0.7
		c0.5-0.5,0.8-1.2,0.8-2.1c0-0.9-0.3-1.6-0.8-2.1c-0.5-0.5-1.3-0.7-2.4-0.7h-3.7v5.6H421.6z"/>
</g>
</svg>
