<?xml version="1.0" encoding="utf-8"?>
<!-- Generator: Adobe Illustrator 23.1.0, SVG Export Plug-In . SVG Version: 6.00 Build 0)  -->
<svg version="1.1" xmlns="http://www.w3.org/2000/svg" xmlns:xlink="http://www.w3.org/1999/xlink" x="0px" y="0px"
	 viewBox="0 0 589 500" style="enable-background:new 0 0 589 500;" xml:space="preserve">
<style type="text/css">
	.st0{fill:#142B6D;}
	.st1{fill:#FFFFFF;stroke:#A2A2A3;stroke-width:1.1111;stroke-miterlimit:10;}
	.st2{fill:#FFFFFF;}
	.st3{fill:#FFBE9D;}
	.st4{fill:#EB996E;}
	.st5{fill:#263238;}
	.st6{fill:#E8505B;}
	.st7{opacity:0.6;}
	.st8{opacity:0.2;}
	.st9{fill:none;stroke:#A2A2A3;stroke-width:0.8376;stroke-miterlimit:10;}
	.st10{fill:#3A3A3A;}
	.st11{fill:none;}
</style>
<g id="Search_Engine">
</g>
<g id="Character">
	<path class="st0" d="M364.5,319.9H217c-18.2,0-33-14.8-33-33v0c0-18.2,14.8-33,33-33h147.5c18.2,0,33,14.8,33,33v0
		C397.5,305.1,382.7,319.9,364.5,319.9z"/>
	<polygon class="st1" points="319.8,29.7 267.9,29.7 241.9,74.7 267.9,119.7 319.8,119.7 345.8,74.7 	"/>
	<polygon class="st1" points="463.2,67.8 411.3,67.8 385.3,112.8 411.3,157.7 463.2,157.7 489.1,112.8 	"/>
	<polygon class="st1" points="550,171.4 498.1,171.4 472.1,216.4 498.1,261.4 550,261.4 576,216.4 	"/>
	<polygon class="st1" points="550,285.1 498.1,285.1 472.1,330.1 498.1,375 550,375 576,330.1 	"/>
	<polygon class="st1" points="463.2,398.8 411.3,398.8 385.3,443.7 411.3,488.7 463.2,488.7 489.1,443.7 	"/>
	<polygon class="st1" points="124.1,67.8 176.1,67.8 202,112.8 176.1,157.7 124.1,157.7 98.2,112.8 	"/>
	<polygon class="st1" points="37.3,171.4 89.3,171.4 115.2,216.4 89.3,261.4 37.3,261.4 11.4,216.4 	"/>
	<polygon class="st1" points="37.3,285.1 89.3,285.1 115.2,330.1 89.3,375 37.3,375 11.4,330.1 	"/>
	<polygon class="st1" points="124.1,398.8 176.1,398.8 202,443.7 176.1,488.7 124.1,488.7 98.2,443.7 	"/>
	<g>
		<path class="st2" d="M237.8,312.5c-2-1-3.6-2.5-4.7-4.4c-1.1-1.9-1.6-4.2-1.6-6.9v-2.8l9.2-0.1v2.8c0,1.3,0.4,2.3,1.2,3.1
			c0.8,0.8,1.8,1.1,3.2,1.1c1.3,0,2.4-0.4,3.1-1.1c0.7-0.7,1.1-1.7,1.1-3v-4.5c0-1-0.3-1.8-0.8-2.5c-0.6-0.7-1.3-1.3-2.2-1.8
			c-0.9-0.5-2.1-1.1-3.6-1.8c-0.1,0-0.2-0.1-0.3-0.1c-0.1,0-0.2-0.1-0.3-0.1l-0.5-0.2c-2-1-3.7-2-5.2-3.1c-1.4-1.1-2.6-2.5-3.5-4.2
			c-0.9-1.7-1.4-3.9-1.4-6.4v-2.7c0-2.6,0.5-4.9,1.6-6.8c1.1-1.9,2.6-3.3,4.6-4.3c2-1,4.4-1.5,7.3-1.5c2.8,0,5.1,0.5,7.1,1.5
			c2,1,3.5,2.5,4.6,4.4c1,1.9,1.6,4.2,1.6,6.9v2.9l-9.2,0.1v-3c0-1.3-0.4-2.4-1.1-3.1c-0.7-0.7-1.7-1.1-3-1.1c-1.3,0-2.4,0.3-3.1,1
			c-0.7,0.7-1.1,1.6-1.1,2.8v3.5c0,1,0.3,1.8,0.8,2.5c0.5,0.7,1.2,1.3,2,1.8c0.8,0.5,1.9,1.1,3.4,1.8c0.3,0.1,0.6,0.3,0.8,0.4
			c0.3,0.1,0.6,0.3,0.9,0.4c0,0,0.1,0,0.1,0.1c0,0,0.1,0,0.1,0.1c2.1,1,3.7,2,5,2.9c1.3,0.9,2.4,2.1,3.2,3.8
			c0.9,1.6,1.3,3.7,1.3,6.2v4.3c0,2.7-0.5,5-1.6,6.9c-1.1,1.9-2.6,3.4-4.6,4.4c-2,1-4.4,1.5-7.2,1.5
			C242.2,314.1,239.8,313.5,237.8,312.5z"/>
		<path class="st2" d="M276.6,261.6h9.3v51.9h-9.3V261.6z M280.7,261.6h20v8.6h-20V261.6z M280.7,283.4h18.1v8.6h-18.1V283.4z
			 M280.7,304.9h20v8.6h-20V304.9z"/>
		<path class="st2" d="M323.4,312.6c-2.1-1-3.7-2.4-4.8-4.2c-1.1-1.8-1.6-4-1.6-6.6v-28.6c0-2.6,0.5-4.8,1.6-6.6
			c1.1-1.8,2.7-3.2,4.8-4.2c2.1-1,4.6-1.4,7.5-1.4c2.9,0,5.4,0.5,7.5,1.4c2.1,1,3.7,2.3,4.8,4.2c1.1,1.8,1.6,4,1.6,6.6v28.6
			c0,2.6-0.5,4.8-1.6,6.6c-1.1,1.8-2.7,3.2-4.8,4.2s-4.6,1.4-7.5,1.4C328,314.1,325.5,313.6,323.4,312.6z M333.3,304.7
			c0.7-0.4,1.2-0.9,1.5-1.5c0.3-0.7,0.5-1.5,0.5-2.4v-26.4c0-0.9-0.2-1.7-0.5-2.4c-0.3-0.7-0.9-1.2-1.5-1.5
			c-0.7-0.4-1.5-0.5-2.4-0.5s-1.8,0.2-2.4,0.5c-0.7,0.4-1.2,0.9-1.5,1.5c-0.3,0.7-0.5,1.5-0.5,2.4v26.4c0,1,0.2,1.8,0.5,2.4
			c0.3,0.7,0.9,1.2,1.5,1.5c0.7,0.4,1.5,0.5,2.4,0.5S332.6,305,333.3,304.7z"/>
	</g>
	<g>
		<g>
			<g>
				<g>
					<path class="st3" d="M335.1,266.5c0.6-0.7,0.7-1.3-0.7-1.4c-3-0.3-5.3-1.6-5.6-2.4c-0.4-0.8,0.6-1.5,1.4-1.1
						c0.7,0.4,2,0.7,3,0.8c0.8,0.1,1.7,0.2,2.5,0c0.7-0.1,1.3-0.2,1.9-0.3c0,0,3.2-0.7,4.6-1.8l6.8,7.3l-3.2,3.6c0,0-1.5,2.3-4.3,2
						c-2.7-0.3-6.4-2.2-6.4-2.2c-0.5-0.8-4.9,2-6.3,3c-1.4,1-2.5,0.8-2.4-0.2c0-0.7,4.3-3.9,5.7-4.9
						C332.8,268.4,334.3,267.3,335.1,266.5"/>
				</g>
			</g>
			<g>
				<g>
					<path class="st4" d="M339.1,272.8c0,0,0.2,0.1,0.5,0.1c0.3,0,0.8-0.1,1.3-0.5c0.4-0.3,0.7-0.8,0.8-1.1c0.1-0.3,0.1-0.6,0-0.6
						c-0.1,0-0.3,0.8-1,1.4C339.9,272.8,339.1,272.7,339.1,272.8z"/>
				</g>
			</g>
			<g>
				<g>
					<path class="st4" d="M336.4,271.7c0,0,0.2,0.1,0.5,0.1c0.3,0,0.8-0.2,1.2-0.5c0.4-0.3,0.7-0.7,0.8-1c0.1-0.3,0.1-0.5,0-0.5
						c-0.1,0-0.3,0.8-1,1.3C337.2,271.6,336.4,271.6,336.4,271.7z"/>
				</g>
			</g>
		</g>
		<g>
			<path class="st5" d="M329,196c-0.3,6-7.6,14.2-13,15.5c-2.9,0.7-6.1,0.4-8.4,2.3c-3.9,3.3-1.6,10.1-4.2,14.5
				c-1.6,2.7-4.8,4-6.6,6.6c-3,4.3-1,10.7,3.1,13.9c4.1,3.2,9.6,3.8,14.7,3.7c11.3-0.3,22.9-3.9,31-11.9
				c3.8-3.8,18.9-15.4,13.6-42.9"/>
		</g>
		<g>
			<path class="st6" d="M288.2,238.8l43-12.8c3.6-1.5,6.3-1.9,6.3-1.9l14.5,0.1c2,0,3.8,0.4,5.6,1.2l39.1,13
				c2.9,0.9,4.9,3.9,4.9,7.3v0c0,4.2-3,7.5-6.7,7.5h-18.1c0.1,0.2,0.1,0.3,0.1,0.3l-62.8,0.2c0,0,0,0,0,0l-24,0.1
				c-3.7,0-6.7-3.4-6.7-7.6C283.3,242.7,285.3,239.7,288.2,238.8z"/>
			<g>
				<g>
					<path class="st5" d="M296.8,243.4c0,0,0.1,0,0.4,0c0.3,0,0.7-0.1,1.1-0.1c1-0.1,2.3-0.3,4.1-0.4c3.4-0.3,8.2-0.6,13.5-0.6
						c5.3,0.1,10,0.5,13.5,0.9c1.7,0.2,3.1,0.4,4.1,0.5c0.4,0.1,0.8,0.1,1.1,0.2c0.3,0,0.4,0,0.4,0c0,0-0.1,0-0.4-0.1
						c-0.3-0.1-0.6-0.1-1.1-0.2c-0.9-0.2-2.3-0.4-4-0.7c-3.4-0.5-8.2-1-13.5-1c-5.3-0.1-10.1,0.3-13.5,0.7c-1.7,0.2-3.1,0.4-4.1,0.6
						c-0.4,0.1-0.8,0.1-1.1,0.2C297,243.4,296.8,243.4,296.8,243.4z"/>
				</g>
			</g>
			<g class="st7">
				<g>
					<path class="st2" d="M306.9,233c0,0,0,0.1,0.1,0.1c0.1,0.1,0.2,0.2,0.4,0.4c0.3,0.3,0.8,0.9,1.5,1.5c0.7,0.6,1.5,1.4,2.6,2.1
						c1.1,0.7,2.4,1.5,4,1.9c1.6,0.4,3.5,0.4,5.4-0.1c1.9-0.5,3.8-1.5,5.7-2.5c1.9-1,3.9-2.2,6.1-2.9c2.2-0.7,4.8-0.7,7,0.4
						c2.3,1,4.2,2.6,6.3,3.7c0.5,0.3,1.1,0.5,1.6,0.8c0.6,0.2,1.1,0.4,1.6,0.5c1.1,0.3,2.2,0.5,3.3,0.6c4.4,0.3,8.3-1.1,11-3
						c1.4-1,2.4-2.1,3.3-2.9c0.9-0.9,1.8-1.6,2.6-2.1c1.6-1,2.7-0.9,2.6-1c0,0-0.3,0-0.7,0.1c-0.5,0.1-1.2,0.3-2,0.8
						c-0.8,0.5-1.7,1.2-2.6,2.1c-1,0.9-2,2-3.3,2.9c-2.6,1.9-6.5,3.2-10.8,2.9c-1.1-0.1-2.2-0.3-3.2-0.6c-0.5-0.1-1.1-0.4-1.6-0.5
						c-0.5-0.2-1.1-0.5-1.6-0.7c-2.1-1.1-4-2.7-6.3-3.7c-2.3-1.1-5-1.1-7.2-0.4c-2.3,0.7-4.3,1.9-6.2,2.9c-1.9,1-3.7,2-5.6,2.5
						c-1.8,0.5-3.7,0.6-5.2,0.1c-1.6-0.4-2.9-1.1-4-1.8c-1.1-0.7-1.9-1.4-2.6-2c-0.7-0.6-1.2-1.1-1.6-1.4c-0.2-0.2-0.3-0.3-0.4-0.4
						C307,233,306.9,233,306.9,233z"/>
				</g>
			</g>
			<g class="st8">
				<polygon points="373.7,243.3 346.5,248.4 349.7,253.6 350.5,253.6 				"/>
			</g>
			<g class="st7">
				<g>
					<path class="st2" d="M291.5,238c0,0,0,0.1,0,0.4c0,0.3,0,0.7,0.1,1.2c0.2,1,0.6,2.5,1.6,4.1c1,1.5,2.8,3.1,5.1,3.9
						c1.2,0.4,2.5,0.6,3.8,0.6c1.4-0.1,2.7-0.4,4.1-0.7c1.4-0.4,2.7-0.8,4-1.1c1.3-0.3,2.6-0.3,3.8-0.2c2.4,0.3,4.4,1.3,5.9,2.4
						c1.5,1.1,2.4,2.3,2.9,3.2c0.1,0.2,0.2,0.4,0.4,0.6c0.1,0.2,0.2,0.3,0.2,0.4c0.1,0.2,0.2,0.4,0.2,0.4c0,0,0-0.1-0.1-0.4
						c-0.1-0.1-0.1-0.3-0.2-0.5c-0.1-0.2-0.2-0.4-0.3-0.6c-0.5-0.9-1.4-2.2-2.9-3.3c-1.4-1.2-3.5-2.2-6-2.5
						c-1.2-0.2-2.5-0.1-3.9,0.2c-1.3,0.3-2.6,0.7-4,1.1c-1.3,0.4-2.7,0.7-4,0.7c-1.3,0-2.6-0.2-3.7-0.6c-2.3-0.8-4-2.3-5-3.8
						c-1.1-1.5-1.5-3-1.7-3.9C291.5,238.5,291.5,238,291.5,238z"/>
				</g>
			</g>
			<g>
				<g>
					<path class="st6" d="M396.6,252.3c0,0-49.1,21.7-48.9,21.2c0.3-0.5-7.8-14.7-7.8-14.7l39.8-19.7L396.6,252.3z"/>
				</g>
				<g>
					<g>
						<path class="st5" d="M374.1,241.9c0,0-0.4,0.1-1,0.4c-0.7,0.3-1.6,0.8-2.7,1.3c-2.3,1.1-5.4,2.6-8.9,4.3
							c-3.5,1.7-6.6,3.3-8.8,4.4c-1.1,0.6-2,1-2.7,1.4c-0.6,0.3-1,0.5-1,0.5c0,0,0.4-0.1,1-0.4c0.7-0.3,1.6-0.8,2.7-1.3
							c2.3-1.1,5.4-2.6,8.9-4.3c3.5-1.7,6.6-3.3,8.8-4.4c1.1-0.6,2-1,2.7-1.4C373.7,242.1,374.1,242,374.1,241.9z"/>
					</g>
				</g>
				<g class="st7">
					<g>
						<path class="st2" d="M363.3,248.5c0,0,0,0.6,0.5,1.5c0.4,0.9,1.4,2.1,2.9,2.9c0.8,0.4,1.7,0.8,2.7,1c1,0.2,2.2,0.2,3.3,0
							c2.3-0.3,4.7-1.3,7.2-2.4c2.4-1.1,4.7-2.2,7-2.7c1.1-0.3,2.2-0.4,3.2-0.4c1,0,2,0.2,2.8,0.5c1.7,0.5,2.8,1.4,3.4,2.1
							c0.6,0.7,0.9,1.2,0.9,1.2c0,0-0.2-0.5-0.8-1.3c-0.6-0.8-1.8-1.7-3.5-2.3c-0.8-0.3-1.8-0.5-2.8-0.5c-1,0-2.2,0.1-3.3,0.3
							c-2.3,0.5-4.6,1.6-7,2.7c-2.4,1.1-4.8,2.1-7.1,2.4c-1.1,0.2-2.2,0.2-3.2,0c-1-0.2-1.9-0.5-2.7-0.9c-1.5-0.8-2.5-1.9-2.9-2.8
							C363.4,249,363.3,248.5,363.3,248.5z"/>
					</g>
				</g>
				<g class="st7">
					<g>
						<path class="st2" d="M342.4,263.4c0,0.1,1.1-0.1,2.8-0.1c0.9,0,1.9,0,3.1,0.2c1.1,0.1,2.4,0.4,3.7,0.7
							c1.3,0.4,2.5,0.8,3.5,1.3c1,0.5,2,1,2.7,1.5c1.5,0.9,2.3,1.7,2.3,1.6c0,0-0.2-0.2-0.5-0.5c-0.4-0.3-0.9-0.8-1.7-1.3
							c-0.7-0.5-1.6-1-2.7-1.6c-1.1-0.5-2.3-1-3.6-1.4c-1.3-0.4-2.6-0.6-3.7-0.7c-1.2-0.1-2.2-0.1-3.1-0.1c-0.9,0-1.6,0.1-2.1,0.2
							C342.7,263.3,342.4,263.3,342.4,263.4z"/>
					</g>
				</g>
			</g>
			<g class="st8">
				<path d="M336.4,224c0.8,2.3-0.4,4.7-1.6,6.8c-0.8,1.5-1.7,2.9-2.8,4.1c-1.2,1.2-2.8,2.1-4.5,2c-2.2-0.1-4.2-1.7-6.4-1.6
					c-1.5,0.1-2.8,1-4.1,1.8c-2.2,1.5-4.4,2.9-6.8,3.8c-2.4,0.9-5.2,1.2-7.7,0.5c-2.5-0.8-4.7-2.7-5.3-5.2"/>
			</g>
		</g>
		<g>
			<g>
				<g>
					<g>
						<path class="st3" d="M336.2,223.4c-0.1-2.6-0.3-5-0.3-5s-5.9-0.7-6.2-6.8c-0.3-6,0.3-19.9,0.3-19.9l10.9-5.2l11.7,9.4
							l-1.8,27.7c-0.3,4-3.7,7-7.7,6.9l0,0C339.4,230.3,336.4,227.2,336.2,223.4z"/>
					</g>
					<g>
						<g>
							<path class="st5" d="M331.2,202.6c0,0.4,0.3,0.8,0.7,0.8c0.4,0,0.8-0.3,0.8-0.8c0-0.4-0.3-0.8-0.7-0.8
								C331.5,201.8,331.2,202.2,331.2,202.6z"/>
						</g>
						<g>
							<g>
								<path class="st5" d="M330.4,201c0.1,0.1,0.7-0.4,1.5-0.4c0.8,0,1.4,0.4,1.5,0.3c0,0-0.1-0.2-0.3-0.4
									c-0.3-0.2-0.7-0.4-1.2-0.3c-0.5,0-0.9,0.2-1.2,0.5C330.5,200.7,330.4,200.9,330.4,201z"/>
							</g>
						</g>
					</g>
					<g>
						<g>
							<path class="st5" d="M340.1,202.6c0,0.4,0.3,0.8,0.7,0.8c0.4,0,0.8-0.3,0.8-0.8c0-0.4-0.3-0.8-0.7-0.8
								C340.5,201.8,340.1,202.2,340.1,202.6z"/>
						</g>
						<g>
							<g>
								<path class="st5" d="M339.4,201.1c0.1,0.1,0.7-0.4,1.5-0.4c0.8,0,1.4,0.4,1.5,0.3c0,0-0.1-0.2-0.3-0.4
									c-0.3-0.2-0.7-0.4-1.2-0.3c-0.5,0-0.9,0.2-1.2,0.5C339.4,200.9,339.3,201.1,339.4,201.1z"/>
							</g>
						</g>
					</g>
					<g>
						<g>
							<path class="st5" d="M336.3,208.1c0,0-0.5-0.1-1.3-0.2c-0.2,0-0.4-0.1-0.4-0.2c-0.1-0.2,0-0.4,0.1-0.7
								c0.2-0.5,0.4-1.1,0.6-1.7c0.8-2.4,1.4-4.4,1.3-4.5c-0.1,0-0.8,1.9-1.6,4.3c-0.2,0.6-0.4,1.2-0.6,1.7
								c-0.1,0.3-0.2,0.5-0.1,0.9c0.1,0.2,0.2,0.3,0.3,0.3c0.1,0,0.2,0,0.4,0C335.8,208.2,336.3,208.1,336.3,208.1z"/>
						</g>
					</g>
					<g>
						<path class="st2" d="M339,208.9c0.8-0.5-2.3,1.3-3.9,1.3c0,0,1,1.5,2.7,0.8C339.5,210.3,339,208.9,339,208.9z"/>
					</g>
					<g>
						<path class="st4" d="M335.9,218.4c0,0,4,0.1,7.8-2.6c0,0-1.8,4.4-7.7,4L335.9,218.4z"/>
					</g>
					<g>
						<path class="st5" d="M359.1,201.8L359.1,201.8c0,5.2,1.4,19-8.1,20.9l0.3-19c0,0-9.2-4.3-10.8-13.4l-0.1,0.1
							c-0.6,1.4-1.6,4.3-1,6.7l-8.6,2.1l-1,0.9c0,0-3.1-6.7,2.9-12.8c5.9-6.1,11-1.7,14.2-2.1c2.1-0.3,9.4-0.2,12.4,12.4
							L359.1,201.8z"/>
					</g>
				</g>
			</g>
			<g>
				<g>
					<g>
						<path class="st3" d="M351,204c0.8-0.5,1.9-0.1,2.5,0.6c1,1.1,1.2,2.9,0.4,4.1c-0.8,1.3-2.4,1.9-3.9,1.6"/>
					</g>
					<g>
						<g>
							<path class="st4" d="M351.2,208.5c0,0,0.3,0.1,0.7,0c0.4-0.1,1-0.4,1.3-1.1c0.1-0.3,0.1-0.7,0-1c-0.1-0.3-0.3-0.5-0.5-0.6
								c-0.4-0.2-0.7-0.2-0.7-0.2c0,0.1,0.2,0.1,0.5,0.4c0.3,0.2,0.6,0.7,0.4,1.3c-0.2,0.5-0.7,0.8-1,1
								C351.5,208.4,351.2,208.4,351.2,208.5z"/>
						</g>
					</g>
				</g>
				<g>
					<path class="st6" d="M352,209.6c0.4,0.1,0.7,0.7,0.4,1.1c-0.3,0.4-0.9,0.3-1.1,0c-0.2-0.4,0-1,0.5-1"/>
				</g>
			</g>
		</g>
		<g>
			<path class="st3" d="M334.5,253.7v-9.9c0,0,14.7,3.1,15,9.8L334.5,253.7z"/>
		</g>
		<g>
			<path class="st5" d="M336.1,222.4c-0.2,3-1.6,5.9-3.8,8c-2.2,2.1-5.2,3.3-8.2,3.3c-2.2,0-4.5-0.5-6.4,0.4
				c-1.7,0.8-2.8,2.4-4.2,3.8c-3.2,3.1-8.1,4.2-12.3,2.8c-1.8-0.6-4.6-1.9-4.9-3.7c-0.3-1.4,1.5-2.8,2.5-3.8c1-1,2.3-1.7,3.6-2.3
				c10.5-4.9,21.7-8.5,33.3-9.1"/>
		</g>
	</g>
	<line class="st9" x1="176.1" y1="157.7" x2="222.7" y2="196.3"/>
	<line class="st9" x1="293.9" y1="119.7" x2="293.9" y2="164.7"/>
	<line class="st9" x1="411.3" y1="157.7" x2="364.1" y2="196.3"/>
	<line class="st9" x1="472.1" y1="216.4" x2="396.6" y2="231.5"/>
	<line class="st9" x1="115.2" y1="216.4" x2="189.4" y2="230.4"/>
	<line class="st9" x1="115.2" y1="330.1" x2="184" y2="319.9"/>
	<line class="st9" x1="472.1" y1="330.1" x2="394.1" y2="319.9"/>
	<line class="st9" x1="176.1" y1="398.8" x2="255.9" y2="349.3"/>
	<line class="st9" x1="411.3" y1="398.8" x2="331.6" y2="349.7"/>
	<circle class="st6" cx="319.8" cy="29.7" r="18.4"/>
	<circle class="st6" cx="461.3" cy="69.5" r="18.4"/>
	<circle class="st6" cx="550.9" cy="171.4" r="18.4"/>
	<circle class="st6" cx="550.9" cy="285.1" r="18.4"/>
	<circle class="st6" cx="462.8" cy="398.8" r="18.4"/>
	<circle class="st6" cx="126.1" cy="398.8" r="18.4"/>
	<circle class="st6" cx="37.3" cy="285.9" r="18.4"/>
	<circle class="st6" cx="37.3" cy="168.7" r="18.4"/>
	<circle class="st6" cx="122.9" cy="67.8" r="18.4"/>
	<g>
		<g>
			<path class="st10" d="M285.7,61.3c0.6,0.2,1.1,0.6,1.6,1l-1,1.2c-0.4-0.3-0.8-0.6-1.2-0.7s-0.8-0.2-1.3-0.2
				c-0.5,0-0.9,0.1-1.2,0.3c-0.3,0.2-0.5,0.6-0.5,1c0,0.3,0.1,0.5,0.2,0.7c0.1,0.2,0.3,0.4,0.7,0.5c0.3,0.2,0.8,0.3,1.4,0.5
				c1.1,0.3,1.9,0.8,2.5,1.3c0.5,0.5,0.8,1.2,0.8,2.2c0,0.7-0.2,1.2-0.5,1.8c-0.3,0.5-0.8,0.9-1.4,1.2s-1.4,0.4-2.2,0.4
				c-0.8,0-1.6-0.1-2.3-0.4c-0.7-0.3-1.2-0.6-1.7-1.1l1.1-1.2c0.4,0.4,0.9,0.6,1.3,0.8s1,0.3,1.5,0.3c0.6,0,1.1-0.1,1.5-0.4
				c0.4-0.3,0.6-0.7,0.6-1.2c0-0.3-0.1-0.6-0.2-0.8s-0.3-0.4-0.7-0.6c-0.3-0.2-0.8-0.3-1.3-0.5c-1.2-0.4-2-0.8-2.5-1.3
				c-0.5-0.5-0.8-1.2-0.8-2c0-0.6,0.2-1.1,0.5-1.6c0.3-0.5,0.8-0.8,1.3-1.1c0.6-0.3,1.2-0.4,1.9-0.4C284.4,60.9,285.1,61,285.7,61.3
				z"/>
			<path class="st10" d="M295.8,61.2l-0.2,1.6h-4.1v3.1h3.6v1.6h-3.6v3.2h4.4v1.6h-6.5V61.2H295.8z"/>
			<path class="st10" d="M304.5,61.6c0.7,0.4,1.3,1.1,1.7,2c0.4,0.9,0.6,1.9,0.6,3.1c0,1.2-0.2,2.2-0.6,3.1c-0.4,0.9-1,1.5-1.7,2
				c-0.7,0.5-1.6,0.7-2.6,0.7c-1,0-1.9-0.2-2.6-0.7c-0.7-0.4-1.3-1.1-1.7-2c-0.4-0.9-0.6-1.9-0.6-3.1c0-1.2,0.2-2.2,0.6-3.1
				c0.4-0.9,1-1.5,1.7-2s1.6-0.7,2.6-0.7C302.9,60.9,303.8,61.1,304.5,61.6z M300,63.5c-0.4,0.7-0.7,1.7-0.7,3.2
				c0,2.8,0.9,4.1,2.6,4.1c0.9,0,1.5-0.3,1.9-1c0.4-0.7,0.7-1.7,0.7-3.2c0-1.4-0.2-2.5-0.7-3.2c-0.4-0.7-1.1-1-1.9-1
				S300.4,62.9,300,63.5z"/>
			<path class="st10" d="M281.1,90.2l-0.7-2.6h-3.7l-0.7,2.6h-2.2l3.4-11.1h2.6l3.4,11.1H281.1z M277.2,86.1h2.8l-1.4-5.3
				L277.2,86.1z"/>
			<path class="st10" d="M291.3,90.2h-1.8l-0.1-1.2c-0.3,0.5-0.7,0.8-1.1,1.1c-0.4,0.2-0.9,0.4-1.5,0.4c-0.8,0-1.3-0.2-1.8-0.7
				s-0.6-1.1-0.6-1.9v-6.1h2v5.8c0,0.5,0.1,0.8,0.2,1c0.2,0.2,0.4,0.3,0.8,0.3c0.7,0,1.2-0.4,1.7-1.2v-6h2V90.2z"/>
			<path class="st10" d="M300.9,78.4v11.9h-1.8l-0.1-1.1c-0.3,0.4-0.6,0.7-1,1c-0.4,0.2-0.9,0.4-1.4,0.4c-1,0-1.8-0.4-2.4-1.2
				c-0.6-0.8-0.8-1.9-0.8-3.3c0-0.9,0.1-1.6,0.4-2.3c0.3-0.7,0.7-1.2,1.2-1.6c0.5-0.4,1.1-0.6,1.8-0.6c0.8,0,1.5,0.3,2.1,0.9v-4.3
				L300.9,78.4z M298.1,88.6c0.3-0.2,0.5-0.5,0.8-0.8v-3.9c-0.2-0.3-0.5-0.5-0.7-0.7c-0.3-0.1-0.5-0.2-0.9-0.2c-0.5,0-1,0.2-1.3,0.7
				c-0.3,0.5-0.5,1.2-0.5,2.2c0,1,0.1,1.8,0.4,2.2c0.3,0.5,0.7,0.7,1.2,0.7C297.5,88.9,297.8,88.8,298.1,88.6z"/>
			<path class="st10" d="M305.3,77.8c0.2,0.2,0.4,0.5,0.4,0.9s-0.1,0.6-0.4,0.9c-0.2,0.2-0.6,0.4-0.9,0.4c-0.4,0-0.7-0.1-0.9-0.4
				c-0.2-0.2-0.4-0.5-0.4-0.9s0.1-0.6,0.4-0.9c0.2-0.2,0.5-0.4,0.9-0.4C304.7,77.5,305.1,77.6,305.3,77.8z M305.4,81.7v8.5h-2v-8.5
				H305.4z"/>
			<path class="st10" d="M312.7,89.8c-0.3,0.2-0.6,0.4-1,0.5s-0.7,0.2-1.1,0.2c-0.8,0-1.5-0.2-1.9-0.7c-0.4-0.5-0.6-1.1-0.6-2.1
				v-4.5h-1.3v-1.5h1.3v-1.9l2-0.2v2.1h2l-0.2,1.5h-1.8v4.4c0,0.4,0.1,0.7,0.2,0.9c0.1,0.2,0.4,0.3,0.7,0.3c0.3,0,0.6-0.1,1-0.3
				L312.7,89.8z"/>
		</g>
	</g>
	<g>
		<g>
			<path class="st10" d="M420.2,89.2l-0.2,1.6h-4.1v3.1h3.6v1.6h-3.6v3.2h4.4v1.6h-6.5V89.2H420.2z"/>
			<path class="st10" d="M426.1,95.7l2.8,4.5h-2.4l-1.7-3.4l-1.7,3.4h-2.3l2.8-4.5l-2.5-4h2.3l1.4,2.9l1.4-2.9h2.2L426.1,95.7z"/>
			<path class="st10" d="M436.9,92.7c0.5,0.8,0.8,1.9,0.8,3.3c0,0.9-0.1,1.7-0.4,2.3c-0.3,0.7-0.6,1.2-1.2,1.6
				c-0.5,0.4-1.1,0.6-1.8,0.6c-0.9,0-1.6-0.3-2.1-0.9v4l-2,0.2v-12h1.8l0.1,1c0.3-0.4,0.7-0.7,1.1-1s0.9-0.3,1.3-0.3
				C435.6,91.5,436.4,91.9,436.9,92.7z M435.5,96c0-1-0.1-1.8-0.4-2.2s-0.7-0.7-1.2-0.7c-0.3,0-0.7,0.1-1,0.3s-0.6,0.5-0.8,0.8V98
				c0.4,0.6,0.9,0.9,1.6,0.9C434.9,98.9,435.5,97.9,435.5,96z"/>
			<path class="st10" d="M446.6,96.6h-5.3c0.1,0.8,0.3,1.4,0.6,1.8c0.4,0.4,0.8,0.5,1.4,0.5c0.4,0,0.7-0.1,1.1-0.2
				c0.3-0.1,0.7-0.3,1.1-0.6l0.8,1.2c-0.9,0.8-2,1.1-3.1,1.1c-1.3,0-2.3-0.4-3-1.2c-0.7-0.8-1-1.9-1-3.2c0-0.9,0.1-1.6,0.4-2.3
				s0.7-1.2,1.3-1.6c0.6-0.4,1.2-0.6,2-0.6c1.2,0,2.1,0.4,2.8,1.1c0.7,0.8,1,1.8,1,3.1C446.6,95.9,446.6,96.2,446.6,96.6z
				 M444.6,95.2c0-1.5-0.5-2.2-1.6-2.2c-0.5,0-0.9,0.2-1.2,0.6c-0.3,0.4-0.5,1-0.5,1.8L444.6,95.2L444.6,95.2z"/>
			<path class="st10" d="M453.5,91.7l-0.4,2c-0.3-0.1-0.5-0.1-0.8-0.1c-0.5,0-0.9,0.2-1.2,0.5s-0.5,0.9-0.7,1.6v4.5h-2v-8.5h1.8
				l0.2,1.7c0.2-0.6,0.5-1.1,0.9-1.4c0.4-0.3,0.8-0.5,1.3-0.5C453,91.6,453.2,91.6,453.5,91.7z"/>
			<path class="st10" d="M459.6,99.8c-0.3,0.2-0.6,0.4-1,0.5s-0.7,0.2-1.1,0.2c-0.8,0-1.5-0.2-1.9-0.7c-0.4-0.5-0.6-1.1-0.6-2.1
				v-4.5h-1.3v-1.5h1.3v-1.9l2-0.2v2.1h2l-0.2,1.5H457v4.4c0,0.4,0.1,0.7,0.2,0.9c0.1,0.2,0.4,0.3,0.7,0.3c0.3,0,0.6-0.1,1-0.3
				L459.6,99.8z"/>
			<path class="st10" d="M408,107.2v11.1h-2.1v-11.1H408z M414.2,107.2l-3.8,5l4.1,6H412l-3.9-5.9l3.8-5.2H414.2z"/>
			<path class="st10" d="M422.3,114.6h-5.3c0.1,0.8,0.3,1.4,0.6,1.8c0.4,0.4,0.8,0.5,1.4,0.5c0.4,0,0.7-0.1,1.1-0.2
				c0.3-0.1,0.7-0.3,1.1-0.6l0.8,1.2c-0.9,0.8-2,1.1-3.1,1.1c-1.3,0-2.3-0.4-3-1.2c-0.7-0.8-1-1.9-1-3.2c0-0.9,0.1-1.6,0.4-2.3
				c0.3-0.7,0.7-1.2,1.3-1.6c0.6-0.4,1.2-0.6,2-0.6c1.2,0,2.1,0.4,2.8,1.1c0.7,0.8,1,1.8,1,3.1C422.3,113.9,422.3,114.2,422.3,114.6
				z M420.3,113.2c0-1.5-0.5-2.2-1.6-2.2c-0.5,0-0.9,0.2-1.2,0.6c-0.3,0.4-0.5,1-0.5,1.8L420.3,113.2L420.3,113.2z"/>
			<path class="st10" d="M428.1,118.3c-0.3,1-0.9,1.9-1.6,2.4c-0.7,0.6-1.6,0.9-2.8,1l-0.2-1.5c0.6-0.1,1-0.2,1.3-0.4
				c0.3-0.2,0.6-0.4,0.8-0.6c0.2-0.3,0.4-0.6,0.6-1h-0.7l-2.7-8.5h2.2l1.8,7.1l1.9-7.1h2.1L428.1,118.3z"/>
			<path class="st10" d="M442.5,109.8l-1.8,8.5h-2.6l-1.3-6.6l-1.3,6.6H433l-1.9-8.5h2l1.2,7l1.5-7h2.1l1.3,7l1.3-7H442.5z"/>
			<path class="st10" d="M450.3,110.7c0.7,0.8,1,1.9,1,3.3c0,0.9-0.2,1.7-0.5,2.3c-0.3,0.7-0.8,1.2-1.4,1.6
				c-0.6,0.4-1.3,0.6-2.1,0.6c-1.2,0-2.2-0.4-2.9-1.2c-0.7-0.8-1.1-1.9-1.1-3.3c0-0.9,0.2-1.7,0.5-2.3s0.8-1.2,1.4-1.6
				c0.6-0.4,1.3-0.6,2.1-0.6C448.6,109.5,449.6,109.9,450.3,110.7z M445.5,114c0,1,0.2,1.7,0.5,2.2c0.3,0.5,0.8,0.7,1.4,0.7
				c0.6,0,1.1-0.2,1.4-0.7c0.3-0.5,0.5-1.2,0.5-2.2s-0.2-1.7-0.5-2.2c-0.3-0.5-0.8-0.7-1.4-0.7C446.1,111.1,445.5,112.1,445.5,114z"
				/>
			<path class="st10" d="M458.3,109.7l-0.4,2c-0.3-0.1-0.5-0.1-0.8-0.1c-0.5,0-0.9,0.2-1.2,0.5c-0.3,0.4-0.5,0.9-0.7,1.6v4.5h-2
				v-8.5h1.8l0.2,1.7c0.2-0.6,0.5-1.1,0.9-1.4c0.4-0.3,0.8-0.5,1.3-0.5C457.7,109.6,458,109.6,458.3,109.7z"/>
			<path class="st10" d="M466.2,106.4v11.9h-1.8l-0.1-1.1c-0.3,0.4-0.6,0.7-1,1c-0.4,0.2-0.9,0.4-1.4,0.4c-1,0-1.8-0.4-2.4-1.2
				s-0.8-1.9-0.8-3.3c0-0.9,0.1-1.6,0.4-2.3c0.3-0.7,0.7-1.2,1.2-1.6s1.1-0.6,1.8-0.6c0.8,0,1.5,0.3,2.1,0.9v-4.3L466.2,106.4z
				 M463.3,116.7c0.3-0.2,0.5-0.5,0.8-0.8V112c-0.2-0.3-0.5-0.5-0.7-0.7c-0.3-0.1-0.5-0.2-0.9-0.2c-0.5,0-1,0.2-1.3,0.7
				c-0.3,0.5-0.5,1.2-0.5,2.2c0,1,0.1,1.8,0.4,2.2c0.3,0.5,0.7,0.7,1.2,0.7C462.7,116.9,463.1,116.8,463.3,116.7z"/>
			<path class="st10" d="M407.7,131.8h-1.3v4.4h-2.1v-11.1h3.3c2.9,0,4.4,1.1,4.4,3.2c0,0.7-0.2,1.3-0.5,1.8
				c-0.4,0.5-0.9,0.9-1.7,1.2l2.9,4.8h-2.4L407.7,131.8z M406.4,130.3h1.3c0.7,0,1.2-0.1,1.5-0.4c0.3-0.3,0.5-0.8,0.5-1.4
				c0-0.6-0.2-1-0.5-1.3c-0.4-0.3-0.9-0.4-1.7-0.4h-1.1V130.3z"/>
			<path class="st10" d="M420.6,132.6h-5.3c0.1,0.8,0.3,1.4,0.6,1.8c0.4,0.4,0.8,0.5,1.4,0.5c0.4,0,0.7-0.1,1.1-0.2
				c0.3-0.1,0.7-0.3,1.1-0.6l0.8,1.2c-0.9,0.8-2,1.1-3.1,1.1c-1.3,0-2.3-0.4-3-1.2c-0.7-0.8-1-1.9-1-3.2c0-0.9,0.1-1.6,0.4-2.3
				c0.3-0.7,0.7-1.2,1.3-1.6c0.6-0.4,1.2-0.6,2-0.6c1.2,0,2.1,0.4,2.8,1.1c0.7,0.8,1,1.8,1,3.1C420.7,131.9,420.7,132.2,420.6,132.6
				z M418.6,131.2c0-1.5-0.5-2.2-1.6-2.2c-0.5,0-0.9,0.2-1.2,0.6c-0.3,0.4-0.5,1-0.5,1.8L418.6,131.2L418.6,131.2z"/>
			<path class="st10" d="M428.2,128.6l-0.8,1.2c-0.7-0.5-1.4-0.7-2.1-0.7c-0.4,0-0.7,0.1-0.9,0.2c-0.2,0.2-0.3,0.4-0.3,0.6
				c0,0.2,0,0.4,0.1,0.5c0.1,0.1,0.3,0.2,0.5,0.4s0.6,0.2,1.1,0.4c0.9,0.2,1.6,0.6,2,1c0.4,0.4,0.7,1,0.7,1.7c0,0.8-0.3,1.5-1,2
				s-1.5,0.7-2.5,0.7c-0.7,0-1.3-0.1-1.9-0.3c-0.6-0.2-1.1-0.5-1.5-0.9l1-1.2c0.7,0.6,1.5,0.8,2.3,0.8c0.5,0,0.8-0.1,1.1-0.3
				c0.3-0.2,0.4-0.4,0.4-0.8c0-0.2-0.1-0.4-0.2-0.6c-0.1-0.1-0.3-0.3-0.5-0.4c-0.3-0.1-0.7-0.2-1.2-0.4c-0.9-0.2-1.5-0.6-1.9-1
				c-0.4-0.4-0.6-0.9-0.6-1.6c0-0.5,0.1-0.9,0.4-1.3c0.3-0.4,0.7-0.7,1.2-0.9c0.5-0.2,1.1-0.3,1.7-0.3
				C426.3,127.5,427.3,127.9,428.2,128.6z"/>
			<path class="st10" d="M437,132.6h-5.3c0.1,0.8,0.3,1.4,0.6,1.8c0.4,0.4,0.8,0.5,1.4,0.5c0.4,0,0.7-0.1,1.1-0.2
				c0.3-0.1,0.7-0.3,1.1-0.6l0.8,1.2c-0.9,0.8-2,1.1-3.1,1.1c-1.3,0-2.3-0.4-3-1.2c-0.7-0.8-1-1.9-1-3.2c0-0.9,0.1-1.6,0.4-2.3
				c0.3-0.7,0.7-1.2,1.3-1.6c0.6-0.4,1.2-0.6,2-0.6c1.2,0,2.1,0.4,2.8,1.1c0.7,0.8,1,1.8,1,3.1C437.1,131.9,437.1,132.2,437,132.6z
				 M435,131.2c0-1.5-0.5-2.2-1.6-2.2c-0.5,0-0.9,0.2-1.2,0.6c-0.3,0.4-0.5,1-0.5,1.8L435,131.2L435,131.2z"/>
			<path class="st10" d="M445.2,134.7c0.1,0.2,0.3,0.3,0.5,0.4l-0.4,1.4c-0.5,0-0.9-0.2-1.2-0.4c-0.3-0.2-0.5-0.5-0.7-0.9
				c-0.3,0.4-0.6,0.7-1.1,1c-0.4,0.2-0.9,0.3-1.4,0.3c-0.8,0-1.5-0.2-2-0.7c-0.5-0.5-0.7-1.1-0.7-1.9c0-0.9,0.3-1.6,1-2.1
				c0.7-0.5,1.6-0.7,2.9-0.7h1.1v-0.5c0-0.5-0.1-0.9-0.4-1.1c-0.3-0.2-0.7-0.3-1.2-0.3c-0.6,0-1.4,0.1-2.2,0.4l-0.5-1.4
				c1.1-0.4,2.1-0.6,3.1-0.6c2.2,0,3.2,1,3.2,2.9v3.6C445,134.3,445.1,134.6,445.2,134.7z M443,134v-1.7h-0.8c-1.3,0-2,0.5-2,1.5
				c0,0.4,0.1,0.7,0.3,0.9c0.2,0.2,0.5,0.3,0.9,0.3C442.1,135,442.6,134.7,443,134z"/>
			<path class="st10" d="M452.5,127.7l-0.4,2c-0.3-0.1-0.5-0.1-0.8-0.1c-0.5,0-0.9,0.2-1.2,0.5c-0.3,0.4-0.5,0.9-0.7,1.6v4.5h-2
				v-8.5h1.8l0.2,1.7c0.2-0.6,0.5-1.1,0.9-1.4c0.4-0.3,0.8-0.5,1.3-0.5C452,127.6,452.3,127.6,452.5,127.7z"/>
			<path class="st10" d="M458.2,127.8c0.4,0.2,0.9,0.4,1.3,0.8l-0.9,1.2c-0.3-0.2-0.6-0.4-0.8-0.5c-0.3-0.1-0.6-0.1-0.9-0.1
				c-1.3,0-1.9,1-1.9,2.9c0,1,0.2,1.7,0.5,2.1c0.3,0.4,0.8,0.6,1.4,0.6c0.3,0,0.6,0,0.8-0.1c0.3-0.1,0.5-0.3,0.9-0.5l0.9,1.3
				c-0.8,0.7-1.7,1-2.7,1c-0.8,0-1.5-0.2-2.1-0.5s-1.1-0.9-1.4-1.5c-0.3-0.7-0.5-1.4-0.5-2.3c0-0.9,0.2-1.7,0.5-2.4
				c0.3-0.7,0.8-1.2,1.4-1.6c0.6-0.4,1.3-0.6,2.1-0.6C457.3,127.5,457.8,127.6,458.2,127.8z"/>
			<path class="st10" d="M467.2,128.2c0.4,0.5,0.6,1.1,0.6,1.9v6.1h-2v-5.8c0-0.5-0.1-0.9-0.3-1.1c-0.2-0.2-0.4-0.3-0.8-0.3
				c-0.3,0-0.7,0.1-0.9,0.3s-0.6,0.5-0.8,0.9v5.9h-2v-11.8l2-0.2v4.6c0.7-0.8,1.5-1.2,2.5-1.2C466.2,127.5,466.8,127.8,467.2,128.2z
				"/>
		</g>
	</g>
	<g>
		<g>
			<path class="st10" d="M490.3,203.8c0.5,0.2,1,0.5,1.5,0.9l-1.1,1.2c-0.7-0.5-1.3-0.8-2-0.8c-0.8,0-1.5,0.3-2,1s-0.7,1.7-0.7,3.1
				c0,1.4,0.2,2.4,0.7,3.1c0.5,0.7,1.2,1,2,1c0.4,0,0.8-0.1,1.2-0.2c0.3-0.2,0.7-0.4,1.1-0.7l1,1.2c-0.4,0.4-0.8,0.7-1.4,1
				c-0.6,0.3-1.2,0.4-1.9,0.4c-1,0-1.8-0.2-2.5-0.7c-0.7-0.4-1.3-1.1-1.7-2c-0.4-0.9-0.6-1.9-0.6-3.1c0-1.2,0.2-2.2,0.6-3.1
				c0.4-0.9,1-1.5,1.7-2c0.7-0.4,1.6-0.7,2.5-0.7C489.3,203.6,489.8,203.7,490.3,203.8z"/>
			<path class="st10" d="M499.4,207.3c0.7,0.8,1,1.9,1,3.3c0,0.9-0.2,1.7-0.5,2.3c-0.3,0.7-0.8,1.2-1.4,1.6s-1.3,0.6-2.1,0.6
				c-1.2,0-2.2-0.4-2.9-1.2c-0.7-0.8-1.1-1.9-1.1-3.3c0-0.9,0.2-1.7,0.5-2.3c0.3-0.7,0.8-1.2,1.4-1.6c0.6-0.4,1.3-0.6,2.1-0.6
				C497.8,206.2,498.7,206.6,499.4,207.3z M494.7,210.6c0,1,0.2,1.7,0.5,2.2s0.8,0.7,1.4,0.7c0.6,0,1.1-0.2,1.4-0.7
				c0.3-0.5,0.5-1.2,0.5-2.2c0-1-0.2-1.7-0.5-2.2c-0.3-0.5-0.8-0.7-1.4-0.7C495.3,207.7,494.7,208.7,494.7,210.6z"/>
			<path class="st10" d="M513,206.8c0.4,0.5,0.6,1.1,0.6,1.9v6.1h-2V209c0-0.9-0.3-1.4-0.9-1.4c-0.3,0-0.6,0.1-0.9,0.3
				c-0.2,0.2-0.5,0.5-0.7,1v5.9h-2V209c0-0.9-0.3-1.4-0.9-1.4c-0.3,0-0.6,0.1-0.9,0.3c-0.2,0.2-0.5,0.5-0.7,1v5.9h-2v-8.5h1.8
				l0.2,1.1c0.6-0.9,1.5-1.3,2.4-1.3c0.5,0,0.9,0.1,1.3,0.4c0.4,0.3,0.6,0.6,0.8,1c0.3-0.5,0.7-0.8,1.1-1.1c0.4-0.2,0.9-0.4,1.4-0.4
				C512.1,206.2,512.6,206.4,513,206.8z"/>
			<path class="st10" d="M522.8,207.3c0.5,0.8,0.8,1.9,0.8,3.3c0,0.9-0.1,1.7-0.4,2.3c-0.3,0.7-0.6,1.2-1.2,1.6
				c-0.5,0.4-1.1,0.6-1.8,0.6c-0.9,0-1.6-0.3-2.1-0.9v4l-2,0.2v-12h1.8l0.1,1c0.3-0.4,0.7-0.7,1.1-1s0.9-0.3,1.3-0.3
				C521.5,206.2,522.2,206.5,522.8,207.3z M521.4,210.6c0-1-0.1-1.8-0.4-2.2s-0.7-0.7-1.2-0.7c-0.3,0-0.7,0.1-1,0.3
				s-0.6,0.5-0.8,0.8v3.8c0.4,0.6,0.9,0.9,1.6,0.9C520.8,213.5,521.4,212.6,521.4,210.6z"/>
			<path class="st10" d="M532.4,211.3h-5.3c0.1,0.8,0.3,1.4,0.6,1.8c0.4,0.4,0.8,0.5,1.4,0.5c0.4,0,0.7-0.1,1.1-0.2
				c0.3-0.1,0.7-0.3,1.1-0.6l0.8,1.2c-0.9,0.8-2,1.1-3.1,1.1c-1.3,0-2.3-0.4-3-1.2c-0.7-0.8-1-1.9-1-3.2c0-0.9,0.1-1.6,0.4-2.3
				s0.7-1.2,1.3-1.6c0.6-0.4,1.2-0.6,2-0.6c1.2,0,2.1,0.4,2.8,1.1c0.7,0.8,1,1.8,1,3.1C532.5,210.5,532.5,210.8,532.4,211.3z
				 M530.5,209.8c0-1.5-0.5-2.2-1.6-2.2c-0.5,0-0.9,0.2-1.2,0.6c-0.3,0.4-0.5,1-0.5,1.8L530.5,209.8L530.5,209.8z"/>
			<path class="st10" d="M539.2,214.5c-0.3,0.2-0.6,0.4-1,0.5s-0.7,0.2-1.1,0.2c-0.8,0-1.5-0.2-1.9-0.7c-0.4-0.5-0.6-1.1-0.6-2.1
				v-4.5h-1.3v-1.5h1.3v-1.9l2-0.2v2.1h2l-0.2,1.5h-1.8v4.4c0,0.4,0.1,0.7,0.2,0.9c0.1,0.2,0.4,0.3,0.7,0.3c0.3,0,0.6-0.1,1-0.3
				L539.2,214.5z"/>
			<path class="st10" d="M542.3,202.5c0.2,0.2,0.4,0.5,0.4,0.9s-0.1,0.6-0.4,0.9c-0.2,0.2-0.6,0.4-0.9,0.4c-0.4,0-0.7-0.1-0.9-0.4
				c-0.2-0.2-0.4-0.5-0.4-0.9s0.1-0.6,0.4-0.9c0.2-0.2,0.5-0.4,0.9-0.4C541.7,202.1,542,202.2,542.3,202.5z M542.4,206.4v8.5h-2
				v-8.5H542.4z"/>
			<path class="st10" d="M549.7,214.5c-0.3,0.2-0.6,0.4-1,0.5s-0.7,0.2-1.1,0.2c-0.8,0-1.5-0.2-1.9-0.7c-0.4-0.5-0.6-1.1-0.6-2.1
				v-4.5h-1.3v-1.5h1.3v-1.9l2-0.2v2.1h2l-0.2,1.5h-1.8v4.4c0,0.4,0.1,0.7,0.2,0.9c0.1,0.2,0.4,0.3,0.7,0.3c0.3,0,0.6-0.1,1-0.3
				L549.7,214.5z"/>
			<path class="st10" d="M556.9,207.3c0.7,0.8,1,1.9,1,3.3c0,0.9-0.2,1.7-0.5,2.3c-0.3,0.7-0.8,1.2-1.4,1.6s-1.3,0.6-2.1,0.6
				c-1.2,0-2.2-0.4-2.9-1.2c-0.7-0.8-1.1-1.9-1.1-3.3c0-0.9,0.2-1.7,0.5-2.3c0.3-0.7,0.8-1.2,1.4-1.6c0.6-0.4,1.3-0.6,2.1-0.6
				C555.3,206.2,556.2,206.6,556.9,207.3z M552.2,210.6c0,1,0.2,1.7,0.5,2.2c0.3,0.5,0.8,0.7,1.4,0.7c0.6,0,1.1-0.2,1.4-0.7
				c0.3-0.5,0.5-1.2,0.5-2.2c0-1-0.2-1.7-0.5-2.2s-0.8-0.7-1.4-0.7C552.8,207.7,552.2,208.7,552.2,210.6z"/>
			<path class="st10" d="M564.9,206.3l-0.4,2c-0.3-0.1-0.5-0.1-0.8-0.1c-0.5,0-0.9,0.2-1.2,0.5s-0.5,0.9-0.7,1.6v4.5h-2v-8.5h1.8
				l0.2,1.7c0.2-0.6,0.5-1.1,0.9-1.4c0.4-0.3,0.8-0.5,1.3-0.5C564.4,206.2,564.7,206.2,564.9,206.3z"/>
			<path class="st10" d="M502.2,231.3c0.1,0.2,0.3,0.3,0.5,0.4l-0.4,1.4c-0.5,0-0.9-0.2-1.2-0.4c-0.3-0.2-0.5-0.5-0.7-0.9
				c-0.3,0.4-0.6,0.7-1.1,1c-0.4,0.2-0.9,0.3-1.4,0.3c-0.8,0-1.5-0.2-2-0.7c-0.5-0.5-0.7-1.1-0.7-1.9c0-0.9,0.3-1.6,1-2.1
				s1.6-0.7,2.9-0.7h1.1v-0.5c0-0.5-0.1-0.9-0.4-1.1s-0.7-0.3-1.2-0.3c-0.6,0-1.4,0.1-2.2,0.4l-0.5-1.4c1.1-0.4,2.1-0.6,3.1-0.6
				c2.2,0,3.2,1,3.2,2.9v3.6C502.1,230.9,502.1,231.2,502.2,231.3z M500.1,230.6v-1.7h-0.8c-1.3,0-2,0.5-2,1.5
				c0,0.4,0.1,0.7,0.3,0.9c0.2,0.2,0.5,0.3,0.9,0.3C499.1,231.6,499.7,231.3,500.1,230.6z"/>
			<path class="st10" d="M510.8,224.8c0.4,0.5,0.6,1.1,0.6,1.9v6.1h-2v-5.8c0-0.5-0.1-0.9-0.3-1.1c-0.2-0.2-0.4-0.3-0.8-0.3
				c-0.4,0-0.7,0.1-1,0.3c-0.3,0.2-0.6,0.5-0.8,1v5.9h-2v-8.5h1.8l0.2,1.1c0.7-0.9,1.6-1.3,2.6-1.3
				C509.8,224.2,510.4,224.4,510.8,224.8z"/>
			<path class="st10" d="M520.3,231.3c0.1,0.2,0.3,0.3,0.5,0.4l-0.4,1.4c-0.5,0-0.9-0.2-1.2-0.4c-0.3-0.2-0.5-0.5-0.7-0.9
				c-0.3,0.4-0.6,0.7-1.1,1s-0.9,0.3-1.4,0.3c-0.8,0-1.5-0.2-2-0.7c-0.5-0.5-0.7-1.1-0.7-1.9c0-0.9,0.3-1.6,1-2.1
				c0.7-0.5,1.6-0.7,2.9-0.7h1.1v-0.5c0-0.5-0.1-0.9-0.4-1.1c-0.3-0.2-0.7-0.3-1.2-0.3c-0.6,0-1.4,0.1-2.2,0.4l-0.5-1.4
				c1.1-0.4,2.1-0.6,3.1-0.6c2.2,0,3.2,1,3.2,2.9v3.6C520.1,230.9,520.2,231.2,520.3,231.3z M518.1,230.6v-1.7h-0.8
				c-1.3,0-2,0.5-2,1.5c0,0.4,0.1,0.7,0.3,0.9c0.2,0.2,0.5,0.3,0.9,0.3C517.2,231.6,517.7,231.3,518.1,230.6z"/>
			<path class="st10" d="M522.9,232.5c-0.4-0.4-0.6-0.9-0.6-1.6V221l2-0.2v10.1c0,0.4,0.2,0.6,0.5,0.6c0.2,0,0.3,0,0.5-0.1l0.4,1.4
				c-0.4,0.2-0.9,0.3-1.4,0.3C523.8,233.1,523.3,232.9,522.9,232.5z"/>
			<path class="st10" d="M531.1,232.9c-0.3,1-0.9,1.9-1.6,2.4c-0.7,0.6-1.6,0.9-2.8,1l-0.2-1.5c0.6-0.1,1-0.2,1.3-0.4
				c0.3-0.2,0.6-0.4,0.8-0.6c0.2-0.3,0.4-0.6,0.6-1h-0.7l-2.7-8.5h2.2l1.8,7.1l1.9-7.1h2.1L531.1,232.9z"/>
			<path class="st10" d="M540.6,225.2l-0.8,1.2c-0.7-0.5-1.4-0.7-2.1-0.7c-0.4,0-0.7,0.1-0.9,0.2c-0.2,0.2-0.3,0.4-0.3,0.6
				c0,0.2,0,0.4,0.1,0.5c0.1,0.1,0.3,0.2,0.5,0.4c0.3,0.1,0.6,0.2,1.1,0.4c0.9,0.2,1.6,0.6,2,1c0.4,0.4,0.7,1,0.7,1.7
				c0,0.8-0.3,1.5-1,2s-1.5,0.7-2.5,0.7c-0.7,0-1.3-0.1-1.9-0.3s-1.1-0.5-1.5-0.9l1-1.2c0.7,0.6,1.5,0.8,2.3,0.8
				c0.5,0,0.8-0.1,1.1-0.3c0.3-0.2,0.4-0.4,0.4-0.8c0-0.2-0.1-0.4-0.2-0.6c-0.1-0.1-0.3-0.3-0.5-0.4c-0.3-0.1-0.7-0.2-1.2-0.4
				c-0.9-0.2-1.5-0.6-1.9-1c-0.4-0.4-0.6-0.9-0.6-1.6c0-0.5,0.1-0.9,0.4-1.3c0.3-0.4,0.7-0.7,1.2-0.9c0.5-0.2,1.1-0.3,1.7-0.3
				C538.8,224.2,539.8,224.5,540.6,225.2z"/>
			<path class="st10" d="M544.5,220.5c0.2,0.2,0.4,0.5,0.4,0.9c0,0.4-0.1,0.6-0.4,0.9s-0.6,0.4-0.9,0.4c-0.4,0-0.7-0.1-0.9-0.4
				c-0.2-0.2-0.4-0.5-0.4-0.9c0-0.4,0.1-0.6,0.4-0.9c0.2-0.2,0.5-0.4,0.9-0.4C544,220.1,544.3,220.2,544.5,220.5z M544.6,224.4v8.5
				h-2v-8.5H544.6z"/>
			<path class="st10" d="M552.8,225.2l-0.8,1.2c-0.7-0.5-1.4-0.7-2.1-0.7c-0.4,0-0.7,0.1-0.9,0.2c-0.2,0.2-0.3,0.4-0.3,0.6
				c0,0.2,0,0.4,0.1,0.5c0.1,0.1,0.3,0.2,0.5,0.4c0.3,0.1,0.6,0.2,1.1,0.4c0.9,0.2,1.6,0.6,2,1c0.4,0.4,0.7,1,0.7,1.7
				c0,0.8-0.3,1.5-1,2s-1.5,0.7-2.5,0.7c-0.7,0-1.3-0.1-1.9-0.3s-1.1-0.5-1.5-0.9l1-1.2c0.7,0.6,1.5,0.8,2.3,0.8
				c0.5,0,0.8-0.1,1.1-0.3c0.3-0.2,0.4-0.4,0.4-0.8c0-0.2-0.1-0.4-0.2-0.6c-0.1-0.1-0.3-0.3-0.5-0.4c-0.3-0.1-0.7-0.2-1.2-0.4
				c-0.9-0.2-1.5-0.6-1.9-1c-0.4-0.4-0.6-0.9-0.6-1.6c0-0.5,0.1-0.9,0.4-1.3c0.3-0.4,0.7-0.7,1.2-0.9c0.5-0.2,1.1-0.3,1.7-0.3
				C550.9,224.2,551.9,224.5,552.8,225.2z"/>
		</g>
	</g>
	<g>
		<g>
			<path class="st10" d="M128.8,429.2c0.5,0.2,1,0.5,1.5,0.9l-1.1,1.2c-0.7-0.5-1.3-0.8-2-0.8c-0.8,0-1.5,0.3-2,1
				c-0.5,0.7-0.7,1.7-0.7,3.1c0,1.4,0.2,2.4,0.7,3.1s1.2,1,2,1c0.4,0,0.8-0.1,1.2-0.2s0.7-0.4,1.1-0.7l1,1.2c-0.4,0.4-0.8,0.7-1.4,1
				s-1.2,0.4-1.9,0.4c-1,0-1.8-0.2-2.5-0.7c-0.7-0.4-1.3-1.1-1.7-2c-0.4-0.9-0.6-1.9-0.6-3.1c0-1.2,0.2-2.2,0.6-3.1
				c0.4-0.9,1-1.5,1.7-2c0.7-0.4,1.6-0.7,2.5-0.7C127.7,428.9,128.3,429,128.8,429.2z"/>
			<path class="st10" d="M137.9,432.7c0.7,0.8,1,1.9,1,3.3c0,0.9-0.2,1.7-0.5,2.3c-0.3,0.7-0.8,1.2-1.4,1.6
				c-0.6,0.4-1.3,0.6-2.1,0.6c-1.2,0-2.2-0.4-2.9-1.2c-0.7-0.8-1.1-1.9-1.1-3.3c0-0.9,0.2-1.7,0.5-2.3c0.3-0.7,0.8-1.2,1.4-1.6
				s1.3-0.6,2.1-0.6C136.2,431.5,137.2,431.9,137.9,432.7z M133.1,436c0,1,0.2,1.7,0.5,2.2c0.3,0.5,0.8,0.7,1.4,0.7s1.1-0.2,1.4-0.7
				c0.3-0.5,0.5-1.2,0.5-2.2c0-1-0.2-1.7-0.5-2.2s-0.8-0.7-1.4-0.7C133.7,433.1,133.1,434.1,133.1,436z"/>
			<path class="st10" d="M147.1,432.2c0.4,0.5,0.6,1.1,0.6,1.9v6.1h-2v-5.8c0-0.5-0.1-0.9-0.3-1.1c-0.2-0.2-0.4-0.3-0.8-0.3
				c-0.4,0-0.7,0.1-1,0.3s-0.6,0.5-0.8,1v5.9h-2v-8.5h1.8l0.2,1.1c0.7-0.9,1.6-1.3,2.6-1.3C146.1,431.5,146.7,431.8,147.1,432.2z"/>
			<path class="st10" d="M155,439.8c-0.3,0.2-0.6,0.4-1,0.5s-0.7,0.2-1.1,0.2c-0.8,0-1.5-0.2-1.9-0.7s-0.6-1.1-0.6-2.1v-4.5H149
				v-1.5h1.3v-1.9l2-0.2v2.1h2l-0.2,1.5h-1.8v4.4c0,0.4,0.1,0.7,0.2,0.9c0.1,0.2,0.4,0.3,0.7,0.3c0.3,0,0.6-0.1,1-0.3L155,439.8z"/>
			<path class="st10" d="M162.8,436.6h-5.3c0.1,0.8,0.3,1.4,0.6,1.8c0.4,0.4,0.8,0.5,1.4,0.5c0.4,0,0.7-0.1,1.1-0.2
				c0.3-0.1,0.7-0.3,1.1-0.6l0.8,1.2c-0.9,0.8-2,1.1-3.1,1.1c-1.3,0-2.3-0.4-3-1.2c-0.7-0.8-1-1.9-1-3.2c0-0.9,0.1-1.6,0.4-2.3
				c0.3-0.7,0.7-1.2,1.3-1.6c0.6-0.4,1.2-0.6,2-0.6c1.2,0,2.1,0.4,2.8,1.1c0.7,0.8,1,1.8,1,3.1C162.8,435.9,162.8,436.2,162.8,436.6
				z M160.8,435.2c0-1.5-0.5-2.2-1.6-2.2c-0.5,0-0.9,0.2-1.2,0.6c-0.3,0.4-0.5,1-0.5,1.8L160.8,435.2L160.8,435.2z"/>
			<path class="st10" d="M170.9,432.2c0.4,0.5,0.6,1.1,0.6,1.9v6.1h-2v-5.8c0-0.5-0.1-0.9-0.3-1.1c-0.2-0.2-0.4-0.3-0.8-0.3
				c-0.4,0-0.7,0.1-1,0.3c-0.3,0.2-0.6,0.5-0.8,1v5.9h-2v-8.5h1.8l0.2,1.1c0.7-0.9,1.6-1.3,2.6-1.3
				C169.9,431.5,170.5,431.8,170.9,432.2z"/>
			<path class="st10" d="M178.8,439.8c-0.3,0.2-0.6,0.4-1,0.5s-0.7,0.2-1.1,0.2c-0.8,0-1.5-0.2-1.9-0.7c-0.4-0.5-0.6-1.1-0.6-2.1
				v-4.5h-1.3v-1.5h1.3v-1.9l2-0.2v2.1h2l-0.2,1.5h-1.8v4.4c0,0.4,0.1,0.7,0.2,0.9c0.1,0.2,0.4,0.3,0.7,0.3c0.3,0,0.6-0.1,1-0.3
				L178.8,439.8z"/>
			<path class="st10" d="M125.3,458.2h-2.1l-0.3-4.6c-0.1-1.7-0.1-3-0.1-3.9v-0.6l-2,7.9h-2l-2.1-8c0,0.7,0,1.2,0,1.6c0,1,0,2-0.1,3
				l-0.3,4.6h-2l0.9-11.1h2.7l2,7.7l1.9-7.7h2.8L125.3,458.2z"/>
			<path class="st10" d="M133.7,456.7c0.1,0.2,0.3,0.3,0.5,0.4l-0.4,1.4c-0.5,0-0.9-0.2-1.2-0.4c-0.3-0.2-0.5-0.5-0.7-0.9
				c-0.3,0.4-0.6,0.7-1.1,1c-0.4,0.2-0.9,0.3-1.4,0.3c-0.8,0-1.5-0.2-2-0.7c-0.5-0.5-0.7-1.1-0.7-1.9c0-0.9,0.3-1.6,1-2.1
				c0.7-0.5,1.6-0.7,2.9-0.7h1.1v-0.5c0-0.5-0.1-0.9-0.4-1.1c-0.3-0.2-0.7-0.3-1.2-0.3c-0.6,0-1.4,0.1-2.2,0.4l-0.5-1.4
				c1.1-0.4,2.1-0.6,3.1-0.6c2.2,0,3.2,1,3.2,2.9v3.6C133.6,456.3,133.6,456.6,133.7,456.7z M131.5,455.9v-1.7h-0.8
				c-1.3,0-2,0.5-2,1.5c0,0.4,0.1,0.7,0.3,0.9s0.5,0.3,0.9,0.3C130.6,457,131.1,456.6,131.5,455.9z"/>
			<path class="st10" d="M141.1,449.7l-0.4,2c-0.3-0.1-0.5-0.1-0.8-0.1c-0.5,0-0.9,0.2-1.2,0.5c-0.3,0.4-0.5,0.9-0.7,1.6v4.5h-2
				v-8.5h1.8l0.2,1.7c0.2-0.6,0.5-1.1,0.9-1.4c0.4-0.3,0.8-0.5,1.3-0.5C140.5,449.5,140.8,449.6,141.1,449.7z"/>
			<path class="st10" d="M144.4,446.2v12.1h-2v-11.9L144.4,446.2z M149.5,449.8l-2.8,3.7l3.1,4.7h-2.4l-2.9-4.6l2.8-3.8H149.5z"/>
			<path class="st10" d="M157.6,454.6h-5.3c0.1,0.8,0.3,1.4,0.6,1.8c0.4,0.4,0.8,0.5,1.4,0.5c0.4,0,0.7-0.1,1.1-0.2
				c0.3-0.1,0.7-0.3,1.1-0.6l0.8,1.2c-0.9,0.8-2,1.1-3.1,1.1c-1.3,0-2.3-0.4-3-1.2c-0.7-0.8-1-1.9-1-3.2c0-0.9,0.1-1.6,0.4-2.3
				c0.3-0.7,0.7-1.2,1.3-1.6c0.6-0.4,1.2-0.6,2-0.6c1.2,0,2.1,0.4,2.8,1.1s1,1.8,1,3.1C157.6,453.9,157.6,454.2,157.6,454.6z
				 M155.6,453.2c0-1.5-0.5-2.2-1.6-2.2c-0.5,0-0.9,0.2-1.2,0.6c-0.3,0.4-0.5,1-0.5,1.8L155.6,453.2L155.6,453.2z"/>
			<path class="st10" d="M164.3,457.8c-0.3,0.2-0.6,0.4-1,0.5s-0.7,0.2-1.1,0.2c-0.8,0-1.5-0.2-1.9-0.7c-0.4-0.5-0.6-1.1-0.6-2.1
				v-4.5h-1.3v-1.5h1.3v-1.9l2-0.2v2.1h2l-0.2,1.5h-1.8v4.4c0,0.4,0.1,0.7,0.2,0.9c0.1,0.2,0.4,0.3,0.7,0.3c0.3,0,0.6-0.1,1-0.3
				L164.3,457.8z"/>
			<path class="st10" d="M167.4,445.8c0.2,0.2,0.4,0.5,0.4,0.9c0,0.4-0.1,0.6-0.4,0.9s-0.6,0.4-0.9,0.4c-0.4,0-0.7-0.1-0.9-0.4
				c-0.2-0.2-0.4-0.5-0.4-0.9c0-0.4,0.1-0.6,0.4-0.9c0.2-0.2,0.5-0.4,0.9-0.4C166.9,445.5,167.2,445.6,167.4,445.8z M167.5,449.8
				v8.5h-2v-8.5H167.5z"/>
			<path class="st10" d="M176.3,450.2c0.4,0.5,0.6,1.1,0.6,1.9v6.1h-2v-5.8c0-0.5-0.1-0.9-0.3-1.1c-0.2-0.2-0.4-0.3-0.8-0.3
				c-0.4,0-0.7,0.1-1,0.3c-0.3,0.2-0.6,0.5-0.8,1v5.9h-2v-8.5h1.8l0.2,1.1c0.7-0.9,1.6-1.3,2.6-1.3
				C175.3,449.5,175.9,449.8,176.3,450.2z"/>
			<path class="st10" d="M186.7,450.2c-0.5,0.2-1.4,0.3-2.4,0.3c0.5,0.2,0.9,0.5,1.2,0.9c0.3,0.3,0.4,0.8,0.4,1.3
				c0,0.6-0.1,1-0.4,1.5c-0.3,0.4-0.7,0.8-1.2,1c-0.5,0.2-1.1,0.4-1.8,0.4c-0.4,0-0.7,0-1-0.1c-0.2,0.2-0.4,0.4-0.4,0.6
				c0,0.4,0.3,0.6,1,0.6h1.3c0.6,0,1.2,0.1,1.6,0.3c0.5,0.2,0.8,0.5,1.1,0.9c0.3,0.4,0.4,0.8,0.4,1.2c0,0.9-0.4,1.5-1.1,2
				c-0.7,0.5-1.8,0.7-3.1,0.7c-1,0-1.8-0.1-2.3-0.3c-0.6-0.2-1-0.5-1.2-0.9c-0.2-0.4-0.4-0.9-0.4-1.5h1.8c0,0.3,0.1,0.5,0.2,0.7
				c0.1,0.2,0.3,0.3,0.6,0.4c0.3,0.1,0.7,0.1,1.3,0.1c0.8,0,1.3-0.1,1.6-0.3c0.3-0.2,0.5-0.5,0.5-0.8c0-0.3-0.1-0.6-0.4-0.7
				c-0.2-0.2-0.6-0.3-1.1-0.3h-1.3c-0.8,0-1.4-0.2-1.8-0.5s-0.6-0.7-0.6-1.2c0-0.3,0.1-0.6,0.3-0.9s0.4-0.5,0.7-0.7
				c-0.5-0.3-0.9-0.6-1.1-1c-0.2-0.4-0.4-0.9-0.4-1.4c0-0.6,0.1-1.1,0.4-1.6c0.3-0.5,0.7-0.8,1.2-1.1c0.5-0.3,1.1-0.4,1.8-0.4
				c0.9,0,1.6,0,2.2-0.2c0.5-0.2,1.1-0.4,1.8-0.7L186.7,450.2z M181.1,451.4c-0.3,0.3-0.4,0.7-0.4,1.2c0,0.5,0.1,0.9,0.4,1.2
				c0.3,0.3,0.6,0.4,1.1,0.4c0.5,0,0.9-0.1,1.1-0.4c0.3-0.3,0.4-0.7,0.4-1.2c0-1.1-0.5-1.6-1.5-1.6
				C181.8,450.9,181.4,451.1,181.1,451.4z"/>
		</g>
	</g>
	<g>
		<g>
			<path class="st10" d="M515.7,306.4c0.5,0.2,1.1,0.5,1.5,0.9l-1.1,1.1c-0.4-0.3-0.7-0.5-1.1-0.7c-0.3-0.1-0.7-0.2-1.2-0.2
				c-0.8,0-1.5,0.3-2,1s-0.8,1.7-0.8,3c0,1.4,0.2,2.5,0.6,3.1c0.4,0.6,1.1,0.9,1.9,0.9c0.7,0,1.2-0.1,1.7-0.4v-2.8h-1.6l-0.2-1.5
				h3.8v5.2c-1.2,0.7-2.4,1.1-3.7,1.1c-1.5,0-2.7-0.5-3.5-1.4c-0.8-1-1.2-2.3-1.2-4.2c0-1.2,0.2-2.2,0.7-3c0.4-0.8,1-1.5,1.8-1.9
				c0.7-0.4,1.6-0.7,2.5-0.7C514.6,306.1,515.2,306.2,515.7,306.4z"/>
			<path class="st10" d="M529.6,317.1h-2l-0.3-4.5c-0.1-1.6-0.1-2.9-0.1-3.8v-0.6l-2,7.7h-1.9l-2.1-7.7c0,0.7,0,1.2,0,1.6
				c0,0.9,0,1.9-0.1,2.9l-0.3,4.4h-2l0.9-10.7h2.6l1.9,7.5l1.8-7.5h2.7L529.6,317.1z"/>
			<path class="st10" d="M538.6,312.2c0.4,0.4,0.7,1,0.7,1.8c0,1.1-0.4,1.9-1.2,2.4c-0.8,0.5-1.9,0.7-3.3,0.7h-3.2v-10.7h2.8
				c3,0,4.4,0.9,4.4,2.7c0,0.6-0.2,1.1-0.6,1.5c-0.4,0.4-0.9,0.7-1.4,0.8C537.5,311.5,538.1,311.8,538.6,312.2z M533.6,307.9v2.9
				h1.3c0.6,0,1-0.1,1.3-0.4c0.3-0.3,0.5-0.6,0.5-1.1c0-0.5-0.2-0.9-0.5-1.1c-0.3-0.2-0.9-0.3-1.6-0.3H533.6z M536.5,315.2
				c0.4-0.2,0.6-0.7,0.6-1.3c0-0.6-0.2-1-0.6-1.3c-0.4-0.3-0.9-0.4-1.5-0.4h-1.4v3.3h1.2C535.5,315.5,536.1,315.4,536.5,315.2z"/>
			<path class="st10" d="M490,335.1h-2l-0.3-4.5c-0.1-1.6-0.1-2.9-0.1-3.8v-0.6l-2,7.7h-1.9l-2.1-7.7c0,0.7,0,1.2,0,1.5
				c0,0.9,0,1.9-0.1,2.9l-0.3,4.4h-2l0.9-10.7h2.6l1.9,7.5l1.8-7.5h2.7L490,335.1z"/>
			<path class="st10" d="M498.1,333.6c0.1,0.2,0.3,0.3,0.5,0.3l-0.4,1.3c-0.5,0-0.8-0.2-1.1-0.3c-0.3-0.2-0.5-0.5-0.7-0.9
				c-0.3,0.4-0.6,0.7-1,0.9c-0.4,0.2-0.9,0.3-1.4,0.3c-0.8,0-1.5-0.2-1.9-0.7c-0.5-0.5-0.7-1.1-0.7-1.8c0-0.9,0.3-1.6,1-2
				c0.6-0.5,1.6-0.7,2.8-0.7h1v-0.5c0-0.5-0.1-0.9-0.4-1.1c-0.2-0.2-0.6-0.3-1.2-0.3c-0.6,0-1.3,0.1-2.2,0.4l-0.5-1.3
				c1-0.4,2-0.6,3-0.6c2.1,0,3.1,0.9,3.1,2.8v3.4C497.9,333.2,498,333.5,498.1,333.6z M496,332.9v-1.7h-0.8c-1.3,0-1.9,0.5-1.9,1.4
				c0,0.4,0.1,0.7,0.3,0.9c0.2,0.2,0.5,0.3,0.9,0.3C495.1,333.9,495.6,333.5,496,332.9z"/>
			<path class="st10" d="M506.4,327.3c0.4,0.4,0.6,1.1,0.6,1.8v5.9h-2v-5.6c0-0.5-0.1-0.8-0.3-1c-0.2-0.2-0.4-0.3-0.8-0.3
				c-0.3,0-0.6,0.1-0.9,0.3c-0.3,0.2-0.5,0.5-0.8,0.9v5.7h-2v-8.2h1.7l0.2,1.1c0.7-0.9,1.5-1.3,2.5-1.3
				C505.4,326.6,506,326.9,506.4,327.3z"/>
			<path class="st10" d="M515.5,333.6c0.1,0.2,0.3,0.3,0.5,0.3l-0.4,1.3c-0.5,0-0.8-0.2-1.1-0.3c-0.3-0.2-0.5-0.5-0.7-0.9
				c-0.3,0.4-0.6,0.7-1,0.9c-0.4,0.2-0.9,0.3-1.4,0.3c-0.8,0-1.5-0.2-1.9-0.7c-0.5-0.5-0.7-1.1-0.7-1.8c0-0.9,0.3-1.6,1-2
				c0.6-0.5,1.6-0.7,2.8-0.7h1v-0.5c0-0.5-0.1-0.9-0.4-1.1c-0.2-0.2-0.6-0.3-1.2-0.3c-0.6,0-1.3,0.1-2.2,0.4l-0.5-1.3
				c1-0.4,2-0.6,3-0.6c2.1,0,3.1,0.9,3.1,2.8v3.4C515.4,333.2,515.4,333.5,515.5,333.6z M513.4,332.9v-1.7h-0.8
				c-1.3,0-1.9,0.5-1.9,1.4c0,0.4,0.1,0.7,0.3,0.9c0.2,0.2,0.5,0.3,0.9,0.3C512.5,333.9,513.1,333.5,513.4,332.9z"/>
			<path class="st10" d="M524.8,327.3c-0.5,0.2-1.3,0.3-2.4,0.3c0.5,0.2,0.9,0.5,1.1,0.8c0.2,0.3,0.4,0.8,0.4,1.3
				c0,0.5-0.1,1-0.4,1.4c-0.3,0.4-0.6,0.7-1.1,1c-0.5,0.2-1.1,0.4-1.8,0.4c-0.4,0-0.7,0-1-0.1c-0.2,0.2-0.3,0.4-0.3,0.6
				c0,0.4,0.3,0.6,1,0.6h1.3c0.6,0,1.1,0.1,1.6,0.3c0.4,0.2,0.8,0.5,1,0.8s0.4,0.8,0.4,1.2c0,0.8-0.4,1.5-1.1,1.9
				c-0.7,0.5-1.7,0.7-3,0.7c-1,0-1.7-0.1-2.2-0.3c-0.5-0.2-0.9-0.5-1.2-0.9c-0.2-0.4-0.3-0.8-0.3-1.4h1.8c0,0.3,0.1,0.5,0.2,0.7
				c0.1,0.2,0.3,0.3,0.6,0.4c0.3,0.1,0.7,0.1,1.2,0.1c0.8,0,1.3-0.1,1.6-0.3c0.3-0.2,0.5-0.5,0.5-0.8c0-0.3-0.1-0.6-0.4-0.7
				c-0.2-0.2-0.6-0.3-1-0.3h-1.2c-0.8,0-1.4-0.2-1.8-0.5c-0.4-0.3-0.6-0.7-0.6-1.1c0-0.3,0.1-0.6,0.3-0.8c0.2-0.3,0.4-0.5,0.7-0.7
				c-0.5-0.3-0.9-0.6-1.1-1s-0.3-0.8-0.3-1.4c0-0.6,0.1-1.1,0.4-1.5s0.7-0.8,1.2-1c0.5-0.2,1.1-0.4,1.8-0.4c0.9,0,1.6,0,2.1-0.2
				c0.5-0.1,1.1-0.4,1.7-0.7L524.8,327.3z M519.4,328.4c-0.3,0.3-0.4,0.7-0.4,1.1c0,0.5,0.1,0.9,0.4,1.2c0.3,0.3,0.6,0.4,1.1,0.4
				c0.5,0,0.8-0.1,1.1-0.4s0.4-0.7,0.4-1.2c0-1-0.5-1.6-1.5-1.6C520,328,519.7,328.1,519.4,328.4z"/>
			<path class="st10" d="M532.4,331.6h-5.1c0.1,0.8,0.3,1.4,0.6,1.7c0.4,0.3,0.8,0.5,1.4,0.5c0.4,0,0.7-0.1,1-0.2s0.7-0.3,1-0.5
				l0.8,1.1c-0.9,0.7-1.9,1.1-3,1.1c-1.3,0-2.2-0.4-2.9-1.1c-0.7-0.8-1-1.8-1-3.1c0-0.8,0.1-1.6,0.4-2.3c0.3-0.7,0.7-1.2,1.3-1.6
				c0.5-0.4,1.2-0.6,2-0.6c1.1,0,2,0.4,2.7,1.1c0.6,0.7,0.9,1.7,0.9,3C532.4,330.9,532.4,331.1,532.4,331.6z M530.4,330.2
				c0-1.4-0.5-2.2-1.6-2.2c-0.5,0-0.9,0.2-1.1,0.5s-0.4,0.9-0.5,1.7L530.4,330.2L530.4,330.2z"/>
			<path class="st10" d="M544.5,327.3c0.4,0.4,0.6,1.1,0.6,1.8v5.9h-2v-5.6c0-0.9-0.3-1.3-0.9-1.3c-0.3,0-0.6,0.1-0.8,0.3
				s-0.5,0.5-0.7,0.9v5.7h-2v-5.6c0-0.9-0.3-1.3-0.9-1.3c-0.3,0-0.6,0.1-0.8,0.3s-0.5,0.5-0.7,0.9v5.7h-2v-8.2h1.7l0.2,1.1
				c0.6-0.9,1.4-1.3,2.4-1.3c0.5,0,0.9,0.1,1.2,0.4c0.3,0.2,0.6,0.6,0.8,1c0.3-0.4,0.7-0.8,1.1-1c0.4-0.2,0.9-0.4,1.4-0.4
				C543.5,326.6,544.1,326.9,544.5,327.3z"/>
			<path class="st10" d="M554,331.6h-5.1c0.1,0.8,0.3,1.4,0.6,1.7c0.4,0.3,0.8,0.5,1.4,0.5c0.4,0,0.7-0.1,1-0.2s0.7-0.3,1-0.5
				l0.8,1.1c-0.9,0.7-1.9,1.1-3,1.1c-1.3,0-2.2-0.4-2.9-1.1s-1-1.8-1-3.1c0-0.8,0.1-1.6,0.4-2.3c0.3-0.7,0.7-1.2,1.3-1.6
				c0.5-0.4,1.2-0.6,2-0.6c1.1,0,2,0.4,2.7,1.1c0.6,0.7,0.9,1.7,0.9,3C554.1,330.9,554.1,331.1,554,331.6z M552.1,330.2
				c0-1.4-0.5-2.2-1.6-2.2c-0.5,0-0.9,0.2-1.1,0.5c-0.3,0.4-0.4,0.9-0.5,1.7L552.1,330.2L552.1,330.2z"/>
			<path class="st10" d="M562,327.3c0.4,0.4,0.6,1.1,0.6,1.8v5.9h-2v-5.6c0-0.5-0.1-0.8-0.3-1c-0.2-0.2-0.4-0.3-0.8-0.3
				c-0.3,0-0.6,0.1-0.9,0.3s-0.5,0.5-0.8,0.9v5.7h-2v-8.2h1.7l0.2,1.1c0.7-0.9,1.5-1.3,2.5-1.3C561,326.6,561.5,326.9,562,327.3z"/>
			<path class="st10" d="M569.6,334.7c-0.3,0.2-0.6,0.4-1,0.5c-0.4,0.1-0.7,0.2-1.1,0.2c-0.8,0-1.4-0.2-1.8-0.7
				c-0.4-0.5-0.6-1.1-0.6-2v-4.3h-1.3v-1.4h1.3v-1.8l2-0.2v2h1.9l-0.2,1.4H567v4.3c0,0.4,0.1,0.7,0.2,0.9c0.1,0.2,0.4,0.3,0.7,0.3
				s0.6-0.1,1-0.3L569.6,334.7z"/>
		</g>
	</g>
	<g>
		<polygon class="st11" points="322.5,26.7 323.9,26.7 322.5,25.3 		"/>
		<polygon class="st11" points="309.9,36.2 313.6,36.2 313.6,24.2 322.3,24.2 325,26.9 325,36.2 328.8,36.2 328.8,22.9 309.9,22.9 
					"/>
		<rect x="309.9" y="20.4" class="st11" width="18.9" height="1.9"/>
		<path class="st2" d="M316.9,33.3c-0.8,0-1.4,0.6-1.4,1.4s0.6,1.4,1.4,1.4c0.8,0,1.4-0.6,1.4-1.4C318.4,34,317.7,33.3,316.9,33.3z
			 M316.7,35.7l-0.7-0.7l0.4-0.4l0.3,0.3l0.7-0.7l0.4,0.4L316.7,35.7z"/>
		<path class="st2" d="M316.9,28.3c-0.8,0-1.4,0.6-1.4,1.4s0.6,1.4,1.4,1.4c0.8,0,1.4-0.6,1.4-1.4C318.4,28.9,317.7,28.3,316.9,28.3
			z M316.7,30.6l-0.7-0.7l0.4-0.4l0.3,0.3l0.7-0.7l0.4,0.4L316.7,30.6z"/>
		<path class="st2" d="M309.2,19.8v17h4.4V39l1.4,0.8l1.1-0.6l1.1,0.6l1.1-0.6l1.1,0.6l1.1-0.6l1.1,0.6l1.1-0.6l1.1,0.6L325,39v-2.2
			h4.4v-17H309.2z M316.9,36.8c-1.1,0-2-0.9-2-2s0.9-2,2-2c1.1,0,2,0.9,2,2C319,35.9,318.1,36.8,316.9,36.8z M316.9,31.8
			c-1.1,0-2-0.9-2-2s0.9-2,2-2c1.1,0,2,0.9,2,2C319,30.8,318.1,31.8,316.9,31.8z M322.5,35.9h-2.5v-0.6h2.5V35.9z M323.7,34.3h-3.8
			v-0.6h3.8V34.3z M319.9,30.8v-0.6h2.5v0.6H319.9z M323.7,29.2h-3.8v-0.6h3.8V29.2z M322.5,26.7v-1.4l1.4,1.4H322.5z M328.8,36.2
			H325v-9.3l-2.7-2.7h-8.6v12h-3.8V22.9h18.9V36.2z M328.8,22.3h-18.9v-1.9h18.9V22.3z"/>
	</g>
	<g>
		<g>
			<g>
				<path class="st2" d="M468,57.1h-16.1c-0.8,0-1.4,0.6-1.4,1.4v11.3c0,0.8,0.6,1.4,1.4,1.4h6.1v-0.9h-6.1c-0.3,0-0.5-0.2-0.5-0.5
					V58.6c0-0.3,0.2-0.5,0.5-0.5H468c0.3,0,0.5,0.2,0.5,0.5v8.5h0.9v-8.5C469.4,57.8,468.7,57.1,468,57.1z"/>
			</g>
		</g>
		<g>
			<g>
				<rect x="456.1" y="70.8" class="st2" width="0.9" height="2.8"/>
			</g>
		</g>
		<g>
			<g>
				<path class="st2" d="M473,77.7l-3-3c-0.1-0.1-0.2-0.1-0.3-0.1c-0.1,0-0.2,0-0.3,0.1l-1.3,1.3c-0.2,0.2-0.2,0.5,0,0.7l3,3
					c0.1,0.1,0.2,0.1,0.3,0.1l0,0c0.1,0,0.2-0.1,0.3-0.1l1.3-1.3C473.2,78.2,473.2,77.9,473,77.7z"/>
			</g>
		</g>
		<g>
			<g>
				
					<rect x="467.8" y="73.7" transform="matrix(0.7071 -0.7071 0.7071 0.7071 84.1802 353.0236)" class="st2" width="0.9" height="2.3"/>
			</g>
		</g>
		<g>
			<g>
				<rect x="455.2" y="73.2" class="st2" width="3.8" height="0.9"/>
			</g>
		</g>
		<g>
			<g>
				<path class="st2" d="M457.6,59c-0.8,0-1.4,0.6-1.4,1.4s0.6,1.4,1.4,1.4s1.4-0.6,1.4-1.4S458.3,59,457.6,59z M457.6,60.9
					c-0.3,0-0.5-0.2-0.5-0.5c0-0.3,0.2-0.5,0.5-0.5c0.3,0,0.5,0.2,0.5,0.5C458,60.7,457.8,60.9,457.6,60.9z"/>
			</g>
		</g>
		<g>
			<g>
				<path class="st2" d="M460.9,62.3c-0.8,0-1.4,0.6-1.4,1.4c0,0.8,0.6,1.4,1.4,1.4c0.8,0,1.4-0.6,1.4-1.4
					C462.3,63,461.6,62.3,460.9,62.3z M460.9,64.2c-0.3,0-0.5-0.2-0.5-0.5s0.2-0.5,0.5-0.5c0.3,0,0.5,0.2,0.5,0.5
					C461.3,64,461.1,64.2,460.9,64.2z"/>
			</g>
		</g>
		<g>
			<g>
				
					<rect x="454.2" y="61.6" transform="matrix(0.7071 -0.7071 0.7071 0.7071 89.6206 340.5571)" class="st2" width="3.3" height="0.9"/>
			</g>
		</g>
		<g>
			<g>
				
					<rect x="458.7" y="60.4" transform="matrix(0.7071 -0.7071 0.7071 0.7071 90.5882 342.8955)" class="st2" width="0.9" height="3.3"/>
			</g>
		</g>
		<g>
			<g>
				<path class="st2" d="M464.2,59c-0.8,0-1.4,0.6-1.4,1.4s0.6,1.4,1.4,1.4c0.8,0,1.4-0.6,1.4-1.4C465.6,59.7,465,59,464.2,59z
					 M464.2,60.9c-0.3,0-0.5-0.2-0.5-0.5c0-0.3,0.2-0.5,0.5-0.5c0.3,0,0.5,0.2,0.5,0.5C464.6,60.7,464.4,60.9,464.2,60.9z"/>
			</g>
		</g>
		<g>
			<g>
				
					<rect x="460.8" y="61.6" transform="matrix(0.7071 -0.7071 0.7071 0.7071 91.5574 345.2363)" class="st2" width="3.3" height="0.9"/>
			</g>
		</g>
	</g>
	<g>
		<path class="st2" d="M467.7,67.1c-1-1-2.3-1.5-3.6-1.5c-2.8,0-5.1,2.3-5.1,5.1c0,2.8,2.3,5.1,5.1,5.1c1.4,0,2.7-0.5,3.6-1.5
			C469.7,72.4,469.7,69.2,467.7,67.1z M466.5,70.8c0-1.3-1.1-2.4-2.4-2.4v-0.9c1.8,0,3.3,1.5,3.3,3.3H466.5z"/>
	</g>
	<g>
		<path class="st2" d="M551,181.2c-0.2,0-0.4,0.2-0.4,0.4v1.3c0,0.2,0.2,0.4,0.4,0.4c0.2,0,0.4-0.2,0.4-0.4v-1.3
			C551.4,181.4,551.2,181.2,551,181.2z"/>
		<path class="st2" d="M551,178.7c-0.2,0-0.4,0.2-0.4,0.4v0.8c0,0.2,0.2,0.4,0.4,0.4c0.2,0,0.4-0.2,0.4-0.4v-0.8
			C551.4,178.9,551.2,178.7,551,178.7z"/>
		<path class="st2" d="M551,160.2c0.2,0,0.4-0.2,0.4-0.4v-1.3c0-0.2-0.2-0.4-0.4-0.4c-0.2,0-0.4,0.2-0.4,0.4v1.3
			C550.6,160,550.7,160.2,551,160.2z"/>
		<path class="st2" d="M551,162.7c0.2,0,0.4-0.2,0.4-0.4v-0.8c0-0.2-0.2-0.4-0.4-0.4c-0.2,0-0.4,0.2-0.4,0.4v0.8
			C550.6,162.5,550.7,162.7,551,162.7z"/>
		<path class="st2" d="M553.9,162.7h1.7v1.3c0,0.2,0.2,0.4,0.4,0.4c0.2,0,0.4-0.2,0.4-0.4v-1.7c0-0.2-0.2-0.4-0.4-0.4h-1l3.1-2.8
			l3.1,2.8h-1c-0.2,0-0.4,0.2-0.4,0.4v1.7c0,0.2,0.2,0.4,0.4,0.4s0.4-0.2,0.4-0.4v-1.3h1.7c0.2,0,0.3-0.1,0.4-0.3
			c0.1-0.2,0-0.3-0.1-0.5l-4.2-3.8c-0.2-0.1-0.4-0.1-0.6,0l-4.2,3.8c-0.1,0.1-0.2,0.3-0.1,0.5C553.6,162.6,553.8,162.7,553.9,162.7z
			"/>
		<path class="st2" d="M547.2,178.7h-1.7v-1.3c0-0.2-0.2-0.4-0.4-0.4c-0.2,0-0.4,0.2-0.4,0.4v1.7c0,0.2,0.2,0.4,0.4,0.4h1l-3.1,2.8
			l-3.1-2.8h1c0.2,0,0.4-0.2,0.4-0.4v-3.4c0-0.2-0.2-0.4-0.4-0.4s-0.4,0.2-0.4,0.4v2.9h-1.7c-0.2,0-0.3,0.1-0.4,0.3
			c-0.1,0.2,0,0.3,0.1,0.5l4.2,3.8c0.2,0.1,0.4,0.1,0.6,0l4.2-3.8c0.1-0.1,0.2-0.3,0.1-0.5C547.5,178.8,547.4,178.7,547.2,178.7z"/>
	</g>
	<g>
		<path class="st2" d="M563.2,172c-0.2,0-0.4,0.2-0.4,0.4c0,0.7-0.6,1.3-1.3,1.3h-6.3c-0.2,0-0.4-0.2-0.4-0.4c0-0.2,0.2-0.4,0.4-0.4
			h2.5c0.2,0,0.4-0.2,0.4-0.4c0-0.2-0.2-0.4-0.4-0.4h-2.5c-0.2,0-0.4-0.2-0.4-0.4c0-0.2,0.2-0.4,0.4-0.4h2.5c0.2,0,0.4-0.2,0.4-0.4
			c0-0.2-0.2-0.4-0.4-0.4h-2.5c-0.2,0-0.4-0.2-0.4-0.4c0-0.2,0.2-0.4,0.4-0.4h2.5c0.2,0,0.4-0.2,0.4-0.4c0-0.2-0.2-0.4-0.4-0.4h-2.5
			c-0.2,0-0.4-0.2-0.4-0.4s0.2-0.4,0.4-0.4h3.8c0.2,0,0.4-0.2,0.4-0.4c0-0.2-0.2-0.4-0.4-0.4h-1.3c-0.2,0-0.4-0.2-0.4-0.4v-0.4
			c0-0.2,0.2-0.4,0.4-0.4h1.7c0.7,0,1.3,0.6,1.3,1.3v0.4c0,0.2,0.2,0.4,0.4,0.4h0.4c0.7,0,1.3,0.6,1.3,1.3c0,0.2,0.2,0.4,0.4,0.4
			c0.2,0,0.4-0.2,0.4-0.4c0-1.2-0.9-2.1-2.1-2.1c0-1.2-0.9-2.1-2.1-2.1h-1.7c-0.7,0-1.3,0.6-1.3,1.3v0c-1.4-1.6-3.4-2.5-5.5-2.5
			s-4.1,0.9-5.5,2.5v0c0-0.7-0.6-1.3-1.3-1.3h-1.7c-1.2,0-2.1,0.9-2.1,2.1c-1.2,0-2.1,0.9-2.1,2.1c0,0.2,0.2,0.4,0.4,0.4
			c0.2,0,0.4-0.2,0.4-0.4c0-0.7,0.6-1.3,1.3-1.3h0.4c0.2,0,0.4-0.2,0.4-0.4v-0.4c0-0.7,0.6-1.3,1.3-1.3h1.7c0.2,0,0.4,0.2,0.4,0.4
			v0.4c0,0.2-0.2,0.4-0.4,0.4H543c-0.2,0-0.4,0.2-0.4,0.4c0,0.2,0.2,0.4,0.4,0.4h3.8c0.2,0,0.4,0.2,0.4,0.4s-0.2,0.4-0.4,0.4h-2.5
			c-0.2,0-0.4,0.2-0.4,0.4c0,0.2,0.2,0.4,0.4,0.4h2.5c0.2,0,0.4,0.2,0.4,0.4c0,0.2-0.2,0.4-0.4,0.4h-2.5c-0.2,0-0.4,0.2-0.4,0.4
			c0,0.2,0.2,0.4,0.4,0.4h2.5c0.2,0,0.4,0.2,0.4,0.4c0,0.2-0.2,0.4-0.4,0.4h-2.5c-0.2,0-0.4,0.2-0.4,0.4c0,0.2,0.2,0.4,0.4,0.4h2.5
			c0.2,0,0.4,0.2,0.4,0.4c0,0.2-0.2,0.4-0.4,0.4h-6.3c-0.7,0-1.3-0.6-1.3-1.3c0-0.2-0.2-0.4-0.4-0.4c-0.2,0-0.4,0.2-0.4,0.4
			c0,1.2,0.9,2.1,2.1,2.1h4.5c1.3,2.1,3.6,3.4,6.1,3.4c2.5,0,4.8-1.3,6.1-3.4h4.5c1.2,0,2.1-0.9,2.1-2.1
			C563.6,172.1,563.4,172,563.2,172z M553.7,175.4c-1.7,1-3.8,1-5.5,0c-0.2-0.1-0.3-0.4-0.1-0.6c0.1-0.2,0.4-0.3,0.6-0.2
			c1.4,0.8,3.2,0.8,4.6,0c0.2-0.1,0.4,0,0.6,0.2C554,175.1,553.9,175.3,553.7,175.4z M553.9,166.5c-0.1,0.1-0.2,0.2-0.4,0.2
			c-0.1,0-0.1,0-0.2-0.1c-1.4-0.8-3.2-0.8-4.6,0c-0.2,0.1-0.4,0-0.6-0.2c-0.1-0.2-0.1-0.4,0.1-0.6c1.7-1,3.8-1,5.5,0
			c0.1,0.1,0.2,0.1,0.2,0.3C553.9,166.3,553.9,166.4,553.9,166.5z"/>
	</g>
	<path class="st2" d="M560.3,278.9v0.7c0,0.8-0.4,1.5-1.1,1.8l-0.2,0.1l0,1.3l2.1,0.5l-4.7,2.5v-1.1c0-0.6-0.2-1.1-0.6-1.5l1.5-0.4
		v-1.3l-0.2-0.1c-0.7-0.4-1.1-1.1-1.1-1.8v-0.9c0-0.6,0.2-1.1,0.6-1.5c0.4-0.4,1-0.6,1.5-0.6C559.4,276.7,560.3,277.7,560.3,278.9z
		 M547.2,277.5c0.8-1.5,2.4-2.5,4.2-2.5c1.7,0,3.3,1,4.1,2.5c-0.2,0.4-0.3,0.9-0.3,1.3v0.9c0,1,0.5,1.9,1.3,2.4v0.2l-1.7,0.4
		l-1.7-0.4v-0.2c0.8-0.6,1.3-1.5,1.3-2.4v-0.7c0-1.7-1.3-3-2.9-3.1c-0.8,0-1.6,0.3-2.2,0.8c-0.6,0.6-0.9,1.3-0.9,2.1v0.9
		c0,1,0.5,1.9,1.3,2.4v0.2l-1.7,0.4l-1.7-0.4v-0.2c0.8-0.6,1.3-1.5,1.3-2.4v-0.7C547.6,278.4,547.5,278,547.2,277.5z M545.3,275
		l1.4-1.4l1.2,0.8l0.2-0.1c0.6-0.4,1.2-0.6,1.8-0.8l0.3-0.1l0.3-1.4h1.9l0.3,1.4l0.3,0.1c0.6,0.2,1.3,0.4,1.8,0.8l0.2,0.1l1.2-0.8
		l1.4,1.4l-0.5,1.1c-0.3,0.1-0.6,0.3-0.9,0.6c0,0,0,0,0,0.1c-1-1.6-2.8-2.6-4.7-2.6c-1.9,0-3.7,1-4.7,2.6c-0.3-0.3-0.6-0.5-0.9-0.7
		L545.3,275z M543.7,283v-1.3l-0.2-0.1c-0.7-0.4-1.1-1.1-1.1-1.8v-0.9c0-0.6,0.2-1.1,0.6-1.5c0.4-0.4,1-0.6,1.5-0.6
		c1.1,0,2.1,1,2.1,2.2v0.7c0,0.8-0.4,1.5-1.1,1.8l-0.2,0.1l0,1.3l1.5,0.4c-0.4,0.4-0.6,0.9-0.6,1.5v0.3l-1.3,0.3l0-0.1l0-0.8
		l-2.2-1.3L543.7,283z M539.1,282.2h0.3l3.1,1.8l-1.5,6.2l-1.8-0.6V282.2z M542.5,290.8l-0.8-0.3l1.5-6l1,0.6v0.1L542.5,290.8
		L542.5,290.8z M545.4,292c0-0.1,0.1-0.2,0.1-0.3l0.7-0.7c0.1-0.1,0.2-0.1,0.3-0.1c0.3,0,0.5,0.2,0.5,0.5c0,0.1-0.1,0.2-0.1,0.3
		l-0.7,0.7c-0.1,0.1-0.2,0.1-0.3,0.1C545.7,292.5,545.4,292.2,545.4,292z M546.7,293.3c0-0.1,0.1-0.2,0.1-0.3l0.7-0.7
		c0.1-0.1,0.2-0.1,0.3-0.1c0.3,0,0.5,0.2,0.5,0.5c0,0.1-0.1,0.2-0.1,0.3l-0.7,0.7c-0.1,0.1-0.2,0.1-0.3,0.1
		C546.9,293.7,546.7,293.5,546.7,293.3z M548,294.5c0-0.1,0.1-0.2,0.1-0.3l0.7-0.7c0.1-0.1,0.2-0.1,0.3-0.1c0.3,0,0.5,0.2,0.5,0.5
		c0,0.1-0.1,0.2-0.1,0.3l-0.7,0.7c-0.1,0.1-0.2,0.1-0.3,0.1C548.2,295,548,294.8,548,294.5z M549.8,296.3c-0.3,0-0.5-0.2-0.5-0.5
		c0-0.1,0.1-0.2,0.1-0.3l0.7-0.7c0.1-0.1,0.2-0.1,0.3-0.1c0.3,0,0.5,0.2,0.5,0.5c0,0.1-0.1,0.2-0.1,0.3l-0.7,0.7
		C550,296.2,549.9,296.3,549.8,296.3z M551.8,296.7L551.8,296.7c-0.2,0-0.3,0-0.4-0.1l-0.3-0.3l0.3-0.3c0.1-0.1,0.2-0.2,0.3-0.4
		l0.4,0.3c0.1,0.1,0.2,0.2,0.2,0.3C552.3,296.5,552.1,296.7,551.8,296.7z M563.7,287.9l-7.2,3.6c0,0,0,0-0.1-0.1l-3.6-3.2
		c-0.3-0.3-0.7-0.4-1.1-0.4c-0.3,0-0.6,0.1-0.9,0.2l-1.6,1c-0.1,0.1-0.2,0.1-0.3,0.1c-0.3,0-0.6-0.3-0.6-0.6v-0.1
		c0-0.2,0.1-0.4,0.3-0.5l2.4-1.2c0.4-0.2,0.9-0.2,1.3-0.1l2.7,0.8l0.6,0l8-4.2V287.9z"/>
	<g>
		<path class="st11" d="M135.8,393.6c0.6,0,1.1-0.5,1.1-1.1v-2.4l-1.1,0.6l-1.1-0.6v2.4C134.7,393.2,135.2,393.6,135.8,393.6z"/>
		<path class="st11" d="M134,392.5v-3.7c0-0.6-0.5-1.1-1.1-1.1s-1.1,0.5-1.1,1.1v4.8h2.6C134.1,393.3,134,392.9,134,392.5z"/>
		<rect x="122.2" y="392.8" class="st2" width="3" height="1.5"/>
		<rect x="122.2" y="390.6" class="st2" width="3" height="1.5"/>
		<path class="st2" d="M135.8,394.4c1,0,1.8-0.8,1.8-1.8V389l-1.8,0.9l-1.1-0.6v-0.5c0-1-0.8-1.8-1.8-1.8h-11.8
			c-1,0-1.8,0.8-1.8,1.8v12.8l-5.1,5.5l0.5,0.5l5.1-5.5l3.9-1.8l4.3-0.3c0.2,0,0.4,0.1,0.6,0.2c0.2,0.2,0.2,0.4,0.2,0.6
			c0,0.4-0.3,0.7-0.6,0.7l-3,0.3v1.8l4.5,0.4l2.7-0.8l1.7-1.3c0.7-0.5,1.6-0.6,2.3-0.1l-3.3,3l-4.3,1.4H122l-3.5,3.8l0.5,0.5
			l3.2-3.6h6.5l4.6-1.5l4-3.6l-0.3-0.3c-1-1-2.5-1.1-3.6-0.2l-1.6,1.3l-0.2,0.1v-8.2H135.8z M134.7,390.2l1.1,0.6l1.1-0.6v2.4
			c0,0.6-0.5,1.1-1.1,1.1c-0.6,0-1.1-0.5-1.1-1.1V390.2z M131.8,388.9c0-0.6,0.5-1.1,1.1-1.1s1.1,0.5,1.1,1.1v3.7
			c0,0.4,0.1,0.8,0.4,1.1h-2.6V388.9z M125.1,397.2h-3.7v-0.7h3.7V397.2z M129.6,397.2h-3v-0.7h3V397.2z M129.6,392.8h-3.7v2.2h-4.4
			v-2.2V392v-2.2h4.4v2.2h3.7V392.8z"/>
	</g>
	<g>
		<g>
			<path class="st10" d="M126.8,93.1c1,0.8,1.5,2.2,1.5,4.3c0,2-0.5,3.5-1.5,4.3c-1,0.8-2.3,1.3-3.9,1.3h-3V92h2.7
				C124.4,92,125.8,92.4,126.8,93.1z M122.1,93.6v7.9h1c0.9,0,1.7-0.3,2.2-0.9c0.5-0.6,0.8-1.6,0.8-3.1c0-1-0.1-1.9-0.4-2.4
				s-0.6-1-1.1-1.2c-0.4-0.2-1-0.3-1.6-0.3H122.1z"/>
			<path class="st10" d="M137.2,99.4h-5.3c0.1,0.8,0.3,1.4,0.6,1.8c0.4,0.4,0.8,0.5,1.4,0.5c0.4,0,0.7-0.1,1.1-0.2
				c0.3-0.1,0.7-0.3,1.1-0.6l0.8,1.2c-0.9,0.8-2,1.1-3.1,1.1c-1.3,0-2.3-0.4-3-1.2s-1-1.9-1-3.2c0-0.9,0.1-1.6,0.4-2.3
				c0.3-0.7,0.7-1.2,1.3-1.6c0.6-0.4,1.2-0.6,2-0.6c1.2,0,2.1,0.4,2.8,1.1c0.7,0.8,1,1.8,1,3.1C137.2,98.7,137.2,99,137.2,99.4z
				 M135.2,98c0-1.5-0.5-2.2-1.6-2.2c-0.5,0-0.9,0.2-1.2,0.6c-0.3,0.4-0.5,1-0.5,1.8L135.2,98L135.2,98z"/>
			<path class="st10" d="M143.9,102.6c-0.3,0.2-0.6,0.4-1,0.5s-0.7,0.2-1.1,0.2c-0.8,0-1.5-0.2-1.9-0.7c-0.4-0.5-0.6-1.1-0.6-2.1V96
				h-1.3v-1.5h1.3v-1.9l2-0.2v2.1h2l-0.2,1.5h-1.8v4.4c0,0.4,0.1,0.7,0.2,0.9c0.1,0.2,0.4,0.3,0.7,0.3c0.3,0,0.6-0.1,1-0.3
				L143.9,102.6z"/>
			<path class="st10" d="M151.3,101.5c0.1,0.2,0.3,0.3,0.5,0.4l-0.4,1.4c-0.5,0-0.9-0.2-1.2-0.4s-0.5-0.5-0.7-0.9
				c-0.3,0.4-0.6,0.7-1.1,1c-0.4,0.2-0.9,0.3-1.4,0.3c-0.8,0-1.5-0.2-2-0.7s-0.7-1.1-0.7-1.9c0-0.9,0.3-1.6,1-2.1
				c0.7-0.5,1.6-0.7,2.9-0.7h1.1v-0.5c0-0.5-0.1-0.9-0.4-1.1c-0.3-0.2-0.7-0.3-1.2-0.3c-0.6,0-1.4,0.1-2.2,0.4l-0.5-1.4
				c1.1-0.4,2.1-0.6,3.1-0.6c2.2,0,3.2,1,3.2,2.9v3.6C151.2,101.1,151.2,101.4,151.3,101.5z M149.2,100.7V99h-0.8
				c-1.3,0-2,0.5-2,1.5c0,0.4,0.1,0.7,0.3,0.9s0.5,0.3,0.9,0.3C148.2,101.8,148.8,101.4,149.2,100.7z"/>
			<path class="st10" d="M155.6,90.6c0.2,0.2,0.4,0.5,0.4,0.9s-0.1,0.6-0.4,0.9c-0.2,0.2-0.6,0.4-0.9,0.4c-0.4,0-0.7-0.1-0.9-0.4
				c-0.2-0.2-0.4-0.5-0.4-0.9s0.1-0.6,0.4-0.9c0.2-0.2,0.5-0.4,0.9-0.4C155,90.3,155.4,90.4,155.6,90.6z M155.7,94.6v8.5h-2v-8.5
				H155.7z"/>
			<path class="st10" d="M158.6,102.7c-0.4-0.4-0.6-0.9-0.6-1.6v-9.9l2-0.2V101c0,0.4,0.2,0.6,0.5,0.6c0.2,0,0.3,0,0.5-0.1l0.4,1.4
				c-0.4,0.2-0.9,0.3-1.4,0.3C159.5,103.3,159,103.1,158.6,102.7z"/>
			<path class="st10" d="M169.7,99.4h-5.3c0.1,0.8,0.3,1.4,0.6,1.8c0.4,0.4,0.8,0.5,1.4,0.5c0.4,0,0.7-0.1,1.1-0.2
				c0.3-0.1,0.7-0.3,1.1-0.6l0.8,1.2c-0.9,0.8-2,1.1-3.1,1.1c-1.3,0-2.3-0.4-3-1.2c-0.7-0.8-1-1.9-1-3.2c0-0.9,0.1-1.6,0.4-2.3
				s0.7-1.2,1.3-1.6c0.6-0.4,1.2-0.6,2-0.6c1.2,0,2.1,0.4,2.8,1.1c0.7,0.8,1,1.8,1,3.1C169.7,98.7,169.7,99,169.7,99.4z M167.7,98
				c0-1.5-0.5-2.2-1.6-2.2c-0.5,0-0.9,0.2-1.2,0.6c-0.3,0.4-0.5,1-0.5,1.8L167.7,98L167.7,98z"/>
			<path class="st10" d="M178.7,91.2V103h-1.8l-0.1-1.1c-0.3,0.4-0.6,0.7-1,1c-0.4,0.2-0.9,0.4-1.4,0.4c-1,0-1.8-0.4-2.4-1.2
				s-0.8-1.9-0.8-3.3c0-0.9,0.1-1.6,0.4-2.3c0.3-0.7,0.7-1.2,1.2-1.6c0.5-0.4,1.1-0.6,1.8-0.6c0.8,0,1.5,0.3,2.1,0.9V91L178.7,91.2z
				 M175.9,101.5c0.3-0.2,0.5-0.5,0.8-0.8v-3.9c-0.2-0.3-0.5-0.5-0.7-0.7c-0.3-0.1-0.5-0.2-0.9-0.2c-0.5,0-1,0.2-1.3,0.7
				c-0.3,0.5-0.5,1.2-0.5,2.2c0,1,0.1,1.8,0.4,2.2c0.3,0.5,0.7,0.7,1.2,0.7C175.3,101.7,175.6,101.6,175.9,101.5z"/>
			<path class="st10" d="M131.5,121h-2.1l-0.3-4.6c-0.1-1.7-0.1-3-0.1-3.9v-0.6l-2,7.9h-2l-2.1-8c0,0.7,0,1.2,0,1.6c0,1,0,2-0.1,3
				l-0.3,4.6h-2l0.9-11.1h2.7l2,7.7l1.9-7.7h2.8L131.5,121z"/>
			<path class="st10" d="M139.9,113.5c0.7,0.8,1,1.9,1,3.3c0,0.9-0.2,1.7-0.5,2.3c-0.3,0.7-0.8,1.2-1.4,1.6
				c-0.6,0.4-1.3,0.6-2.1,0.6c-1.2,0-2.2-0.4-2.9-1.2c-0.7-0.8-1.1-1.9-1.1-3.3c0-0.9,0.2-1.7,0.5-2.3c0.3-0.7,0.8-1.2,1.4-1.6
				c0.6-0.4,1.3-0.6,2.1-0.6C138.2,112.3,139.2,112.7,139.9,113.5z M135.1,116.8c0,1,0.2,1.7,0.5,2.2c0.3,0.5,0.8,0.7,1.4,0.7
				s1.1-0.2,1.4-0.7c0.3-0.5,0.5-1.2,0.5-2.2c0-1-0.2-1.7-0.5-2.2s-0.8-0.7-1.4-0.7C135.7,113.9,135.1,114.9,135.1,116.8z"/>
			<path class="st10" d="M149.1,113c0.4,0.5,0.6,1.1,0.6,1.9v6.1h-2v-5.8c0-0.5-0.1-0.9-0.3-1.1c-0.2-0.2-0.4-0.3-0.8-0.3
				c-0.4,0-0.7,0.1-1,0.3s-0.6,0.5-0.8,1v5.9h-2v-8.5h1.8l0.2,1.1c0.7-0.9,1.6-1.3,2.6-1.3C148.1,112.3,148.7,112.6,149.1,113z"/>
			<path class="st10" d="M157,120.6c-0.3,0.2-0.6,0.4-1,0.5c-0.4,0.1-0.7,0.2-1.1,0.2c-0.8,0-1.5-0.2-1.9-0.7
				c-0.4-0.5-0.6-1.1-0.6-2.1V114H151v-1.5h1.3v-1.9l2-0.2v2.1h2l-0.2,1.5h-1.8v4.4c0,0.4,0.1,0.7,0.2,0.9c0.1,0.2,0.4,0.3,0.7,0.3
				s0.6-0.1,1-0.3L157,120.6z"/>
			<path class="st10" d="M164.4,113c0.4,0.5,0.6,1.1,0.6,1.9v6.1h-2v-5.8c0-0.5-0.1-0.9-0.3-1.1s-0.4-0.3-0.8-0.3
				c-0.3,0-0.7,0.1-0.9,0.3s-0.6,0.5-0.8,0.9v5.9h-2v-11.8l2-0.2v4.6c0.7-0.8,1.5-1.2,2.5-1.2C163.4,112.3,164,112.6,164.4,113z"/>
			<path class="st10" d="M167.9,120.7c-0.4-0.4-0.6-0.9-0.6-1.6v-9.9l2-0.2V119c0,0.4,0.2,0.6,0.5,0.6c0.2,0,0.3,0,0.5-0.1l0.4,1.4
				c-0.4,0.2-0.9,0.3-1.4,0.3C168.8,121.3,168.3,121.1,167.9,120.7z"/>
			<path class="st10" d="M176.1,121.1c-0.3,1-0.9,1.9-1.6,2.4c-0.7,0.6-1.6,0.9-2.8,1l-0.2-1.5c0.6-0.1,1-0.2,1.3-0.4
				c0.3-0.2,0.6-0.4,0.8-0.6c0.2-0.3,0.4-0.6,0.6-1h-0.7l-2.7-8.5h2.2l1.8,7.1l1.9-7.1h2.1L176.1,121.1z"/>
			<path class="st10" d="M128.9,130.5l-0.4,2c-0.3-0.1-0.5-0.1-0.8-0.1c-0.5,0-0.9,0.2-1.2,0.5c-0.3,0.4-0.5,0.9-0.7,1.6v4.5h-2
				v-8.5h1.8l0.2,1.7c0.2-0.6,0.5-1.1,0.9-1.4c0.4-0.3,0.8-0.5,1.3-0.5C128.3,130.3,128.6,130.4,128.9,130.5z"/>
			<path class="st10" d="M136.6,135.4h-5.3c0.1,0.8,0.3,1.4,0.6,1.8c0.4,0.4,0.8,0.5,1.4,0.5c0.4,0,0.7-0.1,1.1-0.2
				c0.3-0.1,0.7-0.3,1.1-0.6l0.8,1.2c-0.9,0.8-2,1.1-3.1,1.1c-1.3,0-2.3-0.4-3-1.2s-1-1.9-1-3.2c0-0.9,0.1-1.6,0.4-2.3
				c0.3-0.7,0.7-1.2,1.3-1.6c0.6-0.4,1.2-0.6,2-0.6c1.2,0,2.1,0.4,2.8,1.1c0.7,0.8,1,1.8,1,3.1C136.6,134.7,136.6,135,136.6,135.4z
				 M134.6,134c0-1.5-0.5-2.2-1.6-2.2c-0.5,0-0.9,0.2-1.2,0.6c-0.3,0.4-0.5,1-0.5,1.8L134.6,134L134.6,134z"/>
			<path class="st10" d="M145.2,131.5c0.5,0.8,0.8,1.9,0.8,3.3c0,0.9-0.1,1.7-0.4,2.3c-0.3,0.7-0.6,1.2-1.2,1.6
				c-0.5,0.4-1.1,0.6-1.8,0.6c-0.9,0-1.6-0.3-2.1-0.9v4l-2,0.2v-12h1.8l0.1,1c0.3-0.4,0.7-0.7,1.1-1s0.9-0.3,1.3-0.3
				C143.9,130.3,144.7,130.7,145.2,131.5z M143.8,134.8c0-1-0.1-1.8-0.4-2.2s-0.7-0.7-1.2-0.7c-0.3,0-0.7,0.1-1,0.3
				s-0.6,0.5-0.8,0.8v3.8c0.4,0.6,0.9,0.9,1.6,0.9C143.2,137.7,143.8,136.7,143.8,134.8z"/>
			<path class="st10" d="M154.4,131.5c0.7,0.8,1,1.9,1,3.3c0,0.9-0.2,1.7-0.5,2.3c-0.3,0.7-0.8,1.2-1.4,1.6
				c-0.6,0.4-1.3,0.6-2.1,0.6c-1.2,0-2.2-0.4-2.9-1.2c-0.7-0.8-1.1-1.9-1.1-3.3c0-0.9,0.2-1.7,0.5-2.3c0.3-0.7,0.8-1.2,1.4-1.6
				c0.6-0.4,1.3-0.6,2.1-0.6C152.7,130.3,153.7,130.7,154.4,131.5z M149.6,134.8c0,1,0.2,1.7,0.5,2.2c0.3,0.5,0.8,0.7,1.4,0.7
				s1.1-0.2,1.4-0.7c0.3-0.5,0.5-1.2,0.5-2.2c0-1-0.2-1.7-0.5-2.2c-0.3-0.5-0.8-0.7-1.4-0.7C150.2,131.9,149.6,132.9,149.6,134.8z"
				/>
			<path class="st10" d="M162.4,130.5l-0.4,2c-0.3-0.1-0.5-0.1-0.8-0.1c-0.5,0-0.9,0.2-1.2,0.5s-0.5,0.9-0.7,1.6v4.5h-2v-8.5h1.8
				l0.2,1.7c0.2-0.6,0.5-1.1,0.9-1.4c0.4-0.3,0.8-0.5,1.3-0.5C161.8,130.3,162.1,130.4,162.4,130.5z"/>
			<path class="st10" d="M168.5,138.6c-0.3,0.2-0.6,0.4-1,0.5s-0.7,0.2-1.1,0.2c-0.8,0-1.5-0.2-1.9-0.7c-0.4-0.5-0.6-1.1-0.6-2.1
				V132h-1.3v-1.5h1.3v-1.9l2-0.2v2.1h2l-0.2,1.5h-1.8v4.4c0,0.4,0.1,0.7,0.2,0.9c0.1,0.2,0.4,0.3,0.7,0.3c0.3,0,0.6-0.1,1-0.3
				L168.5,138.6z"/>
			<path class="st10" d="M175.3,131.3l-0.8,1.2c-0.7-0.5-1.4-0.7-2.1-0.7c-0.4,0-0.7,0.1-0.9,0.2c-0.2,0.2-0.3,0.4-0.3,0.6
				c0,0.2,0,0.4,0.1,0.5c0.1,0.1,0.3,0.2,0.5,0.4c0.3,0.1,0.6,0.2,1.1,0.4c0.9,0.2,1.6,0.6,2,1c0.4,0.4,0.7,1,0.7,1.7
				c0,0.8-0.3,1.5-1,2c-0.7,0.5-1.5,0.7-2.5,0.7c-0.7,0-1.3-0.1-1.9-0.3s-1.1-0.5-1.5-0.9l1-1.2c0.7,0.6,1.5,0.8,2.3,0.8
				c0.5,0,0.8-0.1,1.1-0.3c0.3-0.2,0.4-0.4,0.4-0.8c0-0.2-0.1-0.4-0.2-0.6s-0.3-0.3-0.5-0.4s-0.7-0.2-1.2-0.4
				c-0.9-0.2-1.5-0.6-1.9-1s-0.6-0.9-0.6-1.6c0-0.5,0.1-0.9,0.4-1.3c0.3-0.4,0.7-0.7,1.2-0.9s1.1-0.3,1.7-0.3
				C173.4,130.3,174.4,130.7,175.3,131.3z"/>
		</g>
	</g>
	<g>
		<g>
			<g>
				<rect x="113.5" y="58.8" class="st2" width="4.7" height="0.7"/>
			</g>
		</g>
		<g>
			<g>
				<rect x="113.5" y="60.2" class="st2" width="4.7" height="0.7"/>
			</g>
		</g>
		<g>
			<g>
				<rect x="113.5" y="61.6" class="st2" width="3.2" height="0.7"/>
			</g>
		</g>
		<g>
			<g>
				<rect x="113.5" y="63.1" class="st2" width="3.2" height="0.7"/>
			</g>
		</g>
		<g>
			<g>
				<rect x="111.7" y="77.4" class="st2" width="21.5" height="0.7"/>
			</g>
		</g>
		<g>
			<g>
				<path class="st2" d="M132.4,59.7l-1.4-2.9c-0.1-0.2-0.3-0.2-0.5-0.2c0,0,0,0,0,0l-2.9,1.4c-0.2,0.1-0.2,0.3-0.2,0.5
					c0.1,0.2,0.3,0.2,0.5,0.2l2.1-1l-0.6,1.6c-2.5,7.1-8.9,12.1-16.4,12.7l0.1,0.7c7.8-0.7,14.4-5.8,17-13.2l0.6-1.7l1.1,2.1
					c0.1,0.2,0.3,0.2,0.5,0.2C132.4,60.1,132.5,59.8,132.4,59.7z"/>
			</g>
		</g>
		<g>
			<g>
				<path class="st2" d="M116,73.8h-2.5c-0.2,0-0.4,0.2-0.4,0.4v2.2c0,0.2,0.2,0.4,0.4,0.4h2.5c0.2,0,0.4-0.2,0.4-0.4v-2.2
					C116.3,74,116.2,73.8,116,73.8z"/>
			</g>
		</g>
		<g>
			<g>
				<path class="st2" d="M119.9,72.7h-2.5c-0.2,0-0.4,0.2-0.4,0.4v3.2c0,0.2,0.2,0.4,0.4,0.4h2.5c0.2,0,0.4-0.2,0.4-0.4v-3.2
					C120.3,72.9,120.1,72.7,119.9,72.7z"/>
			</g>
		</g>
		<g>
			<g>
				<path class="st2" d="M123.9,70.9h-2.5c-0.2,0-0.4,0.2-0.4,0.4v5c0,0.2,0.2,0.4,0.4,0.4h2.5c0.2,0,0.4-0.2,0.4-0.4v-5
					C124.2,71.1,124.1,70.9,123.9,70.9z"/>
			</g>
		</g>
		<g>
			<g>
				<path class="st2" d="M127.8,68.4h-2.5c-0.2,0-0.4,0.2-0.4,0.4v7.5c0,0.2,0.2,0.4,0.4,0.4h2.5c0.2,0,0.4-0.2,0.4-0.4v-7.5
					C128.2,68.6,128,68.4,127.8,68.4z"/>
			</g>
		</g>
		<g>
			<g>
				<path class="st2" d="M131.7,63.4h-2.5c-0.2,0-0.4,0.2-0.4,0.4v12.6c0,0.2,0.2,0.4,0.4,0.4h2.5c0.2,0,0.4-0.2,0.4-0.4V63.8
					C132.1,63.6,131.9,63.4,131.7,63.4z"/>
			</g>
		</g>
	</g>
	<g>
		<g>
			<path class="st10" d="M47.8,191v9.3h4.4l-0.2,1.7h-6.3V191H47.8z"/>
			<path class="st10" d="M59.7,194.6c0.7,0.8,1,1.9,1,3.3c0,0.9-0.2,1.7-0.5,2.3c-0.3,0.7-0.8,1.2-1.4,1.6c-0.6,0.4-1.3,0.6-2.1,0.6
				c-1.2,0-2.2-0.4-2.9-1.2c-0.7-0.8-1.1-1.9-1.1-3.3c0-0.9,0.2-1.7,0.5-2.3c0.3-0.7,0.8-1.2,1.4-1.6c0.6-0.4,1.3-0.6,2.1-0.6
				C58,193.4,59,193.8,59.7,194.6z M54.9,197.8c0,1,0.2,1.7,0.5,2.2c0.3,0.5,0.8,0.7,1.4,0.7s1.1-0.2,1.4-0.7
				c0.3-0.5,0.5-1.2,0.5-2.2c0-1-0.2-1.7-0.5-2.2s-0.8-0.7-1.4-0.7C55.5,194.9,54.9,195.9,54.9,197.8z"/>
			<path class="st10" d="M67.6,193.6c0.4,0.2,0.9,0.4,1.3,0.8l-0.9,1.2c-0.3-0.2-0.6-0.4-0.8-0.5c-0.3-0.1-0.6-0.1-0.9-0.1
				c-1.3,0-1.9,1-1.9,2.9c0,1,0.2,1.7,0.5,2.1c0.3,0.4,0.8,0.6,1.4,0.6c0.3,0,0.6,0,0.8-0.1c0.3-0.1,0.5-0.3,0.9-0.5l0.9,1.3
				c-0.8,0.7-1.7,1-2.7,1c-0.8,0-1.5-0.2-2.1-0.5c-0.6-0.4-1.1-0.9-1.4-1.5c-0.3-0.7-0.5-1.4-0.5-2.3s0.2-1.7,0.5-2.4
				s0.8-1.2,1.4-1.6c0.6-0.4,1.3-0.6,2.1-0.6C66.6,193.4,67.1,193.5,67.6,193.6z"/>
			<path class="st10" d="M76.6,200.6c0.1,0.2,0.3,0.3,0.5,0.4l-0.4,1.4c-0.5,0-0.9-0.2-1.2-0.4c-0.3-0.2-0.5-0.5-0.7-0.9
				c-0.3,0.4-0.6,0.7-1.1,1c-0.4,0.2-0.9,0.3-1.4,0.3c-0.8,0-1.5-0.2-2-0.7s-0.7-1.1-0.7-1.9c0-0.9,0.3-1.6,1-2.1
				c0.7-0.5,1.6-0.7,2.9-0.7h1.1v-0.5c0-0.5-0.1-0.9-0.4-1.1c-0.3-0.2-0.7-0.3-1.2-0.3c-0.6,0-1.4,0.1-2.2,0.4l-0.5-1.4
				c1.1-0.4,2.1-0.6,3.1-0.6c2.2,0,3.2,1,3.2,2.9v3.6C76.4,200.2,76.5,200.4,76.6,200.6z M74.4,199.8v-1.7h-0.8c-1.3,0-2,0.5-2,1.5
				c0,0.4,0.1,0.7,0.3,0.9c0.2,0.2,0.5,0.3,0.9,0.3C73.4,200.8,74,200.5,74.4,199.8z"/>
			<path class="st10" d="M79.2,201.8c-0.4-0.4-0.6-0.9-0.6-1.6v-9.9l2-0.2v10.1c0,0.4,0.2,0.6,0.5,0.6c0.2,0,0.3,0,0.5-0.1l0.4,1.4
				c-0.4,0.2-0.9,0.3-1.4,0.3C80.1,202.3,79.6,202.1,79.2,201.8z"/>
			<path class="st10" d="M41.9,209.1c0.5,0.2,1,0.5,1.5,0.9l-1.1,1.2c-0.7-0.5-1.3-0.8-2-0.8c-0.8,0-1.5,0.3-2,1
				c-0.5,0.7-0.7,1.7-0.7,3.1c0,1.4,0.2,2.4,0.7,3.1s1.2,1,2,1c0.4,0,0.8-0.1,1.2-0.2c0.3-0.2,0.7-0.4,1.1-0.7l1,1.2
				c-0.4,0.4-0.8,0.7-1.4,1c-0.6,0.3-1.2,0.4-1.9,0.4c-1,0-1.8-0.2-2.5-0.7c-0.7-0.4-1.3-1.1-1.7-2c-0.4-0.9-0.6-1.9-0.6-3.1
				c0-1.2,0.2-2.2,0.6-3.1c0.4-0.9,1-1.5,1.7-2s1.6-0.7,2.5-0.7C40.8,208.8,41.4,208.9,41.9,209.1z"/>
			<path class="st10" d="M46.9,207.7c0.2,0.2,0.4,0.5,0.4,0.9c0,0.4-0.1,0.6-0.4,0.9c-0.2,0.2-0.6,0.4-0.9,0.4
				c-0.4,0-0.7-0.1-0.9-0.4c-0.2-0.2-0.4-0.5-0.4-0.9c0-0.4,0.1-0.6,0.4-0.9c0.2-0.2,0.5-0.4,0.9-0.4
				C46.3,207.3,46.7,207.4,46.9,207.7z M47,211.6v8.5h-2v-8.5H47z"/>
			<path class="st10" d="M54.3,219.7c-0.3,0.2-0.6,0.4-1,0.5s-0.7,0.2-1.1,0.2c-0.8,0-1.5-0.2-1.9-0.7c-0.4-0.5-0.6-1.1-0.6-2.1
				v-4.5h-1.3v-1.5h1.3v-1.9l2-0.2v2.1h2l-0.2,1.5h-1.8v4.4c0,0.4,0.1,0.7,0.2,0.9s0.4,0.3,0.7,0.3c0.3,0,0.6-0.1,1-0.3L54.3,219.7z
				"/>
			<path class="st10" d="M61.7,218.6c0.1,0.2,0.3,0.3,0.5,0.4l-0.4,1.4c-0.5,0-0.9-0.2-1.2-0.4c-0.3-0.2-0.5-0.5-0.7-0.9
				c-0.3,0.4-0.6,0.7-1.1,1c-0.4,0.2-0.9,0.3-1.4,0.3c-0.8,0-1.5-0.2-2-0.7c-0.5-0.5-0.7-1.1-0.7-1.9c0-0.9,0.3-1.6,1-2.1
				c0.7-0.5,1.6-0.7,2.9-0.7h1.1v-0.5c0-0.5-0.1-0.9-0.4-1.1c-0.3-0.2-0.7-0.3-1.2-0.3c-0.6,0-1.4,0.1-2.2,0.4l-0.5-1.4
				c1.1-0.4,2.1-0.6,3.1-0.6c2.2,0,3.2,1,3.2,2.9v3.6C61.6,218.2,61.6,218.4,61.7,218.6z M59.5,217.8v-1.7h-0.8c-1.3,0-2,0.5-2,1.5
				c0,0.4,0.1,0.7,0.3,0.9s0.5,0.3,0.9,0.3C58.6,218.8,59.2,218.5,59.5,217.8z"/>
			<path class="st10" d="M68.9,219.7c-0.3,0.2-0.6,0.4-1,0.5s-0.7,0.2-1.1,0.2c-0.8,0-1.5-0.2-1.9-0.7c-0.4-0.5-0.6-1.1-0.6-2.1
				v-4.5h-1.3v-1.5h1.3v-1.9l2-0.2v2.1h2l-0.2,1.5h-1.8v4.4c0,0.4,0.1,0.7,0.2,0.9c0.1,0.2,0.4,0.3,0.7,0.3c0.3,0,0.6-0.1,1-0.3
				L68.9,219.7z"/>
			<path class="st10" d="M72,207.7c0.2,0.2,0.4,0.5,0.4,0.9c0,0.4-0.1,0.6-0.4,0.9s-0.6,0.4-0.9,0.4c-0.4,0-0.7-0.1-0.9-0.4
				c-0.2-0.2-0.4-0.5-0.4-0.9c0-0.4,0.1-0.6,0.4-0.9c0.2-0.2,0.5-0.4,0.9-0.4C71.4,207.3,71.7,207.4,72,207.7z M72.1,211.6v8.5h-2
				v-8.5H72.1z"/>
			<path class="st10" d="M80.9,212.6c0.7,0.8,1,1.9,1,3.3c0,0.9-0.2,1.7-0.5,2.3c-0.3,0.7-0.8,1.2-1.4,1.6c-0.6,0.4-1.3,0.6-2.1,0.6
				c-1.2,0-2.2-0.4-2.9-1.2c-0.7-0.8-1.1-1.9-1.1-3.3c0-0.9,0.2-1.7,0.5-2.3s0.8-1.2,1.4-1.6c0.6-0.4,1.3-0.6,2.1-0.6
				C79.3,211.4,80.2,211.8,80.9,212.6z M76.2,215.8c0,1,0.2,1.7,0.5,2.2c0.3,0.5,0.8,0.7,1.4,0.7c0.6,0,1.1-0.2,1.4-0.7
				c0.3-0.5,0.5-1.2,0.5-2.2s-0.2-1.7-0.5-2.2c-0.3-0.5-0.8-0.7-1.4-0.7C76.8,212.9,76.2,213.9,76.2,215.8z"/>
			<path class="st10" d="M90.2,212.1c0.4,0.5,0.6,1.1,0.6,1.9v6.1h-2v-5.8c0-0.5-0.1-0.9-0.3-1.1c-0.2-0.2-0.4-0.3-0.8-0.3
				c-0.4,0-0.7,0.1-1,0.3c-0.3,0.2-0.6,0.5-0.8,1v5.9h-2v-8.5h1.8l0.2,1.1c0.7-0.9,1.6-1.3,2.6-1.3
				C89.2,211.4,89.8,211.6,90.2,212.1z"/>
			<path class="st10" d="M40.7,238.1l-0.7-2.6h-3.7l-0.7,2.6h-2.2l3.4-11.1h2.6l3.4,11.1H40.7z M36.8,233.9h2.8l-1.4-5.3L36.8,233.9
				z"/>
			<path class="st10" d="M50.4,230.1c0.4,0.5,0.6,1.1,0.6,1.9v6.1h-2v-5.8c0-0.5-0.1-0.9-0.3-1.1c-0.2-0.2-0.4-0.3-0.8-0.3
				c-0.4,0-0.7,0.1-1,0.3s-0.6,0.5-0.8,1v5.9h-2v-8.5h1.8l0.2,1.1c0.7-0.9,1.6-1.3,2.6-1.3C49.4,229.4,50,229.6,50.4,230.1z"/>
			<path class="st10" d="M59.8,236.6c0.1,0.2,0.3,0.3,0.5,0.4l-0.4,1.4c-0.5,0-0.9-0.2-1.2-0.4c-0.3-0.2-0.5-0.5-0.7-0.9
				c-0.3,0.4-0.6,0.7-1.1,1c-0.4,0.2-0.9,0.3-1.4,0.3c-0.8,0-1.5-0.2-2-0.7c-0.5-0.5-0.7-1.1-0.7-1.9c0-0.9,0.3-1.6,1-2.1
				c0.7-0.5,1.6-0.7,2.9-0.7h1.1v-0.5c0-0.5-0.1-0.9-0.4-1.1c-0.3-0.2-0.7-0.3-1.2-0.3c-0.6,0-1.4,0.1-2.2,0.4l-0.5-1.4
				c1.1-0.4,2.1-0.6,3.1-0.6c2.2,0,3.2,1,3.2,2.9v3.6C59.7,236.2,59.7,236.4,59.8,236.6z M57.7,235.8v-1.7h-0.8c-1.3,0-2,0.5-2,1.5
				c0,0.4,0.1,0.7,0.3,0.9s0.5,0.3,0.9,0.3C56.7,236.8,57.3,236.5,57.7,235.8z"/>
			<path class="st10" d="M62.5,237.8c-0.4-0.4-0.6-0.9-0.6-1.6v-9.9l2-0.2v10.1c0,0.4,0.2,0.6,0.5,0.6c0.2,0,0.3,0,0.5-0.1l0.4,1.4
				c-0.4,0.2-0.9,0.3-1.4,0.3C63.3,238.3,62.8,238.1,62.5,237.8z"/>
			<path class="st10" d="M70.6,238.1c-0.3,1-0.9,1.9-1.6,2.4c-0.7,0.6-1.6,0.9-2.8,1l-0.2-1.5c0.6-0.1,1-0.2,1.3-0.4
				c0.3-0.2,0.6-0.4,0.8-0.6c0.2-0.3,0.4-0.6,0.6-1H68l-2.7-8.5h2.2l1.8,7.1l1.9-7.1h2.1L70.6,238.1z"/>
			<path class="st10" d="M80.2,230.4l-0.8,1.2c-0.7-0.5-1.4-0.7-2.1-0.7c-0.4,0-0.7,0.1-0.9,0.2c-0.2,0.2-0.3,0.4-0.3,0.6
				c0,0.2,0,0.4,0.1,0.5c0.1,0.1,0.3,0.2,0.5,0.4c0.3,0.1,0.6,0.2,1.1,0.4c0.9,0.2,1.6,0.6,2,1c0.4,0.4,0.7,1,0.7,1.7
				c0,0.8-0.3,1.5-1,2s-1.5,0.7-2.5,0.7c-0.7,0-1.3-0.1-1.9-0.3s-1.1-0.5-1.5-0.9l1-1.2c0.7,0.6,1.5,0.8,2.3,0.8
				c0.5,0,0.8-0.1,1.1-0.3c0.3-0.2,0.4-0.4,0.4-0.8c0-0.2-0.1-0.4-0.2-0.6c-0.1-0.1-0.3-0.3-0.5-0.4c-0.3-0.1-0.7-0.2-1.2-0.4
				c-0.9-0.2-1.5-0.6-1.9-1c-0.4-0.4-0.6-0.9-0.6-1.6c0-0.5,0.1-0.9,0.4-1.3c0.3-0.4,0.7-0.7,1.2-0.9c0.5-0.2,1.1-0.3,1.7-0.3
				C78.3,229.4,79.3,229.7,80.2,230.4z"/>
			<path class="st10" d="M84.1,225.7c0.2,0.2,0.4,0.5,0.4,0.9c0,0.4-0.1,0.6-0.4,0.9s-0.6,0.4-0.9,0.4c-0.4,0-0.7-0.1-0.9-0.4
				c-0.2-0.2-0.4-0.5-0.4-0.9c0-0.4,0.1-0.6,0.4-0.9c0.2-0.2,0.5-0.4,0.9-0.4C83.5,225.3,83.8,225.4,84.1,225.7z M84.2,229.6v8.5h-2
				v-8.5H84.2z"/>
			<path class="st10" d="M92.3,230.4l-0.8,1.2c-0.7-0.5-1.4-0.7-2.1-0.7c-0.4,0-0.7,0.1-0.9,0.2c-0.2,0.2-0.3,0.4-0.3,0.6
				c0,0.2,0,0.4,0.1,0.5c0.1,0.1,0.3,0.2,0.5,0.4c0.3,0.1,0.6,0.2,1.1,0.4c0.9,0.2,1.6,0.6,2,1c0.4,0.4,0.7,1,0.7,1.7
				c0,0.8-0.3,1.5-1,2s-1.5,0.7-2.5,0.7c-0.7,0-1.3-0.1-1.9-0.3s-1.1-0.5-1.5-0.9l1-1.2c0.7,0.6,1.5,0.8,2.3,0.8
				c0.5,0,0.8-0.1,1.1-0.3c0.3-0.2,0.4-0.4,0.4-0.8c0-0.2-0.1-0.4-0.2-0.6c-0.1-0.1-0.3-0.3-0.5-0.4c-0.3-0.1-0.7-0.2-1.2-0.4
				c-0.9-0.2-1.5-0.6-1.9-1c-0.4-0.4-0.6-0.9-0.6-1.6c0-0.5,0.1-0.9,0.4-1.3c0.3-0.4,0.7-0.7,1.2-0.9c0.5-0.2,1.1-0.3,1.7-0.3
				C90.5,229.4,91.5,229.7,92.3,230.4z"/>
		</g>
	</g>
	<g>
		<path class="st2" d="M39.6,164c0.6,0,1.1-0.5,1.1-1.1c0-0.6-0.5-1.1-1.1-1.1s-1.1,0.5-1.1,1.1c0,0.2,0.1,0.5,0.2,0.6l-1.7,2.4
			c-0.1,0-0.2-0.1-0.3-0.1c-0.3,0-0.5,0.1-0.7,0.3l-1.2-0.7c0-0.1,0-0.1,0-0.2c0-0.6-0.5-1.1-1.1-1.1s-1.1,0.5-1.1,1.1
			c0,0.1,0,0.2,0,0.2l-1.2,0.7c-0.2-0.2-0.4-0.3-0.7-0.3c-0.6,0-1.1,0.5-1.1,1.1s0.5,1.1,1.1,1.1c0.6,0,1.1-0.5,1.1-1.1
			c0-0.1,0-0.2,0-0.2l1.2-0.7c0.2,0.2,0.4,0.3,0.7,0.3s0.5-0.1,0.7-0.3l1.2,0.7c0,0.1,0,0.1,0,0.2c0,0.6,0.5,1.1,1.1,1.1
			c0.6,0,1.1-0.5,1.1-1.1c0-0.2-0.1-0.5-0.2-0.6l1.7-2.4C39.4,164,39.5,164,39.6,164z"/>
		<path class="st2" d="M43.5,174.3h-2.2h-12h-2.5c-0.1,0-0.3-0.1-0.3-0.3v-13c0-0.1,0.1-0.3,0.3-0.3h1.5c0.2,0,0.3-0.1,0.3-0.3
			s-0.1-0.3-0.3-0.3h-1.5c-0.5,0-0.9,0.4-0.9,0.9v13c0,0.5,0.4,0.9,0.9,0.9h2.2v0.7c0,0.4,0.3,0.7,0.7,0.7h3.2l-1.5,2.9
			c-0.1,0.2,0,0.3,0.1,0.4c0,0,0.1,0,0.1,0c0.1,0,0.2-0.1,0.3-0.2l1.6-3.2H37l1.6,3.2c0.1,0.1,0.2,0.2,0.3,0.2c0,0,0.1,0,0.1,0
			c0.2-0.1,0.2-0.3,0.1-0.4l-1.5-2.9h3.2c0.4,0,0.7-0.3,0.7-0.7v-0.7h1.9c0.2,0,0.3-0.1,0.3-0.3C43.8,174.4,43.7,174.3,43.5,174.3z
			 M41,175.6C41,175.7,41,175.7,41,175.6l-11.3,0.1c0,0-0.1,0-0.1-0.1v-0.7H41V175.6z"/>
		<path class="st2" d="M29.5,160.7h4.3h2.9h7.1c0.1,0,0.3,0.1,0.3,0.3v3c0,0.2,0.1,0.3,0.3,0.3s0.3-0.1,0.3-0.3v-3
			c0-0.5-0.4-0.9-0.9-0.9H37v-0.6c0-0.4-0.4-0.8-0.8-0.8h-1.9c-0.4,0-0.8,0.4-0.8,0.8v0.6h-4c-0.2,0-0.3,0.1-0.3,0.3
			S29.3,160.7,29.5,160.7z M34.2,159.5c0-0.1,0.1-0.2,0.2-0.2h1.9c0.1,0,0.2,0.1,0.2,0.2v0.6h-2.2L34.2,159.5L34.2,159.5z"/>
		<path class="st2" d="M30.3,169.7c-0.2,0-0.3,0.1-0.3,0.3v2.8c0,0.2,0.1,0.3,0.3,0.3h1.3c0.2,0,0.3-0.1,0.3-0.3V170
			c0-0.2-0.1-0.3-0.3-0.3H30.3z"/>
		<path class="st2" d="M33.2,168.1c-0.2,0-0.3,0.1-0.3,0.3v4.4c0,0.2,0.1,0.3,0.3,0.3h1.3c0.2,0,0.3-0.1,0.3-0.3v-4.4
			c0-0.2-0.1-0.3-0.3-0.3H33.2z"/>
		<path class="st2" d="M36.1,169.7c-0.2,0-0.3,0.1-0.3,0.3v2.8c0,0.2,0.1,0.3,0.3,0.3h1.3c0.2,0,0.3-0.1,0.3-0.3V170
			c0-0.2-0.1-0.3-0.3-0.3H36.1z"/>
		<path class="st2" d="M47.3,174.6l-1.8-3.1c0.5-0.5,0.8-1.1,1-1.8c0.3-1.1,0.1-2.2-0.4-3.1c-1.1-2-3.7-2.6-5.6-1.5
			c-2,1.1-2.6,3.7-1.5,5.6c0.6,1,1.4,1.6,2.5,1.9c0.4,0.1,0.7,0.1,1.1,0.1c0.3,0,0.6,0,0.9-0.1l1.8,3.1c0.2,0.4,0.6,0.6,1,0.6
			c0.2,0,0.4-0.1,0.6-0.2c0.4-0.2,0.6-0.6,0.6-1C47.4,175,47.4,174.8,47.3,174.6z M46.5,175.7c-0.3,0.2-0.6,0.1-0.8-0.2l-1.7-3
			c0.2-0.1,0.3-0.2,0.5-0.3c0.2-0.1,0.3-0.2,0.5-0.3l1.7,3c0.1,0.1,0.1,0.2,0.1,0.3C46.8,175.4,46.7,175.6,46.5,175.7z"/>
	</g>
	<g>
		<g>
			<path class="st10" d="M40.9,325c0.5,0.4,0.7,1,0.7,1.9c0,1.2-0.4,2-1.2,2.5c-0.8,0.5-1.9,0.7-3.4,0.7h-3.3V319h2.9
				c3.1,0,4.6,0.9,4.6,2.8c0,0.7-0.2,1.2-0.6,1.6c-0.4,0.4-0.9,0.7-1.5,0.8C39.9,324.4,40.5,324.6,40.9,325z M35.8,320.6v3h1.3
				c0.6,0,1.1-0.1,1.4-0.4c0.3-0.3,0.5-0.6,0.5-1.2c0-0.5-0.2-0.9-0.5-1.1c-0.4-0.2-0.9-0.3-1.7-0.3H35.8z M38.8,328.1
				c0.4-0.2,0.6-0.7,0.6-1.3c0-0.6-0.2-1.1-0.6-1.4c-0.4-0.3-0.9-0.4-1.6-0.4h-1.5v3.5H37C37.8,328.5,38.4,328.4,38.8,328.1z"/>
			<path class="st10" d="M49.8,328.6c0.1,0.2,0.3,0.3,0.5,0.4l-0.4,1.4c-0.5,0-0.9-0.2-1.2-0.4c-0.3-0.2-0.5-0.5-0.7-0.9
				c-0.3,0.4-0.6,0.7-1.1,1c-0.4,0.2-0.9,0.3-1.4,0.3c-0.8,0-1.5-0.2-2-0.7c-0.5-0.5-0.7-1.1-0.7-1.9c0-0.9,0.3-1.6,1-2.1
				c0.7-0.5,1.6-0.7,2.9-0.7h1.1v-0.5c0-0.5-0.1-0.9-0.4-1.1c-0.3-0.2-0.7-0.3-1.2-0.3c-0.6,0-1.4,0.1-2.2,0.4l-0.5-1.4
				c1.1-0.4,2.1-0.6,3.1-0.6c2.2,0,3.2,1,3.2,2.9v3.6C49.7,328.2,49.7,328.4,49.8,328.6z M47.7,327.8v-1.7h-0.8c-1.3,0-2,0.5-2,1.5
				c0,0.4,0.1,0.7,0.3,0.9c0.2,0.2,0.5,0.3,0.9,0.3C46.7,328.8,47.3,328.5,47.7,327.8z"/>
			<path class="st10" d="M57.1,321.6c0.4,0.2,0.9,0.4,1.3,0.8l-0.9,1.2c-0.3-0.2-0.6-0.4-0.8-0.5S56,323,55.7,323
				c-1.3,0-1.9,1-1.9,2.9c0,1,0.2,1.7,0.5,2.1s0.8,0.6,1.4,0.6c0.3,0,0.6,0,0.8-0.1s0.5-0.3,0.9-0.5l0.9,1.3c-0.8,0.7-1.7,1-2.7,1
				c-0.8,0-1.5-0.2-2.1-0.5c-0.6-0.4-1.1-0.9-1.4-1.5s-0.5-1.4-0.5-2.3c0-0.9,0.2-1.7,0.5-2.4c0.3-0.7,0.8-1.2,1.4-1.6
				c0.6-0.4,1.3-0.6,2.1-0.6C56.1,321.4,56.6,321.4,57.1,321.6z"/>
			<path class="st10" d="M61.9,318v12.1h-2v-11.9L61.9,318z M66.9,321.6l-2.8,3.7l3.1,4.7h-2.4l-2.9-4.6l2.8-3.8H66.9z"/>
			<path class="st10" d="M68.8,329.7c-0.4-0.4-0.6-0.9-0.6-1.6v-9.9l2-0.2v10.1c0,0.4,0.2,0.6,0.5,0.6c0.2,0,0.3,0,0.5-0.1l0.4,1.4
				c-0.4,0.2-0.9,0.3-1.4,0.3C69.7,330.3,69.2,330.1,68.8,329.7z"/>
			<path class="st10" d="M75,317.7c0.2,0.2,0.4,0.5,0.4,0.9c0,0.4-0.1,0.6-0.4,0.9s-0.6,0.4-0.9,0.4c-0.4,0-0.7-0.1-0.9-0.4
				c-0.2-0.2-0.4-0.5-0.4-0.9c0-0.4,0.1-0.6,0.4-0.9c0.2-0.2,0.5-0.4,0.9-0.4C74.5,317.3,74.8,317.4,75,317.7z M75.1,321.6v8.5h-2
				v-8.5H75.1z"/>
			<path class="st10" d="M83.9,322c0.4,0.5,0.6,1.1,0.6,1.9v6.1h-2v-5.8c0-0.5-0.1-0.9-0.3-1.1c-0.2-0.2-0.4-0.3-0.8-0.3
				c-0.4,0-0.7,0.1-1,0.3c-0.3,0.2-0.6,0.5-0.8,1v5.9h-2v-8.5h1.8l0.2,1.1c0.7-0.9,1.6-1.3,2.6-1.3C82.9,321.4,83.5,321.6,83.9,322z
				"/>
			<path class="st10" d="M88.9,318v12.1h-2v-11.9L88.9,318z M94,321.6l-2.8,3.7l3.1,4.7h-2.4l-2.9-4.6l2.8-3.8H94z"/>
			<path class="st10" d="M40.7,348.1l-0.7-2.6h-3.7l-0.7,2.6h-2.2l3.4-11.1h2.6l3.4,11.1H40.7z M36.8,343.9h2.8l-1.4-5.3L36.8,343.9
				z"/>
			<path class="st10" d="M50.4,340c0.4,0.5,0.6,1.1,0.6,1.9v6.1h-2v-5.8c0-0.5-0.1-0.9-0.3-1.1c-0.2-0.2-0.4-0.3-0.8-0.3
				c-0.4,0-0.7,0.1-1,0.3s-0.6,0.5-0.8,1v5.9h-2v-8.5h1.8l0.2,1.1c0.7-0.9,1.6-1.3,2.6-1.3C49.4,339.4,50,339.6,50.4,340z"/>
			<path class="st10" d="M59.8,346.6c0.1,0.2,0.3,0.3,0.5,0.4l-0.4,1.4c-0.5,0-0.9-0.2-1.2-0.4c-0.3-0.2-0.5-0.5-0.7-0.9
				c-0.3,0.4-0.6,0.7-1.1,1c-0.4,0.2-0.9,0.3-1.4,0.3c-0.8,0-1.5-0.2-2-0.7c-0.5-0.5-0.7-1.1-0.7-1.9c0-0.9,0.3-1.6,1-2.1
				c0.7-0.5,1.6-0.7,2.9-0.7h1.1v-0.5c0-0.5-0.1-0.9-0.4-1.1c-0.3-0.2-0.7-0.3-1.2-0.3c-0.6,0-1.4,0.1-2.2,0.4l-0.5-1.4
				c1.1-0.4,2.1-0.6,3.1-0.6c2.2,0,3.2,1,3.2,2.9v3.6C59.7,346.2,59.7,346.4,59.8,346.6z M57.7,345.8v-1.7h-0.8c-1.3,0-2,0.5-2,1.5
				c0,0.4,0.1,0.7,0.3,0.9s0.5,0.3,0.9,0.3C56.7,346.8,57.3,346.5,57.7,345.8z"/>
			<path class="st10" d="M62.5,347.7c-0.4-0.4-0.6-0.9-0.6-1.6v-9.9l2-0.2v10.1c0,0.4,0.2,0.6,0.5,0.6c0.2,0,0.3,0,0.5-0.1l0.4,1.4
				c-0.4,0.2-0.9,0.3-1.4,0.3C63.3,348.3,62.8,348.1,62.5,347.7z"/>
			<path class="st10" d="M70.6,348.1c-0.3,1-0.9,1.9-1.6,2.4c-0.7,0.6-1.6,0.9-2.8,1l-0.2-1.5c0.6-0.1,1-0.2,1.3-0.4
				c0.3-0.2,0.6-0.4,0.8-0.6c0.2-0.3,0.4-0.6,0.6-1H68l-2.7-8.5h2.2l1.8,7.1l1.9-7.1h2.1L70.6,348.1z"/>
			<path class="st10" d="M80.2,340.4l-0.8,1.2c-0.7-0.5-1.4-0.7-2.1-0.7c-0.4,0-0.7,0.1-0.9,0.2c-0.2,0.2-0.3,0.4-0.3,0.6
				c0,0.2,0,0.4,0.1,0.5c0.1,0.1,0.3,0.2,0.5,0.4c0.3,0.1,0.6,0.2,1.1,0.4c0.9,0.2,1.6,0.6,2,1c0.4,0.4,0.7,1,0.7,1.7
				c0,0.8-0.3,1.5-1,2s-1.5,0.7-2.5,0.7c-0.7,0-1.3-0.1-1.9-0.3s-1.1-0.5-1.5-0.9l1-1.2c0.7,0.6,1.5,0.8,2.3,0.8
				c0.5,0,0.8-0.1,1.1-0.3c0.3-0.2,0.4-0.4,0.4-0.8c0-0.2-0.1-0.4-0.2-0.6c-0.1-0.1-0.3-0.3-0.5-0.4c-0.3-0.1-0.7-0.2-1.2-0.4
				c-0.9-0.2-1.5-0.6-1.9-1c-0.4-0.4-0.6-0.9-0.6-1.6c0-0.5,0.1-0.9,0.4-1.3c0.3-0.4,0.7-0.7,1.2-0.9c0.5-0.2,1.1-0.3,1.7-0.3
				C78.3,339.4,79.3,339.7,80.2,340.4z"/>
			<path class="st10" d="M84.1,335.7c0.2,0.2,0.4,0.5,0.4,0.9c0,0.4-0.1,0.6-0.4,0.9s-0.6,0.4-0.9,0.4c-0.4,0-0.7-0.1-0.9-0.4
				c-0.2-0.2-0.4-0.5-0.4-0.9c0-0.4,0.1-0.6,0.4-0.9c0.2-0.2,0.5-0.4,0.9-0.4C83.5,335.3,83.8,335.4,84.1,335.7z M84.2,339.6v8.5h-2
				v-8.5H84.2z"/>
			<path class="st10" d="M92.3,340.4l-0.8,1.2c-0.7-0.5-1.4-0.7-2.1-0.7c-0.4,0-0.7,0.1-0.9,0.2c-0.2,0.2-0.3,0.4-0.3,0.6
				c0,0.2,0,0.4,0.1,0.5c0.1,0.1,0.3,0.2,0.5,0.4c0.3,0.1,0.6,0.2,1.1,0.4c0.9,0.2,1.6,0.6,2,1c0.4,0.4,0.7,1,0.7,1.7
				c0,0.8-0.3,1.5-1,2s-1.5,0.7-2.5,0.7c-0.7,0-1.3-0.1-1.9-0.3s-1.1-0.5-1.5-0.9l1-1.2c0.7,0.6,1.5,0.8,2.3,0.8
				c0.5,0,0.8-0.1,1.1-0.3c0.3-0.2,0.4-0.4,0.4-0.8c0-0.2-0.1-0.4-0.2-0.6c-0.1-0.1-0.3-0.3-0.5-0.4c-0.3-0.1-0.7-0.2-1.2-0.4
				c-0.9-0.2-1.5-0.6-1.9-1c-0.4-0.4-0.6-0.9-0.6-1.6c0-0.5,0.1-0.9,0.4-1.3c0.3-0.4,0.7-0.7,1.2-0.9c0.5-0.2,1.1-0.3,1.7-0.3
				C90.5,339.4,91.5,339.7,92.3,340.4z"/>
		</g>
	</g>
	<g>
		<path class="st2" d="M49,291.6l-1.6-1.6c-0.1-0.1-0.2-0.2-0.3-0.3c0.1-0.4,0.2-0.7,0.3-1.1l1.3-0.3v-2.9l-1.3-0.3
			c-0.2-1.2-0.7-2.3-1.4-3.3l0.7-1.2l-2-2l-1.2,0.7c-1-0.7-2.2-1.2-3.3-1.4l-0.3-1.3h-2.9l-0.3,1.3c-0.4,0.1-0.7,0.2-1.1,0.3
			c-0.1-0.1-0.2-0.2-0.3-0.3l-1.6-1.6c-0.8-0.8-1.8-1.2-3-1.2c-2.3,0-4.2,1.9-4.2,4.2c0,1.1,0.4,2.2,1.2,3l1.6,1.6
			c0.1,0.1,0.2,0.2,0.3,0.3c-0.1,0.4-0.2,0.7-0.3,1.1l-1.3,0.3v2.9l1.3,0.3c0.2,1.2,0.7,2.3,1.4,3.3l-0.7,1.2l2,2l1.2-0.7
			c1,0.7,2.2,1.2,3.3,1.4l0.3,1.3h2.9l0.3-1.3c0.4-0.1,0.7-0.2,1.1-0.3c0.1,0.1,0.2,0.2,0.3,0.3l1.6,1.6c0.8,0.8,1.8,1.2,3,1.2
			c2.3,0,4.2-1.9,4.2-4.2C50.2,293.5,49.8,292.4,49,291.6z M36.9,278.6l0.2,0l0.3-1.2h1.7l0.3,1.2l0.2,0c1.3,0.2,2.4,0.7,3.5,1.4
			l0.2,0.1l1.1-0.7l1.2,1.2l-0.7,1.1l0.1,0.2c0.7,1,1.2,2.2,1.4,3.5l0,0.2l1.2,0.3v1.7l-1.2,0.3l0,0.2c-0.1,0.3-0.1,0.7-0.2,1
			c-0.2-0.1-0.5-0.2-0.7-0.3c0.2-0.7,0.3-1.4,0.3-2.1c0-4.2-3.4-7.7-7.7-7.7c-0.7,0-1.4,0.1-2.1,0.3c-0.1-0.2-0.2-0.5-0.3-0.7
			C36.2,278.7,36.6,278.6,36.9,278.6z M41.2,287.7c-0.3-0.3-0.6-0.4-1-0.4c-0.8,0-1.5,0.7-1.5,1.5c0,0.4,0.2,0.8,0.4,1l1.5,1.5
			c-0.2,0.5-0.4,1.1-0.4,1.7c0,0.2,0,0.3,0,0.5c-0.6,0.2-1.3,0.3-2,0.3c-3.8,0-6.9-3.1-6.9-6.9c0-0.7,0.1-1.3,0.3-2
			c0.2,0,0.3,0,0.5,0c0.6,0,1.2-0.1,1.7-0.4l1.5,1.5c0.3,0.3,0.6,0.4,1,0.4c0.8,0,1.5-0.7,1.5-1.5c0-0.4-0.2-0.8-0.4-1l-1.5-1.5
			c0.2-0.5,0.4-1.1,0.4-1.7c0-0.2,0-0.3,0-0.5c0.6-0.2,1.3-0.3,2-0.3c3.8,0,6.9,3.1,6.9,6.9c0,0.7-0.1,1.3-0.3,2c-0.2,0-0.3,0-0.5,0
			c-0.6,0-1.2,0.1-1.7,0.4L41.2,287.7z M28.2,281.6c-0.6-0.6-1-1.5-1-2.4c0-1.9,1.5-3.4,3.4-3.4c0.9,0,1.8,0.4,2.4,1l1.6,1.6
			c0.6,0.6,1,1.5,1,2.4c0,0.4-0.1,0.8-0.2,1.1l-0.6-0.6c0-0.2,0.1-0.3,0.1-0.5c0-0.7-0.3-1.4-0.8-1.9l-1.6-1.6
			c-0.5-0.5-1.2-0.8-1.9-0.8c-1.5,0-2.6,1.2-2.6,2.6c0,0.7,0.3,1.4,0.8,1.9l1.6,1.6c0.5,0.5,1.2,0.8,1.9,0.8c0.2,0,0.3,0,0.5-0.1
			l0.6,0.6c-0.4,0.1-0.7,0.2-1.1,0.2c-0.9,0-1.8-0.4-2.4-1L28.2,281.6z M39.7,295.2l-0.2,0l-0.3,1.2h-1.7l-0.3-1.2l-0.2,0
			c-1.3-0.2-2.4-0.7-3.5-1.4l-0.2-0.1l-1.1,0.7l-1.2-1.2l0.7-1.1l-0.1-0.2c-0.7-1-1.2-2.2-1.4-3.5l0-0.2l-1.2-0.3V286l1.2-0.3l0-0.2
			c0.1-0.3,0.1-0.7,0.2-1c0.2,0.1,0.5,0.2,0.7,0.3c-0.2,0.7-0.3,1.4-0.3,2.1c0,4.2,3.4,7.7,7.7,7.7c0.7,0,1.4-0.1,2.1-0.3
			c0.1,0.2,0.2,0.5,0.3,0.7C40.4,295.1,40.1,295.2,39.7,295.2z M46,298c-0.9,0-1.8-0.4-2.4-1l-1.6-1.6c-0.6-0.6-1-1.5-1-2.4
			c0-0.4,0.1-0.8,0.2-1.1l0.6,0.6c0,0.2-0.1,0.3-0.1,0.5c0,0.7,0.3,1.4,0.8,1.9l1.6,1.6c0.5,0.5,1.2,0.8,1.9,0.8
			c1.5,0,2.6-1.2,2.6-2.6c0-0.7-0.3-1.4-0.8-1.9l-1.6-1.6c-0.5-0.5-1.2-0.8-1.9-0.8c-0.2,0-0.3,0-0.5,0.1l-0.6-0.6
			c0.4-0.1,0.7-0.2,1.1-0.2c0.9,0,1.8,0.4,2.4,1l1.6,1.6c0.6,0.6,1,1.5,1,2.4C49.4,296.5,47.9,298,46,298z"/>
	</g>
	<g>
		<g>
			<path class="st10" d="M414.5,428.6c0.7,0.4,1.3,1.1,1.7,2s0.6,1.9,0.6,3.1c0,1.2-0.2,2.2-0.6,3.1c-0.4,0.9-1,1.5-1.7,2
				c-0.7,0.5-1.6,0.7-2.6,0.7c-1,0-1.9-0.2-2.6-0.7c-0.7-0.4-1.3-1.1-1.7-2s-0.6-1.9-0.6-3.1c0-1.2,0.2-2.2,0.6-3.1s1-1.5,1.7-2
				c0.7-0.5,1.6-0.7,2.6-0.7C413,427.9,413.8,428.2,414.5,428.6z M410,430.6c-0.4,0.7-0.7,1.7-0.7,3.2c0,2.8,0.9,4.1,2.6,4.1
				c0.9,0,1.5-0.3,1.9-1c0.4-0.7,0.7-1.7,0.7-3.2c0-1.4-0.2-2.5-0.7-3.2c-0.4-0.7-1.1-1-1.9-1S410.5,429.9,410,430.6z"/>
			<path class="st10" d="M425,431.2c0.4,0.5,0.6,1.1,0.6,1.9v6.1h-2v-5.8c0-0.5-0.1-0.9-0.3-1.1c-0.2-0.2-0.4-0.3-0.8-0.3
				c-0.4,0-0.7,0.1-1,0.3c-0.3,0.2-0.6,0.5-0.8,1v5.9h-2v-8.5h1.8l0.2,1.1c0.7-0.9,1.6-1.3,2.6-1.3C424,430.5,424.6,430.8,425,431.2
				z"/>
			<path class="st10" d="M434.6,429.1c0.8,0.6,1.2,1.5,1.2,2.6c0,1.2-0.4,2.1-1.2,2.8c-0.8,0.6-1.8,0.9-3.2,0.9h-1.3v3.9h-2.1v-11.1
				h3.3C432.8,428.2,433.9,428.5,434.6,429.1z M433,433.3c0.4-0.3,0.6-0.9,0.6-1.6c0-1.3-0.8-2-2.3-2h-1.1v4.1h1.1
				C432.1,433.8,432.7,433.6,433,433.3z"/>
			<path class="st10" d="M443,437.7c0.1,0.2,0.3,0.3,0.5,0.4l-0.4,1.4c-0.5,0-0.9-0.2-1.2-0.4c-0.3-0.2-0.5-0.5-0.7-0.9
				c-0.3,0.4-0.6,0.7-1.1,1c-0.4,0.2-0.9,0.3-1.4,0.3c-0.8,0-1.5-0.2-2-0.7c-0.5-0.5-0.7-1.1-0.7-1.9c0-0.9,0.3-1.6,1-2.1
				c0.7-0.5,1.6-0.7,2.9-0.7h1.1v-0.5c0-0.5-0.1-0.9-0.4-1.1c-0.3-0.2-0.7-0.3-1.2-0.3c-0.6,0-1.4,0.1-2.2,0.4l-0.5-1.4
				c1.1-0.4,2.1-0.6,3.1-0.6c2.2,0,3.2,1,3.2,2.9v3.6C442.9,437.3,442.9,437.6,443,437.7z M440.9,436.9v-1.7H440c-1.3,0-2,0.5-2,1.5
				c0,0.4,0.1,0.7,0.3,0.9c0.2,0.2,0.5,0.3,0.9,0.3C439.9,438,440.5,437.6,440.9,436.9z"/>
			<path class="st10" d="M452.6,431.2c-0.5,0.2-1.4,0.3-2.4,0.3c0.5,0.2,0.9,0.5,1.2,0.9c0.3,0.3,0.4,0.8,0.4,1.3
				c0,0.6-0.1,1-0.4,1.5c-0.3,0.4-0.7,0.8-1.2,1s-1.1,0.4-1.8,0.4c-0.4,0-0.7,0-1-0.1c-0.2,0.2-0.4,0.4-0.4,0.6c0,0.4,0.3,0.6,1,0.6
				h1.3c0.6,0,1.2,0.1,1.6,0.3c0.5,0.2,0.8,0.5,1.1,0.9c0.3,0.4,0.4,0.8,0.4,1.2c0,0.9-0.4,1.5-1.1,2c-0.7,0.5-1.8,0.7-3.1,0.7
				c-1,0-1.8-0.1-2.3-0.3c-0.6-0.2-1-0.5-1.2-0.9c-0.2-0.4-0.4-0.9-0.4-1.5h1.8c0,0.3,0.1,0.5,0.2,0.7c0.1,0.2,0.3,0.3,0.6,0.4
				c0.3,0.1,0.7,0.1,1.3,0.1c0.8,0,1.3-0.1,1.6-0.3c0.3-0.2,0.5-0.5,0.5-0.8c0-0.3-0.1-0.6-0.4-0.7c-0.2-0.2-0.6-0.3-1.1-0.3h-1.3
				c-0.8,0-1.4-0.2-1.8-0.5s-0.6-0.7-0.6-1.2c0-0.3,0.1-0.6,0.3-0.9s0.4-0.5,0.7-0.7c-0.5-0.3-0.9-0.6-1.1-1
				c-0.2-0.4-0.4-0.9-0.4-1.4c0-0.6,0.1-1.1,0.4-1.6c0.3-0.5,0.7-0.8,1.2-1.1c0.5-0.3,1.1-0.4,1.8-0.4c0.9,0,1.6,0,2.2-0.2
				c0.5-0.2,1.1-0.4,1.8-0.7L452.6,431.2z M447,432.4c-0.3,0.3-0.4,0.7-0.4,1.2c0,0.5,0.1,0.9,0.4,1.2c0.3,0.3,0.6,0.4,1.1,0.4
				c0.5,0,0.9-0.1,1.1-0.4c0.3-0.3,0.4-0.7,0.4-1.2c0-1.1-0.5-1.6-1.5-1.6C447.7,431.9,447.3,432.1,447,432.4z"/>
			<path class="st10" d="M460.4,435.6h-5.3c0.1,0.8,0.3,1.4,0.6,1.8c0.4,0.4,0.8,0.5,1.4,0.5c0.4,0,0.7-0.1,1.1-0.2
				c0.3-0.1,0.7-0.3,1.1-0.6l0.8,1.2c-0.9,0.8-2,1.1-3.1,1.1c-1.3,0-2.3-0.4-3-1.2c-0.7-0.8-1-1.9-1-3.2c0-0.9,0.1-1.6,0.4-2.3
				c0.3-0.7,0.7-1.2,1.3-1.6s1.2-0.6,2-0.6c1.2,0,2.1,0.4,2.8,1.1c0.7,0.8,1,1.8,1,3.1C460.4,434.9,460.4,435.2,460.4,435.6z
				 M458.4,434.2c0-1.5-0.5-2.2-1.6-2.2c-0.5,0-0.9,0.2-1.2,0.6c-0.3,0.4-0.5,1-0.5,1.8L458.4,434.2L458.4,434.2z"/>
			<path class="st10" d="M466.2,426.2l1.8,0.4l-3.7,14.3l-1.8-0.4L466.2,426.2z"/>
			<path class="st10" d="M401.7,446.6c0.7,0.4,1.3,1.1,1.7,2c0.4,0.9,0.6,1.9,0.6,3.1c0,1.2-0.2,2.2-0.6,3.1c-0.4,0.9-1,1.5-1.7,2
				c-0.7,0.5-1.6,0.7-2.6,0.7c-1,0-1.9-0.2-2.6-0.7c-0.7-0.4-1.3-1.1-1.7-2c-0.4-0.9-0.6-1.9-0.6-3.1c0-1.2,0.2-2.2,0.6-3.1
				c0.4-0.9,1-1.5,1.7-2c0.7-0.5,1.6-0.7,2.6-0.7C400.1,445.9,400.9,446.2,401.7,446.6z M397.1,448.6c-0.4,0.7-0.7,1.7-0.7,3.2
				c0,2.8,0.9,4.1,2.6,4.1c0.9,0,1.5-0.3,1.9-1c0.4-0.7,0.7-1.7,0.7-3.2c0-1.4-0.2-2.5-0.7-3.2c-0.4-0.7-1.1-1-1.9-1
				C398.2,447.6,397.6,447.9,397.1,448.6z"/>
			<path class="st10" d="M408.4,447c-0.2,0.2-0.3,0.5-0.3,0.9v0.9h2l-0.2,1.5h-1.8v7h-2v-7h-1.4v-1.5h1.4v-0.9
				c0-0.8,0.3-1.4,0.8-1.9s1.3-0.7,2.2-0.7c0.7,0,1.5,0.2,2.2,0.5l-0.6,1.4c-0.5-0.2-0.9-0.3-1.4-0.3
				C408.8,446.7,408.6,446.8,408.4,447z"/>
			<path class="st10" d="M413.9,447c-0.2,0.2-0.3,0.5-0.3,0.9v0.9h2l-0.2,1.5h-1.8v7h-2v-7h-1.4v-1.5h1.4v-0.9
				c0-0.8,0.3-1.4,0.8-1.9s1.3-0.7,2.2-0.7c0.7,0,1.5,0.2,2.2,0.5l-0.6,1.4c-0.5-0.2-0.9-0.3-1.4-0.3
				C414.4,446.7,414.1,446.8,413.9,447z"/>
			<path class="st10" d="M423.6,447.1c0.8,0.6,1.2,1.5,1.2,2.6c0,1.2-0.4,2.1-1.2,2.8c-0.8,0.6-1.8,0.9-3.2,0.9h-1.3v3.9H417v-11.1
				h3.3C421.7,446.2,422.8,446.5,423.6,447.1z M422,451.3c0.4-0.3,0.6-0.9,0.6-1.6c0-1.3-0.8-2-2.3-2h-1.1v4.1h1.1
				C421,451.8,421.6,451.6,422,451.3z"/>
			<path class="st10" d="M431.9,455.7c0.1,0.2,0.3,0.3,0.5,0.4l-0.4,1.4c-0.5,0-0.9-0.2-1.2-0.4c-0.3-0.2-0.5-0.5-0.7-0.9
				c-0.3,0.4-0.6,0.7-1.1,1s-0.9,0.3-1.4,0.3c-0.8,0-1.5-0.2-2-0.7c-0.5-0.5-0.7-1.1-0.7-1.9c0-0.9,0.3-1.6,1-2.1
				c0.7-0.5,1.6-0.7,2.9-0.7h1.1v-0.5c0-0.5-0.1-0.9-0.4-1.1c-0.3-0.2-0.7-0.3-1.2-0.3c-0.6,0-1.4,0.1-2.2,0.4l-0.5-1.4
				c1.1-0.4,2.1-0.6,3.1-0.6c2.2,0,3.2,1,3.2,2.9v3.6C431.8,455.3,431.8,455.6,431.9,455.7z M429.8,454.9v-1.7h-0.8
				c-1.3,0-2,0.5-2,1.5c0,0.4,0.1,0.7,0.3,0.9c0.2,0.2,0.5,0.3,0.9,0.3C428.8,456,429.4,455.6,429.8,454.9z"/>
			<path class="st10" d="M441.5,449.2c-0.5,0.2-1.4,0.3-2.4,0.3c0.5,0.2,0.9,0.5,1.2,0.9c0.3,0.3,0.4,0.8,0.4,1.3
				c0,0.6-0.1,1-0.4,1.5c-0.3,0.4-0.7,0.8-1.2,1c-0.5,0.2-1.1,0.4-1.8,0.4c-0.4,0-0.7,0-1-0.1c-0.2,0.2-0.4,0.4-0.4,0.6
				c0,0.4,0.3,0.6,1,0.6h1.3c0.6,0,1.2,0.1,1.6,0.3c0.5,0.2,0.8,0.5,1.1,0.9c0.3,0.4,0.4,0.8,0.4,1.2c0,0.9-0.4,1.5-1.1,2
				c-0.7,0.5-1.8,0.7-3.1,0.7c-1,0-1.8-0.1-2.3-0.3c-0.6-0.2-1-0.5-1.2-0.9c-0.2-0.4-0.4-0.9-0.4-1.5h1.8c0,0.3,0.1,0.5,0.2,0.7
				c0.1,0.2,0.3,0.3,0.6,0.4c0.3,0.1,0.7,0.1,1.3,0.1c0.8,0,1.3-0.1,1.6-0.3c0.3-0.2,0.5-0.5,0.5-0.8c0-0.3-0.1-0.6-0.4-0.7
				c-0.2-0.2-0.6-0.3-1.1-0.3h-1.3c-0.8,0-1.4-0.2-1.8-0.5c-0.4-0.3-0.6-0.7-0.6-1.2c0-0.3,0.1-0.6,0.3-0.9c0.2-0.3,0.4-0.5,0.7-0.7
				c-0.5-0.3-0.9-0.6-1.1-1s-0.4-0.9-0.4-1.4c0-0.6,0.1-1.1,0.4-1.6c0.3-0.5,0.7-0.8,1.2-1.1c0.5-0.3,1.1-0.4,1.8-0.4
				c0.9,0,1.6,0,2.2-0.2c0.5-0.2,1.1-0.4,1.8-0.7L441.5,449.2z M436,450.4c-0.3,0.3-0.4,0.7-0.4,1.2c0,0.5,0.1,0.9,0.4,1.2
				c0.3,0.3,0.6,0.4,1.1,0.4c0.5,0,0.9-0.1,1.1-0.4c0.3-0.3,0.4-0.7,0.4-1.2c0-1.1-0.5-1.6-1.5-1.6
				C436.6,449.9,436.2,450.1,436,450.4z"/>
			<path class="st10" d="M449.3,453.6H444c0.1,0.8,0.3,1.4,0.6,1.8c0.4,0.4,0.8,0.5,1.4,0.5c0.4,0,0.7-0.1,1.1-0.2
				c0.3-0.1,0.7-0.3,1.1-0.6l0.8,1.2c-0.9,0.8-2,1.1-3.1,1.1c-1.3,0-2.3-0.4-3-1.2c-0.7-0.8-1-1.9-1-3.2c0-0.9,0.1-1.6,0.4-2.3
				c0.3-0.7,0.7-1.2,1.3-1.6c0.6-0.4,1.2-0.6,2-0.6c1.2,0,2.1,0.4,2.8,1.1c0.7,0.8,1,1.8,1,3.1C449.3,452.9,449.3,453.2,449.3,453.6
				z M447.3,452.2c0-1.5-0.5-2.2-1.6-2.2c-0.5,0-0.9,0.2-1.2,0.6c-0.3,0.4-0.5,1-0.5,1.8L447.3,452.2L447.3,452.2z"/>
			<path class="st10" d="M460.5,446.3c0.6,0.2,1.1,0.6,1.6,1l-1,1.2c-0.4-0.3-0.8-0.6-1.2-0.7c-0.4-0.1-0.8-0.2-1.3-0.2
				c-0.5,0-0.9,0.1-1.2,0.3s-0.5,0.6-0.5,1c0,0.3,0.1,0.5,0.2,0.7c0.1,0.2,0.3,0.4,0.7,0.5s0.8,0.3,1.4,0.5c1.1,0.3,1.9,0.8,2.5,1.3
				c0.5,0.5,0.8,1.2,0.8,2.2c0,0.7-0.2,1.2-0.5,1.8c-0.3,0.5-0.8,0.9-1.4,1.2c-0.6,0.3-1.4,0.4-2.2,0.4c-0.8,0-1.6-0.1-2.3-0.4
				c-0.7-0.3-1.2-0.6-1.7-1.1l1.1-1.2c0.4,0.4,0.9,0.6,1.3,0.8c0.5,0.2,1,0.3,1.5,0.3c0.6,0,1.1-0.1,1.5-0.4
				c0.4-0.3,0.6-0.7,0.6-1.2c0-0.3-0.1-0.6-0.2-0.8s-0.3-0.4-0.7-0.6c-0.3-0.2-0.8-0.3-1.3-0.5c-1.2-0.4-2-0.8-2.5-1.3
				c-0.5-0.5-0.8-1.2-0.8-2c0-0.6,0.2-1.1,0.5-1.6c0.3-0.5,0.8-0.8,1.3-1.1c0.6-0.3,1.2-0.4,1.9-0.4
				C459.2,445.9,459.9,446,460.5,446.3z"/>
			<path class="st10" d="M470.6,446.2l-0.2,1.6h-4.1v3.1h3.6v1.6h-3.6v3.2h4.4v1.6h-6.5v-11.1H470.6z"/>
			<path class="st10" d="M479.3,446.6c0.7,0.4,1.3,1.1,1.7,2c0.4,0.9,0.6,1.9,0.6,3.1c0,1.2-0.2,2.2-0.6,3.1c-0.4,0.9-1,1.5-1.7,2
				c-0.7,0.5-1.6,0.7-2.6,0.7c-1,0-1.9-0.2-2.6-0.7c-0.7-0.4-1.3-1.1-1.7-2c-0.4-0.9-0.6-1.9-0.6-3.1c0-1.2,0.2-2.2,0.6-3.1
				c0.4-0.9,1-1.5,1.7-2c0.7-0.5,1.6-0.7,2.6-0.7C477.7,445.9,478.6,446.2,479.3,446.6z M474.8,448.6c-0.4,0.7-0.7,1.7-0.7,3.2
				c0,2.8,0.9,4.1,2.6,4.1c0.9,0,1.5-0.3,1.9-1c0.4-0.7,0.7-1.7,0.7-3.2c0-1.4-0.2-2.5-0.7-3.2c-0.4-0.7-1.1-1-1.9-1
				S475.2,447.9,474.8,448.6z"/>
		</g>
	</g>
	<g>
		<polygon class="st11" points="465.6,391.7 468.3,391.7 465.6,389 		"/>
		<path class="st2" d="M469.7,392C469.7,392,469.7,391.9,469.7,392c0-0.1-0.1-0.1-0.1-0.2l-4.1-4.1c0,0-0.1-0.1-0.1-0.1c0,0,0,0,0,0
			c0,0-0.1,0-0.1,0c0,0,0,0,0,0h-11.6c-0.2,0-0.4,0.2-0.4,0.4v21.6c0,0.2,0.2,0.4,0.4,0.4h15.8c0.2,0,0.4-0.2,0.4-0.4v-17.4
			c0,0,0,0,0,0C469.7,392,469.7,392,469.7,392z M456.5,390.9h3.3v0.8h-3.3V390.9z M456.5,395.8h6.6v0.8h-6.6V395.8z M456.5,400.8
			h2.9v0.8h-2.9V400.8z M458.1,406.6h-1.7v-0.8h1.7V406.6z M466.4,406.6H459v-0.8h7.5V406.6z M466.4,404.1h-10v-0.8h10V404.1z
			 M466.4,401.6h-6.2v-0.8h6.2V401.6z M466.4,399.2h-10v-0.8h10V399.2z M466.4,396.7h-2.5v-0.8h2.5V396.7z M466.4,394.2h-10v-0.8h10
			V394.2z M465.6,391.7V389l2.7,2.7H465.6z"/>
		<path class="st2" d="M471.8,385.1h-15.8c-0.2,0-0.4,0.2-0.4,0.4v1.2h0.8v-0.8h14.9v20.7h-0.8v0.8h1.2c0.2,0,0.4-0.2,0.4-0.4v-21.6
			C472.2,385.2,472.1,385.1,471.8,385.1z"/>
	</g>
</g>
</svg>
