<?xml version="1.0" encoding="utf-8"?>
<!-- Generator: Adobe Illustrator 23.1.0, SVG Export Plug-In . SVG Version: 6.00 Build 0)  -->
<svg version="1.1" id="Layer_1" xmlns="http://www.w3.org/2000/svg" xmlns:xlink="http://www.w3.org/1999/xlink" x="0px" y="0px"
	 viewBox="0 0 292.8 258.2" style="enable-background:new 0 0 292.8 258.2;" xml:space="preserve">
<style type="text/css">
	.st0{fill:#C44106;}
	.st1{fill:#0A2B6D;}
	.st2{fill:none;stroke:#FFFFFF;stroke-width:6;stroke-miterlimit:10;}
	.st3{fill:#F26721;}
	.st4{fill:#FFFFFF;}
</style>
<polygon class="st0" points="262.8,234 216.9,117.1 216.9,65.8 292.8,174.9 "/>
<polygon class="st0" points="30,234 75.9,117.1 75.9,65.8 0,174.9 "/>
<path class="st1" d="M149,1.8C78.2,1.8,20.8,59.2,20.8,130S78.2,258.2,149,258.2S277.2,200.8,277.2,130S219.8,1.8,149,1.8z"/>
<circle class="st2" cx="149" cy="130" r="117.1"/>
<polygon class="st3" points="262.8,234 30,234 0,174.9 292.8,174.9 "/>
<path class="st4" d="M81.1,199.1c0.1,0,0.1,0,0.2,0c3.9,0,7.8,0,11.7,0c0.3,0,0.7,0,1,0c0.2,0,0.3-0.1,0.4-0.3
	c0.9-2.8,1.8-5.6,2.8-8.5c0.4-1.5,0.9-2.8,1.5-4.4c0.1,0.4,0.2,0.8,0.3,1.1c1.3,3.8,2.6,7.7,3.9,11.6c0.1,0.2,0.2,0.3,0.4,0.3
	c4.3,0,8.6,0,12.9,0c0.1,0,0.2,0,0.3,0.1c-0.2,0.1-0.4,0.3-0.7,0.4c-3.4,2.5-6.7,5-10,7.3c-0.2,0.2-0.2,0.3-0.2,0.7
	c1.3,4.1,2.6,8.1,3.9,12.3v0.1c-0.1,0-0.2-0.1-0.3-0.2c-3.4-2.5-6.9-4.9-10.3-7.3c-0.4-0.3-0.4-0.2-0.8,0c-3.5,2.5-7,5.1-10.5,7.6
	c0,0-0.1,0.1-0.2,0.1c0.2-0.9,0.6-1.7,0.8-2.6c1.1-3.4,2.1-6.8,3.3-10.1c0.1-0.2,0-0.3-0.1-0.4c-3.5-2.5-7-5.1-10.5-7.6
	C81.1,199.3,81.1,199.2,81.1,199.1C81,199.1,81.1,199.1,81.1,199.1z"/>
<path class="st4" d="M124.5,197.6c0.2,0,0.2,0,0.3,0c5.4,0,10.7,0,16.1,0c0.5,0,0.9,0,1.4,0s0.6-0.2,0.6-0.5c1.2-3.7,2.5-7.4,3.7-11
	c0.8-2.2,1.4-4.2,2.2-6.5c0.3,0.8,0.5,1.2,0.6,1.9c1.7,5.1,3.6,10.4,5.3,15.5c0.2,0.3,0.3,0.5,0.6,0.5c5.9,0,11.8,0,17.7,0
	c0.2,0,0.3,0,0.5,0c-0.2,0.2-0.3,0.3-0.5,0.3c-4.8,3.6-9.6,7-14.4,10.5c-0.3,0.3-0.3,0.5-0.2,0.8c1.9,5.6,3.6,11.2,5.4,16.9v0.2
	c-0.2,0-0.3-0.2-0.5-0.3c-4.6-3.4-9.5-6.8-14.1-10.1c-0.3-0.3-0.6-0.3-0.9,0c-4.8,3.4-9.6,7-14.4,10.4c-0.2,0-0.2,0.2-0.3,0.2
	c0.3-0.9,0.6-2,0.9-2.9c1.6-4.8,3.1-9.8,4.6-14.6c0.2-0.3,0-0.5-0.2-0.6c-4.8-3.4-9.6-7-14.4-10.4
	C124.7,198,124.5,197.8,124.5,197.6L124.5,197.6z"/>
<path class="st4" d="M210,219.8c-0.9-0.7-1.7-1.2-2.6-1.9c-2.7-1.9-5.3-3.8-7.8-5.7c-0.2-0.2-0.4-0.2-0.7,0c-3.5,2.5-6.9,5-10.4,7.5
	c-0.1,0-0.1,0.1-0.2,0.1c0.3-1,0.7-1.9,0.9-2.9c1-3.2,2.1-6.5,3.1-9.7c0.1-0.2,0-0.3-0.1-0.4c-3.5-2.5-6.9-5-10.4-7.5
	c-0.1,0-0.1-0.1-0.2-0.2c0.1-0.1,0.2,0,0.2,0c3.9,0,7.7,0,11.6,0c0.3,0,0.7,0,1,0s0.4-0.1,0.6-0.3c1-3.1,2-6.1,3-9.3
	c0.3-1,0.7-2,1-3.1c0-0.1,0.1-0.1,0.1-0.3c0.1,0.4,0.2,0.8,0.3,1.1c1.3,3.8,2.6,7.6,3.9,11.5c0.1,0.2,0.2,0.3,0.4,0.3
	c4.3,0,8.5,0,12.7,0c0.1,0,0.2,0,0.3,0c-0.2,0.2-0.4,0.3-0.7,0.4c-3.4,2.5-6.6,4.9-9.9,7.3c-0.2,0.2-0.2,0.3-0.1,0.6
	c1.3,4,2.6,8.1,3.9,12.1C210,219.7,210,219.7,210,219.8z"/>
<g>
	<path class="st4" d="M136.9,59.5c0,2.4-0.4,4.4-1.3,6.2c-0.8,1.8-2,3.1-3.6,4.1c-1.6,1-3.4,1.4-5.4,1.4c-2,0-3.8-0.5-5.4-1.4
		s-2.8-2.3-3.7-4.1c-0.9-1.8-1.3-3.8-1.3-6.1v-1.2c0-2.4,0.4-4.4,1.3-6.2c0.9-1.8,2.1-3.2,3.6-4.1s3.4-1.4,5.4-1.4
		c2,0,3.8,0.5,5.4,1.4s2.8,2.3,3.6,4.1c0.9,1.8,1.3,3.9,1.3,6.2V59.5z M131.8,58.4c0-2.5-0.5-4.4-1.4-5.7c-0.9-1.3-2.2-2-3.9-2
		c-1.7,0-3,0.6-3.9,1.9c-0.9,1.3-1.4,3.2-1.4,5.7v1.2c0,2.4,0.5,4.3,1.4,5.7c0.9,1.3,2.2,2,3.9,2c1.7,0,3-0.6,3.9-1.9
		c0.9-1.3,1.4-3.2,1.4-5.7V58.4z"/>
	<path class="st4" d="M158.8,47v15.8c0,2.6-0.8,4.7-2.5,6.2c-1.7,1.5-3.9,2.3-6.8,2.3c-2.8,0-5.1-0.7-6.7-2.2
		c-1.7-1.5-2.5-3.5-2.5-6.1V47h5v15.8c0,1.6,0.4,2.7,1.1,3.4c0.8,0.7,1.8,1.1,3.1,1.1c2.8,0,4.2-1.5,4.3-4.4V47H158.8z"/>
	<path class="st4" d="M171.8,62.2h-4v8.8h-5V47h9c2.9,0,5.1,0.6,6.6,1.9c1.6,1.3,2.3,3,2.3,5.3c0,1.6-0.4,3-1.1,4.1
		c-0.7,1.1-1.8,2-3.2,2.6l5.2,9.8v0.2h-5.3L171.8,62.2z M167.9,58.2h4c1.3,0,2.2-0.3,2.9-0.9c0.7-0.6,1-1.5,1-2.6c0-1.1-0.3-2-1-2.7
		c-0.6-0.6-1.6-1-3-1h-4V58.2z"/>
	<path class="st4" d="M96.7,103.3c-0.2,2.6-1.1,4.6-2.9,6.1c-1.7,1.5-4,2.2-6.9,2.2c-3.1,0-5.5-1-7.3-3.1c-1.8-2.1-2.7-4.9-2.7-8.5
		v-1.5c0-2.3,0.4-4.3,1.2-6.1c0.8-1.8,2-3.1,3.5-4C83.2,87.5,85,87,87,87c2.8,0,5,0.7,6.7,2.2c1.7,1.5,2.7,3.6,3,6.2h-5
		c-0.1-1.5-0.6-2.7-1.3-3.4s-1.9-1-3.4-1c-1.7,0-2.9,0.6-3.7,1.8s-1.2,3-1.3,5.5v1.8c0,2.6,0.4,4.5,1.2,5.7c0.8,1.2,2,1.8,3.7,1.8
		c1.5,0,2.7-0.3,3.4-1c0.8-0.7,1.2-1.8,1.3-3.2H96.7z"/>
	<path class="st4" d="M119.6,111.3h-5V101h-9.7v10.3h-5V87.4h5v9.7h9.7v-9.7h5V111.3z"/>
	<path class="st4" d="M138.5,100.9h-9.6v6.4h11.2v4H124V87.4h16.2v4h-11.2v5.7h9.6V100.9z"/>
	<path class="st4" d="M162.8,111.3h-5l-9.7-15.7v15.7h-5V87.4h5l9.7,15.8V87.4h5V111.3z"/>
	<path class="st4" d="M186.8,111.3h-5l-9.7-15.7v15.7h-5V87.4h5l9.7,15.8V87.4h5V111.3z"/>
	<path class="st4" d="M204.8,106.4H196l-1.7,4.9h-5.3l9-23.9h4.6l9.1,23.9h-5.3L204.8,106.4z M197.4,102.4h6l-3-9L197.4,102.4z"/>
	<path class="st4" d="M219.3,111.3h-5V87.4h5V111.3z"/>
	<path class="st4" d="M59.6,145.4c0-0.9-0.3-1.6-1-2.1c-0.7-0.5-1.9-1-3.6-1.6c-1.7-0.6-3.1-1.1-4.1-1.6c-2.7-1.5-4.1-3.4-4.1-5.9
		c0-1.3,0.4-2.4,1.1-3.5c0.7-1,1.8-1.8,3.2-2.4c1.4-0.6,2.9-0.9,4.6-0.9c1.7,0,3.3,0.3,4.6,0.9c1.4,0.6,2.4,1.5,3.1,2.6
		c0.7,1.1,1.1,2.4,1.1,3.8h-5c0-1.1-0.3-1.9-1-2.6c-0.7-0.6-1.7-0.9-2.9-0.9c-1.2,0-2.2,0.3-2.8,0.8c-0.7,0.5-1,1.2-1,2
		c0,0.8,0.4,1.4,1.2,2c0.8,0.5,2,1,3.5,1.5c2.8,0.8,4.9,1.9,6.2,3.1c1.3,1.2,1.9,2.8,1.9,4.7c0,2.1-0.8,3.7-2.4,4.9
		c-1.6,1.2-3.7,1.8-6.4,1.8c-1.9,0-3.6-0.3-5.1-1c-1.5-0.7-2.7-1.6-3.5-2.8c-0.8-1.2-1.2-2.5-1.2-4.1h5c0,2.6,1.6,4,4.8,4
		c1.2,0,2.1-0.2,2.8-0.7C59.3,146.9,59.6,146.3,59.6,145.4z"/>
	<path class="st4" d="M82.5,141.3H73v6.4h11.2v4H68v-23.9h16.2v4H73v5.7h9.6V141.3z"/>
	<path class="st4" d="M107,140.3c0,2.4-0.4,4.4-1.3,6.2c-0.8,1.8-2,3.1-3.6,4.1s-3.4,1.4-5.4,1.4c-2,0-3.8-0.5-5.4-1.4
		c-1.6-1-2.8-2.3-3.7-4.1c-0.9-1.8-1.3-3.8-1.3-6.1v-1.2c0-2.4,0.4-4.4,1.3-6.2c0.9-1.8,2.1-3.2,3.6-4.1s3.4-1.4,5.4-1.4
		c2,0,3.8,0.5,5.4,1.4s2.8,2.3,3.6,4.1c0.9,1.8,1.3,3.9,1.3,6.2V140.3z M101.9,139.2c0-2.5-0.5-4.4-1.4-5.7c-0.9-1.3-2.2-2-3.9-2
		c-1.7,0-3,0.6-3.9,1.9c-0.9,1.3-1.4,3.2-1.4,5.7v1.2c0,2.4,0.5,4.3,1.4,5.7s2.2,2,3.9,2c1.7,0,3-0.6,3.9-1.9
		c0.9-1.3,1.4-3.2,1.4-5.7V139.2z"/>
	<path class="st4" d="M138.1,143.7c-0.2,2.6-1.1,4.6-2.9,6.1c-1.7,1.5-4,2.2-6.9,2.2c-3.1,0-5.5-1-7.3-3.1c-1.8-2.1-2.7-4.9-2.7-8.5
		V139c0-2.3,0.4-4.3,1.2-6.1s2-3.1,3.5-4c1.5-0.9,3.3-1.4,5.3-1.4c2.8,0,5,0.7,6.7,2.2s2.7,3.6,3,6.2h-5c-0.1-1.5-0.6-2.7-1.3-3.4
		c-0.7-0.7-1.9-1-3.4-1c-1.7,0-2.9,0.6-3.7,1.8s-1.2,3-1.3,5.5v1.8c0,2.6,0.4,4.5,1.2,5.7c0.8,1.2,2,1.8,3.7,1.8
		c1.5,0,2.7-0.3,3.4-1c0.8-0.7,1.2-1.8,1.3-3.2H138.1z"/>
	<path class="st4" d="M146.3,147.7h10.6v4h-15.6v-23.9h5V147.7z"/>
	<path class="st4" d="M165.1,151.7h-5v-23.9h5V151.7z"/>
	<path class="st4" d="M184.2,141.3h-9.6v6.4h11.2v4h-16.2v-23.9h16.2v4h-11.2v5.7h9.6V141.3z"/>
	<path class="st4" d="M208.5,151.7h-5l-9.7-15.7v15.7h-5v-23.9h5l9.7,15.8v-15.8h5V151.7z"/>
	<path class="st4" d="M231,131.8h-7.4v19.9h-5v-19.9h-7.3v-4H231V131.8z"/>
	<path class="st4" d="M246.1,145.4c0-0.9-0.3-1.6-1-2.1c-0.7-0.5-1.9-1-3.6-1.6c-1.7-0.6-3.1-1.1-4.1-1.6c-2.7-1.5-4.1-3.4-4.1-5.9
		c0-1.3,0.4-2.4,1.1-3.5s1.8-1.8,3.2-2.4c1.4-0.6,2.9-0.9,4.6-0.9c1.7,0,3.3,0.3,4.6,0.9c1.4,0.6,2.4,1.5,3.1,2.6
		c0.7,1.1,1.1,2.4,1.1,3.8h-5c0-1.1-0.3-1.9-1-2.6c-0.7-0.6-1.7-0.9-2.9-0.9c-1.2,0-2.2,0.3-2.8,0.8c-0.7,0.5-1,1.2-1,2
		c0,0.8,0.4,1.4,1.2,2c0.8,0.5,2,1,3.5,1.5c2.8,0.8,4.9,1.9,6.2,3.1c1.3,1.2,1.9,2.8,1.9,4.7c0,2.1-0.8,3.7-2.4,4.9
		c-1.6,1.2-3.7,1.8-6.4,1.8c-1.9,0-3.6-0.3-5.1-1c-1.5-0.7-2.7-1.6-3.5-2.8c-0.8-1.2-1.2-2.5-1.2-4.1h5c0,2.6,1.6,4,4.8,4
		c1.2,0,2.1-0.2,2.8-0.7C245.8,146.9,246.1,146.3,246.1,145.4z"/>
</g>
</svg>
