<?xml version="1.0" encoding="utf-8"?>
<!-- Generator: Adobe Illustrator 23.1.0, SVG Export Plug-In . SVG Version: 6.00 Build 0)  -->
<svg version="1.1" id="Layer_1" xmlns="http://www.w3.org/2000/svg" xmlns:xlink="http://www.w3.org/1999/xlink" x="0px" y="0px"
	 viewBox="0 0 1572.3 1232.2" style="enable-background:new 0 0 1572.3 1232.2;" xml:space="preserve">
<style type="text/css">
	.st0{fill:#FFFFFF;}
	.st1{fill:none;stroke:#C9C9C9;stroke-miterlimit:10;}
	.st2{fill:#EA4335;}
	.st3{fill:#FBBC05;}
	.st4{fill:#4285F4;}
	.st5{fill:#34A853;}
	.st6{fill:#303030;}
	.st7{fill:#F4B400;}
	.st8{fill:#2D2E28;}
	.st9{fill:#EE4921;}
	.st10{fill:#E49D00;}
	.st11{fill:#FFAE92;}
	.st12{fill:#FFBEA7;}
	.st13{fill:url(#SVGID_1_);}
	.st14{fill:#605DCA;}
	.st15{fill:#4C489C;}
	.st16{fill:#FBB03B;}
	.st17{fill:#F7B8B7;}
	.st18{fill:url(#SVGID_2_);}
	.st19{fill:#F7ADAB;}
	.st20{fill:none;stroke:#34A853;stroke-width:3;stroke-miterlimit:10;}
</style>
<g>
	<g>
		<path class="st0" d="M1267.5,345H298.1c-27.6,0-50-22.4-50-50l0,0c0-27.6,22.4-50,50-50h969.4c27.6,0,50,22.4,50,50l0,0
			C1317.5,322.6,1295.1,345,1267.5,345z"/>
		<path class="st1" d="M1267.5,345H298.1c-27.6,0-50-22.4-50-50l0,0c0-27.6,22.4-50,50-50h969.4c27.6,0,50,22.4,50,50l0,0
			C1317.5,322.6,1295.1,345,1267.5,345z"/>
	</g>
</g>
<g>
	<path class="st2" d="M754.6,140.3c0,18.5-14.5,32.2-32.3,32.2c-17.8,0-32.3-13.6-32.3-32.2c0-18.6,14.5-32.2,32.3-32.2
		C740.1,108.2,754.6,121.7,754.6,140.3z M740.6,140.3c0-11.6-8.4-19.5-18.1-19.5s-18.1,7.9-18.1,19.5c0,11.5,8.4,19.5,18.1,19.5
		S740.6,151.7,740.6,140.3z"/>
	<path class="st3" d="M824.3,140.3c0,18.5-14.5,32.2-32.3,32.2c-17.8,0-32.3-13.7-32.3-32.2c0-18.6,14.5-32.2,32.3-32.2
		C809.8,108.2,824.3,121.7,824.3,140.3z M810.1,140.3c0-11.6-8.4-19.5-18.1-19.5c-9.7,0-18.1,7.9-18.1,19.5
		c0,11.5,8.4,19.5,18.1,19.5C801.7,159.8,810.1,151.7,810.1,140.3z"/>
	<path class="st4" d="M891,110.1v57.7c0,23.8-14,33.5-30.6,33.5c-15.6,0-24.9-10.4-28.6-19l12.3-5.1c2.2,5.2,7.6,11.4,16.2,11.4
		c10.5,0,17.2-6.5,17.2-18.9v-4.6h-0.5c-3.2,3.9-9.3,7.4-16.9,7.4c-16.1,0-30.8-14-30.8-32.1s14.7-32.3,30.8-32.3
		c7.7,0,13.7,3.4,16.9,7.1h0.5v-5.2L891,110.1L891,110.1z M878.5,140.4c0-11.3-7.6-19.6-17.2-19.6c-9.7,0-17.9,8.3-17.9,19.6
		c0,11.2,8.2,19.4,17.9,19.4C871,159.8,878.5,151.6,878.5,140.4z"/>
	<path class="st5" d="M913,76.2v94.3h-13.7V76.2H913z"/>
	<path class="st2" d="M966.7,150.9l11,7.4c-3.5,5.2-12,14.3-26.7,14.3c-18.2,0-32-14.2-32-32.2c0-19.1,13.7-32.2,30.4-32.2
		c16.7,0,24.8,13.3,27.5,20.5l1.5,3.6L935.4,150c3.3,6.5,8.4,9.7,15.6,9.7C958.1,159.8,963.1,156.2,966.7,150.9L966.7,150.9z
		 M933,139.3l28.8-11.9c-1.6-4-6.3-6.8-11.9-6.8C942.7,120.5,932.6,126.9,933,139.3z"/>
	<path class="st4" d="M638,131.9v-13.6h46c0.4,2.3,0.6,5.2,0.6,8.2c0,10.2-2.8,22.9-11.8,32c-8.7,9.2-20,14-34.8,14
		c-27.5,0-50.6-22.4-50.6-50s23.1-50,50.6-50c15.2,0,26.1,6,34.2,13.7l-9.6,9.6c-5.9-5.4-13.7-9.7-24.6-9.7
		c-20.1,0-35.8,16.2-35.8,36.3s15.8,36.3,35.8,36.3c13,0,20.5-5.2,25.2-10c3.8-3.8,6.4-9.4,7.4-16.9L638,131.9z"/>
</g>
<g>
	<path class="st6" d="M359.2,1019.5v-49.2h28.6l-1.2,7.6h-16.9v13.9h14.8v7.6h-14.8v20.1h-10.5V1019.5z"/>
	<path class="st6" d="M395.2,1018c-1.7-1.7-2.6-4.3-2.6-7.6v-43.6l10.1-1.2v44.4c0,1.6,0.6,2.5,2,2.5c0.8,0,1.4-0.1,1.9-0.4l2,7.2
		c-1.9,0.9-4.1,1.3-6.5,1.3C399.3,1020.6,396.9,1019.7,395.2,1018z"/>
	<path class="st6" d="M445.3,1003.7h-23.5c0.3,3.5,1.3,5.8,2.8,7.2c1.5,1.4,3.6,2.2,6.1,2.2c1.6,0,3.1-0.2,4.5-0.8s2.9-1.4,4.6-2.5
		l4.2,5.7c-4.2,3.5-9,5.1-14.2,5.1c-5.9,0-10.5-1.7-13.6-5.3c-3.1-3.6-4.7-8.4-4.7-14.5c0-3.9,0.6-7.3,2-10.4c1.4-3,3.3-5.5,5.9-7.2
		s5.6-2.6,9.2-2.6c5.4,0,9.5,1.7,12.5,5.1c3,3.3,4.4,8.1,4.4,14C445.5,1000.3,445.5,1001.6,445.3,1003.7z M435.5,996.9
		c0-6.3-2.3-9.4-6.8-9.4c-2,0-3.7,0.8-4.9,2.3c-1.2,1.5-1.8,4-2,7.6h13.7L435.5,996.9L435.5,996.9z"/>
	<path class="st6" d="M475.4,1017.7c-1.4,1-2.9,1.6-4.6,2.2c-1.7,0.5-3.5,0.8-5.2,0.8c-3.9,0-6.8-1.2-8.8-3.3c-1.9-2.2-3-5.4-3-9.6
		v-18.8h-5.6v-7.1h5.6v-8.2l10.1-1.2v9.5h8.6l-1,7.1h-7.7v18.6c0,1.8,0.3,3.1,1,3.9s1.5,1.2,2.8,1.2c1.3,0,2.7-0.4,4.3-1.3
		L475.4,1017.7z"/>
	<path class="st6" d="M501.1,981.7c2,0.8,3.9,1.8,5.7,3.5l-4.4,5.9c-1.2-1-2.5-1.6-3.6-2c-1.2-0.4-2.5-0.6-3.8-0.6
		c-5.4,0-8,4.1-8,12.4c0,4.2,0.6,7.1,2,9c1.4,1.8,3.3,2.7,5.9,2.7c1.3,0,2.5-0.2,3.7-0.6c1.1-0.4,2.4-1.1,3.9-2l4.4,6.4
		c-3.6,2.9-7.8,4.4-12.4,4.4c-3.7,0-6.9-0.8-9.6-2.4s-4.9-3.9-6.3-6.9c-1.5-2.9-2.2-6.5-2.2-10.5c0-4,0.8-7.6,2.2-10.6
		c1.5-3,3.6-5.4,6.3-7.1s5.9-2.6,9.5-2.6C496.8,980.7,499.1,981.1,501.1,981.7z"/>
	<path class="st6" d="M541.3,983.7c1.8,2,2.8,4.7,2.8,8.3v27.4h-10.1v-25.7c0-2-0.3-3.5-1.1-4.3s-1.7-1.3-3-1.3
		c-2.7,0-5.1,1.7-7.2,5.2v26.1h-10.1v-52.6l10.1-1.1v20.3c1.5-1.8,3.1-3.1,5-4.1c1.7-0.9,3.8-1.4,6-1.4
		C536.9,980.7,539.4,981.7,541.3,983.7z"/>
	<path class="st6" d="M585.4,1003.7h-23.5c0.3,3.5,1.3,5.8,2.8,7.2c1.5,1.4,3.6,2.2,6.1,2.2c1.6,0,3.1-0.2,4.5-0.8
		c1.4-0.5,2.9-1.4,4.6-2.5l4.2,5.7c-4.2,3.5-9,5.1-14.2,5.1c-5.9,0-10.5-1.7-13.6-5.3c-3.1-3.6-4.7-8.4-4.7-14.5
		c0-3.9,0.6-7.3,2-10.4c1.4-3,3.3-5.5,5.9-7.2s5.6-2.6,9.2-2.6c5.4,0,9.5,1.7,12.5,5.1c3,3.3,4.4,8.1,4.4,14
		C585.6,1000.3,585.5,1001.6,585.4,1003.7z M575.6,996.9c0-6.3-2.3-9.4-6.8-9.4c-2,0-3.7,0.8-4.9,2.3c-1.2,1.5-1.8,4-2,7.6h13.7
		V996.9z"/>
	<path class="st6" d="M616.1,981.3l-1.7,9.7c-1.3-0.3-2.5-0.5-3.3-0.5c-2.3,0-4,0.8-5.2,2.4c-1.2,1.5-2.2,3.9-2.9,7.1v19.4h-10.1
		v-37.6h8.7l1,7.3c0.9-2.7,2.3-4.7,4-6.1c1.7-1.5,3.7-2.2,5.8-2.2C613.4,980.8,614.7,981,616.1,981.3z"/>
	<path class="st6" d="M692.3,970.3l-8.6,49.2h-13.6l-6.8-38.4l-7.2,38.4h-13.3l-8.5-49.2h10.5l5.6,41.1l7.4-41.1h11l7.2,41.1
		l6.4-41.1H692.3z"/>
	<path class="st6" d="M707.7,964c1.2,1.1,1.7,2.5,1.7,4.2s-0.5,3.1-1.7,4.2c-1.2,1.1-2.6,1.6-4.4,1.6s-3.2-0.5-4.4-1.6
		c-1.2-1.1-1.7-2.5-1.7-4.2s0.5-3.1,1.7-4.2s2.6-1.6,4.4-1.6C705,962.4,706.5,963,707.7,964z M708.4,981.8v37.6h-10.1v-37.6H708.4z"
		/>
	<path class="st6" d="M747.1,983.7c1.8,2,2.8,4.7,2.8,8.3v27.4h-10.1v-25.7c0-2-0.3-3.5-1.1-4.3c-0.6-0.9-1.7-1.3-3.1-1.3
		c-1.4,0-2.7,0.4-3.9,1.3c-1.2,0.9-2.3,2.2-3.3,4v26h-10.1v-37.6h8.7l0.8,4.7c1.5-1.9,3.2-3.5,5.2-4.4c1.8-1,4-1.5,6.4-1.5
		C742.7,980.7,745.3,981.7,747.1,983.7z"/>
	<path class="st6" d="M792.1,966.9v52.6h-8.8l-0.5-4.6c-2.7,3.9-6.3,5.7-10.8,5.7c-4.6,0-8.2-1.8-10.6-5.4
		c-2.5-3.6-3.7-8.4-3.7-14.6c0-3.9,0.6-7.3,1.8-10.4c1.3-3,3-5.4,5.4-7.1c2.4-1.7,5-2.6,8-2.6c3.5,0,6.6,1.3,9.2,3.8v-18.8
		L792.1,966.9z M778.7,1011.9c1.2-0.8,2.3-1.8,3.2-3.5v-16.8c-1-1.2-2-2-3-2.7c-1-0.5-2.2-0.9-3.6-0.9c-2.4,0-4.1,1-5.4,3
		c-1.3,2-1.9,5.2-1.9,9.5c0,4.5,0.5,7.7,1.7,9.6c1.2,1.9,2.8,2.8,5,2.8C776.2,1013.1,777.5,1012.7,778.7,1011.9z"/>
	<path class="st6" d="M831,985.9c3.1,3.6,4.7,8.4,4.7,14.7c0,4-0.8,7.4-2.2,10.5c-1.4,3-3.6,5.4-6.3,7c-2.7,1.6-5.9,2.5-9.6,2.5
		c-5.6,0-10-1.7-13.3-5.3c-3.2-3.6-4.7-8.4-4.7-14.7c0-4,0.8-7.4,2.2-10.5c1.4-3,3.6-5.4,6.3-7s5.9-2.5,9.7-2.5
		C823.5,980.7,827.9,982.5,831,985.9z M812.2,991.2c-1.3,2-1.8,5.2-1.8,9.4c0,4.3,0.6,7.4,1.8,9.4c1.3,2,3.1,3,5.6,3
		c2.5,0,4.4-1,5.6-3c1.3-2,1.8-5.2,1.8-9.4c0-4.3-0.6-7.4-1.8-9.4c-1.2-2-3.1-3-5.6-3C815.3,988.2,813.3,989.2,812.2,991.2z"/>
	<path class="st6" d="M890.6,981.8l-8,37.6h-12.3l-5.4-28.6l-5.4,28.6h-12.2l-8.2-37.6h10.1l4.6,30.2l6.3-30.2h10.1l5.6,30.2
		l5.1-30.2H890.6z"/>
	<path class="st6" d="M922.3,985.2l-3.9,5.7c-3.1-1.9-6.3-3-9.4-3c-1.6,0-2.9,0.3-3.9,1c-0.9,0.6-1.4,1.4-1.4,2.5
		c0,0.8,0.2,1.4,0.6,1.9c0.4,0.5,1.2,1,2.3,1.5c1.1,0.4,2.8,1.1,5,1.7c4,1.1,6.9,2.6,8.8,4.4c1.9,1.8,2.9,4.3,2.9,7.4
		c0,2.5-0.8,4.6-2.2,6.6c-1.4,1.8-3.5,3.2-5.8,4.2c-2.5,1-5.2,1.5-8.2,1.5c-3.1,0-6-0.5-8.6-1.5c-2.6-1-4.9-2.3-6.7-4l5-5.5
		c3.1,2.5,6.6,3.7,10.1,3.7c1.9,0,3.5-0.3,4.5-1.1c1.1-0.8,1.6-1.7,1.6-3c0-1-0.2-1.7-0.6-2.4c-0.4-0.5-1.2-1.1-2.4-1.6
		c-1.2-0.5-2.9-1.1-5.3-1.7c-3.8-1.1-6.6-2.5-8.4-4.4s-2.7-4.3-2.7-7.1c0-2.2,0.6-4.1,1.8-5.7c1.2-1.7,3-3,5.2-4
		c2.3-1,4.9-1.5,7.9-1.5C914,980.7,918.5,982.2,922.3,985.2z"/>
</g>
<g>
	<path class="st6" d="M369.6,447.6v49.2h-10.5v-49.2H369.6z"/>
	<path class="st6" d="M401.3,470.3l14.3,26.5h-11.5l-9.2-19.4l-9.1,19.4h-11.1l14-26.1l-12.8-23h11.4l7.8,16.4l8.1-16.4h11.1
		L401.3,470.3z"/>
	<path class="st6" d="M467.4,448.1c2.6,1,5,2.5,7.2,4.4l-5.5,5.7c-1.7-1.3-3.5-2.3-5-2.9c-1.5-0.6-3.2-1-5.2-1
		c-3.8,0-6.8,1.5-9.1,4.4c-2.3,2.9-3.5,7.4-3.5,13.5c0,6.4,0.9,11,2.7,13.7c1.7,2.8,4.5,4.2,8.3,4.2c2.7,0,5.2-0.5,7.3-1.7v-12h-6.9
		l-1.1-7.6h18.1v24.3c-2.6,1.5-5.3,2.8-8.3,3.7c-2.9,0.9-5.9,1.3-9,1.3c-7.2,0-12.7-2.2-16.5-6.6c-3.8-4.3-5.6-10.8-5.6-19.3
		c0-5.4,1-9.9,3-13.8c2-3.9,4.7-6.8,8.3-8.8c3.5-1.9,7.3-3,11.7-3C461.9,446.5,464.8,447,467.4,448.1z"/>
	<path class="st6" d="M512.8,489.6c0.4,0.6,1.2,1.2,2.2,1.5l-2.2,6.7c-2.3-0.2-4-0.8-5.4-1.5c-1.4-0.9-2.5-2.2-3.2-4
		c-2.5,3.8-6.3,5.7-11.3,5.7c-3.8,0-6.7-1.1-9-3.2c-2.2-2.2-3.3-5-3.3-8.4c0-4.1,1.5-7.2,4.4-9.5c3-2.2,7.2-3.2,12.8-3.2h4.3v-1.8
		c0-2.4-0.5-3.9-1.5-4.9c-1.1-0.9-2.8-1.4-5.2-1.4c-2.7,0-5.9,0.6-9.9,1.9l-2.3-6.8c4.6-1.8,9.4-2.8,13.9-2.8
		c5.1,0,8.8,1.1,11.3,3.3s3.7,5.5,3.7,9.8v15.2C512.2,487.9,512.4,489,512.8,489.6z M502.2,486.5v-7.2H499c-5.5,0-8.2,2-8.2,6.1
		c0,1.6,0.4,2.9,1.3,3.9c0.9,1,2,1.4,3.6,1.4C498.5,490.7,500.7,489.3,502.2,486.5z"/>
	<path class="st6" d="M547.6,462.5l-3.9,5.7c-3.1-1.9-6.3-3-9.4-3c-1.6,0-2.9,0.3-3.9,1c-0.9,0.6-1.4,1.4-1.4,2.5
		c0,0.8,0.2,1.4,0.6,1.9c0.4,0.5,1.2,1,2.3,1.5c1.1,0.4,2.8,1.1,5,1.7c4,1.1,6.9,2.6,8.8,4.4c1.9,1.8,2.9,4.3,2.9,7.4
		c0,2.5-0.8,4.6-2.2,6.6c-1.4,1.8-3.5,3.2-5.8,4.2c-2.5,1-5.2,1.5-8.2,1.5c-3.1,0-6-0.5-8.6-1.5c-2.6-1-4.9-2.3-6.7-4l5-5.5
		c3.1,2.5,6.6,3.7,10.1,3.7c1.9,0,3.5-0.3,4.5-1.1c1.1-0.8,1.6-1.7,1.6-3c0-1-0.2-1.7-0.6-2.4c-0.4-0.5-1.2-1.1-2.4-1.6
		c-1.2-0.5-2.9-1.1-5.3-1.7c-3.8-1.1-6.6-2.5-8.4-4.4c-1.8-1.9-2.7-4.3-2.7-7.1c0-2.2,0.6-4.1,1.8-5.7c1.2-1.7,3-3,5.2-4
		c2.3-1,4.9-1.5,7.9-1.5C539.3,458,543.9,459.5,547.6,462.5z"/>
	<path class="st6" d="M565.7,443v53.8h-10.1v-52.6L565.7,443z M588.5,459.2l-12,16.5l13.1,21.1h-11.4L566,476.2l12.1-17H588.5z"/>
	<path class="st6" d="M624.9,481.1h-23.5c0.3,3.5,1.3,5.8,2.8,7.2c1.5,1.4,3.6,2.2,6.1,2.2c1.6,0,3.1-0.2,4.5-0.8
		c1.4-0.5,2.9-1.4,4.6-2.5l4.2,5.7c-4.2,3.5-9,5.1-14.2,5.1c-5.9,0-10.5-1.7-13.6-5.3c-3.1-3.6-4.7-8.4-4.7-14.5
		c0-3.9,0.6-7.3,2-10.4c1.4-3,3.3-5.5,5.9-7.2c2.6-1.7,5.6-2.6,9.2-2.6c5.4,0,9.5,1.7,12.5,5.1c3,3.3,4.4,8.1,4.4,14
		C625.1,477.6,625,478.9,624.9,481.1z M615.1,474.3c0-6.3-2.3-9.4-6.8-9.4c-2,0-3.7,0.8-4.9,2.3c-1.2,1.5-1.8,4-2,7.6h13.7V474.3
		L615.1,474.3z"/>
	<path class="st6" d="M654.9,495c-1.4,1-2.9,1.6-4.6,2.2c-1.7,0.5-3.5,0.8-5.2,0.8c-3.9,0-6.8-1.2-8.8-3.3c-1.9-2.2-3-5.4-3-9.6
		v-18.8h-5.6v-7.1h5.6v-8.2l10.1-1.2v9.5h8.6l-1,7.1h-7.7v18.6c0,1.8,0.3,3.1,1,3.9s1.5,1.2,2.8,1.2c1.3,0,2.7-0.4,4.3-1.3
		L654.9,495z"/>
	<path class="st6" d="M724.7,496.8h-10.2l-1.1-20c-0.3-5.9-0.5-11-0.5-15.2c0-2.3,0-3.9,0.1-4.9l-8.3,34.7h-9.9l-8.8-34.8
		c0.2,2.9,0.3,6.1,0.3,9.7c0,3.9-0.1,7.3-0.3,10.6l-1.1,19.7h-10.1l3.9-49.2h13.3l8.1,33.9l7.6-33.9h13.4L724.7,496.8z"/>
	<path class="st6" d="M761.9,489.6c0.4,0.6,1.2,1.2,2.2,1.5l-2.2,6.7c-2.3-0.2-4-0.8-5.4-1.5c-1.4-0.9-2.5-2.2-3.2-4
		c-2.5,3.8-6.3,5.7-11.3,5.7c-3.8,0-6.7-1.1-9-3.2c-2.2-2.2-3.3-5-3.3-8.4c0-4.1,1.5-7.2,4.4-9.5c3-2.2,7.2-3.2,12.8-3.2h4.3v-1.8
		c0-2.4-0.5-3.9-1.5-4.9c-1.1-0.9-2.8-1.4-5.2-1.4c-2.7,0-5.9,0.6-9.9,1.9l-2.3-6.8c4.6-1.8,9.4-2.8,13.9-2.8
		c5.1,0,8.8,1.1,11.3,3.3c2.4,2.2,3.7,5.5,3.7,9.8v15.2C761.2,487.9,761.4,489,761.9,489.6z M751.3,486.5v-7.2H748
		c-5.5,0-8.2,2-8.2,6.1c0,1.6,0.4,2.9,1.3,3.9c0.9,1,2,1.4,3.6,1.4C747.5,490.7,749.7,489.3,751.3,486.5z"/>
	<path class="st6" d="M800.1,461c1.8,2,2.8,4.7,2.8,8.3v27.4h-10.1V471c0-2-0.3-3.5-1.1-4.3c-0.6-0.9-1.7-1.3-3.1-1.3
		c-1.4,0-2.7,0.4-3.9,1.3c-1.2,0.9-2.3,2.2-3.3,4v26h-10.1v-37.6h8.7l0.8,4.7c1.5-1.9,3.2-3.5,5.2-4.4c1.8-1,4-1.5,6.4-1.5
		C795.6,458,798.2,459.1,800.1,461z"/>
	<path class="st6" d="M843.3,496.8h-8.7l-0.5-5.1c-1.3,2-2.9,3.7-4.9,4.6c-1.9,1-4.1,1.5-6.6,1.5c-3.5,0-6-1.1-7.8-3.1
		c-1.8-2-2.7-5-2.7-8.6v-27.1h10.1v25.8c0,1.9,0.3,3.5,1,4.2c0.6,0.8,1.7,1.3,3.1,1.3c2.7,0,5-1.6,6.9-4.9v-26.3h10.1v37.6H843.3z"
		/>
	<path class="st6" d="M865.8,451.7c-0.8,0.8-1.1,2.2-1.1,3.9v3.5h9l-1.2,7.1h-7.8v30.5h-10.1v-30.5h-6v-7.1h5.9v-3.8
		c0-3.7,1.2-6.6,3.6-9c2.4-2.3,5.8-3.5,10.2-3.5c3.5,0,6.8,0.8,9.9,2.3l-2.8,6.7c-2-1-4.1-1.4-6.1-1.4
		C867.7,450.6,866.4,451,865.8,451.7z"/>
	<path class="st6" d="M906,489.6c0.4,0.6,1.2,1.2,2.2,1.5l-2.2,6.7c-2.3-0.2-4-0.8-5.4-1.5c-1.4-0.9-2.5-2.2-3.2-4
		c-2.5,3.8-6.3,5.7-11.3,5.7c-3.8,0-6.7-1.1-9-3.2c-2.3-2.2-3.3-5-3.3-8.4c0-4.1,1.5-7.2,4.5-9.5c3-2.2,7.2-3.2,12.8-3.2h4.3v-1.8
		c0-2.4-0.5-3.9-1.5-4.9c-1.1-0.9-2.8-1.4-5.2-1.4c-2.7,0-5.9,0.6-9.9,1.9l-2.3-6.8c4.6-1.8,9.4-2.8,13.9-2.8
		c5.1,0,8.8,1.1,11.3,3.3c2.4,2.2,3.7,5.5,3.7,9.8v15.2C905.4,487.9,905.6,489,906,489.6z M895.4,486.5v-7.2h-3.3
		c-5.5,0-8.2,2-8.2,6.1c0,1.6,0.4,2.9,1.3,3.9c0.9,1,2,1.4,3.6,1.4C891.7,490.7,893.8,489.3,895.4,486.5z"/>
	<path class="st6" d="M937.9,459.1c2,0.8,3.9,1.8,5.7,3.5l-4.4,5.9c-1.2-1-2.5-1.6-3.6-2c-1.1-0.4-2.5-0.6-3.8-0.6
		c-5.4,0-8,4.1-8,12.4c0,4.2,0.6,7.1,2,9c1.4,1.8,3.3,2.7,5.9,2.7c1.3,0,2.5-0.2,3.7-0.6c1.1-0.4,2.4-1.1,3.9-2l4.4,6.4
		c-3.6,2.9-7.8,4.4-12.4,4.4c-3.7,0-6.9-0.8-9.6-2.4c-2.7-1.6-4.9-3.9-6.3-6.9s-2.2-6.5-2.2-10.5s0.8-7.6,2.2-10.6
		c1.5-3,3.6-5.4,6.3-7.1c2.7-1.7,5.9-2.6,9.5-2.6C933.6,458,935.9,458.4,937.9,459.1z"/>
	<path class="st6" d="M971.9,495c-1.4,1-2.9,1.6-4.6,2.2c-1.7,0.5-3.5,0.8-5.2,0.8c-3.9,0-6.8-1.2-8.8-3.3c-1.9-2.2-3-5.4-3-9.6
		v-18.8h-5.6v-7.1h5.6v-8.2l10.1-1.2v9.5h8.6l-1,7.1h-7.7v18.6c0,1.8,0.3,3.1,1,3.9c0.6,0.8,1.5,1.2,2.8,1.2s2.7-0.4,4.3-1.3
		L971.9,495z"/>
	<path class="st6" d="M1007.2,496.8h-8.7l-0.5-5.1c-1.3,2-2.9,3.7-4.9,4.6c-1.9,1-4.1,1.5-6.6,1.5c-3.5,0-6-1.1-7.8-3.1
		c-1.8-2-2.7-5-2.7-8.6v-27.1h10.1v25.8c0,1.9,0.3,3.5,1,4.2c0.6,0.8,1.7,1.3,3.1,1.3c2.7,0,5-1.6,6.9-4.9v-26.3h10.1v37.6H1007.2z"
		/>
	<path class="st6" d="M1040.4,458.6l-1.7,9.7c-1.3-0.3-2.5-0.5-3.3-0.5c-2.3,0-4,0.8-5.2,2.4c-1.2,1.5-2.2,3.9-2.9,7.1v19.4h-10.1
		v-37.6h8.7l1,7.3c0.9-2.7,2.3-4.7,4-6.1c1.7-1.5,3.7-2.2,5.8-2.2C1037.8,458.1,1039,458.3,1040.4,458.6z"/>
	<path class="st6" d="M1074.8,481.1h-23.5c0.3,3.5,1.3,5.8,2.8,7.2c1.5,1.4,3.6,2.2,6.1,2.2c1.6,0,3.1-0.2,4.5-0.8
		c1.4-0.5,2.9-1.4,4.6-2.5l4.2,5.7c-4.2,3.5-9,5.1-14.2,5.1c-5.9,0-10.5-1.7-13.6-5.3c-3.1-3.6-4.7-8.4-4.7-14.5
		c0-3.9,0.6-7.3,2-10.4c1.4-3,3.3-5.5,5.9-7.2c2.6-1.7,5.6-2.6,9.2-2.6c5.4,0,9.5,1.7,12.5,5.1c3,3.3,4.4,8.1,4.4,14
		C1075,477.6,1075,478.9,1074.8,481.1z M1065.1,474.3c0-6.3-2.3-9.4-6.8-9.4c-2,0-3.7,0.8-4.9,2.3c-1.2,1.5-1.8,4-2,7.6h13.7V474.3z
		"/>
	<path class="st6" d="M1105.7,458.6l-1.7,9.7c-1.3-0.3-2.5-0.5-3.3-0.5c-2.3,0-4,0.8-5.2,2.4c-1.2,1.5-2.2,3.9-2.9,7.1v19.4h-10.1
		v-37.6h8.7l1,7.3c0.9-2.7,2.3-4.7,4-6.1c1.7-1.5,3.7-2.2,5.8-2.2C1103,458.1,1104.3,458.3,1105.7,458.6z"/>
	<path class="st6" d="M1135.9,462.5l-3.9,5.7c-3.1-1.9-6.3-3-9.4-3c-1.6,0-2.9,0.3-3.9,1c-0.9,0.6-1.4,1.4-1.4,2.5
		c0,0.8,0.2,1.4,0.6,1.9c0.4,0.5,1.2,1,2.3,1.5c1.1,0.4,2.8,1.1,5,1.7c4,1.1,6.9,2.6,8.8,4.4c1.9,1.8,2.9,4.3,2.9,7.4
		c0,2.5-0.8,4.6-2.2,6.6c-1.4,1.8-3.5,3.2-5.8,4.2c-2.5,1-5.2,1.5-8.2,1.5c-3.1,0-6-0.5-8.6-1.5c-2.6-1-4.9-2.3-6.7-4l5-5.5
		c3.1,2.5,6.6,3.7,10.1,3.7c1.9,0,3.5-0.3,4.5-1.1s1.6-1.7,1.6-3c0-1-0.2-1.7-0.6-2.4c-0.4-0.5-1.2-1.1-2.4-1.6s-2.9-1.1-5.3-1.7
		c-3.8-1.1-6.6-2.5-8.4-4.4s-2.7-4.3-2.7-7.1c0-2.2,0.6-4.1,1.8-5.7c1.2-1.7,3-3,5.2-4c2.3-1,4.9-1.5,7.9-1.5
		C1127.5,458,1132.1,459.5,1135.9,462.5z"/>
</g>
<g>
	<path class="st6" d="M374.9,574.8h-5.3v19.3h-10.5v-49.2h15.3c6.6,0,11.5,1.2,14.9,3.7c3.3,2.5,5,6.1,5,11c0,3.2-0.8,5.8-2.4,8
		c-1.6,2-4,3.9-7.3,5.3l12.7,21.1h-11.9L374.9,574.8z M369.5,567.4h5.5c2.8,0,4.9-0.6,6.4-1.8c1.4-1.3,2.2-3.2,2.2-5.9
		c0-2.5-0.8-4.3-2.3-5.5c-1.5-1.2-3.8-1.7-7-1.7h-4.6v15H369.5z"/>
	<path class="st6" d="M411.9,538.6c1.2,1.1,1.7,2.5,1.7,4.2s-0.5,3.1-1.7,4.2c-1.2,1.1-2.6,1.6-4.4,1.6c-1.8,0-3.2-0.5-4.4-1.6
		c-1.2-1.1-1.7-2.5-1.7-4.2s0.5-3.1,1.7-4.2c1.2-1.1,2.6-1.6,4.4-1.6C409.3,537,410.7,537.5,411.9,538.6z M412.7,556.4v37.6h-10.1
		v-37.6H412.7z"/>
	<path class="st6" d="M451.4,558.3c1.8,2,2.8,4.7,2.8,8.3V594h-10.1v-25.7c0-2-0.3-3.5-1.1-4.3c-0.6-0.9-1.7-1.3-3.1-1.3
		c-1.4,0-2.7,0.4-3.9,1.3c-1.2,0.9-2.3,2.2-3.3,4v26h-10.1v-37.6h8.7l0.8,4.7c1.5-1.9,3.2-3.5,5.2-4.4c1.8-1,4-1.5,6.4-1.5
		C446.9,555.2,449.5,556.3,451.4,558.3z"/>
	<path class="st6" d="M497.4,558.5c-2.5,1-6,1.4-10.9,1.4c2.4,1.1,4.1,2.4,5.3,3.9c1.2,1.5,1.7,3.5,1.7,5.8c0,2.4-0.6,4.5-1.8,6.5
		c-1.3,1.9-3,3.5-5.4,4.5c-2.4,1.1-5.1,1.6-8.2,1.6c-1.6,0-3.1-0.2-4.4-0.5c-1,0.6-1.4,1.4-1.4,2.5c0,0.8,0.3,1.4,0.9,1.8
		c0.5,0.4,1.7,0.6,3.5,0.6h5.7c2.8,0,5.3,0.4,7.3,1.4c2.2,1,3.8,2.2,4.9,3.9c1.2,1.6,1.7,3.5,1.7,5.6c0,3.9-1.6,6.8-5,9
		c-3.3,2.2-8.1,3.2-14.2,3.2c-4.4,0-8-0.4-10.6-1.4s-4.4-2.3-5.4-4c-1.1-1.7-1.5-4-1.5-6.6h9.1c0,1.2,0.2,2.3,0.8,2.9
		c0.4,0.8,1.3,1.3,2.6,1.6s3,0.5,5.4,0.5c3.2,0,5.5-0.4,6.9-1.2c1.3-0.8,1.9-1.9,1.9-3.5c0-1.3-0.5-2.4-1.5-3
		c-1-0.8-2.5-1.1-4.4-1.1h-5.5c-3.8,0-6.6-0.6-8.4-2c-1.8-1.4-2.8-3.1-2.8-5.3c0-1.3,0.4-2.6,1.2-3.9c0.8-1.3,1.8-2.3,3.2-3.1
		c-2.4-1.3-4-2.8-5.1-4.5c-1.1-1.7-1.6-3.8-1.6-6.3c0-2.7,0.6-5.2,2-7.2c1.4-2,3.2-3.7,5.7-4.7c2.5-1.1,5.2-1.6,8.3-1.6
		c3.9,0.1,7.1-0.2,9.6-1c2.5-0.8,5.2-1.9,8-3.6L497.4,558.5z M473,563.9c-1.1,1.2-1.6,2.8-1.6,5c0,2.2,0.5,3.8,1.6,5.1
		c1.1,1.2,2.6,1.8,4.5,1.8c2,0,3.6-0.5,4.6-1.7c1.1-1.2,1.5-2.9,1.5-5.3c0-4.4-2-6.6-6.3-6.6C475.6,562,474.1,562.6,473,563.9z"/>
	<path class="st6" d="M532.1,586.7c0,3.8-0.6,6.9-1.9,9.4c-1.3,2.5-3,4.4-5.2,5.8c-2.2,1.4-4.9,2.6-8,3.7l-2.8-7.4
		c2-0.8,3.7-1.7,4.7-2.8s1.8-2.3,2.2-3.7c0.4-1.4,0.5-3.1,0.5-5.3v-41.5h10.5L532.1,586.7L532.1,586.7z"/>
	<path class="st6" d="M571.1,560.5c3.1,3.6,4.7,8.4,4.7,14.7c0,4-0.8,7.4-2.2,10.5c-1.4,3-3.6,5.4-6.3,7c-2.7,1.6-5.9,2.5-9.6,2.5
		c-5.6,0-10-1.7-13.3-5.3c-3.2-3.6-4.7-8.4-4.7-14.7c0-4,0.8-7.4,2.2-10.5c1.4-3,3.6-5.4,6.3-7c2.7-1.6,5.9-2.5,9.7-2.5
		C563.5,555.2,567.9,557.1,571.1,560.5z M552.2,565.8c-1.3,2-1.8,5.2-1.8,9.4c0,4.3,0.6,7.4,1.8,9.4c1.3,2,3.1,3,5.6,3
		c2.5,0,4.4-1,5.6-3c1.3-2,1.8-5.2,1.8-9.4c0-4.3-0.6-7.4-1.8-9.4c-1.2-2-3.1-3-5.6-3S553.5,563.8,552.2,565.8z"/>
	<path class="st6" d="M592.9,538.6c1.2,1.1,1.7,2.5,1.7,4.2s-0.5,3.1-1.7,4.2c-1.2,1.1-2.6,1.6-4.4,1.6s-3.2-0.5-4.4-1.6
		c-1.2-1.1-1.7-2.5-1.7-4.2s0.5-3.1,1.7-4.2c1.2-1.1,2.6-1.6,4.4-1.6S591.8,537.5,592.9,538.6z M593.6,556.4v37.6h-10.1v-37.6H593.6
		z"/>
	<path class="st6" d="M632.3,558.3c1.8,2,2.8,4.7,2.8,8.3V594H625v-25.7c0-2-0.3-3.5-1.1-4.3c-0.6-0.9-1.7-1.3-3.1-1.3
		c-1.4,0-2.7,0.4-3.9,1.3c-1.2,0.9-2.3,2.2-3.3,4v26h-10v-37.6h8.7l0.8,4.7c1.5-1.9,3.2-3.5,5.2-4.4c1.8-1,4-1.5,6.4-1.5
		C627.9,555.2,630.5,556.3,632.3,558.3z"/>
	<path class="st6" d="M667.3,592.2c-1.4,1-2.9,1.6-4.6,2.2s-3.5,0.8-5.2,0.8c-3.9,0-6.8-1.2-8.8-3.3c-1.9-2.2-3-5.4-3-9.6v-18.8H640
		v-7.1h5.6v-8.2l10.1-1.2v9.5h8.6l-1,7.1h-7.7v18.6c0,1.8,0.3,3.1,1,3.9c0.6,0.8,1.5,1.2,2.8,1.2c1.3,0,2.7-0.4,4.3-1.3L667.3,592.2
		z"/>
	<path class="st6" d="M718.6,545.3c2.6,1,5,2.5,7.2,4.4l-5.5,5.7c-1.7-1.3-3.5-2.3-5-2.9c-1.5-0.6-3.2-1-5.2-1
		c-3.8,0-6.8,1.5-9.1,4.4c-2.3,2.9-3.5,7.4-3.5,13.5c0,6.4,0.9,11,2.7,13.7c1.7,2.8,4.5,4.2,8.3,4.2c2.7,0,5.2-0.5,7.3-1.7v-12h-6.9
		l-1.1-7.6h18.1v24.3c-2.6,1.5-5.3,2.8-8.3,3.7c-2.9,0.9-5.9,1.3-9,1.3c-7.2,0-12.7-2.2-16.5-6.6c-3.8-4.3-5.6-10.8-5.6-19.3
		c0-5.4,1-9.9,3-13.8c2-3.9,4.7-6.8,8.3-8.8c3.5-1.9,7.3-3,11.7-3C713.1,543.7,716,544.2,718.6,545.3z"/>
	<path class="st6" d="M764,586.8c0.4,0.6,1.2,1.2,2.2,1.5L764,595c-2.3-0.2-4-0.8-5.4-1.5c-1.4-0.9-2.5-2.2-3.2-4
		c-2.5,3.8-6.3,5.7-11.3,5.7c-3.8,0-6.7-1.1-9-3.2c-2.2-2.2-3.3-5-3.3-8.4c0-4.1,1.5-7.2,4.4-9.5c3-2.2,7.2-3.2,12.8-3.2h4.3V569
		c0-2.4-0.5-3.9-1.5-4.9c-1.1-0.9-2.8-1.4-5.2-1.4c-2.7,0-5.9,0.6-9.9,1.9l-2.3-6.8c4.6-1.8,9.4-2.8,13.9-2.8
		c5.1,0,8.8,1.1,11.3,3.3c2.5,2.3,3.7,5.5,3.7,9.8v15.2C763.4,585.1,763.6,586.2,764,586.8z M753.5,583.7v-7.2h-3.3
		c-5.5,0-8.2,2-8.2,6.1c0,1.6,0.4,2.9,1.3,3.9c0.9,1,2,1.4,3.6,1.4C749.7,587.9,751.8,586.5,753.5,583.7z"/>
	<path class="st6" d="M798.9,559.8l-3.9,5.7c-3.1-1.9-6.3-3-9.4-3c-1.6,0-2.9,0.3-3.9,1c-0.9,0.6-1.4,1.4-1.4,2.5
		c0,0.8,0.2,1.4,0.6,1.9c0.4,0.5,1.2,1,2.3,1.5c1.1,0.4,2.8,1.1,5,1.7c4,1.1,6.9,2.6,8.8,4.4c1.9,1.8,2.9,4.3,2.9,7.4
		c0,2.5-0.8,4.6-2.2,6.6c-1.4,1.8-3.5,3.2-5.8,4.2c-2.5,1-5.2,1.5-8.2,1.5c-3.1,0-6-0.5-8.6-1.5c-2.6-1-4.9-2.3-6.7-4l5-5.5
		c3.1,2.5,6.6,3.7,10.1,3.7c1.9,0,3.5-0.3,4.5-1.1s1.6-1.7,1.6-3c0-1-0.2-1.7-0.6-2.4c-0.4-0.5-1.2-1.1-2.4-1.6
		c-1.2-0.5-2.9-1.1-5.3-1.7c-3.8-1.1-6.6-2.5-8.4-4.4c-1.8-1.9-2.7-4.3-2.7-7.1c0-2.2,0.6-4.1,1.8-5.7c1.2-1.7,3-3,5.2-4
		c2.3-1,4.9-1.5,7.9-1.5C790.6,555.2,795.1,556.7,798.9,559.8z"/>
	<path class="st6" d="M816.9,540.2v53.8h-10.1v-52.6L816.9,540.2z M839.8,556.4l-12,16.5l13.1,21.1h-11.4l-12.2-20.6l12.1-17H839.8z
		"/>
	<path class="st6" d="M876.1,578.3h-23.5c0.3,3.5,1.3,5.8,2.8,7.2c1.5,1.4,3.6,2.2,6.1,2.2c1.6,0,3.1-0.2,4.5-0.8
		c1.4-0.5,2.9-1.4,4.6-2.5l4.2,5.7c-4.2,3.5-9,5.1-14.2,5.1c-5.9,0-10.5-1.7-13.6-5.3c-3.1-3.6-4.7-8.4-4.7-14.5
		c0-3.9,0.6-7.3,2-10.4c1.4-3,3.3-5.5,5.9-7.2c2.6-1.7,5.6-2.6,9.2-2.6c5.4,0,9.5,1.7,12.5,5.1c3,3.3,4.4,8.1,4.4,14
		C876.3,574.9,876.2,576.2,876.1,578.3z M866.3,571.5c0-6.3-2.3-9.4-6.8-9.4c-2,0-3.7,0.8-4.9,2.3c-1.2,1.5-1.8,4-2,7.6h13.7V571.5z
		"/>
	<path class="st6" d="M906.1,592.2c-1.4,1-2.9,1.6-4.6,2.2s-3.5,0.8-5.2,0.8c-3.9,0-6.8-1.2-8.8-3.3c-1.9-2.2-3-5.4-3-9.6v-18.8
		h-5.6v-7.1h5.6v-8.2l10.1-1.2v9.5h8.6l-1,7.1h-7.7v18.6c0,1.8,0.3,3.1,1,3.9c0.6,0.8,1.5,1.2,2.8,1.2c1.3,0,2.7-0.4,4.3-1.3
		L906.1,592.2z"/>
	<path class="st6" d="M975.9,594.1h-10.2l-1.1-20c-0.3-5.9-0.5-11-0.5-15.2c0-2.3,0-3.9,0.1-4.9l-8.3,34.7h-9.9l-8.8-34.8
		c0.2,2.9,0.3,6.1,0.3,9.7c0,3.9-0.1,7.3-0.3,10.6L936,594h-10.1l3.9-49.2H943l8.1,33.9l7.6-33.9h13.5L975.9,594.1z"/>
	<path class="st6" d="M1013.1,586.8c0.4,0.6,1.2,1.2,2.2,1.5l-2.2,6.7c-2.3-0.2-4-0.8-5.4-1.5c-1.4-0.9-2.5-2.2-3.2-4
		c-2.5,3.8-6.3,5.7-11.3,5.7c-3.8,0-6.7-1.1-9-3.2c-2.3-2.2-3.3-5-3.3-8.4c0-4.1,1.5-7.2,4.5-9.5c3-2.2,7.2-3.2,12.8-3.2h4.3V569
		c0-2.4-0.5-3.9-1.5-4.9c-1.1-0.9-2.8-1.4-5.2-1.4c-2.7,0-5.9,0.6-9.9,1.9l-2.3-6.8c4.6-1.8,9.4-2.8,13.9-2.8
		c5.1,0,8.8,1.1,11.3,3.3c2.4,2.2,3.7,5.5,3.7,9.8v15.2C1012.5,585.1,1012.7,586.2,1013.1,586.8z M1002.5,583.7v-7.2h-3.3
		c-5.5,0-8.2,2-8.2,6.1c0,1.6,0.4,2.9,1.3,3.9c0.9,1,2,1.4,3.6,1.4C998.8,587.9,1000.9,586.5,1002.5,583.7z"/>
	<path class="st6" d="M1051.3,558.3c1.8,2,2.8,4.7,2.8,8.3V594H1044v-25.7c0-2-0.3-3.5-1.1-4.3c-0.6-0.9-1.7-1.3-3.1-1.3
		c-1.4,0-2.7,0.4-3.9,1.3c-1.2,0.9-2.3,2.2-3.3,4v26h-10.1v-37.6h8.7l0.8,4.7c1.5-1.9,3.2-3.5,5.2-4.4c1.8-1,4-1.5,6.4-1.5
		C1046.9,555.2,1049.5,556.3,1051.3,558.3z"/>
	<path class="st6" d="M1094.6,594.1h-8.7l-0.5-5.1c-1.3,2-2.9,3.7-4.9,4.6c-1.9,1-4.1,1.5-6.6,1.5c-3.5,0-6-1.1-7.8-3.1
		c-1.8-2-2.7-5-2.7-8.6v-27.1h10.1v25.8c0,1.9,0.3,3.5,1,4.2c0.6,0.8,1.7,1.3,3.1,1.3c2.7,0,5-1.6,6.9-4.9v-26.3h10.1v37.6H1094.6z"
		/>
	<path class="st6" d="M1116.9,549c-0.8,0.8-1.1,2.2-1.1,3.9v3.5h9l-1.2,7.1h-7.8V594h-10.1v-30.5h-5.9v-7.1h5.9v-3.8
		c0-3.7,1.2-6.6,3.6-9c2.4-2.3,5.8-3.5,10.2-3.5c3.5,0,6.8,0.8,9.9,2.3l-2.8,6.7c-2-1-4.1-1.4-6.1-1.4
		C1118.9,547.8,1117.7,548.2,1116.9,549z"/>
	<path class="st6" d="M1157.2,586.8c0.4,0.6,1.2,1.2,2.2,1.5l-2.2,6.7c-2.3-0.2-4-0.8-5.4-1.5c-1.4-0.9-2.5-2.2-3.2-4
		c-2.5,3.8-6.3,5.7-11.3,5.7c-3.8,0-6.7-1.1-9-3.2c-2.3-2.2-3.3-5-3.3-8.4c0-4.1,1.5-7.2,4.5-9.5c3-2.2,7.2-3.2,12.8-3.2h4.3V569
		c0-2.4-0.5-3.9-1.5-4.9c-1.1-0.9-2.8-1.4-5.2-1.4c-2.7,0-5.9,0.6-9.9,1.9l-2.3-6.8c4.6-1.8,9.4-2.8,13.9-2.8
		c5.1,0,8.8,1.1,11.3,3.3c2.4,2.2,3.7,5.5,3.7,9.8v15.2C1156.6,585.1,1156.8,586.2,1157.2,586.8z M1146.7,583.7v-7.2h-3.3
		c-5.5,0-8.2,2-8.2,6.1c0,1.6,0.4,2.9,1.3,3.9c0.9,1,2,1.4,3.6,1.4C1142.9,587.9,1145.1,586.5,1146.7,583.7z"/>
	<path class="st6" d="M1189.2,556.3c2,0.8,3.9,1.8,5.7,3.5l-4.4,5.9c-1.2-1-2.5-1.6-3.6-2c-1.1-0.4-2.5-0.6-3.8-0.6
		c-5.4,0-8,4.1-8,12.4c0,4.2,0.6,7.1,2,9c1.4,1.8,3.3,2.7,5.9,2.7c1.3,0,2.5-0.2,3.7-0.6c1.1-0.4,2.4-1.1,3.9-2l4.4,6.4
		c-3.6,2.9-7.8,4.4-12.4,4.4c-3.7,0-6.9-0.8-9.6-2.4c-2.7-1.6-4.9-3.9-6.3-6.9c-1.4-3-2.2-6.5-2.2-10.5c0-4,0.8-7.6,2.2-10.6
		c1.5-3,3.6-5.4,6.3-7.1c2.7-1.7,5.9-2.6,9.5-2.6C1184.9,555.2,1187.1,555.7,1189.2,556.3z"/>
	<path class="st6" d="M1223.2,592.2c-1.4,1-2.9,1.6-4.6,2.2c-1.7,0.5-3.5,0.8-5.2,0.8c-3.9,0-6.8-1.2-8.8-3.3c-1.9-2.2-3-5.4-3-9.6
		v-18.8h-5.6v-7.1h5.6v-8.2l10.1-1.2v9.5h8.6l-1,7.1h-7.7v18.6c0,1.8,0.3,3.1,1,3.9c0.6,0.8,1.5,1.2,2.8,1.2s2.7-0.4,4.3-1.3
		L1223.2,592.2z"/>
	<path class="st6" d="M1258.4,594.1h-8.7l-0.5-5.1c-1.3,2-2.9,3.7-4.9,4.6c-1.9,1-4.1,1.5-6.6,1.5c-3.5,0-6-1.1-7.8-3.1
		c-1.8-2-2.7-5-2.7-8.6v-27.1h10.1v25.8c0,1.9,0.3,3.5,1,4.2c0.6,0.8,1.7,1.3,3.1,1.3c2.7,0,5-1.6,6.9-4.9v-26.3h10.1v37.6H1258.4z"
		/>
	<path class="st6" d="M1291.7,555.9l-1.7,9.7c-1.3-0.3-2.5-0.5-3.3-0.5c-2.3,0-4,0.8-5.2,2.4c-1.2,1.5-2.2,3.9-2.9,7.1V594h-10.1
		v-37.6h8.7l1,7.3c0.9-2.7,2.3-4.7,4-6.1c1.7-1.5,3.7-2.2,5.8-2.2C1289.1,555.3,1290.3,555.6,1291.7,555.9z"/>
	<path class="st6" d="M1326.1,578.3h-23.5c0.3,3.5,1.3,5.8,2.8,7.2c1.5,1.4,3.6,2.2,6.1,2.2c1.6,0,3.1-0.2,4.5-0.8
		c1.4-0.5,2.9-1.4,4.6-2.5l4.2,5.7c-4.2,3.5-9,5.1-14.2,5.1c-5.9,0-10.5-1.7-13.6-5.3c-3.1-3.6-4.7-8.4-4.7-14.5
		c0-3.9,0.6-7.3,2-10.4c1.4-3,3.3-5.5,5.9-7.2c2.6-1.7,5.6-2.6,9.2-2.6c5.4,0,9.5,1.7,12.5,5.1c3,3.3,4.4,8.1,4.4,14
		C1326.3,574.9,1326.3,576.2,1326.1,578.3z M1316.2,571.5c0-6.3-2.3-9.4-6.8-9.4c-2,0-3.7,0.8-4.9,2.3c-1.2,1.5-1.8,4-2,7.6h13.7
		L1316.2,571.5L1316.2,571.5z"/>
	<path class="st6" d="M1356.9,555.9l-1.7,9.7c-1.3-0.3-2.5-0.5-3.3-0.5c-2.3,0-4,0.8-5.2,2.4c-1.2,1.5-2.2,3.9-2.9,7.1V594h-10.1
		v-37.6h8.7l1,7.3c0.9-2.7,2.3-4.7,4-6.1c1.7-1.5,3.7-2.2,5.8-2.2C1354.2,555.3,1355.5,555.6,1356.9,555.9z"/>
</g>
<g>
	<path class="st4" d="M1251.7,301.4c3.2,0,5.8-2.6,5.8-5.8V282c0-3.2-2.6-5.8-5.8-5.8c-3.2,0-5.8,2.6-5.8,5.8v13.6
		C1245.8,298.8,1248.4,301.4,1251.7,301.4z"/>
	<path class="st5" d="M1249.7,309h3.9v6h-3.9V309z"/>
	<path class="st7" d="M1241.9,295.6h-3.9c0,3.7,1.5,7.1,4,9.6l2.7-2.7C1243,300.7,1241.9,298.2,1241.9,295.6z"/>
	<path class="st2" d="M1251.7,305.3c-2.7,0-5.1-1.1-6.9-2.9l-2.7,2.7c2.5,2.6,6,4,9.6,4c7.5,0,13.5-6.1,13.5-13.6h-3.9
		C1261.3,300.9,1257,305.3,1251.7,305.3z"/>
</g>
<g>
	<g>
		<path class="st8" d="M380.1,159.7c-3.1-1.7-5.5-4-1.9-6.5c2.3-1.6,6.9-2.1,8-4.9c1.5-3.7-2.3-7.5-5.1-9.3
			c-4.9-3.3-10.8-5.5-14.2-10.6c-1.7-2.5-0.5-4.7,0.6-7.2c1-2.4,1.4-4,1.1-6.5c-0.3-2.8-1.6-5.4-3.5-7.6c-1.4-1.5-3.1-2.5-4.3-4.2
			l-28.2,11.2c-2.6,7.4-3.9,14.9-6.1,22.5c-1,3.5-1.9,7-4.1,9.9c-2.1,2.8-7.2,5.5-6.3,9.8c0.7,2.9,5.2,3.9,7.4,5.6
			c4,3,1.2,6.2-1.5,9c-2.3,2.4-6.6,4.5-7.8,7.6c-1.3,3.6,0.1,8.5,2.4,11.4c2.8,3.3,6.4,4.1,4.4,9.2c-1.3,3.5-4.3,5.8-5.9,9
			c1.2-0.2,2.4-0.8,3.6-1.2c6.8-2.4,13.2-7,20.2-8.6c8.4-2,16.6-1.2,25,0.5c3.4,0.7,6.3,2.2,9.6,3.2c1.4,0.5,7.3,2.5,8.6,1.2
			c1.2-1.2-3.4-5.2-4.1-6.2c-1.7-2.5-1.6-4.5-0.8-7.3c1.8-6.9,10-8.5,13.1-14.8C394.3,167.5,385.3,162.5,380.1,159.7z"/>
	</g>
	<path class="st9" d="M364.2,149.5c0,0,11.1-3.7,20.5,11.1c4.4,7,9.1,13.8,14.5,20.1l6.9,8.2c3.5,4.1,1.4,10.5-3.9,11.7l0,0
		l-33.3-26.3L364.2,149.5z"/>
	<path class="st9" d="M338.3,150.1c0,0-11.1-3.7-20.5,11.1c-4.4,7-9.1,13.8-14.5,20.1l-6.9,8.2c-3.5,4.1-1.4,10.5,3.9,11.7l0,0
		l33.3-26.3L338.3,150.1z"/>
	<polygon class="st10" points="321.4,228.3 303.6,228.3 332.1,253.1 359.5,255.1 396.3,227.4 375.3,226.7 	"/>
	<polygon class="st10" points="321.4,228.3 303.6,228.3 332.1,253.1 359.5,255.1 396.3,227.4 375.3,226.7 	"/>
	<path class="st11" d="M360.6,148.5l7.8,16.5c-1.9,5-32.4,6.9-34.7,2.1l6-18l1.9-0.2c2.4-0.5,3.5-1.5,4.1-3.9l0,0
		c0.3-2.3,0.1-4.1-0.6-5.5l10.6-2.5l0.4,4.3c0.1,1.5,0.2,3.1,0.3,4.6l0,0c0,1.1,0.9,2.1,2,2.2L360.6,148.5z"/>
	<g>
		<path class="st10" d="M408.5,242.7c-1.1,4.9-5,8.5-9.7,9.5c-0.4,0.1-0.8,0.2-1.2,0.2c-16,4.4-33.7,7.5-52.7,9.6
			c-5.3,0.6-10.7,1.1-16.2,1.5l-9.3,8.7c-0.1,0.1-0.2,0.2-0.3,0.2c-4.2,3.3-10.3-0.5-9.3-5.8l0.5-3.1c0,0,0,0,0-0.1
			c1.1-3.1,3.9-5.2,7-5.8l9.7-1.8c3.6-1.1,7.2-2.3,10.7-3.4c20.7-6.8,39.1-14,53.2-23.9c2.5-1.2,5.3-1.6,8.2-0.9
			C405.8,229.2,410,236,408.5,242.7z"/>
		<path class="st8" d="M344.9,262.1c-5.3,0.6-10.7,1.1-16.2,1.5l-9.3,8.7c-0.1,0.1-0.2,0.2-0.3,0.2c-4.2,3.3-10.3-0.5-9.3-5.8
			l0.5-3.1c0,0,0,0,0-0.1c1.1-3.1,3.9-5.2,7-5.8l9.7-1.8c3.6-1.1,7.2-2.3,10.7-3.4L344.9,262.1z"/>
		<path class="st10" d="M378.4,271.6c-0.1-0.1-0.2-0.2-0.3-0.2l-9.5-8.8c-5.6-0.6-11.1-1.2-16.5-1.8c-19.9-2.4-38.1-5.2-51.6-9.2
			c-0.4-0.1-0.8-0.1-1.2-0.2c-4.6-1-8.5-4.6-9.7-9.5c-1.5-6.8,2.7-13.5,9.5-15.1c2.9-0.6,5.7-0.3,8.2,0.9
			c14.3,9.2,31.2,16.7,49.8,23c4.8,1.6,9.7,3.2,14.7,4.6v0.1l8.3,1.5c3.2,0.6,5.9,2.7,7,5.8c0,0,0,0,0,0.1l0.5,3.1
			C388.6,271.1,382.6,275,378.4,271.6z"/>
		<path class="st8" d="M378.4,271.6c-0.1-0.1-0.2-0.2-0.3-0.2l-9.5-8.8c-5.6-0.6-11.1-1.2-16.5-1.8c1.5-3.1,3.5-7.2,5-10.1
			c4.8,1.6,9.7,3.2,14.7,4.6v0.1l8.3,1.5c3.2,0.6,5.9,2.7,7,5.8c0,0,0,0,0,0.1l0.5,3.1C388.6,271.1,382.6,275,378.4,271.6z"/>
	</g>
	<path class="st9" d="M375.3,226.7c-15.2,16.6-33.4,15.9-53.9,1.6l13.4-21.6c1-2.3,1.5-4.8,1.3-7.4c-0.1-1.8-0.5-3.5-1.2-5.3
		l-0.5-1.3l-3.5-8.4c-1.1-2.7-1.7-5.6-1.7-8.5c0-2.5,0.4-4.9,1.2-7.3c1.2-3.6,1.7-7.4,1.3-11.2L331,150c2.3-0.7,5.4-0.9,8.7-1
		l-5,14.6c2.3,4.9,30.1,5,32.1,0l-6.2-15.3c2.8-0.2,5.4-0.1,7.6,0.6c2.3,3.6,1,12.6,4,18.7c3,6.2,0.9,14.3-2.3,20.6l-3.4,6.6
		l-2.8,5.4c-0.4,1.1-0.5,2.4-0.5,3.8c0,0.7,0,1.3,0.1,2c0.1,1.2,0.5,2.3,1.1,3.3L375.3,226.7z"/>
	<path class="st12" d="M369.5,117.5c-0.7-0.1-1.5,0.2-2.3,0.7c-1.1-4.8-3.6-10-6.7-13.5c-1.3-1.8-2.8-2.9-4.5-3.6
		c-0.9-0.4-1.8-0.7-2.7-0.8c-0.6-0.1-1.2-0.1-1.8-0.1c-0.6,0-1.2,0-1.8,0.1c-0.9,0.1-1.8,0.4-2.7,0.8c-1.6,0.7-3.2,1.8-4.5,3.6
		c-3.1,3.5-5.7,8.7-6.7,13.5c-0.8-0.5-1.6-0.7-2.3-0.7c-2.4,0.2-3.2,4-2.5,6.9c0.8,3.7,3.6,4.8,6.2,5.5c1.2,2.4,2.8,4.8,4.7,6.8
		c2,2.4,4.6,4.1,7.5,4.8c0.1,0,0.2,0,0.3,0.1c0.2,0,0.3,0.1,0.5,0.1c0.1,0,0.2,0,0.4,0c0.1,0,0.2,0,0.3,0c0.2,0,0.5,0,0.7,0
		s0.5,0,0.7,0c0.1,0,0.2,0,0.3,0c0.1,0,0.2,0,0.4,0c0.2,0,0.3-0.1,0.5-0.1c0.1,0,0.2,0,0.3-0.1c3-0.7,5.5-2.5,7.5-4.8
		c1.9-2,3.6-4.4,4.7-6.8c2.6-0.7,5.3-1.9,6.2-5.5C372.7,121.5,371.9,117.7,369.5,117.5z"/>
	<path class="st12" d="M349.3,226.5c0,0-5.9-10.1-7-11.1l-1.3-1.2c-1.4-1.3-3.4-1.7-5.2-1.1l-6.7,2.3c-1,0.4-2.2,0.1-2.9-0.8
		l-0.2-0.3l-3.3-3.9c0,0-16.1-26.7-25-22.2c-4.7,3.6-4.4,10.8,0.5,14l19,12.5l5.1,3.4l3.3,2.2c0.7,0.4,1.5,0.7,2.3,0.7l8.4,0.2
		C334.9,224.3,346.9,230.5,349.3,226.5z"/>
	<path class="st12" d="M352.7,225.3c0,0,5.9-10.1,7-11.1l1.3-1.2c1.4-1.3,3.4-1.7,5.2-1.1l6.7,2.3c1,0.4,2.2,0.1,2.9-0.8l0.2-0.3
		l3.3-3.9c0,0,16.1-26.7,25-22.2c4.7,3.6,4.4,10.8-0.5,14l-19,12.5l-5.1,3.4l-3.3,2.2c-0.7,0.4-1.5,0.7-2.3,0.7l-8.4,0.2
		C367.1,223,355.2,229.2,352.7,225.3z"/>
	<g>
		<g>
			<path class="st8" d="M353.1,134.3c1.8-0.6,3.7-1.9,4.5-4.8c0.1-0.2-0.1-0.5-0.3-0.6s-0.5,0.1-0.6,0.3c-1.5,5.3-6.9,4.5-7.1,4.5
				s-0.5,0.1-0.5,0.4c0,0.2,0.1,0.5,0.4,0.5C349.5,134.7,351.2,134.9,353.1,134.3z"/>
		</g>
		<g>
			<path class="st8" d="M359,123.3c-0.1,0.9-0.8,1.5-1.6,1.4c-0.9-0.1-1.5-0.8-1.4-1.7s0.8-1.5,1.6-1.4S359,122.5,359,123.3z"/>
		</g>
		<g>
			<path class="st8" d="M346.4,123.3c-0.1,0.9-0.8,1.5-1.6,1.4c-0.9-0.1-1.5-0.8-1.4-1.7s0.8-1.5,1.6-1.4
				C345.9,121.7,346.5,122.5,346.4,123.3z"/>
		</g>
		<g>
			<path class="st8" d="M360.9,119.4L360.9,119.4c0.3-0.1,0.4-0.4,0.3-0.6c-1.2-2.8-3.7-2.7-4.9-2.2c-0.2,0.1-0.4,0.4-0.3,0.6
				c0.1,0.2,0.3,0.4,0.6,0.3c0.1,0,2.5-0.9,3.7,1.7C360.4,119.4,360.6,119.5,360.9,119.4z"/>
		</g>
		<g>
			<path class="st8" d="M347.1,117.7C347.1,117.6,347.1,117.6,347.1,117.7c0.1-0.3,0.1-0.5-0.2-0.7c-2.7-1.4-4.5,0.3-5.2,1.4
				c-0.1,0.2-0.1,0.5,0.2,0.6c0.2,0.1,0.5,0.1,0.6-0.2c0-0.1,1.4-2.3,4-1C346.7,117.9,347,117.9,347.1,117.7z"/>
		</g>
		<g>
			<path class="st8" d="M349.9,129.7c0.2,0,0.4-0.2,0.4-0.4s-0.2-0.4-0.4-0.4c0,0-0.9,0-1.1-0.5c-0.1-0.2-0.2-0.9,1-2.4
				c0.2-0.2,0.1-0.5-0.1-0.6c-0.2-0.2-0.5-0.1-0.6,0.1c-1.1,1.4-1.5,2.5-1.1,3.3C348.5,129.7,349.8,129.7,349.9,129.7L349.9,129.7z"
				/>
		</g>
	</g>
	<g>
		
			<linearGradient id="SVGID_1_" gradientUnits="userSpaceOnUse" x1="350.2003" y1="1336.1306" x2="350.2003" y2="1359.7859" gradientTransform="matrix(1 0 0 -1 0 1551.2836)">
			<stop  offset="0" style="stop-color:#CCCCCC"/>
			<stop  offset="1" style="stop-color:#FFFFFF"/>
		</linearGradient>
		<path class="st13" d="M380.1,199.3h-59.9c-1.9,0-3.4,1.7-3.1,3.6l4.6,31c-1.1,0.3-2,1.3-2,2.5l0,0c0,1.4,1.2,2.6,2.6,2.6h55.3
			c1.4,0,2.6-1.2,2.6-2.6l0,0c0-1.4-1.1-2.5-2.5-2.6l5.5-30.9C383.5,201.1,382.1,199.3,380.1,199.3z"/>
		<path class="st0" d="M353.9,216.3c1.5,1.5,1.5,3.9,0,5.3c-1.5,1.5-3.9,1.5-5.3,0c-1.5-1.5-1.5-3.9,0-5.3
			C350.1,214.8,352.5,214.8,353.9,216.3z"/>
	</g>
	<g>
		<path class="st8" d="M368.5,116.9c-0.2-2.9-1.3-6.1-2.7-8.6c-0.9-1.7-2.5-2.8-3.7-4.3c-0.9-1.2-1.5-2.4-2.5-3.5
			c-4.2-4.3-11.1-2.9-15.9-0.4c-5.2,2.7-10.1,8.3-11.3,14.1c-1.4,6.5,3.8,10.9,7.3,15.6c-1.5-4.3-1.2-8.7,0.3-13.1
			c1.4-4.2,5.1-5.6,8.8-7.4c0.1,1.7-1.9,5.6-2.9,7c2,1.1,5.6-1.6,7.6-2.8c2.4-1.4,2.9-3.5,2.9-3.5c11.5,14.5,9.5,19.9,9.5,19.9
			S368.7,120.3,368.5,116.9z"/>
	</g>
	<g>
		<path class="st8" d="M359.7,142.4c-2.2,1.1-3.5,4.6-3.7,6.9c-0.3,3.1,0.5,5.2,2.6,7.4c2.2,2.3,5.1,5.1,6.4,8.1
			c1.5,3.7,1,6.8-1,10.1c-0.9,1.5-1.8,2.6-3.3,3.6c-0.9,0.6-2.3,1.1-3,1.9c1.5,0.5,4.2-0.6,5.7-1c2.1-0.6,4.4-1.3,6-2.8
			c2.5-2.3,3.8-5.4,3.8-8.8c0-3-0.9-4.9-2.7-7.2c-2.2-2.8-4.6-6.2-4.5-10c0.1-1.8,1-3.3,1.4-5c0.3-1.2,0.2-2.2,0.2-3.4"/>
	</g>
	<g>
		<path class="st8" d="M343.3,142.4c2.2,1.1,3.5,4.6,3.7,6.9c0.3,3.1-0.5,5.2-2.6,7.4c-2.2,2.3-5.1,5.1-6.4,8.1
			c-1.5,3.7-1,6.8,1,10.1c0.9,1.5,1.8,2.6,3.3,3.6c0.9,0.6,2.3,1.1,2.9,1.9c-1.5,0.5-4.2-0.6-5.7-1c-2.1-0.6-4.4-1.3-6-2.8
			c-2.5-2.3-3.8-5.4-3.8-8.8c0-3,0.9-4.9,2.7-7.2c2.2-2.8,4.6-6.2,4.5-10c-0.1-1.8-1-3.3-1.4-5c-0.3-1.2-0.2-2.2-0.2-3.4"/>
	</g>
</g>
<g>
	<path class="st14" d="M1249.4,238.2c1.8,4.3,6.4,6.4,13.4,6.5c1.8,0.1,3.6-0.1,5.4-0.3c4.9-0.6,9.6-2.3,13.8-4.8l28.6-16.4l3.1-1.8
		c2.5-1.4,5.2-2.1,8-2.1c3,0,5.9,0.8,8.5,2.5c5.7,3.6,8.6,10.3,7.2,16.9l-1.9,9.4v0.2l19.5,24.8c1.2-0.4,3-1,5.2-1.6l-24.1-60.1
		c-4.7-11.7-17.7-18.3-29.6-14.2l-17,6.4l0,0l-25.1,8.6c-8.4,2.9-14.7,10.2-15.8,19C1248.4,234,1248.6,236.3,1249.4,238.2z"/>
	<path class="st15" d="M1268.2,244.5l44.9-0.8l3.8,68.2c1.5,0.4,3.3,0.8,5.2,1.3l13.5-65.1l1.9-9.4c1.4-6.6-1.5-13.3-7.2-16.9
		c-2.6-1.6-5.6-2.5-8.5-2.5c-2.7,0-5.5,0.7-8,2.1l-3.1,1.8L1268.2,244.5L1268.2,244.5z"/>
	<path class="st16" d="M1249.4,238.2L1249.4,238.2c-0.8-1.9-1-4.3-0.7-7.1c1.1-8.8,7.4-16.1,15.8-19l11.8-4.1
		c-11.4-14.3-16-28.5-9-55.8l-9.5-5.4C1225.4,187.1,1228.8,215.5,1249.4,238.2z"/>
	<path class="st10" d="M1249.4,238.2L1249.4,238.2c-0.8-1.9-1-4.3-0.7-7.1c1.1-8.8,7.4-16.1,15.8-19l11.8-4.1
		c-11.4-14.3-16-28.5-9-55.8l-9.5-5.4C1225.4,187.1,1228.8,215.5,1249.4,238.2z"/>
	<path class="st10" d="M1249.4,238.2L1249.4,238.2c-0.8-1.9-1-4.3-0.7-7.1c1.1-8.8,7.4-16.1,15.8-19l11.8-4.1
		c-11.4-14.3-16-28.5-9-55.8l-9.5-5.4C1225.4,187.1,1228.8,215.5,1249.4,238.2z"/>
	<path class="st10" d="M1300.2,193.7c-0.2-0.4-1.8-6.1-1.8-6.1l-49.9,7.3l11.9-22.7c2.2-4.2,3.7-8.7,3.7-13.4
		c0-6.1-3.3-10.8-10.1-8.5c-6.3,2.2-11.2,7.1-14,13.1c-14.2,31.4-13.1,49.6,9.6,50c6.5,0.1,12.9-1.6,18.6-4.7L1300.2,193.7z"/>
	<path class="st17" d="M1298.4,187.5l1.8,6.1l14.7-6C1312.6,181.8,1306.7,181.8,1298.4,187.5z"/>
	
		<linearGradient id="SVGID_2_" gradientUnits="userSpaceOnUse" x1="818.7551" y1="1365.0408" x2="818.7551" y2="1411.9691" gradientTransform="matrix(-1 0 0 -1 2132.3259 1551.2836)">
		<stop  offset="0" style="stop-color:#CCCCCC"/>
		<stop  offset="1" style="stop-color:#FFFFFF"/>
	</linearGradient>
	<path class="st18" d="M1293.8,202.1L1293.8,202.1l34.8-13.5c0,0,5.4-39.6,5-39.6l0,0c-3,0-5.5,2.2-5.9,5.1l-4.8,30.3l-26.2,10.7
		C1294.1,196.2,1292.7,199.3,1293.8,202.1z"/>
	<path class="st19" d="M1257.8,146.9l5.6-8.9l8.6,3.7c-2.7,3.5-4.7,10.6-4.7,10.6L1257.8,146.9z"/>
	<g>
		<path d="M1334.1,327.5c2.3,0.8,4.6-1,1.3-3.6l-13.3-10.6v-0.1c-1.9-0.5-3.7-0.9-5.2-1.3v0.2C1310.8,319.2,1318,321.9,1334.1,327.5
			z"/>
		<path d="M1355.2,273.3c-1.1,9.3,6.3,7.5,22.9,3.3c2.3-0.6,3.3-3.4-0.9-3.7l-16.9-1.5l-0.1-0.1c-2.2,0.7-4,1.3-5.2,1.6
			L1355.2,273.3z"/>
	</g>
	<g>
		<path class="st12" d="M1286.9,131c-0.5,1.7-1.2,3.5-2,4.8c-0.4,0.7-0.6,1.5-0.3,2.2l1,3.7c0.1,0.4-0.1,0.8-0.4,1
			c-0.5,0.3-1.4,0.6-2.1,0.4c0,0-2.4,3.7-6.1,5.5c-1.2,0.6-2.5,0.6-3.7,0.3c-13.2-3.9-15.8-12.2-10.2-24.5c1.2-2.7,3.4-4.8,6.2-5.9
			c4.3-1.8,12.1-3.8,16.5,2.6C1287.6,124,1287.9,127.7,1286.9,131z"/>
		<g>
			<path class="st8" d="M1279.9,133.9c0.1,0,0.2,0.1,0.3,0c1.9-0.9,2.8,0.7,2.8,0.8c0.1,0.2,0.3,0.2,0.4,0.1
				c0.2-0.1,0.2-0.3,0.1-0.4c-0.4-0.8-1.7-2-3.7-1.1c-0.2,0.1-0.2,0.3-0.2,0.4C1279.8,133.8,1279.9,133.9,1279.9,133.9z"/>
		</g>
		<g>
			<path class="st8" d="M1280.4,143.7c0-0.1-0.1-0.2-0.2-0.2c-1.9-0.8-1.3-2.6-1.3-2.7c0.1-0.2,0-0.4-0.2-0.4
				c-0.2-0.1-0.4,0-0.4,0.2c-0.3,0.8-0.3,2.6,1.7,3.5c0.2,0.1,0.4,0,0.4-0.2C1280.4,143.8,1280.4,143.8,1280.4,143.7z"/>
		</g>
		<path class="st8" d="M1281.9,137.3c-0.2,0.5-0.7,0.9-1.2,0.7c-0.5-0.1-0.8-0.7-0.6-1.2c0.2-0.5,0.7-0.9,1.2-0.7
			C1281.7,136.2,1282,136.8,1281.9,137.3z"/>
		<g>
			<path class="st8" d="M1253.4,128.6c0.6-1,1.8-1.4,2.6-2.2c-2.6,0-3.3-3-2.8-5.1c0.4-1.9,1.7-3.5,3.2-4.8c1.4-1.2,2.8-1.5,4.5-1.8
				c-0.8-1.8-1.2-2.8,1.1-3.8c2.9-1.3,5.3-1.3,8.3-0.9c-1-2.3,2.8-1.8,4.1-1.4c1.4,0.4,2.7,1.2,3.8,2.2c0.6,0.6,1,1.5,1.8,1.8
				c0.9-1.8,4-0.1,4.8,0.9c0.5,0.6,1.2,1.8,1.9,2c0.7,0.2,1.5-0.2,2.3,0.2c1.6,0.7,2.5,1.8,2.2,3.6c-0.1,0.3-0.2,0.6-0.3,0.8
				c3.3,0.1,4.6,6.3,1.2,6.7c-0.2,0-0.5,0-0.7,0c-0.1,2.5-1.2,3.7-2.4,4.1c-2.1,0.8-4.2-0.8-4.3-3c0-0.2,0-0.3-0.1-0.5
				c-2,1.3-4.3,2-6.1,3.5c-1.4,1.2-2.3,2.9-3.4,4.4c-0.9-1.7-0.3-3.7-2.6-4.6c-1.6-0.6-3.6-0.3-4.8,0.9c-2.4,2.5-1.9,8.5,2.3,8.6
				c-3.2,1.3-6,0.9-8,0.2c-0.9,0-1.8,0-2.5-0.3c-1.6-0.5-3.2-2.6-2.1-4.3l0,0c-1.8,0.3-3.5-1.7-3.8-3.2
				C1253,131.6,1252.7,129.7,1253.4,128.6z"/>
		</g>
	</g>
</g>
<g>
	<path class="st6" d="M348.2,288.8l-4.1,18.9h-5.7l-2.9-14.8l-2.9,14.8H327l-4.2-18.9h4.6l2.6,15.5l3.3-15.5h4.7l3,15.5l2.8-15.5
		H348.2z"/>
	<path class="st6" d="M366.8,299.7h-11.9c0.1,1.8,0.6,3.1,1.4,3.9s1.9,1.2,3.2,1.2c0.8,0,1.6-0.1,2.4-0.4c0.7-0.3,1.5-0.7,2.4-1.3
		l1.9,2.6c-2.1,1.7-4.4,2.5-7,2.5c-2.9,0-5.1-0.9-6.7-2.6c-1.6-1.8-2.3-4.2-2.3-7.2c0-1.9,0.3-3.7,1-5.2s1.6-2.7,2.9-3.6
		c1.3-0.9,2.8-1.3,4.5-1.3c2.6,0,4.7,0.8,6.1,2.5c1.5,1.7,2.2,4,2.2,7C366.9,298,366.8,298.7,366.8,299.7z M362.3,296.5
		c0-3.3-1.2-5-3.7-5c-1.1,0-2,0.4-2.6,1.2c-0.6,0.8-1,2.1-1.1,3.9h7.4V296.5z"/>
	<path class="st6" d="M390.7,306.8c-0.7,0.5-1.4,0.8-2.2,1.1s-1.7,0.4-2.5,0.4c-1.9,0-3.3-0.6-4.2-1.6c-1-1-1.4-2.6-1.4-4.6v-10h-3
		v-3.3h3v-4.2l4.6-0.5v4.7h4.4l-0.5,3.3H385v9.9c0,0.9,0.2,1.6,0.5,2s0.8,0.6,1.5,0.6s1.4-0.2,2.3-0.7L390.7,306.8z"/>
	<path class="st6" d="M407.3,304.3c0.2,0.3,0.6,0.6,1.1,0.8l-1,3c-1.1-0.1-1.9-0.4-2.6-0.8c-0.7-0.4-1.2-1.1-1.6-2
		c-0.6,1-1.4,1.7-2.4,2.1c-1,0.5-2,0.7-3.2,0.7c-1.9,0-3.4-0.5-4.5-1.6s-1.6-2.5-1.6-4.2c0-2,0.7-3.6,2.2-4.7s3.6-1.6,6.4-1.6h2.4
		v-1.1c0-1.2-0.3-2.1-0.8-2.6c-0.6-0.5-1.5-0.7-2.7-0.7c-1.4,0-3.1,0.3-5,1l-1.1-3.1c2.4-0.9,4.6-1.4,6.9-1.4c4.8,0,7.3,2.2,7.3,6.5
		v7.9C406.9,303.4,407.1,304,407.3,304.3z M402.4,302.6v-3.8h-1.9c-3,0-4.4,1.1-4.4,3.3c0,0.9,0.2,1.6,0.7,2.1s1.1,0.8,2,0.8
		C400.3,304.9,401.6,304.1,402.4,302.6z"/>
	<path class="st6" d="M423.4,288.8c1,0.4,1.9,0.9,2.8,1.7l-2,2.8c-0.6-0.5-1.3-0.8-1.9-1c-0.6-0.2-1.3-0.3-2-0.3
		c-2.8,0-4.3,2.2-4.3,6.5c0,2.2,0.4,3.8,1.1,4.7c0.7,1,1.8,1.4,3.1,1.4c0.7,0,1.3-0.1,1.8-0.3c0.6-0.2,1.2-0.6,2-1l2,2.9
		c-1.8,1.5-3.8,2.2-6.1,2.2c-1.8,0-3.4-0.4-4.7-1.2c-1.3-0.8-2.4-1.9-3.1-3.4s-1.1-3.2-1.1-5.2s0.4-3.8,1.1-5.3
		c0.7-1.5,1.7-2.7,3.1-3.6c1.3-0.8,2.9-1.3,4.7-1.3C421.3,288.3,422.4,288.4,423.4,288.8z"/>
	<path class="st6" d="M434.1,280.7v27h-4.6v-26.5L434.1,280.7z M445.5,288.8l-6.3,8.3l6.9,10.6h-5.3l-6.5-10.3l6.3-8.6H445.5z"/>
	<path class="st6" d="M449.7,307c-0.8-0.8-1.2-2-1.2-3.6v-22.2l4.6-0.5v22.5c0,0.9,0.4,1.3,1.1,1.3c0.4,0,0.7-0.1,1.1-0.2l1,3.2
		c-1,0.4-2,0.6-3,0.6C451.7,308.2,450.5,307.8,449.7,307z"/>
	<path class="st6" d="M474.4,299.7h-11.9c0.1,1.8,0.6,3.1,1.4,3.9c0.8,0.8,1.9,1.2,3.2,1.2c0.8,0,1.6-0.1,2.4-0.4
		c0.7-0.3,1.5-0.7,2.4-1.3l1.9,2.6c-2.1,1.7-4.4,2.5-7,2.5c-2.9,0-5.1-0.9-6.7-2.6c-1.6-1.8-2.3-4.2-2.3-7.2c0-1.9,0.3-3.7,1-5.2
		s1.6-2.7,2.9-3.6c1.3-0.9,2.8-1.3,4.5-1.3c2.6,0,4.7,0.8,6.1,2.5c1.5,1.7,2.2,4,2.2,7C474.5,298,474.5,298.7,474.4,299.7z
		 M470,296.5c0-3.3-1.2-5-3.7-5c-1.1,0-2,0.4-2.6,1.2c-0.6,0.8-1,2.1-1.1,3.9h7.4L470,296.5L470,296.5z"/>
	<path class="st6" d="M498.4,306.8c-0.7,0.5-1.4,0.8-2.2,1.1s-1.7,0.4-2.5,0.4c-1.9,0-3.3-0.6-4.2-1.6c-1-1-1.4-2.6-1.4-4.6v-10h-3
		v-3.3h3v-4.2l4.6-0.5v4.7h4.4l-0.5,3.3h-3.9v9.9c0,0.9,0.2,1.6,0.5,2s0.8,0.6,1.5,0.6s1.4-0.2,2.3-0.7L498.4,306.8z"/>
	<path class="st6" d="M515,289.8c1,1,1.4,2.4,1.4,4.2v13.7h-4.6v-13c0-1.1-0.2-1.9-0.6-2.4c-0.4-0.5-1-0.7-1.7-0.7s-1.5,0.2-2.1,0.7
		s-1.3,1.2-1.9,2.1v13.2h-4.6v-26.5l4.6-0.5v10.3c1.5-1.9,3.4-2.8,5.5-2.8C512.7,288.3,514,288.8,515,289.8z"/>
	<path class="st6" d="M537.2,299.7h-11.9c0.1,1.8,0.6,3.1,1.4,3.9c0.8,0.8,1.9,1.2,3.2,1.2c0.8,0,1.6-0.1,2.4-0.4
		c0.7-0.3,1.5-0.7,2.4-1.3l1.9,2.6c-2.1,1.7-4.4,2.5-7,2.5c-2.9,0-5.1-0.9-6.7-2.6c-1.6-1.8-2.3-4.2-2.3-7.2c0-1.9,0.3-3.7,1-5.2
		s1.6-2.7,2.9-3.6c1.3-0.9,2.8-1.3,4.5-1.3c2.6,0,4.7,0.8,6.1,2.5c1.5,1.7,2.2,4,2.2,7C537.3,298,537.2,298.7,537.2,299.7z
		 M532.7,296.5c0-3.3-1.2-5-3.7-5c-1.1,0-2,0.4-2.6,1.2c-0.6,0.8-1,2.1-1.1,3.9h7.4L532.7,296.5L532.7,296.5z"/>
	<path class="st6" d="M574,289.8c0.9,1,1.4,2.4,1.4,4.2v13.7h-4.6v-13c0-2-0.7-3-2.1-3c-0.7,0-1.4,0.2-1.9,0.7s-1.1,1.2-1.7,2.2
		v13.2h-4.6v-13c0-2-0.7-3-2.1-3c-0.8,0-1.4,0.2-1.9,0.7s-1.1,1.2-1.7,2.2v13.2h-4.6V289h4l0.4,2.5c1.4-2,3.3-3,5.5-3
		c1.1,0,2,0.3,2.8,0.8c0.8,0.6,1.4,1.3,1.7,2.3c0.8-1,1.6-1.8,2.5-2.4c0.9-0.5,2-0.8,3.2-0.8C571.9,288.3,573.1,288.8,574,289.8z"/>
	<path class="st6" d="M594.9,290.9c1.6,1.8,2.3,4.2,2.3,7.3c0,2-0.4,3.7-1.1,5.2c-0.7,1.5-1.7,2.7-3.1,3.5c-1.3,0.8-2.9,1.3-4.8,1.3
		c-2.8,0-5-0.9-6.5-2.7c-1.6-1.8-2.4-4.2-2.4-7.3c0-2,0.4-3.7,1.1-5.2c0.7-1.5,1.7-2.7,3.1-3.5c1.3-0.8,2.9-1.3,4.8-1.3
		C591.2,288.3,593.4,289.1,594.9,290.9z M584.3,298.2c0,2.2,0.3,3.9,1,5s1.7,1.6,3.1,1.6c1.4,0,2.4-0.5,3.1-1.6c0.7-1.1,1-2.7,1-4.9
		s-0.3-3.9-1-4.9c-0.7-1.1-1.7-1.6-3-1.6C585.7,291.7,584.3,293.9,584.3,298.2z"/>
	<path class="st6" d="M614.3,290.5l-1.8,2.7c-1.6-1-3.2-1.5-4.8-1.5c-0.9,0-1.6,0.2-2.1,0.5s-0.8,0.8-0.8,1.4c0,0.4,0.1,0.8,0.3,1.1
		c0.2,0.3,0.6,0.6,1.2,0.8c0.6,0.3,1.4,0.5,2.5,0.8c2,0.5,3.6,1.3,4.6,2.2c1,0.9,1.5,2.2,1.5,3.8c0,1.9-0.8,3.4-2.3,4.4
		c-1.5,1.1-3.4,1.6-5.7,1.6c-1.5,0-3-0.2-4.2-0.7s-2.4-1.1-3.3-2l2.3-2.6c1.6,1.2,3.4,1.9,5.1,1.9c1,0,1.8-0.2,2.4-0.6
		c0.6-0.4,0.9-1,0.9-1.7c0-0.5-0.1-1-0.3-1.3s-0.6-0.6-1.2-0.9c-0.6-0.3-1.5-0.6-2.7-0.9c-1.9-0.5-3.3-1.3-4.3-2.2
		c-0.9-0.9-1.4-2.1-1.4-3.5c0-1,0.3-2,0.9-2.8c0.6-0.8,1.5-1.5,2.6-2s2.4-0.7,3.8-0.7C610.1,288.3,612.3,289,614.3,290.5z"/>
	<path class="st6" d="M629.4,306.8c-0.7,0.5-1.4,0.8-2.2,1.1s-1.7,0.4-2.5,0.4c-1.9,0-3.3-0.6-4.2-1.6c-1-1-1.4-2.6-1.4-4.6v-10h-3
		v-3.3h3v-4.2l4.6-0.5v4.7h4.4l-0.5,3.3h-3.9v9.9c0,0.9,0.2,1.6,0.5,2s0.8,0.6,1.5,0.6s1.4-0.2,2.3-0.7L629.4,306.8z"/>
	<path class="st6" d="M651.9,288.8c1,0.4,1.9,0.9,2.8,1.7l-2,2.8c-0.6-0.5-1.3-0.8-1.9-1c-0.6-0.2-1.3-0.3-2-0.3
		c-2.8,0-4.3,2.2-4.3,6.5c0,2.2,0.4,3.8,1.1,4.7c0.7,1,1.8,1.4,3.1,1.4c0.7,0,1.3-0.1,1.8-0.3c0.6-0.2,1.2-0.6,2-1l2,2.9
		c-1.8,1.5-3.8,2.2-6.1,2.2c-1.8,0-3.4-0.4-4.7-1.2c-1.3-0.8-2.4-1.9-3.1-3.4s-1.1-3.2-1.1-5.2s0.4-3.8,1.1-5.3
		c0.7-1.5,1.7-2.7,3.1-3.6c1.3-0.8,2.9-1.3,4.7-1.3C649.8,288.3,650.9,288.4,651.9,288.8z"/>
	<path class="st6" d="M671.5,290.9c1.6,1.8,2.3,4.2,2.3,7.3c0,2-0.4,3.7-1.1,5.2c-0.7,1.5-1.7,2.7-3.1,3.5c-1.3,0.8-2.9,1.3-4.8,1.3
		c-2.8,0-5-0.9-6.5-2.7c-1.6-1.8-2.4-4.2-2.4-7.3c0-2,0.4-3.7,1.1-5.2c0.7-1.5,1.7-2.7,3.1-3.5c1.3-0.8,2.9-1.3,4.8-1.3
		C667.8,288.3,670,289.1,671.5,290.9z M660.9,298.2c0,2.2,0.3,3.9,1,5s1.7,1.6,3.1,1.6c1.4,0,2.4-0.5,3.1-1.6c0.7-1.1,1-2.7,1-4.9
		s-0.3-3.9-1-4.9c-0.7-1.1-1.7-1.6-3-1.6C662.3,291.7,660.9,293.9,660.9,298.2z"/>
	<path class="st6" d="M701.9,289.8c0.9,1,1.4,2.4,1.4,4.2v13.7h-4.6v-13c0-2-0.7-3-2.1-3c-0.7,0-1.4,0.2-1.9,0.7s-1.1,1.2-1.7,2.2
		v13.2h-4.6v-13c0-2-0.7-3-2.1-3c-0.8,0-1.4,0.2-1.9,0.7s-1.1,1.2-1.7,2.2v13.2h-4.6V289h4l0.4,2.5c1.4-2,3.3-3,5.5-3
		c1.1,0,2,0.3,2.8,0.8c0.8,0.6,1.4,1.3,1.7,2.3c0.8-1,1.6-1.8,2.5-2.4c0.9-0.5,2-0.8,3.2-0.8C699.7,288.3,701,288.8,701.9,289.8z"/>
	<path class="st6" d="M723.6,290.9c1.1,1.7,1.7,4.2,1.7,7.3c0,2-0.3,3.7-0.9,5.2c-0.6,1.5-1.4,2.7-2.6,3.6s-2.5,1.3-4,1.3
		c-2,0-3.6-0.7-4.8-2.1v8.8l-4.6,0.5v-26.7h4l0.3,2.3c0.7-1,1.6-1.7,2.5-2.1c1-0.5,2-0.7,3-0.7C720.7,288.3,722.5,289.1,723.6,290.9
		z M720.6,298.2c0-2.3-0.3-4-0.9-5c-0.6-1-1.5-1.5-2.7-1.5c-0.8,0-1.5,0.2-2.1,0.7c-0.7,0.5-1.2,1.1-1.7,1.9v8.5c0.9,1.3,2,2,3.5,2
		C719.2,304.7,720.6,302.6,720.6,298.2z"/>
	<path class="st6" d="M745.3,299.7h-11.9c0.1,1.8,0.6,3.1,1.4,3.9c0.8,0.8,1.9,1.2,3.2,1.2c0.8,0,1.6-0.1,2.4-0.4
		c0.7-0.3,1.5-0.7,2.4-1.3l1.9,2.6c-2.1,1.7-4.4,2.5-7,2.5c-2.9,0-5.1-0.9-6.7-2.6c-1.6-1.8-2.3-4.2-2.3-7.2c0-1.9,0.3-3.7,1-5.2
		s1.6-2.7,2.9-3.6c1.3-0.9,2.8-1.3,4.5-1.3c2.6,0,4.7,0.8,6.1,2.5c1.5,1.7,2.2,4,2.2,7C745.4,298,745.3,298.7,745.3,299.7z
		 M740.8,296.5c0-3.3-1.2-5-3.7-5c-1.1,0-2,0.4-2.6,1.2c-0.6,0.8-1,2.1-1.1,3.9h7.4L740.8,296.5L740.8,296.5z"/>
	<path class="st6" d="M760.3,306.8c-0.7,0.5-1.4,0.8-2.2,1.1s-1.7,0.4-2.5,0.4c-1.9,0-3.3-0.6-4.2-1.6c-1-1-1.4-2.6-1.4-4.6v-10h-3
		v-3.3h3v-4.2l4.6-0.5v4.7h4.4l-0.5,3.3h-3.9v9.9c0,0.9,0.2,1.6,0.5,2s0.8,0.6,1.5,0.6s1.4-0.2,2.3-0.7L760.3,306.8z"/>
	<path class="st6" d="M767.2,280c0.5,0.5,0.8,1.2,0.8,2s-0.3,1.4-0.8,2c-0.5,0.5-1.2,0.8-2.1,0.8c-0.8,0-1.5-0.3-2.1-0.8
		c-0.5-0.5-0.8-1.2-0.8-2s0.3-1.4,0.8-2s1.2-0.8,2.1-0.8C766,279.2,766.7,279.5,767.2,280z M767.5,288.8v18.9h-4.6v-18.9H767.5z"/>
	<path class="st6" d="M783.8,306.8c-0.7,0.5-1.4,0.8-2.2,1.1s-1.7,0.4-2.5,0.4c-1.9,0-3.3-0.6-4.2-1.6c-1-1-1.4-2.6-1.4-4.6v-10h-3
		v-3.3h3v-4.2l4.6-0.5v4.7h4.4l-0.5,3.3h-3.9v9.9c0,0.9,0.2,1.6,0.5,2s0.8,0.6,1.5,0.6s1.4-0.2,2.3-0.7L783.8,306.8z"/>
	<path class="st6" d="M790.7,280c0.5,0.5,0.8,1.2,0.8,2s-0.3,1.4-0.8,2c-0.5,0.5-1.2,0.8-2.1,0.8c-0.8,0-1.5-0.3-2.1-0.8
		c-0.5-0.5-0.8-1.2-0.8-2s0.3-1.4,0.8-2s1.2-0.8,2.1-0.8C789.5,279.2,790.2,279.5,790.7,280z M790.9,288.8v18.9h-4.6v-18.9H790.9z"
		/>
	<path class="st6" d="M811.6,288.8l-6.1,18.9H800l-6.3-18.9h5l4,15.2l4.1-15.2H811.6z"/>
	<path class="st6" d="M829.6,299.7h-11.9c0.1,1.8,0.6,3.1,1.4,3.9c0.8,0.8,1.9,1.2,3.2,1.2c0.8,0,1.6-0.1,2.4-0.4
		c0.7-0.3,1.5-0.7,2.4-1.3l1.9,2.6c-2.1,1.7-4.4,2.5-7,2.5c-2.9,0-5.1-0.9-6.7-2.6c-1.6-1.8-2.3-4.2-2.3-7.2c0-1.9,0.3-3.7,1-5.2
		s1.6-2.7,2.9-3.6c1.3-0.9,2.8-1.3,4.5-1.3c2.6,0,4.7,0.8,6.1,2.5c1.5,1.7,2.2,4,2.2,7C829.8,298,829.7,298.7,829.6,299.7z
		 M825.2,296.5c0-3.3-1.2-5-3.7-5c-1.1,0-2,0.4-2.6,1.2c-0.6,0.8-1,2.1-1.1,3.9h7.4L825.2,296.5L825.2,296.5z"/>
	<path class="st6" d="M847.4,280.7v27h-4.6v-26.5L847.4,280.7z M858.7,288.8l-6.3,8.3l6.9,10.6H854l-6.5-10.3l6.3-8.6H858.7z"/>
	<path class="st6" d="M876.9,299.7H865c0.1,1.8,0.6,3.1,1.4,3.9s1.9,1.2,3.2,1.2c0.8,0,1.6-0.1,2.4-0.4c0.7-0.3,1.5-0.7,2.4-1.3
		l1.9,2.6c-2.1,1.7-4.4,2.5-7,2.5c-2.9,0-5.1-0.9-6.7-2.6c-1.6-1.8-2.3-4.2-2.3-7.2c0-1.9,0.3-3.7,1-5.2s1.6-2.7,2.9-3.6
		c1.3-0.9,2.8-1.3,4.5-1.3c2.6,0,4.7,0.8,6.1,2.5c1.5,1.7,2.2,4,2.2,7C877,298,877,298.7,876.9,299.7z M872.5,296.5
		c0-3.3-1.2-5-3.7-5c-1.1,0-2,0.4-2.6,1.2c-0.6,0.8-1,2.1-1.1,3.9h7.4L872.5,296.5L872.5,296.5z"/>
	<path class="st6" d="M890.1,307.8c-0.8,2.3-1.9,4.2-3.5,5.5c-1.5,1.3-3.7,2.1-6.4,2.3l-0.5-3.3c1.2-0.2,2.2-0.5,3-0.8
		s1.4-0.8,1.8-1.4c0.5-0.6,0.9-1.3,1.3-2.3h-1.6l-6-18.9h4.9l4.1,15.9l4.3-15.9h4.7L890.1,307.8z"/>
	<path class="st6" d="M922.1,288.8l-4.1,18.9h-5.7l-2.9-14.8l-2.9,14.8h-5.6l-4.2-18.9h4.6l2.6,15.5l3.3-15.5h4.7l3,15.5l2.8-15.5
		H922.1z"/>
	<path class="st6" d="M939.5,290.9c1.6,1.8,2.3,4.2,2.3,7.3c0,2-0.4,3.7-1.1,5.2s-1.7,2.7-3.1,3.5c-1.3,0.8-2.9,1.3-4.8,1.3
		c-2.8,0-5-0.9-6.5-2.7c-1.6-1.8-2.4-4.2-2.4-7.3c0-2,0.4-3.7,1.1-5.2s1.7-2.7,3.1-3.5c1.3-0.8,2.9-1.3,4.8-1.3
		C935.7,288.3,937.9,289.1,939.5,290.9z M928.8,298.2c0,2.2,0.3,3.9,1,5s1.7,1.6,3.1,1.6s2.4-0.5,3.1-1.6s1-2.7,1-4.9
		s-0.3-3.9-1-4.9c-0.7-1.1-1.7-1.6-3-1.6C930.2,291.7,928.8,293.9,928.8,298.2z"/>
	<path class="st6" d="M957.3,288.5l-0.8,4.4c-0.6-0.1-1.1-0.2-1.7-0.2c-1.1,0-2,0.4-2.6,1.2c-0.6,0.8-1.2,2-1.5,3.7v10.1h-4.6v-18.9
		h4l0.4,3.7c0.5-1.4,1.1-2.4,2-3.1s1.8-1.1,3-1.1C956.1,288.3,956.8,288.4,957.3,288.5z"/>
	<path class="st6" d="M975,281.2v26.5h-4l-0.3-2.4c-0.6,0.9-1.4,1.6-2.3,2.1s-2,0.8-3.1,0.8c-2.3,0-4.1-0.9-5.3-2.7
		s-1.9-4.2-1.9-7.3c0-1.9,0.3-3.7,0.9-5.2s1.5-2.7,2.7-3.6s2.5-1.3,4-1.3c1.8,0,3.4,0.7,4.8,2v-9.6L975,281.2z M968.7,304.2
		c0.6-0.4,1.2-1,1.8-1.8v-8.6c-0.5-0.7-1.1-1.2-1.7-1.5s-1.2-0.5-1.9-0.5c-1.2,0-2.2,0.5-2.9,1.6c-0.7,1.1-1.1,2.7-1.1,4.9
		c0,2.3,0.3,4,0.9,5s1.5,1.5,2.7,1.5C967.4,304.8,968.1,304.6,968.7,304.2z"/>
	<path class="st6" d="M993.2,290.5l-1.8,2.7c-1.6-1-3.2-1.5-4.8-1.5c-0.9,0-1.6,0.2-2.1,0.5s-0.8,0.8-0.8,1.4c0,0.4,0.1,0.8,0.3,1.1
		c0.2,0.3,0.6,0.6,1.2,0.8c0.6,0.3,1.4,0.5,2.5,0.8c2,0.5,3.6,1.3,4.6,2.2c1,0.9,1.5,2.2,1.5,3.8c0,1.9-0.8,3.4-2.3,4.4
		c-1.5,1.1-3.4,1.6-5.7,1.6c-1.5,0-3-0.2-4.2-0.7c-1.3-0.5-2.4-1.1-3.3-2l2.3-2.6c1.6,1.2,3.4,1.9,5.1,1.9c1,0,1.8-0.2,2.4-0.6
		s0.9-1,0.9-1.7c0-0.5-0.1-1-0.3-1.3s-0.6-0.6-1.2-0.9s-1.5-0.6-2.7-0.9c-1.9-0.5-3.3-1.3-4.3-2.2c-0.9-0.9-1.4-2.1-1.4-3.5
		c0-1,0.3-2,0.9-2.8s1.5-1.5,2.6-2s2.4-0.7,3.8-0.7C989,288.3,991.3,289,993.2,290.5z"/>
</g>
<rect x="996.5" y="274.4" class="st6" width="2.5" height="41.9"/>
<g>
	<path class="st4" d="M409,645.1l-8.1,37.1h-11.2l-5.6-29.1l-5.7,29.1h-11l-8.2-37.1h9l5.2,30.5l6.5-30.5h9.2l5.9,30.5l5.5-30.5H409
		z"/>
	<path class="st4" d="M460.5,645.1l-8.1,37.1h-11.2l-5.6-29.1l-5.7,29.1h-11l-8.2-37.1h9l5.2,30.5l6.5-30.5h9.2l5.9,30.5l5.5-30.5
		H460.5z"/>
	<path class="st4" d="M512,645.1l-8.1,37.1h-11.2l-5.6-29.1l-5.7,29.1h-11l-8.2-37.1h9l5.2,30.5l6.5-30.5h9.2l5.9,30.5l5.5-30.5H512
		z"/>
	<path class="st4" d="M523.8,673.5c1.1,1.1,1.7,2.4,1.7,4c0,1.5-0.6,2.9-1.7,4s-2.5,1.7-4.1,1.7c-1.5,0-2.9-0.6-4-1.7
		c-1.1-1.1-1.6-2.5-1.6-4c0-1.6,0.5-2.9,1.6-4c1.1-1.1,2.4-1.6,4-1.6C521.3,671.9,522.6,672.4,523.8,673.5z"/>
	<path class="st4" d="M561.6,675.5c0.4,0.7,1.2,1.2,2.1,1.6l-1.9,6c-2.1-0.2-3.8-0.7-5.2-1.5c-1.3-0.8-2.3-2.1-3-3.9
		c-1.3,1.9-2.8,3.3-4.7,4.2c-1.9,0.9-4,1.4-6.3,1.4c-3.7,0-6.6-1.1-8.8-3.2c-2.2-2.1-3.2-4.9-3.2-8.3c0-4,1.5-7.1,4.4-9.2
		c2.9-2.1,7.1-3.2,12.5-3.2h4.6v-2.1c0-2.4-0.6-4.1-1.6-5c-1.1-1-2.9-1.4-5.3-1.4c-2.7,0-6,0.7-9.8,2l-2.1-6.1
		c4.6-1.8,9.1-2.7,13.5-2.7c9.5,0,14.2,4.3,14.2,12.8v15.6C561,673.8,561.2,674.9,561.6,675.5z M552.1,672.1v-7.5h-3.7
		c-5.8,0-8.7,2.2-8.7,6.5c0,1.8,0.4,3.2,1.3,4.1c0.9,1,2.2,1.5,3.9,1.5C548,676.7,550.4,675.2,552.1,672.1z"/>
	<path class="st4" d="M596,648.4l-3.5,5.3c-3.2-2-6.3-3-9.3-3c-1.8,0-3.2,0.3-4.1,1c-1,0.7-1.5,1.6-1.5,2.7c0,0.8,0.2,1.5,0.6,2.1
		c0.4,0.6,1.2,1.1,2.3,1.6c1.1,0.5,2.7,1,4.9,1.6c4,1.1,7,2.5,8.9,4.3c1.9,1.8,2.9,4.3,2.9,7.4c0,3.7-1.5,6.6-4.5,8.7
		c-3,2.1-6.7,3.1-11.1,3.1c-3,0-5.8-0.5-8.3-1.4c-2.5-0.9-4.7-2.2-6.5-3.9l4.5-5c3.2,2.4,6.6,3.6,10.1,3.6c2,0,3.6-0.4,4.8-1.2
		c1.2-0.8,1.8-1.9,1.8-3.3c0-1.1-0.2-1.9-0.7-2.6c-0.4-0.6-1.2-1.2-2.4-1.7c-1.1-0.5-2.9-1.1-5.4-1.8c-3.8-1-6.6-2.5-8.3-4.3
		c-1.8-1.8-2.7-4.1-2.7-6.9c0-2.1,0.6-3.9,1.8-5.5c1.2-1.6,2.9-2.9,5-3.9c2.2-0.9,4.7-1.4,7.5-1.4C587.9,644,592.3,645.5,596,648.4z
		"/>
	<path class="st4" d="M613,627.9c1.1,1.1,1.6,2.3,1.6,3.9c0,1.5-0.5,2.8-1.6,3.9c-1.1,1-2.4,1.5-4.1,1.5c-1.6,0-3-0.5-4-1.5
		c-1.1-1-1.6-2.3-1.6-3.9c0-1.5,0.5-2.8,1.6-3.9c1.1-1.1,2.4-1.6,4-1.6C610.6,626.3,612,626.8,613,627.9z M613.5,645.1v37.1h-9
		v-37.1H613.5z"/>
	<path class="st4" d="M652.4,675.5c0.4,0.7,1.2,1.2,2.1,1.6l-1.9,6c-2.1-0.2-3.8-0.7-5.2-1.5c-1.3-0.8-2.3-2.1-3-3.9
		c-1.3,1.9-2.8,3.3-4.7,4.2c-1.9,0.9-4,1.4-6.3,1.4c-3.7,0-6.6-1.1-8.8-3.2c-2.2-2.1-3.2-4.9-3.2-8.3c0-4,1.5-7.1,4.4-9.2
		c2.9-2.1,7.1-3.2,12.5-3.2h4.6v-2.1c0-2.4-0.6-4.1-1.6-5c-1.1-1-2.9-1.4-5.3-1.4c-2.7,0-6,0.7-9.8,2l-2.1-6.1
		c4.6-1.8,9.1-2.7,13.5-2.7c9.5,0,14.2,4.3,14.2,12.8v15.6C651.7,673.8,651.9,674.9,652.4,675.5z M642.9,672.1v-7.5h-3.7
		c-5.8,0-8.7,2.2-8.7,6.5c0,1.8,0.4,3.2,1.3,4.1c0.9,1,2.2,1.5,3.9,1.5C638.8,676.7,641.2,675.2,642.9,672.1z"/>
	<path class="st4" d="M690.1,647c1.8,2,2.8,4.8,2.8,8.3v26.9h-9v-25.5c0-2.2-0.4-3.7-1.2-4.6c-0.8-0.9-1.9-1.3-3.4-1.3
		c-1.5,0-2.9,0.5-4.2,1.4c-1.2,1-2.4,2.3-3.6,4.2v25.8h-9v-37.1h7.8l0.7,4.8c3-3.9,6.8-5.9,11.3-5.9C685.7,644,688.3,645,690.1,647z
		"/>
	<path class="st4" d="M728.2,648.4l-3.5,5.3c-3.2-2-6.3-3-9.3-3c-1.8,0-3.2,0.3-4.1,1c-1,0.7-1.5,1.6-1.5,2.7c0,0.8,0.2,1.5,0.6,2.1
		c0.4,0.6,1.2,1.1,2.3,1.6c1.1,0.5,2.7,1,4.9,1.6c4,1.1,7,2.5,8.9,4.3c1.9,1.8,2.9,4.3,2.9,7.4c0,3.7-1.5,6.6-4.5,8.7
		c-3,2.1-6.7,3.1-11.1,3.1c-3,0-5.8-0.5-8.3-1.4c-2.5-0.9-4.7-2.2-6.5-3.9l4.5-5c3.2,2.4,6.6,3.6,10.1,3.6c2,0,3.6-0.4,4.8-1.2
		c1.2-0.8,1.8-1.9,1.8-3.3c0-1.1-0.2-1.9-0.7-2.6c-0.4-0.6-1.2-1.2-2.4-1.7c-1.1-0.5-2.9-1.1-5.4-1.8c-3.8-1-6.6-2.5-8.3-4.3
		c-1.8-1.8-2.7-4.1-2.7-6.9c0-2.1,0.6-3.9,1.8-5.5c1.2-1.6,2.9-2.9,5-3.9c2.2-0.9,4.7-1.4,7.5-1.4C720,644,724.4,645.5,728.2,648.4z
		"/>
	<path class="st4" d="M766.9,666.4h-23.3c0.3,3.6,1.2,6.2,2.8,7.7c1.6,1.5,3.7,2.3,6.3,2.3c1.6,0,3.2-0.3,4.6-0.8
		c1.4-0.5,3-1.4,4.6-2.5l3.7,5.1c-4.1,3.3-8.7,5-13.7,5c-5.7,0-10-1.7-13.1-5.2c-3.1-3.5-4.6-8.2-4.6-14.2c0-3.8,0.7-7.2,2-10.2
		c1.3-3,3.2-5.4,5.7-7.1c2.5-1.7,5.4-2.6,8.8-2.6c5.2,0,9.2,1.6,12.1,4.9c2.9,3.3,4.3,7.9,4.3,13.8
		C767.1,663.2,767.1,664.4,766.9,666.4z M758.2,660.1c0-6.5-2.4-9.7-7.2-9.7c-2.2,0-3.9,0.8-5.2,2.4c-1.2,1.6-2,4.2-2.2,7.7h14.6
		V660.1z"/>
	<path class="st4" d="M802.6,675.5c0.4,0.7,1.2,1.2,2.1,1.6l-1.9,6c-2.1-0.2-3.8-0.7-5.2-1.5c-1.3-0.8-2.3-2.1-3-3.9
		c-1.3,1.9-2.8,3.3-4.7,4.2c-1.9,0.9-4,1.4-6.3,1.4c-3.7,0-6.6-1.1-8.8-3.2c-2.2-2.1-3.2-4.9-3.2-8.3c0-4,1.5-7.1,4.4-9.2
		c2.9-2.1,7.1-3.2,12.5-3.2h4.6v-2.1c0-2.4-0.6-4.1-1.6-5c-1.1-1-2.9-1.4-5.3-1.4c-2.7,0-6,0.7-9.8,2l-2.1-6.1
		c4.6-1.8,9.1-2.7,13.5-2.7c9.5,0,14.2,4.3,14.2,12.8v15.6C801.9,673.8,802.1,674.9,802.6,675.5z M793.1,672.1v-7.5h-3.7
		c-5.8,0-8.7,2.2-8.7,6.5c0,1.8,0.4,3.2,1.3,4.1c0.9,1,2.2,1.5,3.9,1.5C789,676.7,791.3,675.2,793.1,672.1z"/>
	<path class="st4" d="M814.1,680.7c-1.6-1.7-2.4-4-2.4-7v-43.5l9-1v44.2c0,1.7,0.7,2.6,2.1,2.6c0.7,0,1.4-0.1,2.1-0.4l1.9,6.3
		c-1.9,0.8-3.9,1.3-6,1.3C818,683.2,815.8,682.4,814.1,680.7z"/>
	<path class="st4" d="M841.3,627.9c1.1,1.1,1.6,2.3,1.6,3.9c0,1.5-0.5,2.8-1.6,3.9c-1.1,1-2.4,1.5-4.1,1.5c-1.6,0-3-0.5-4-1.5
		c-1.1-1-1.6-2.3-1.6-3.9c0-1.5,0.5-2.8,1.6-3.9c1.1-1.1,2.4-1.6,4-1.6C838.9,626.3,840.2,626.8,841.3,627.9z M841.7,645.1v37.1h-9
		v-37.1H841.7z"/>
	<path class="st4" d="M880.1,647c1.8,2,2.8,4.8,2.8,8.3v26.9h-9v-25.5c0-2.2-0.4-3.7-1.2-4.6c-0.8-0.9-1.9-1.3-3.4-1.3
		c-1.5,0-2.9,0.5-4.2,1.4c-1.2,1-2.4,2.3-3.6,4.2v25.8h-9v-37.1h7.8l0.7,4.8c3-3.9,6.8-5.9,11.3-5.9C875.6,644,878.2,645,880.1,647z
		"/>
	<path class="st4" d="M925.5,647c-2.4,0.8-6,1.3-10.7,1.3c2.3,1,4,2.3,5.1,3.8c1.1,1.5,1.6,3.4,1.6,5.7c0,2.4-0.6,4.6-1.8,6.5
		c-1.2,1.9-2.9,3.3-5.2,4.4c-2.3,1.1-4.9,1.6-8,1.6c-1.7,0-3.2-0.2-4.4-0.6c-1,0.7-1.5,1.6-1.5,2.7c0,1.7,1.5,2.6,4.5,2.6h5.7
		c2.7,0,5.1,0.4,7.1,1.3c2,0.9,3.6,2.1,4.7,3.8s1.7,3.4,1.7,5.4c0,3.7-1.6,6.6-4.8,8.7c-3.2,2.1-7.8,3.1-13.7,3.1
		c-4.3,0-7.7-0.4-10.1-1.3c-2.5-0.9-4.2-2.2-5.2-3.9c-1-1.7-1.5-3.8-1.5-6.5h8.1c0,1.3,0.2,2.3,0.7,3.1c0.5,0.7,1.4,1.3,2.7,1.7
		c1.3,0.4,3.1,0.6,5.6,0.6c3.4,0,5.8-0.4,7.2-1.3c1.4-0.8,2.1-2.1,2.1-3.6c0-1.4-0.5-2.5-1.6-3.3c-1.1-0.8-2.6-1.2-4.7-1.2h-5.6
		c-3.5,0-6.1-0.7-7.9-2c-1.8-1.4-2.7-3.1-2.7-5.1c0-1.3,0.4-2.6,1.2-3.8c0.8-1.2,1.8-2.2,3.2-3.1c-2.2-1.2-3.9-2.6-4.9-4.3
		c-1.1-1.7-1.6-3.8-1.6-6.1c0-2.7,0.7-5,2-7c1.3-2,3.1-3.6,5.4-4.7c2.3-1.1,5-1.6,8-1.6c3.9,0.1,7.1-0.2,9.5-0.9
		c2.4-0.7,5-1.8,7.8-3.3L925.5,647z M901.4,652c-1.1,1.3-1.7,3-1.7,5.2c0,2.2,0.6,4,1.8,5.3c1.2,1.3,2.8,2,4.8,2
		c2.1,0,3.8-0.6,4.9-1.9c1.1-1.3,1.7-3.1,1.7-5.4c0-4.7-2.2-7-6.7-7C904.1,650.1,902.5,650.8,901.4,652z"/>
	<path class="st4" d="M937.9,673.5c1.1,1.1,1.7,2.4,1.7,4c0,1.5-0.6,2.9-1.7,4c-1.1,1.1-2.5,1.7-4.1,1.7c-1.5,0-2.9-0.6-4-1.7
		c-1.1-1.1-1.6-2.5-1.6-4c0-1.6,0.5-2.9,1.6-4c1.1-1.1,2.4-1.6,4-1.6C935.5,671.9,936.8,672.4,937.9,673.5z"/>
	<path class="st4" d="M956.3,627.9c1.1,1.1,1.6,2.3,1.6,3.9c0,1.5-0.5,2.8-1.6,3.9c-1.1,1-2.4,1.5-4.1,1.5c-1.6,0-3-0.5-4-1.5
		c-1.1-1-1.6-2.3-1.6-3.9c0-1.5,0.5-2.8,1.6-3.9c1.1-1.1,2.4-1.6,4-1.6C953.9,626.3,955.2,626.8,956.3,627.9z M956.7,645.1v37.1h-9
		v-37.1H956.7z"/>
	<path class="st4" d="M995,647c1.8,2,2.8,4.8,2.8,8.3v26.9h-9v-25.5c0-2.2-0.4-3.7-1.2-4.6c-0.8-0.9-1.9-1.3-3.4-1.3
		c-1.5,0-2.9,0.5-4.2,1.4c-1.2,1-2.4,2.3-3.6,4.2v25.8h-9v-37.1h7.8l0.7,4.8c3-3.9,6.8-5.9,11.3-5.9C990.6,644,993.2,645,995,647z"
		/>
</g>
<g>
	<g>
		<path class="st4" d="M409,1065.5l-8.1,37.1h-11.2l-5.6-29.1l-5.7,29.1h-11l-8.2-37.1h9l5.2,30.5l6.5-30.5h9.2l5.9,30.5l5.5-30.5
			H409z"/>
		<path class="st4" d="M460.5,1065.5l-8.1,37.1h-11.2l-5.6-29.1l-5.7,29.1h-11l-8.2-37.1h9l5.2,30.5l6.5-30.5h9.2l5.9,30.5l5.5-30.5
			H460.5z"/>
		<path class="st4" d="M512,1065.5l-8.1,37.1h-11.2l-5.6-29.1l-5.7,29.1h-11l-8.2-37.1h9l5.2,30.5l6.5-30.5h9.2l5.9,30.5l5.5-30.5
			H512z"/>
		<path class="st4" d="M523.8,1093.9c1.1,1.1,1.7,2.4,1.7,4c0,1.5-0.6,2.9-1.7,4s-2.5,1.7-4.1,1.7c-1.5,0-2.9-0.6-4-1.7
			c-1.1-1.1-1.6-2.5-1.6-4c0-1.6,0.5-2.9,1.6-4c1.1-1.1,2.4-1.6,4-1.6C521.3,1092.2,522.6,1092.8,523.8,1093.9z"/>
		<path class="st4" d="M554.4,1065.5c1.9,0.7,3.8,1.8,5.5,3.3l-4,5.4c-1.3-0.9-2.5-1.6-3.6-2c-1.2-0.4-2.5-0.6-3.9-0.6
			c-5.6,0-8.3,4.2-8.3,12.7c0,4.3,0.7,7.4,2.2,9.3c1.4,1.9,3.5,2.8,6.2,2.8c1.3,0,2.5-0.2,3.6-0.6c1.1-0.4,2.4-1.1,3.9-2l4,5.7
			c-3.5,2.9-7.5,4.3-12,4.3c-3.6,0-6.6-0.8-9.3-2.3c-2.6-1.6-4.6-3.8-6-6.7c-1.4-2.9-2.1-6.3-2.1-10.2c0-3.9,0.7-7.4,2.1-10.4
			s3.4-5.4,6-7c2.6-1.7,5.7-2.5,9.2-2.5C550.2,1064.4,552.4,1064.8,554.4,1065.5z"/>
		<path class="st4" d="M592.9,1069.6c3.1,3.5,4.6,8.3,4.6,14.3c0,3.9-0.7,7.3-2.1,10.3c-1.4,3-3.4,5.3-6,6.9
			c-2.6,1.6-5.7,2.5-9.3,2.5c-5.5,0-9.7-1.7-12.8-5.2c-3.1-3.5-4.6-8.3-4.6-14.4c0-3.9,0.7-7.3,2.1-10.2c1.4-2.9,3.4-5.2,6.1-6.9
			c2.6-1.6,5.8-2.5,9.4-2.5C585.6,1064.4,589.9,1066.1,592.9,1069.6z M572.1,1084c0,4.4,0.7,7.6,2,9.7c1.3,2.1,3.3,3.1,6,3.1
			c2.7,0,4.7-1.1,6-3.2c1.3-2.1,2-5.3,2-9.7c0-4.3-0.7-7.6-2-9.6c-1.3-2.1-3.3-3.1-5.9-3.1C574.8,1071.2,572.1,1075.5,572.1,1084z"
			/>
		<path class="st4" d="M630.8,1068.8l-3.5,5.3c-3.2-2-6.3-3-9.3-3c-1.8,0-3.2,0.3-4.1,1c-1,0.7-1.5,1.6-1.5,2.7
			c0,0.8,0.2,1.5,0.6,2.1c0.4,0.6,1.2,1.1,2.3,1.6c1.1,0.5,2.7,1,4.9,1.6c4,1.1,7,2.5,8.9,4.3c1.9,1.8,2.9,4.3,2.9,7.4
			c0,3.7-1.5,6.6-4.5,8.7c-3,2.1-6.7,3.1-11.1,3.1c-3,0-5.8-0.5-8.3-1.4c-2.5-0.9-4.7-2.2-6.5-3.9l4.5-5c3.2,2.4,6.6,3.6,10.1,3.6
			c2,0,3.6-0.4,4.8-1.2c1.2-0.8,1.8-1.9,1.8-3.3c0-1.1-0.2-1.9-0.7-2.6c-0.4-0.6-1.2-1.2-2.4-1.7c-1.1-0.5-2.9-1.1-5.4-1.8
			c-3.8-1-6.6-2.5-8.3-4.3c-1.8-1.8-2.7-4.1-2.7-6.9c0-2.1,0.6-3.9,1.8-5.5c1.2-1.6,2.9-2.9,5-3.9c2.2-0.9,4.7-1.4,7.5-1.4
			C622.6,1064.4,627,1065.9,630.8,1068.8z"/>
		<path class="st4" d="M685.8,1067.5c1.8,2,2.7,4.8,2.7,8.2v26.9h-9v-25.5c0-4-1.4-6-4.1-6c-1.4,0-2.7,0.5-3.8,1.4
			c-1.1,0.9-2.1,2.3-3.3,4.2v25.8h-9v-25.5c0-4-1.4-6-4.1-6c-1.5,0-2.8,0.5-3.8,1.4c-1.1,0.9-2.1,2.3-3.3,4.2v25.8h-9v-37.1h7.8
			l0.7,4.8c2.8-3.9,6.4-5.9,10.7-5.9c2.1,0,4,0.5,5.6,1.6c1.6,1.1,2.7,2.6,3.4,4.6c1.5-2,3.1-3.6,4.9-4.6c1.8-1.1,3.9-1.6,6.2-1.6
			C681.6,1064.4,684,1065.4,685.8,1067.5z"/>
		<path class="st4" d="M726.8,1069.6c3.1,3.5,4.6,8.3,4.6,14.3c0,3.9-0.7,7.3-2.1,10.3c-1.4,3-3.4,5.3-6,6.9
			c-2.6,1.6-5.7,2.5-9.3,2.5c-5.5,0-9.7-1.7-12.8-5.2c-3.1-3.5-4.6-8.3-4.6-14.4c0-3.9,0.7-7.3,2.1-10.2c1.4-2.9,3.4-5.2,6.1-6.9
			c2.6-1.6,5.8-2.5,9.4-2.5C719.5,1064.4,723.8,1066.1,726.8,1069.6z M706,1084c0,4.4,0.7,7.6,2,9.7c1.3,2.1,3.3,3.1,6,3.1
			c2.7,0,4.7-1.1,6-3.2c1.3-2.1,2-5.3,2-9.7c0-4.3-0.7-7.6-2-9.6c-1.3-2.1-3.3-3.1-5.9-3.1C708.7,1071.2,706,1075.5,706,1084z"/>
		<path class="st4" d="M776.9,1102.3c-2,0.8-4.1,1.3-6.4,1.3c-2.8,0-5-0.8-6.5-2.4c-1.5-1.6-2.2-4-2.2-7v-36.8c-2.2-0.7-4.4-1-6.7-1
			c-2.1,0-3.5,0.4-4.3,1.2c-0.8,0.8-1.2,2.1-1.2,3.9v4h7.9l-1,6.5h-6.9v30.6h-9v-30.6h-5.8v-6.5h5.8v-4.1c0-3.5,1.1-6.3,3.4-8.5
			c2.3-2.2,5.6-3.3,10-3.3c2.6,0,5.4,0.4,8.3,1.3l8.3-0.9v43.5c0,1,0.2,1.8,0.5,2.2c0.3,0.4,0.9,0.7,1.6,0.7c0.7,0,1.4-0.1,2.1-0.3
			L776.9,1102.3z"/>
		<path class="st4" d="M810.4,1069.6c3.1,3.5,4.6,8.3,4.6,14.3c0,3.9-0.7,7.3-2.1,10.3c-1.4,3-3.4,5.3-6,6.9
			c-2.6,1.6-5.7,2.5-9.3,2.5c-5.5,0-9.7-1.7-12.8-5.2c-3.1-3.5-4.6-8.3-4.6-14.4c0-3.9,0.7-7.3,2.1-10.2c1.4-2.9,3.4-5.2,6.1-6.9
			c2.6-1.6,5.8-2.5,9.4-2.5C803.1,1064.4,807.4,1066.1,810.4,1069.6z M789.6,1084c0,4.4,0.7,7.6,2,9.7c1.3,2.1,3.3,3.1,6,3.1
			c2.7,0,4.7-1.1,6-3.2c1.3-2.1,2-5.3,2-9.7c0-4.3-0.7-7.6-2-9.6c-1.3-2.1-3.3-3.1-5.9-3.1C792.3,1071.2,789.6,1075.5,789.6,1084z"
			/>
		<path class="st4" d="M851.4,1069.6c3.1,3.5,4.6,8.3,4.6,14.3c0,3.9-0.7,7.3-2.1,10.3c-1.4,3-3.4,5.3-6,6.9
			c-2.6,1.6-5.7,2.5-9.3,2.5c-5.5,0-9.7-1.7-12.8-5.2c-3.1-3.5-4.6-8.3-4.6-14.4c0-3.9,0.7-7.3,2.1-10.2c1.4-2.9,3.4-5.2,6.1-6.9
			c2.6-1.6,5.8-2.5,9.4-2.5C844.1,1064.4,848.3,1066.1,851.4,1069.6z M830.5,1084c0,4.4,0.7,7.6,2,9.7c1.3,2.1,3.3,3.1,6,3.1
			c2.7,0,4.7-1.1,6-3.2c1.3-2.1,2-5.3,2-9.7c0-4.3-0.7-7.6-2-9.6c-1.3-2.1-3.3-3.1-5.9-3.1C833.2,1071.2,830.5,1075.5,830.5,1084z"
			/>
		<path class="st4" d="M886.4,1065l-1.5,8.7c-1.1-0.3-2.2-0.4-3.3-0.4c-2.2,0-3.9,0.8-5.2,2.3c-1.3,1.6-2.3,4-3,7.2v19.8h-9v-37.1
			h7.8l0.8,7.3c0.9-2.7,2.2-4.7,3.9-6.1c1.7-1.4,3.6-2.1,5.8-2.1C884,1064.5,885.3,1064.6,886.4,1065z"/>
		<path class="st4" d="M893.4,1093.9c1.1,1.1,1.7,2.4,1.7,4c0,1.5-0.6,2.9-1.7,4s-2.5,1.7-4.1,1.7c-1.5,0-2.9-0.6-4-1.7
			c-1.1-1.1-1.6-2.5-1.6-4c0-1.6,0.5-2.9,1.6-4c1.1-1.1,2.4-1.6,4-1.6C890.9,1092.2,892.3,1092.8,893.4,1093.9z"/>
		<path class="st4" d="M924,1065.5c1.9,0.7,3.8,1.8,5.5,3.3l-4,5.4c-1.3-0.9-2.5-1.6-3.6-2c-1.2-0.4-2.5-0.6-3.9-0.6
			c-5.6,0-8.3,4.2-8.3,12.7c0,4.3,0.7,7.4,2.2,9.3c1.4,1.9,3.5,2.8,6.2,2.8c1.3,0,2.5-0.2,3.6-0.6c1.1-0.4,2.4-1.1,3.9-2l4,5.7
			c-3.5,2.9-7.5,4.3-12,4.3c-3.6,0-6.6-0.8-9.3-2.3c-2.6-1.6-4.6-3.8-6-6.7c-1.4-2.9-2.1-6.3-2.1-10.2c0-3.9,0.7-7.4,2.1-10.4
			s3.4-5.4,6-7c2.6-1.7,5.7-2.5,9.2-2.5C919.9,1064.4,922.1,1064.8,924,1065.5z"/>
		<path class="st4" d="M962.6,1069.6c3.1,3.5,4.6,8.3,4.6,14.3c0,3.9-0.7,7.3-2.1,10.3c-1.4,3-3.4,5.3-6,6.9
			c-2.6,1.6-5.7,2.5-9.3,2.5c-5.5,0-9.7-1.7-12.8-5.2c-3.1-3.5-4.6-8.3-4.6-14.4c0-3.9,0.7-7.3,2.1-10.2c1.4-2.9,3.4-5.2,6.1-6.9
			c2.6-1.6,5.8-2.5,9.4-2.5C955.3,1064.4,959.5,1066.1,962.6,1069.6z M941.7,1084c0,4.4,0.7,7.6,2,9.7c1.3,2.1,3.3,3.1,6,3.1
			c2.7,0,4.7-1.1,6-3.2c1.3-2.1,2-5.3,2-9.7c0-4.3-0.7-7.6-2-9.6c-1.3-2.1-3.3-3.1-5.9-3.1C944.4,1071.2,941.7,1075.5,941.7,1084z"
			/>
		<path class="st4" d="M1022.1,1067.5c1.8,2,2.7,4.8,2.7,8.2v26.9h-9v-25.5c0-4-1.4-6-4.1-6c-1.4,0-2.7,0.5-3.8,1.4
			c-1.1,0.9-2.1,2.3-3.3,4.2v25.8h-9v-25.5c0-4-1.4-6-4.1-6c-1.5,0-2.8,0.5-3.8,1.4c-1.1,0.9-2.1,2.3-3.3,4.2v25.8h-9v-37.1h7.8
			l0.7,4.8c2.8-3.9,6.4-5.9,10.7-5.9c2.1,0,4,0.5,5.6,1.6c1.6,1.1,2.7,2.6,3.4,4.6c1.5-2,3.1-3.6,4.9-4.6c1.8-1.1,3.9-1.6,6.2-1.6
			C1017.9,1064.4,1020.3,1065.4,1022.1,1067.5z"/>
	</g>
</g>
<rect x="166.8" y="709.9" class="st5" width="136.9" height="132.7"/>
<path class="st0" d="M242.9,766h-8.3l-3,22.8h7v11.1h-8.3l-2.3,17h-13.7l2.3-17h-13.2l-2.3,17h-13.7l2.3-17h-6.7v-11.1h8.1l3-22.8
	h-6.9v-11.1h8.3l2.1-15.8h13.7l-2.1,15.8h13.2l2.1-15.8h13.7l-2.1,15.8h6.7L242.9,766L242.9,766z M217.9,788.9l3-22.8h-13.2l-3,22.8
	H217.9z"/>
<path class="st0" d="M287.2,739.1v78H271v-61.9l-17,10.5l-7.2-11.1l26-15.6H287.2z"/>
<polyline class="st20" points="235.2,709.9 235.2,414.5 287.6,414.5 "/>
<polyline class="st20" points="235.2,838.2 235.2,1131.7 287.6,1131.7 "/>
<g>
	<path class="st6" d="M407.4,889.5c1.8,2,2.7,4.7,2.7,8.2V925H399v-25.3c0-3.3-1.1-5-3.2-5c-1.2,0-2.2,0.4-3.1,1.2
		c-0.9,0.8-1.8,2-2.6,3.6V925h-11.1v-25.3c0-3.3-1.1-5-3.2-5c-1.1,0-2.1,0.4-3.1,1.2c-0.9,0.8-1.8,2-2.6,3.6V925h-11.1v-37.2h9.7
		l0.8,4.3c1.4-1.9,3.1-3.3,4.8-4.2c1.8-0.9,3.8-1.4,6-1.4c2.1,0,3.9,0.5,5.4,1.5c1.5,1,2.6,2.5,3.3,4.3c1.5-2,3.1-3.5,4.9-4.5
		c1.8-1,3.9-1.4,6.2-1.4C403.3,886.5,405.6,887.5,407.4,889.5z"/>
	<path class="st6" d="M448.6,917.3c0.4,0.7,1,1.1,1.9,1.5l-2.3,7.2c-2.3-0.2-4.2-0.7-5.6-1.5c-1.4-0.8-2.6-2.1-3.4-3.9
		c-2.4,3.7-6.2,5.6-11.2,5.6c-3.7,0-6.6-1.1-8.8-3.2c-2.2-2.2-3.3-5-3.3-8.4c0-4.1,1.5-7.2,4.5-9.3c3-2.1,7.3-3.2,13-3.2h3.8v-1.6
		c0-2.2-0.5-3.7-1.4-4.5c-0.9-0.8-2.6-1.2-4.9-1.2c-1.2,0-2.7,0.2-4.4,0.5c-1.7,0.4-3.5,0.8-5.3,1.4l-2.5-7.3c2.3-0.9,4.7-1.6,7.2-2
		c2.5-0.5,4.7-0.7,6.8-0.7c5.3,0,9.2,1.1,11.7,3.3c2.5,2.2,3.7,5.5,3.7,9.9v14.4C448,915.6,448.2,916.6,448.6,917.3z M437.2,914.7
		v-6.6h-2.7c-2.5,0-4.4,0.4-5.6,1.3c-1.2,0.9-1.9,2.3-1.9,4.1c0,1.5,0.4,2.7,1.2,3.5c0.8,0.8,1.8,1.2,3.2,1.2
		C433.8,918.2,435.8,917,437.2,914.7z"/>
	<path class="st6" d="M480.8,887.2l-1.8,10.7c-1.4-0.3-2.5-0.5-3.4-0.5c-2.2,0-3.9,0.8-5,2.3c-1.1,1.5-2,3.8-2.7,6.8V925h-11.1
		v-37.2h9.7l0.9,7.2c0.8-2.6,2.1-4.6,3.8-6.1c1.7-1.5,3.6-2.2,5.8-2.2C478.4,886.7,479.6,886.9,480.8,887.2z"/>
	<path class="st6" d="M516.3,891.8c2.4,3.5,3.6,8.4,3.6,14.6c0,3.8-0.6,7.2-1.8,10.2c-1.2,3-2.9,5.3-5.1,7c-2.2,1.7-4.9,2.5-7.9,2.5
		c-2,0-3.8-0.4-5.5-1.3c-1.7-0.8-3.1-2-4.2-3.5l-0.6,3.6H485v-52l11.1-1.2v19.8c1.1-1.5,2.6-2.8,4.3-3.6c1.8-0.9,3.7-1.3,5.7-1.3
		C510.5,886.5,513.9,888.3,516.3,891.8z M508.4,906.4c0-4.4-0.5-7.5-1.5-9.2c-1-1.7-2.5-2.5-4.5-2.5c-2.5,0-4.6,1.4-6.3,4.3v15.5
		c0.7,1.1,1.6,2,2.6,2.6c1,0.6,2.1,0.9,3.3,0.9C506.2,918.1,508.4,914.2,508.4,906.4z"/>
	<path class="st6" d="M529.2,923.4c-1.8-1.8-2.7-4.5-2.7-7.9v-42.6l11.1-1.2v43.3c0,1.5,0.6,2.3,1.9,2.3c0.7,0,1.3-0.1,1.8-0.4
		l2.2,7.9c-2,0.8-4.3,1.3-6.7,1.3C533.5,926.2,531,925.2,529.2,923.4z"/>
	<path class="st6" d="M579.6,909.6h-23.1c0.4,3.1,1.3,5.3,2.7,6.6c1.4,1.3,3.3,1.9,5.8,1.9c1.5,0,2.9-0.3,4.3-0.8
		c1.4-0.5,2.9-1.4,4.6-2.5l4.6,6.2c-4.3,3.5-9.2,5.2-14.5,5.2c-6,0-10.7-1.8-13.9-5.3c-3.2-3.6-4.8-8.3-4.8-14.3
		c0-3.8,0.7-7.2,2-10.2c1.4-3,3.3-5.4,6-7.2c2.6-1.8,5.7-2.6,9.4-2.6c5.4,0,9.6,1.7,12.6,5c3,3.4,4.6,8,4.6,14
		C579.8,907.2,579.7,908.5,579.6,909.6z M568.9,902.5c-0.1-5.7-2.1-8.6-6-8.6c-1.9,0-3.4,0.7-4.5,2.1c-1.1,1.4-1.7,3.7-1.9,6.9h12.4
		V902.5z"/>
	<path class="st6" d="M625.7,887.7c2.1,0.7,4,1.9,5.8,3.4l-4.8,6.6c-2.3-1.8-4.7-2.7-7.1-2.7c-2.5,0-4.3,0.9-5.6,2.7
		c-1.3,1.8-1.9,4.8-1.9,8.8c0,3.9,0.6,6.7,1.9,8.3c1.3,1.6,3.1,2.5,5.5,2.5c1.3,0,2.4-0.2,3.4-0.6c1-0.4,2.3-1,3.7-1.9l4.8,6.9
		c-3.7,2.9-7.9,4.4-12.6,4.4c-3.8,0-7.1-0.8-9.8-2.4c-2.8-1.6-4.9-3.9-6.4-6.8c-1.5-2.9-2.2-6.3-2.2-10.3c0-3.9,0.7-7.4,2.2-10.4
		c1.5-3,3.6-5.4,6.4-7.1c2.8-1.7,6-2.6,9.6-2.6C621.3,886.5,623.6,886.9,625.7,887.7z"/>
	<path class="st6" d="M638.6,923.4c-1.8-1.8-2.7-4.5-2.7-7.9v-42.6l11.1-1.2v43.3c0,1.5,0.6,2.3,1.9,2.3c0.7,0,1.3-0.1,1.8-0.4
		l2.2,7.9c-2,0.8-4.3,1.3-6.7,1.3C642.9,926.2,640.4,925.2,638.6,923.4z"/>
	<path class="st6" d="M686.9,917.3c0.4,0.7,1,1.1,1.9,1.5l-2.3,7.2c-2.3-0.2-4.2-0.7-5.6-1.5c-1.4-0.8-2.6-2.1-3.4-3.9
		c-2.4,3.7-6.2,5.6-11.2,5.6c-3.7,0-6.6-1.1-8.8-3.2c-2.2-2.2-3.3-5-3.3-8.4c0-4.1,1.5-7.2,4.5-9.3c3-2.1,7.3-3.2,13-3.2h3.8v-1.6
		c0-2.2-0.5-3.7-1.4-4.5c-0.9-0.8-2.6-1.2-4.9-1.2c-1.2,0-2.7,0.2-4.4,0.5c-1.7,0.4-3.5,0.8-5.3,1.4l-2.5-7.3c2.3-0.9,4.7-1.6,7.2-2
		c2.5-0.5,4.7-0.7,6.8-0.7c5.3,0,9.2,1.1,11.7,3.3c2.5,2.2,3.7,5.5,3.7,9.9v14.4C686.3,915.6,686.5,916.6,686.9,917.3z M675.4,914.7
		v-6.6h-2.7c-2.5,0-4.4,0.4-5.6,1.3c-1.2,0.9-1.9,2.3-1.9,4.1c0,1.5,0.4,2.7,1.2,3.5c0.8,0.8,1.8,1.2,3.2,1.2
		C672,918.2,674,917,675.4,914.7z"/>
	<path class="st6" d="M728.5,872.9v52h-9.8l-0.6-4.3c-2.6,3.7-6.1,5.5-10.6,5.5c-4.6,0-8.1-1.8-10.6-5.3c-2.4-3.6-3.6-8.4-3.6-14.6
		c0-3.8,0.6-7.2,1.9-10.2c1.3-3,3-5.3,5.4-7c2.3-1.7,5-2.5,8-2.5c3.6,0,6.5,1.2,8.8,3.5v-18.3L728.5,872.9z M717.4,913.8v-16.1
		c-0.9-1.1-1.8-1.9-2.7-2.4c-0.9-0.5-2-0.8-3.1-0.8c-2.1,0-3.7,1-4.9,2.9c-1.2,1.9-1.8,4.9-1.8,8.8c0,4.3,0.5,7.4,1.6,9.1
		c1.1,1.7,2.6,2.6,4.5,2.6C713.5,918,715.7,916.6,717.4,913.8z"/>
	<path class="st6" d="M770.6,872.9v52h-9.8l-0.6-4.3c-2.6,3.7-6.1,5.5-10.6,5.5c-4.6,0-8.1-1.8-10.6-5.3c-2.4-3.6-3.6-8.4-3.6-14.6
		c0-3.8,0.6-7.2,1.9-10.2c1.3-3,3-5.3,5.4-7c2.3-1.7,5-2.5,8-2.5c3.6,0,6.5,1.2,8.8,3.5v-18.3L770.6,872.9z M759.5,913.8v-16.1
		c-0.9-1.1-1.8-1.9-2.7-2.4c-0.9-0.5-2-0.8-3.1-0.8c-2.1,0-3.7,1-4.9,2.9c-1.2,1.9-1.8,4.9-1.8,8.8c0,4.3,0.5,7.4,1.6,9.1
		c1.1,1.7,2.6,2.6,4.5,2.6C755.6,918,757.8,916.6,759.5,913.8z"/>
	<path class="st6" d="M789.5,869.9c1.2,1.2,1.9,2.7,1.9,4.5s-0.6,3.3-1.9,4.5c-1.2,1.2-2.8,1.8-4.7,1.8c-1.9,0-3.5-0.6-4.7-1.8
		c-1.2-1.2-1.8-2.7-1.8-4.5s0.6-3.3,1.8-4.5c1.2-1.2,2.8-1.8,4.7-1.8C786.6,868.1,788.2,868.7,789.5,869.9z M790.3,887.7V925h-11.1
		v-37.2H790.3z"/>
	<path class="st6" d="M828.4,889.5c1.8,2,2.7,4.7,2.7,8.3V925h-11.1v-25.3c0-1.9-0.3-3.2-0.9-3.9c-0.6-0.7-1.5-1.1-2.6-1.1
		c-2.2,0-4.4,1.6-6.5,4.8V925H799v-37.2h9.7l0.8,4.4c1.6-1.9,3.3-3.3,5.2-4.2c1.8-0.9,3.9-1.4,6.2-1.4
		C824.1,886.5,826.6,887.5,828.4,889.5z"/>
	<path class="st6" d="M873.8,889.9c-2.4,1-6,1.5-10.7,1.5c2.4,1,4.2,2.3,5.3,3.8c1.1,1.5,1.7,3.4,1.7,5.8c0,2.4-0.6,4.5-1.9,6.4
		c-1.3,1.9-3.1,3.4-5.4,4.5c-2.4,1.1-5.1,1.6-8.3,1.6c-1.5,0-2.9-0.1-4.3-0.4c-0.4,0.2-0.7,0.5-0.9,0.9s-0.3,0.8-0.3,1.2
		c0,0.7,0.3,1.3,0.8,1.6c0.5,0.4,1.6,0.6,3.3,0.6h5.6c2.9,0,5.4,0.5,7.5,1.4c2.1,0.9,3.8,2.2,5,3.9c1.2,1.6,1.8,3.5,1.8,5.5
		c0,3.9-1.7,6.9-5,9.1c-3.3,2.2-8.2,3.3-14.5,3.3c-4.5,0-8.1-0.5-10.7-1.4c-2.6-1-4.5-2.3-5.5-4c-1.1-1.7-1.6-3.9-1.6-6.5h10
		c0,1.1,0.2,2,0.7,2.7c0.4,0.7,1.3,1.1,2.4,1.5c1.2,0.3,2.9,0.5,5,0.5c3,0,5.1-0.4,6.3-1.1c1.2-0.7,1.8-1.8,1.8-3.1
		c0-1.1-0.4-2-1.3-2.7c-0.9-0.7-2.2-1-4-1H851c-3.8,0-6.7-0.7-8.6-2.1c-1.9-1.4-2.8-3.1-2.8-5.3c0-1.4,0.4-2.7,1.2-4
		c0.8-1.3,1.9-2.3,3.2-3.2c-2.3-1.3-4-2.7-5.1-4.5c-1.1-1.7-1.6-3.8-1.6-6.2c0-4.2,1.5-7.5,4.5-9.9c3-2.5,6.9-3.7,11.9-3.7
		c3.7,0.1,6.9-0.3,9.5-1.1c2.6-0.8,5.3-2.1,8-3.7L873.8,889.9z M849.8,895.5c-1,1.1-1.5,2.6-1.5,4.5c0,2,0.5,3.6,1.5,4.7
		c1,1.1,2.4,1.6,4.1,1.6c1.8,0,3.2-0.5,4.2-1.6c1-1.1,1.4-2.7,1.4-4.8c0-4-1.9-6-5.6-6C852.2,893.8,850.8,894.4,849.8,895.5z"/>
	<path class="st6" d="M924.3,891.8c3.2,3.5,4.8,8.4,4.8,14.6c0,4-0.7,7.4-2.2,10.4c-1.5,3-3.6,5.3-6.3,6.9s-6,2.5-9.7,2.5
		c-5.7,0-10.1-1.7-13.4-5.2c-3.2-3.5-4.9-8.4-4.9-14.6c0-4,0.7-7.4,2.2-10.4c1.5-3,3.6-5.3,6.3-6.9c2.7-1.6,6-2.5,9.7-2.5
		C916.6,886.5,921,888.3,924.3,891.8z M905.8,897.5c-1.1,1.9-1.7,4.8-1.7,8.8c0,4.1,0.5,7,1.6,8.9c1.1,1.9,2.8,2.8,5.1,2.8
		c2.2,0,3.9-0.9,5-2.8s1.7-4.8,1.7-8.8c0-4.1-0.5-7-1.6-8.9c-1.1-1.9-2.8-2.8-5.1-2.8C908.6,894.7,906.9,895.6,905.8,897.5z"/>
	<path class="st6" d="M965.1,889.5c1.8,2,2.7,4.7,2.7,8.3V925h-11.1v-25.3c0-1.9-0.3-3.2-0.9-3.9c-0.6-0.7-1.5-1.1-2.6-1.1
		c-2.2,0-4.4,1.6-6.5,4.8V925h-11.1v-37.2h9.7l0.8,4.4c1.6-1.9,3.3-3.3,5.2-4.2c1.8-0.9,3.9-1.4,6.2-1.4
		C960.7,886.5,963.2,887.5,965.1,889.5z"/>
	<path class="st6" d="M1040.6,887.7l-7.7,37.2h-13.3l-5-27.3l-4.9,27.3h-13.1l-7.9-37.2h11.2l3.9,29l5.8-29h10.8l5.1,29l4.5-29
		H1040.6z"/>
	<path class="st6" d="M1074.5,917.3c0.4,0.7,1,1.1,1.9,1.5l-2.3,7.2c-2.3-0.2-4.2-0.7-5.6-1.5c-1.4-0.8-2.6-2.1-3.4-3.9
		c-2.4,3.7-6.2,5.6-11.2,5.6c-3.7,0-6.6-1.1-8.8-3.2c-2.2-2.2-3.3-5-3.3-8.4c0-4.1,1.5-7.2,4.5-9.3c3-2.1,7.3-3.2,13-3.2h3.8v-1.6
		c0-2.2-0.5-3.7-1.4-4.5c-0.9-0.8-2.6-1.2-4.9-1.2c-1.2,0-2.7,0.2-4.4,0.5c-1.7,0.4-3.5,0.8-5.3,1.4l-2.5-7.3c2.3-0.9,4.7-1.6,7.2-2
		c2.5-0.5,4.7-0.7,6.8-0.7c5.3,0,9.2,1.1,11.7,3.3c2.5,2.2,3.7,5.5,3.7,9.9v14.4C1073.9,915.6,1074.1,916.6,1074.5,917.3z
		 M1063,914.7v-6.6h-2.7c-2.5,0-4.4,0.4-5.6,1.3c-1.2,0.9-1.9,2.3-1.9,4.1c0,1.5,0.4,2.7,1.2,3.5c0.8,0.8,1.8,1.2,3.2,1.2
		C1059.7,918.2,1061.6,917,1063,914.7z"/>
	<path class="st6" d="M1084.4,923.4c-1.8-1.8-2.7-4.5-2.7-7.9v-42.6l11.1-1.2v43.3c0,1.5,0.6,2.3,1.9,2.3c0.7,0,1.3-0.1,1.8-0.4
		l2.2,7.9c-2,0.8-4.3,1.3-6.7,1.3C1088.7,926.2,1086.2,925.2,1084.4,923.4z"/>
	<path class="st6" d="M1105.2,923.4c-1.8-1.8-2.7-4.5-2.7-7.9v-42.6l11.1-1.2v43.3c0,1.5,0.6,2.3,1.9,2.3c0.7,0,1.3-0.1,1.8-0.4
		l2.2,7.9c-2,0.8-4.3,1.3-6.7,1.3C1109.5,926.2,1107,925.2,1105.2,923.4z"/>
</g>
<g>
	<path class="st6" d="M409.2,838.5H399l-1.1-20c-0.3-5.9-0.5-11-0.5-15.2c0-2.3,0-3.9,0.1-4.9l-8.3,34.7h-9.9l-8.8-34.8
		c0.2,2.9,0.3,6.1,0.3,9.7c0,3.9-0.1,7.3-0.3,10.6l-1.1,19.7h-10.1l3.9-49.2h13.3l8.1,33.9l7.6-33.9h13.4L409.2,838.5z"/>
	<path class="st6" d="M446.6,831.2c0.4,0.6,1.2,1.2,2.2,1.5l-2.2,6.7c-2.3-0.2-4-0.8-5.4-1.5c-1.4-0.9-2.5-2.2-3.2-4
		c-2.5,3.8-6.3,5.7-11.3,5.7c-3.8,0-6.7-1.1-9-3.2c-2.2-2.2-3.3-5-3.3-8.4c0-4.1,1.5-7.2,4.4-9.5c3-2.2,7.2-3.2,12.8-3.2h4.3v-1.8
		c0-2.4-0.5-3.9-1.5-4.9c-1.1-0.9-2.8-1.4-5.2-1.4c-2.7,0-5.9,0.6-9.9,1.9l-2.3-6.8c4.6-1.8,9.4-2.8,13.9-2.8
		c5.1,0,8.8,1.1,11.3,3.3s3.7,5.5,3.7,9.8v15.2C445.9,829.5,446.1,830.6,446.6,831.2z M436,828.1V821h-3.3c-5.5,0-8.2,2-8.2,6.1
		c0,1.6,0.4,2.9,1.3,3.9c0.9,1,2,1.4,3.6,1.4C432.2,832.3,434.4,830.9,436,828.1z"/>
	<path class="st6" d="M479.2,800.3l-1.7,9.7c-1.3-0.3-2.5-0.5-3.3-0.5c-2.3,0-4,0.8-5.2,2.4c-1.2,1.5-2.2,3.9-2.9,7.1v19.4h-10.1
		v-37.6h8.7l1,7.3c0.9-2.7,2.3-4.7,4-6.1c1.7-1.5,3.7-2.2,5.8-2.2C476.6,799.7,477.8,800,479.2,800.3z"/>
	<path class="st6" d="M514.8,804.9c2.5,3.6,3.7,8.4,3.7,14.7c0,3.9-0.6,7.3-1.8,10.4c-1.2,3-2.9,5.4-5.2,7.1
		c-2.3,1.7-4.9,2.6-7.9,2.6c-4.1,0-7.4-1.6-9.9-4.9l-0.5,3.7h-9v-52.6l10.1-1.2v20.2c1.2-1.6,2.7-2.9,4.5-3.8c1.8-1,3.8-1.4,5.8-1.4
		C509,799.6,512.4,801.4,514.8,804.9z M507.9,819.6c0-4.6-0.5-7.9-1.7-9.7c-1.2-1.8-2.8-2.8-5-2.8c-2.7,0-5.1,1.6-7,4.9v16.2
		c1.6,2.7,3.8,4.1,6.5,4.1C505.6,832.1,507.9,828,507.9,819.6z"/>
	<path class="st6" d="M528.8,837c-1.7-1.7-2.6-4.3-2.6-7.6v-43.6l10.1-1.2v44.4c0,1.6,0.6,2.5,2,2.5c0.8,0,1.4-0.1,1.9-0.4l2,7.2
		c-1.9,0.9-4.1,1.3-6.5,1.3C532.9,839.5,530.5,838.7,528.8,837z"/>
	<path class="st6" d="M578.8,822.7h-23.5c0.3,3.5,1.3,5.8,2.8,7.2c1.5,1.4,3.6,2.2,6.1,2.2c1.6,0,3.1-0.2,4.5-0.8
		c1.4-0.5,2.9-1.4,4.6-2.5l4.2,5.7c-4.2,3.5-9,5.1-14.2,5.1c-5.9,0-10.5-1.7-13.6-5.3c-3.1-3.6-4.7-8.4-4.7-14.5
		c0-3.9,0.6-7.3,2-10.4c1.4-3,3.3-5.5,5.9-7.2c2.6-1.7,5.6-2.6,9.2-2.6c5.4,0,9.5,1.7,12.5,5.1c3,3.3,4.4,8.1,4.4,14
		C579,819.3,579,820.6,578.8,822.7z M569,815.9c0-6.3-2.3-9.4-6.8-9.4c-2,0-3.7,0.8-4.9,2.3c-1.2,1.5-1.8,4-2,7.6H569V815.9
		L569,815.9z"/>
	<path class="st6" d="M657.6,789.3l-8.6,49.2h-13.6l-6.8-38.4l-7.2,38.4h-13.2l-8.5-49.2h10.5l5.6,41.1l7.4-41.1h11l7.2,41.1
		l6.4-41.1H657.6z"/>
	<path class="st6" d="M690.8,831.2c0.4,0.6,1.2,1.2,2.2,1.5l-2.2,6.7c-2.3-0.2-4-0.8-5.4-1.5c-1.4-0.9-2.5-2.2-3.2-4
		c-2.5,3.8-6.3,5.7-11.3,5.7c-3.8,0-6.7-1.1-9-3.2c-2.2-2.2-3.3-5-3.3-8.4c0-4.1,1.5-7.2,4.4-9.5c3-2.2,7.2-3.2,12.8-3.2h4.3v-1.8
		c0-2.4-0.5-3.9-1.5-4.9c-1.1-0.9-2.8-1.4-5.2-1.4c-2.7,0-5.9,0.6-9.9,1.9l-2.3-6.8c4.6-1.8,9.4-2.8,13.9-2.8
		c5.1,0,8.8,1.1,11.3,3.3c2.5,2.3,3.7,5.5,3.7,9.8v15.2C690.1,829.5,690.4,830.6,690.8,831.2z M680.3,828.1V821H677
		c-5.5,0-8.2,2-8.2,6.1c0,1.6,0.4,2.9,1.3,3.9c0.9,1,2,1.4,3.6,1.4C676.4,832.3,678.7,830.9,680.3,828.1z"/>
	<path class="st6" d="M701.8,837c-1.7-1.7-2.6-4.3-2.6-7.6v-43.6l10.1-1.2v44.4c0,1.6,0.6,2.5,2,2.5c0.8,0,1.4-0.1,1.9-0.4l2,7.2
		c-1.9,0.9-4.1,1.3-6.5,1.3C705.9,839.5,703.5,838.7,701.8,837z"/>
	<path class="st6" d="M722.8,837c-1.7-1.7-2.6-4.3-2.6-7.6v-43.6l10.1-1.2v44.4c0,1.6,0.6,2.5,2,2.5c0.8,0,1.4-0.1,1.9-0.4l2,7.2
		c-1.9,0.9-4.1,1.3-6.5,1.3C726.9,839.5,724.6,838.7,722.8,837z"/>
	<path class="st6" d="M786.6,789.5c2.3,0.9,4.5,2.3,6.7,4l-5.2,6c-2.8-2.4-5.8-3.5-9-3.5c-3.6,0-6.3,1.4-8.3,4.3
		c-2,2.9-3.1,7.3-3.1,13.5c0,5.9,1.1,10.4,3.1,13.3c2,2.9,4.9,4.3,8.4,4.3c1.8,0,3.6-0.3,5.1-1.1c1.5-0.8,3.1-1.6,4.7-2.9l4.9,6
		c-1.7,1.8-3.9,3.2-6.5,4.4c-2.6,1.2-5.4,1.7-8.5,1.7c-4.4,0-8.3-1-11.5-3c-3.2-2-5.9-5-7.8-8.7c-1.8-3.8-2.8-8.5-2.8-14
		c0-5.4,1-9.9,2.8-13.8c1.9-3.9,4.5-6.8,7.8-8.8c3.3-2,7-3,11.2-3C781.6,788.1,784.3,788.6,786.6,789.5z"/>
	<path class="st6" d="M801,837c-1.7-1.7-2.6-4.3-2.6-7.6v-43.6l10.1-1.2v44.4c0,1.6,0.6,2.5,2,2.5c0.8,0,1.4-0.1,1.9-0.4l2,7.2
		c-1.9,0.9-4.1,1.3-6.5,1.3C805.1,839.5,802.8,838.7,801,837z"/>
	<path class="st6" d="M848.9,831.2c0.4,0.6,1.2,1.2,2.2,1.5l-2.2,6.7c-2.3-0.2-4-0.8-5.4-1.5c-1.4-0.9-2.5-2.2-3.2-4
		c-2.5,3.8-6.3,5.7-11.3,5.7c-3.8,0-6.7-1.1-9-3.2c-2.3-2.2-3.3-5-3.3-8.4c0-4.1,1.5-7.2,4.5-9.5c3-2.2,7.2-3.2,12.8-3.2h4.3v-1.8
		c0-2.4-0.5-3.9-1.5-4.9c-1.1-0.9-2.8-1.4-5.2-1.4c-2.7,0-5.9,0.6-9.9,1.9l-2.3-6.8c4.6-1.8,9.4-2.8,13.9-2.8
		c5.1,0,8.8,1.1,11.3,3.3c2.4,2.2,3.7,5.5,3.7,9.8v15.2C848.3,829.5,848.5,830.6,848.9,831.2z M838.5,828.1V821h-3.3
		c-5.5,0-8.2,2-8.2,6.1c0,1.6,0.4,2.9,1.3,3.9s2,1.4,3.6,1.4C834.6,832.3,836.9,830.9,838.5,828.1z"/>
	<path class="st6" d="M891,785.8v52.6h-8.8l-0.5-4.6c-2.7,3.9-6.3,5.7-10.8,5.7c-4.6,0-8.2-1.8-10.6-5.4c-2.5-3.6-3.7-8.4-3.7-14.6
		c0-3.9,0.6-7.3,1.8-10.4c1.3-3,3-5.4,5.4-7.1c2.4-1.7,5-2.6,8-2.6c3.5,0,6.6,1.3,9.2,3.8v-18.8L891,785.8z M877.6,830.9
		c1.2-0.8,2.3-1.8,3.2-3.5v-16.8c-1-1.2-2-2-3-2.7c-1-0.5-2.2-0.9-3.6-0.9c-2.4,0-4.1,1-5.4,3c-1.3,2-1.9,5.2-1.9,9.5
		c0,4.5,0.5,7.7,1.7,9.6s2.8,2.8,5,2.8C875.3,832.1,876.6,831.7,877.6,830.9z"/>
	<path class="st6" d="M933.6,785.8v52.6h-8.8l-0.5-4.6c-2.7,3.9-6.3,5.7-10.8,5.7c-4.6,0-8.2-1.8-10.6-5.4
		c-2.5-3.6-3.7-8.4-3.7-14.6c0-3.9,0.6-7.3,1.8-10.4c1.3-3,3-5.4,5.4-7.1c2.4-1.7,5-2.6,8-2.6c3.5,0,6.6,1.3,9.2,3.8v-18.8
		L933.6,785.8z M920.2,830.9c1.2-0.8,2.3-1.8,3.2-3.5v-16.8c-1-1.2-2-2-3-2.7c-1-0.5-2.2-0.9-3.6-0.9c-2.4,0-4.1,1-5.4,3
		c-1.3,2-1.9,5.2-1.9,9.5c0,4.5,0.5,7.7,1.7,9.6s2.8,2.8,5,2.8C917.8,832.1,919.1,831.7,920.2,830.9z"/>
	<path class="st6" d="M952.9,783c1.2,1.1,1.7,2.5,1.7,4.2c0,1.7-0.5,3.1-1.7,4.2s-2.6,1.6-4.4,1.6s-3.2-0.5-4.4-1.6
		c-1.2-1.1-1.7-2.5-1.7-4.2c0-1.7,0.5-3.1,1.7-4.2c1.2-1.1,2.6-1.6,4.4-1.6C950.3,781.4,951.7,781.9,952.9,783z M953.6,800.8v37.6
		h-10.1v-37.6H953.6z"/>
	<path class="st6" d="M992.3,802.7c1.8,2,2.8,4.7,2.8,8.3v27.4H985v-25.7c0-2-0.3-3.5-1.1-4.3c-0.6-0.9-1.7-1.3-3.1-1.3
		s-2.7,0.4-3.9,1.3s-2.3,2.2-3.3,4v26h-10.1v-37.6h8.7l0.8,4.7c1.5-1.9,3.2-3.5,5.2-4.4c1.8-1,4-1.5,6.4-1.5
		C987.9,799.6,990.5,800.7,992.3,802.7z"/>
	<path class="st6" d="M1038.4,802.9c-2.5,1-6,1.4-10.9,1.4c2.4,1.1,4.1,2.4,5.3,3.9c1.2,1.5,1.7,3.5,1.7,5.8c0,2.4-0.6,4.5-1.8,6.5
		c-1.3,1.9-3,3.5-5.4,4.5c-2.4,1.1-5.1,1.6-8.2,1.6c-1.6,0-3.1-0.2-4.4-0.5c-1,0.6-1.4,1.4-1.4,2.5c0,0.8,0.3,1.4,0.9,1.8
		c0.5,0.4,1.7,0.6,3.5,0.6h5.7c2.8,0,5.3,0.4,7.3,1.4c2.2,1,3.8,2.2,4.9,3.9c1.2,1.6,1.7,3.5,1.7,5.6c0,3.9-1.6,6.8-5,9
		c-3.3,2.2-8.1,3.2-14.2,3.2c-4.4,0-8-0.4-10.6-1.4c-2.6-1-4.4-2.3-5.4-4c-1.1-1.7-1.5-4-1.5-6.6h9.1c0,1.2,0.2,2.3,0.8,2.9
		c0.4,0.8,1.3,1.3,2.6,1.6s3,0.5,5.4,0.5c3.2,0,5.5-0.4,6.9-1.2c1.3-0.8,1.9-1.9,1.9-3.5c0-1.3-0.5-2.4-1.5-3
		c-1-0.8-2.5-1.1-4.4-1.1h-5.5c-3.8,0-6.6-0.6-8.4-2c-1.8-1.4-2.8-3.1-2.8-5.3c0-1.3,0.4-2.6,1.2-3.9c0.8-1.3,1.8-2.3,3.2-3.1
		c-2.4-1.3-4-2.8-5.1-4.5c-1.1-1.7-1.6-3.8-1.6-6.3c0-2.7,0.6-5.2,2-7.2c1.4-2,3.2-3.7,5.7-4.7c2.5-1.1,5.2-1.6,8.3-1.6
		c3.9,0.1,7.1-0.2,9.6-1c2.5-0.8,5.2-1.9,8-3.6L1038.4,802.9z M1014,808.3c-1.1,1.2-1.6,2.8-1.6,5c0,2.2,0.5,3.8,1.6,5.1
		c1.1,1.2,2.6,1.8,4.5,1.8c2,0,3.6-0.5,4.6-1.7c1.1-1.2,1.5-2.9,1.5-5.3c0-4.4-2-6.6-6.3-6.6C1016.6,806.4,1015.1,807,1014,808.3z"
		/>
</g>
</svg>
