<svg xmlns="http://www.w3.org/2000/svg" xmlns:xlink="http://www.w3.org/1999/xlink" preserveAspectRatio="xMidYMid" width="87" height="121" viewBox="0 0 87 121">
  <defs>
    <style>
      .cls-1 {
        fill: #fff;
        fill-rule: evenodd;
      }
    </style>
  </defs>
  <path d="M-0.003,120.999 L-0.003,0.001 L86.992,0.001 L86.992,120.999 L-0.003,120.999 ZM86.259,1.010 L0.729,1.010 L0.729,119.990 L86.259,119.990 L86.259,1.010 ZM15.819,82.922 C15.429,82.948 15.179,83.004 15.069,83.092 C14.959,83.179 14.905,83.301 14.905,83.458 C14.905,83.599 14.993,83.958 15.171,84.538 L16.707,89.579 L18.953,82.629 L19.308,82.629 L21.834,89.579 L23.148,84.984 C23.322,84.363 23.408,83.956 23.408,83.764 C23.408,83.203 23.110,82.922 22.513,82.922 L22.513,82.629 L24.861,82.629 L24.861,82.922 C24.514,82.948 24.257,83.076 24.087,83.309 C23.918,83.541 23.704,84.096 23.446,84.977 L21.555,91.495 L21.269,91.495 L18.648,84.358 L16.357,91.495 L16.053,91.495 L13.978,84.754 C13.791,84.141 13.657,83.734 13.575,83.532 C13.492,83.331 13.385,83.181 13.251,83.085 C13.118,82.989 12.897,82.935 12.588,82.922 L12.588,82.629 L15.819,82.629 L15.819,82.922 ZM22.396,97.976 C22.865,98.141 23.080,98.579 23.080,99.045 C23.080,99.482 22.876,99.995 22.345,100.159 C22.147,100.222 21.949,100.222 21.706,100.222 L20.553,100.222 L20.553,101.921 L20.039,101.921 L20.039,97.908 L21.762,97.908 C21.961,97.908 22.186,97.908 22.396,97.976 ZM20.553,99.750 L21.667,99.750 C21.972,99.750 22.181,99.750 22.362,99.568 C22.497,99.431 22.554,99.233 22.554,99.034 C22.554,98.898 22.531,98.681 22.345,98.522 C22.169,98.374 21.972,98.369 21.785,98.369 L20.553,98.369 L20.553,99.750 ZM29.086,98.152 C29.380,98.374 29.504,98.710 29.504,99.079 C29.504,100.017 28.753,100.148 28.560,100.182 L29.679,101.921 L29.047,101.921 L27.961,100.216 L26.933,100.216 L26.933,101.921 L26.413,101.921 L26.413,97.908 L27.893,97.908 C28.448,97.914 28.775,97.914 29.086,98.152 ZM26.933,99.772 L27.990,99.772 C28.159,99.772 28.317,99.772 28.476,99.733 C28.843,99.642 28.973,99.375 28.973,99.085 C28.973,98.982 28.962,98.710 28.736,98.522 C28.527,98.346 28.266,98.351 27.961,98.351 L26.933,98.351 L26.933,99.772 ZM33.602,82.922 L33.443,82.922 C33.024,82.922 32.749,82.957 32.618,83.028 C32.487,83.098 32.399,83.229 32.355,83.420 C32.310,83.612 32.288,84.067 32.288,84.786 L32.288,86.503 L32.293,86.503 L32.293,86.944 L32.288,86.944 L32.288,89.031 C32.288,89.712 32.305,90.157 32.339,90.368 C32.373,90.578 32.458,90.735 32.596,90.837 C32.733,90.939 32.995,90.990 33.380,90.990 L33.602,90.990 L33.602,91.284 L29.731,91.284 L29.731,90.990 L29.953,90.990 C30.321,90.990 30.576,90.944 30.718,90.850 C30.859,90.756 30.950,90.611 30.990,90.412 C31.030,90.215 31.051,89.754 31.051,89.031 L31.051,84.786 C31.051,84.096 31.030,83.652 30.990,83.452 C30.950,83.252 30.866,83.113 30.736,83.038 C30.608,82.960 30.325,82.922 29.889,82.922 L29.731,82.922 L29.731,82.629 L33.602,82.629 L33.602,82.922 ZM34.872,97.805 C35.991,97.805 36.878,98.568 36.878,99.875 C36.878,101.080 36.178,102.024 34.855,102.024 C33.640,102.024 32.860,101.165 32.860,99.915 C32.860,98.425 33.883,97.805 34.872,97.805 ZM34.878,101.603 C35.951,101.603 36.307,100.705 36.302,99.881 C36.296,98.909 35.793,98.238 34.872,98.238 C33.866,98.238 33.436,99.016 33.436,99.920 C33.436,100.762 33.849,101.603 34.878,101.603 ZM35.772,86.833 L35.772,87.161 C35.772,87.260 35.690,87.342 35.591,87.342 L33.406,87.342 C33.307,87.342 33.226,87.260 33.226,87.161 L33.226,86.833 C33.226,86.733 33.307,86.652 33.406,86.652 L35.591,86.652 C35.690,86.652 35.772,86.733 35.772,86.833 ZM35.398,90.990 L35.696,90.990 C36.060,90.990 36.312,90.944 36.455,90.850 C36.596,90.756 36.686,90.611 36.724,90.412 C36.762,90.215 36.781,89.754 36.781,89.031 L36.781,86.944 L36.774,86.944 L36.774,86.503 L36.781,86.503 L36.781,84.786 C36.781,84.096 36.762,83.652 36.724,83.452 C36.686,83.252 36.603,83.113 36.474,83.038 C36.344,82.960 36.062,82.922 35.627,82.922 L35.398,82.922 L35.398,82.629 L39.313,82.629 L39.313,82.922 L39.187,82.922 C38.763,82.922 38.486,82.957 38.355,83.028 C38.224,83.098 38.136,83.229 38.092,83.420 C38.048,83.612 38.025,84.067 38.025,84.786 L38.025,89.031 C38.025,89.712 38.041,90.157 38.073,90.368 C38.104,90.578 38.190,90.735 38.330,90.837 C38.469,90.939 38.732,90.990 39.117,90.990 L39.313,90.990 L39.313,91.284 L35.398,91.284 L35.398,90.990 ZM40.535,101.416 C40.778,101.290 40.778,101.058 40.778,100.625 L40.778,97.903 L41.321,97.903 L41.321,100.853 C41.321,101.160 41.321,101.433 41.089,101.688 C40.812,101.995 40.450,102.018 40.230,102.018 C39.953,102.018 39.784,101.978 39.693,101.961 L39.693,101.382 C39.806,101.444 39.965,101.495 40.162,101.495 C40.276,101.495 40.428,101.478 40.535,101.416 ZM31.227,71.100 L44.845,21.120 L49.294,21.120 L49.294,21.655 C48.237,21.738 47.405,22.625 47.405,23.709 C47.405,23.822 47.418,23.933 47.436,24.042 L56.537,57.482 L59.708,45.820 C59.720,45.730 59.729,45.638 59.729,45.545 C59.729,44.435 58.809,43.532 57.716,43.487 L57.716,42.873 L63.115,42.873 L55.525,71.102 L52.834,71.102 L43.485,36.533 L34.141,71.102 L31.227,71.100 ZM54.261,65.853 L55.152,62.576 L45.770,28.082 L44.890,31.335 L54.261,65.853 ZM48.441,82.922 L48.257,82.922 C47.834,82.922 47.556,82.957 47.425,83.028 C47.294,83.098 47.206,83.229 47.162,83.420 C47.118,83.612 47.096,84.067 47.096,84.786 L47.096,89.031 C47.096,89.712 47.112,90.157 47.143,90.368 C47.174,90.578 47.259,90.735 47.396,90.837 C47.534,90.939 47.797,90.990 48.187,90.990 L48.441,90.990 L48.441,91.284 L44.506,91.284 L44.506,90.990 L44.760,90.990 C45.128,90.990 45.383,90.944 45.525,90.850 C45.666,90.756 45.757,90.611 45.795,90.412 C45.832,90.215 45.851,89.754 45.851,89.031 L45.851,84.786 C45.851,84.096 45.832,83.652 45.795,83.452 C45.757,83.252 45.672,83.113 45.541,83.038 C45.410,82.960 45.126,82.922 44.690,82.922 L44.506,82.922 L44.506,82.629 L48.441,82.629 L48.441,82.922 ZM47.904,98.380 L45.666,98.380 L45.666,99.619 L47.610,99.619 L47.610,100.091 L45.666,100.091 L45.666,101.455 L47.972,101.455 L47.972,101.921 L45.151,101.921 L45.151,97.908 L47.904,97.908 L47.904,98.380 ZM53.255,97.805 C54.634,97.805 54.974,98.766 55.069,99.034 L54.533,99.147 C54.482,98.999 54.443,98.869 54.295,98.698 C54.103,98.459 53.753,98.232 53.250,98.232 C52.826,98.232 52.413,98.403 52.153,98.738 C51.899,99.057 51.820,99.477 51.820,99.886 C51.820,100.881 52.323,101.580 53.244,101.580 C53.838,101.580 54.443,101.245 54.567,100.398 L55.149,100.466 C54.979,101.228 54.340,102.024 53.182,102.024 C51.865,102.024 51.232,101.030 51.232,99.915 C51.232,98.778 51.882,97.805 53.255,97.805 ZM56.791,90.850 C56.933,90.756 57.023,90.611 57.064,90.412 C57.105,90.215 57.124,89.754 57.124,89.031 L57.124,82.922 L55.849,82.922 C55.294,82.922 54.922,82.949 54.732,83.003 C54.542,83.056 54.363,83.216 54.195,83.484 C54.029,83.752 53.901,84.160 53.812,84.710 L53.519,84.710 L53.564,82.629 L61.916,82.629 L61.960,84.710 L61.687,84.710 C61.590,84.140 61.457,83.728 61.288,83.474 C61.118,83.221 60.936,83.066 60.741,83.009 C60.547,82.951 60.215,82.922 59.746,82.922 L58.362,82.922 L58.362,89.031 C58.362,89.708 58.378,90.152 58.409,90.364 C58.441,90.578 58.527,90.735 58.666,90.837 C58.806,90.939 59.068,90.990 59.453,90.990 L59.872,90.990 L59.872,91.284 L55.582,91.284 L55.582,90.990 L56.026,90.990 C56.395,90.990 56.649,90.944 56.791,90.850 ZM60.778,98.374 L59.585,98.374 L59.585,101.921 L59.048,101.921 L59.048,98.374 L57.850,98.374 L57.850,97.903 L60.778,97.903 L60.778,98.374 ZM64.559,101.342 C64.785,101.541 65.085,101.609 65.379,101.609 C65.944,101.609 66.373,101.329 66.373,100.807 C66.373,100.341 66.006,100.216 65.616,100.137 L65.283,100.068 C64.706,99.949 63.858,99.756 63.858,98.926 C63.858,98.527 64.073,98.278 64.226,98.146 C64.582,97.840 65.017,97.805 65.294,97.805 C65.577,97.805 66.006,97.834 66.368,98.101 C66.763,98.391 66.842,98.800 66.882,99.045 L66.345,99.079 C66.340,98.954 66.323,98.636 66.023,98.414 C65.820,98.266 65.565,98.221 65.311,98.221 C64.831,98.221 64.407,98.419 64.407,98.852 C64.407,99.296 64.848,99.398 65.192,99.477 L65.633,99.591 C65.938,99.665 66.102,99.699 66.260,99.767 C66.859,100.017 66.950,100.500 66.950,100.767 C66.950,101.142 66.797,101.495 66.441,101.739 C66.057,102.000 65.599,102.024 65.356,102.024 C64.994,102.024 63.757,101.967 63.666,100.641 L64.237,100.568 C64.243,100.722 64.259,101.075 64.559,101.342 ZM57.546,71.102 L65.128,42.873 L70.312,42.873 L70.312,43.506 C68.949,43.652 67.521,44.576 67.066,45.827 L67.066,45.827 L60.216,71.102 L57.546,71.102 ZM68.096,90.818 C68.220,90.703 68.299,90.557 68.333,90.380 C68.367,90.204 68.384,89.754 68.384,89.031 L68.384,84.786 C68.384,84.126 68.366,83.692 68.330,83.484 C68.294,83.276 68.212,83.130 68.083,83.047 C67.954,82.964 67.682,82.922 67.267,82.922 L67.267,82.629 L73.417,82.629 L73.620,84.786 L73.321,84.786 C73.186,84.181 73.020,83.753 72.824,83.500 C72.626,83.247 72.392,83.087 72.122,83.021 C71.851,82.955 71.415,82.922 70.815,82.922 L69.622,82.922 L69.622,86.555 L70.536,86.555 C70.954,86.555 71.247,86.518 71.414,86.446 C71.581,86.374 71.691,86.263 71.744,86.116 C71.797,85.970 71.824,85.684 71.824,85.259 L72.122,85.259 L72.122,88.220 L71.824,88.220 C71.824,87.739 71.783,87.417 71.703,87.253 C71.622,87.089 71.505,86.983 71.351,86.934 C71.196,86.885 70.935,86.861 70.567,86.861 L69.622,86.861 L69.622,88.909 C69.622,89.935 69.687,90.538 69.818,90.719 C69.949,90.899 70.302,90.990 70.878,90.990 L71.519,90.990 C71.972,90.990 72.344,90.932 72.636,90.815 C72.928,90.697 73.206,90.457 73.471,90.093 C73.735,89.729 73.943,89.229 74.096,88.590 L74.400,88.590 L74.216,91.284 L67.089,91.284 L67.089,90.990 L67.267,90.990 C67.695,90.990 67.971,90.933 68.096,90.818 ZM26.764,71.102 L26.764,71.100 L26.756,71.100 L19.886,45.740 C19.399,44.534 18.007,43.649 16.677,43.506 L16.677,42.873 L21.850,42.873 L28.092,66.210 L29.121,62.418 L23.863,42.873 L29.272,42.873 L29.272,43.487 C28.180,43.532 27.260,44.435 27.260,45.545 C27.260,45.640 27.269,45.734 27.281,45.827 L27.270,45.827 L30.446,57.536 L39.530,24.074 L39.524,24.074 C39.546,23.956 39.558,23.834 39.558,23.709 C39.558,22.603 38.691,21.703 37.604,21.652 L37.604,21.120 L43.059,21.120 L29.426,71.100 L26.764,71.102 Z" class="cls-1"/>
</svg>
